<?xml version="1.0" encoding="utf-8"?>
<!-- Generator: Adobe Illustrator 21.1.0, SVG Export Plug-In . SVG Version: 6.00 Build 0)  -->
<svg version="1.1" xmlns="http://www.w3.org/2000/svg" xmlns:xlink="http://www.w3.org/1999/xlink" x="0px" y="0px"
	 viewBox="0 0 858.1 858.1" style="enable-background:new 0 0 858.1 858.1;" xml:space="preserve">
<style type="text/css">
	.st0{fill:#A9D7F3;}
	.st1{fill:#FFFFFF;}
	.st2{fill:#E7F0F8;}
	.st3{fill:#F7C108;}
	.st4{fill:#26A4FB;}
	.st5{fill:#2300B1;}
	.st6{fill:#8769B8;}
	.st7{fill:#D0EDFC;}
	.st8{fill:#150077;}
	.st9{fill:#F7FAFF;}
	.st10{fill:#B8EBF4;}
	.st11{fill:#7ADCFB;}
	.st12{fill:#F8C208;}
	.st13{fill:#8C66B9;}
	.st14{fill:#FFB1DF;}
	.st15{fill:#FF6FCA;}
	.st16{fill:#FF4D76;}
	.st17{fill:#A1DCFF;}
	.st18{fill:#2E7DFB;}
	.st19{fill:#23AFFC;}
	.st20{fill:#F6C50A;}
	.st21{fill:#FFDE17;}
	.st22{fill:#3400B1;}
	.st23{fill:#5AB2F9;}
	.st24{fill:#DBF4F9;}
	.st25{fill:#34ACFC;}
	.st26{fill:#98E3F4;}
	.st27{fill:#F183C1;}
	.st28{fill:#4377FB;}
	.st29{fill:#EE80BE;}
	.st30{opacity:0.53;}
	.st31{fill:#FFDA73;}
	.st32{fill:#210077;}
	.st33{fill:#38A0FB;}
	.st34{fill:#E8F1F9;}
	.st35{fill:#EEF3FA;}
	.st36{fill:#CCE0FF;}
	.st37{fill:#F2F9FC;}
	.st38{fill:#F955AF;}
	.st39{fill:#FF90C8;}
	.st40{fill:#8869B9;}
	.st41{fill:#FEA700;}
	.st42{clip-path:url(#SVGID_4_);}
	.st43{opacity:0.57;}
	.st44{clip-path:url(#SVGID_6_);}
	.st45{clip-path:url(#SVGID_8_);}
	.st46{fill:#86A2F8;}
	.st47{fill:#FFACEA;}
	.st48{fill:#EF80BF;}
	.st49{fill:#F774BC;}
	.st50{fill:#15203D;}
	.st51{fill:#FFFEFE;}
	.st52{fill:#A2DDFF;}
	.st53{fill:#EBF6FC;}
	.st54{fill:#E2FBFF;}
	.st55{fill:#CAD9FC;}
	.st56{fill:#9DE4F4;}
	.st57{fill:#C4E6FF;}
	.st58{fill:#EBF7FF;}
	.st59{fill:#BDECFD;}
	.st60{fill:#FFB6E4;}
	.st61{fill:#FDC401;}
	.st62{fill:#CCD8FC;}
	.st63{fill:#E58200;}
	.st64{fill:#FAF8FF;}
	.st65{fill:#577DE8;}
	.st66{fill:#D7F1FF;}
	.st67{fill:#B5E6FF;}
	.st68{fill:#5097FF;}
	.st69{fill:#C6E6FF;}
	.st70{fill:#FFA300;}
	.st71{fill:#FCFAEB;}
	.st72{fill:#80A4F7;}
	.st73{fill:#FDE4E8;}
	.st74{fill:#C0F3FF;}
	.st75{fill:#80A5F8;}
	.st76{clip-path:url(#SVGID_14_);}
	.st77{clip-path:url(#SVGID_16_);}
	.st78{clip-path:url(#SVGID_18_);}
	.st79{fill:#F0FBFC;}
	.st80{fill:#C5EFF9;}
	.st81{fill:#FFA400;}
	.st82{fill:none;}
	.st83{fill:#CAE9F9;}
</style>
<g id="Layer_1">
</g>
<g id="Layer_2">
	<g>
		<path class="st0" d="M253.2,688.1C62.4,532.5-19.4,409.6,26.6,362.2s195.6-16.8,260.5-113.8S414.1,93,500,102.8
			s364.6,185.2,344.3,375.6S604.9,783.9,527.3,784.3C449.8,784.7,296.5,723.4,253.2,688.1z"/>
		<path class="st0" d="M147.2,242.3c-25.8-6.3-9.2-73,30.4-96.1s96.7-32,115.1-22.4C311.2,133.6,217.2,259.6,147.2,242.3z"/>
	</g>
	<g>
		<g>
			<g>
				<g>
					<g>
						<path class="st11" d="M159.9,359.8c-0.1,0.3-0.1,0.6-0.1,0.9c-0.3-0.1-0.6-0.2-0.8-0.2c-4.3-1.2-12.7,45.7-13.2,50.1
							c-1.7,18.7-0.2,37.7,4.4,55.8c9.9,38.9,33,73.3,70.6,89.9c17.4,7.7,47.9,15.9,64.5,2.3c18.8-15.3,20-54.7,16.5-76.4
							c-5.8-35.8-15.7-61.6-44.3-85.2C230.1,374.5,195.4,360.7,159.9,359.8z"/>
					</g>
				</g>
			</g>
			<g>
				<g>
					<g>
						<path class="st64" d="M284,559.5c-5.3-7.5-10.8-15.5-16.3-23.6c-27-39.2-53.6-79.3-79.2-119.1c-3.6-5.6-7.2-11.3-10.8-16.9
							c-7.4-11.6-15.7-24.7-20.2-39.1l1.6-0.5c4.4,14.2,12.7,27.3,20,38.8c3.6,5.6,7.2,11.3,10.8,16.9c25.6,39.8,52.2,79.9,79.2,119
							c5.6,8.1,11.1,16,16.3,23.5L284,559.5z"/>
					</g>
				</g>
			</g>
			<g>
				<g>
					<g>
						<path class="st64" d="M189.9,416.7l-1.6-0.2c0-0.1,0-0.2,0-0.3c1.8-17,4.5-34.2,8-50.9l1.6,0.3c-3.5,16.7-6.2,33.8-8,50.8
							C190,416.6,190,416.7,189.9,416.7z"/>
					</g>
				</g>
			</g>
			<g>
				<g>
					<g>
						<path class="st64" d="M241.1,498.8c-25.4,3.8-51.3,5.3-77,4.6l0-1.6c25.6,0.7,51.4-0.8,76.8-4.6L241.1,498.8z"/>
					</g>
				</g>
			</g>
			<g>
				<g>
					<g>
						<path class="st64" d="M268.5,536.6l-1.3-1l0.1-0.1c0.1-0.2,0.2-0.3,0.4-0.5c13.6-17.8,24.4-37.6,32.2-58.8l1.5,0.6
							c-7.9,21.3-18.8,41.2-32.5,59.2c-0.1,0.2-0.2,0.3-0.4,0.5L268.5,536.6z"/>
					</g>
				</g>
			</g>
		</g>
		<g>
			<g>
				<g>
					<g>
						<path class="st11" d="M396.4,678.1c-22.9-59.3-72-106.3-128.7-135C211,514.2,147,502.3,83.5,498.9
							c6.9,51.5,26.4,105.5,56.9,148.9c26.6,45.7,63.9,77.1,115.3,89.4c36.7,8.8,87.1,13.6,123.2-1.3c6.6-2.7,13.1-6.5,17.4-12.3
							C405.9,711,402.2,692.9,396.4,678.1z"/>
					</g>
				</g>
			</g>
			<g>
				<g>
					<g>
						<path class="st11" d="M85.7,499c44.9,49.9,101.4,87.9,156.2,124.7l64,43l2.6,1.7l85.9,57.7l-2,2l0,0L240.3,626
							c-4.8-3.2-9.5-6.4-14.3-9.6c-0.8-0.5-1.6-1.1-2.4-1.6c-49.5-33.4-99.3-68.7-139.8-113.7l0,0L85.7,499z"/>
					</g>
				</g>
			</g>
			<g>
				<g>
					<g>
						<path class="st11" d="M173.8,510.5c0.9,21.4,1.1,42.8,0.5,64.1l-2.8-0.1c0.6-21.4,0.4-43.1-0.6-64.6L173.8,510.5z"/>
					</g>
				</g>
			</g>
			<g>
				<g>
					<g>
						<path class="st11" d="M131.8,634.9l94.3-17.7l-0.1-0.8l-0.4-2l-2,0.4l-93.4,17.5L131.8,634.9z"/>
					</g>
				</g>
			</g>
			<g>
				<g>
					<g>
						<path class="st11" d="M313.1,571.3c2.7,32.4,1.2,65.3-4.6,97.1c-0.1,0.5-0.2,0.9-0.3,1.4l-2.8-0.5c0.2-0.9,0.3-1.7,0.5-2.6
							c5.7-32,7.1-65.1,4.2-97.7L313.1,571.3z"/>
					</g>
				</g>
			</g>
		</g>
		<g>
			<g>
				<g>
					<g>
						<rect x="450.8" y="597.9" class="st8" width="125.2" height="147.2"/>
					</g>
				</g>
				<g>
					<g>
						<g>
							<rect x="450.8" y="597.9" class="st8" width="125.2" height="50.4"/>
						</g>
					</g>
				</g>
			</g>
			<g>
				<g>
					<g>
						<path class="st8" d="M748.8,622H262.7c-5.3,0-9.7-4.3-9.7-9.7V302.4c0-5.3,4.3-9.7,9.7-9.7h486.1c5.3,0,9.7,4.3,9.7,9.7v309.9
							C758.5,617.6,754.1,622,748.8,622z"/>
					</g>
				</g>
			</g>
			<g>
				<g>
					<g>
						<rect x="374" y="729.6" class="st8" width="278.9" height="15.5"/>
					</g>
				</g>
			</g>
		</g>
		<g>
			<g>
				<rect x="459.3" y="597.9" class="st4" width="125.2" height="147.2"/>
			</g>
		</g>
		<g>
			<g>
				<g>
					<rect x="459.3" y="597.9" class="st8" width="125.2" height="50.4"/>
				</g>
			</g>
		</g>
		<g>
			<g>
				<g>
					<path class="st4" d="M764.9,622H278.8c-5.3,0-9.7-4.3-9.7-9.7V302.4c0-5.3,4.3-9.7,9.7-9.7h486.1c5.3,0,9.7,4.3,9.7,9.7v309.9
						C774.6,617.6,770.3,622,764.9,622z"/>
				</g>
			</g>
		</g>
		<g>
			<g>
				<g>
					<rect x="284.7" y="312.1" class="st17" width="475.8" height="270.4"/>
				</g>
			</g>
		</g>
		<g>
			<g>
				<g>
					<rect x="284.7" y="312.1" class="st1" width="475.8" height="40.7"/>
				</g>
			</g>
		</g>
		<g>
			<g>
				<g>
					<path class="st35" d="M683.6,341.1v216.9c0,2.1-1.7,3.9-3.9,3.9H402.8c-2.1,0-3.9-1.7-3.9-3.9V341.1c0-2.1,1.7-3.9,3.9-3.9
						h276.9C681.8,337.3,683.6,339,683.6,341.1z"/>
				</g>
			</g>
		</g>
		<g>
			<g>
				<g>
					<g>
						<rect x="417" y="467.2" class="st36" width="129.2" height="9"/>
					</g>
				</g>
			</g>
			<g>
				<g>
					<g>
						<rect x="417" y="485.5" class="st36" width="129.2" height="9"/>
					</g>
				</g>
			</g>
			<g>
				<g>
					<g>
						<rect x="417" y="503.7" class="st36" width="129.2" height="9"/>
					</g>
				</g>
			</g>
			<g>
				<g>
					<g>
						<rect x="417" y="522.8" class="st36" width="72.9" height="7.4"/>
					</g>
				</g>
			</g>
		</g>
		<g>
			<g>
				<g>
					<g>
						<rect x="419.6" y="374.2" class="st36" width="129.2" height="9"/>
					</g>
				</g>
			</g>
			<g>
				<g>
					<g>
						<rect x="419.6" y="392.5" class="st36" width="129.2" height="9"/>
					</g>
				</g>
			</g>
			<g>
				<g>
					<g>
						<rect x="419.6" y="410.8" class="st36" width="129.2" height="9"/>
					</g>
				</g>
			</g>
			<g>
				<g>
					<g>
						<rect x="419.6" y="429.9" class="st36" width="72.9" height="7.4"/>
					</g>
				</g>
			</g>
		</g>
		<g>
			<g>
				<g>
					<path class="st36" d="M683.6,341.1v20.5H398.9v-20.5c0-2.1,1.7-3.9,3.9-3.9h276.9C681.8,337.3,683.6,339,683.6,341.1z"/>
				</g>
			</g>
		</g>
		<g>
			<g>
				<g>
					<rect x="382.4" y="729.6" class="st4" width="278.9" height="15.5"/>
				</g>
			</g>
		</g>
		<g>
			<g id="XMLID_17_">
				<g>
					<g>
						<g>
							<path class="st65" d="M627.6,375.8c-15,0-27.1,12.1-27.1,27.1c0,4.9,1.3,9.6,3.6,13.6c4.7-8.1,13.5-13.6,23.5-13.6
								s18.8,5.4,23.5,13.6c2.3-4,3.6-8.6,3.6-13.6C654.7,387.9,642.5,375.8,627.6,375.8z M627.6,397.7c-3.9,0-7.1-3.2-7.1-7.1
								c0-3.9,3.2-7.1,7.1-7.1c3.9,0,7.1,3.2,7.1,7.1C634.7,394.5,631.5,397.7,627.6,397.7z"/>
						</g>
					</g>
					<g>
						<g>
							<path class="st66" d="M627.6,402.9c-10,0-18.8,5.4-23.5,13.6c4.7,8.1,13.5,13.6,23.5,13.6s18.8-5.4,23.5-13.6
								C646.4,408.3,637.6,402.9,627.6,402.9z"/>
						</g>
					</g>
					<g>
						<g>
							<circle class="st66" cx="627.6" cy="390.6" r="7.1"/>
						</g>
					</g>
				</g>
			</g>
		</g>
		<g>
			<g>
				<g>
					<rect x="578.1" y="464.9" class="st67" width="81.3" height="74.9"/>
				</g>
			</g>
		</g>
		<g>
			<g>
				<g>
					<g>
						<path class="st64" d="M708.8,570.9c-1.3-6-1.4-13.9-7.3-17.8c-4.4-2.9-8.8,1.8-10.9,5.3c-6.8,11.2,0,30.5,8.8,39.1
							c1.4,1.4,3.4,2.6,5.3,2c2.2-0.7,3.1-3.4,3.4-5.6C709.1,587.5,710.1,577.3,708.8,570.9z"/>
					</g>
				</g>
			</g>
			<g>
				<g>
					<g>
						<g>
							<g>
								<g>
									<g>
										<g>
											<g>
												<g>
													<path class="st3" d="M652.6,756.3h21.9c0-0.8,0-1.7,0-2.6c0-1,0-2.1,0-3l0-18H661l1.5,13.1c0,0.1-4.6,3.6-7.5,5.9
														c-0.7,0.6-1.3,1.2-1.7,2C652.9,754.5,652.7,755.4,652.6,756.3z"/>
												</g>
											</g>
										</g>
									</g>
								</g>
							</g>
						</g>
					</g>
				</g>
			</g>
			<g>
				<g>
					<g>
						<g>
							<g>
								<g>
									<g>
										<g>
											<g>
												<g>
													<path class="st29" d="M651.7,756.3h23.5c0-1.2,0-2.5,0-3.8h-19.5C653.6,752.5,651.8,754.2,651.7,756.3L651.7,756.3z"/>
												</g>
											</g>
										</g>
									</g>
								</g>
							</g>
						</g>
					</g>
				</g>
			</g>
			<g>
				<g>
					<g>
						<g>
							<g>
								<g>
									<g>
										<g>
											<g>
												<g>
													<path class="st3" d="M675.2,756.3h21.9c0-0.8,0-1.7,0-2.6c0-1,0-2.1,0-3l0-18h-13.5l1.5,13.1c0,0.1-4.6,3.6-7.5,5.9
														c-0.7,0.6-1.3,1.2-1.7,2C675.5,754.5,675.3,755.4,675.2,756.3z"/>
												</g>
											</g>
										</g>
									</g>
								</g>
							</g>
						</g>
					</g>
				</g>
			</g>
			<g>
				<g>
					<g>
						<g>
							<g>
								<g>
									<g>
										<g>
											<g>
												<g>
													<path class="st29" d="M674.3,756.3h23.5c0-1.2,0-2.5,0-3.8h-19.5C676.2,752.5,674.4,754.2,674.3,756.3L674.3,756.3z"/>
												</g>
											</g>
										</g>
									</g>
								</g>
							</g>
						</g>
					</g>
				</g>
			</g>
			<g>
				<g>
					<g>
						<path class="st68" d="M707.9,631.1c0,9.7-1,19.4-2,29.1c-1.4,13.5-2.9,26.9-4.5,40.3c-0.8,6.9-1.6,13.7-2.4,20.6
							c-0.4,3.1,0,15.3-2.6,16.8c-0.8,0.4-1.7,0.5-2.6,0.5c-4.4,0.2-8.8-0.3-13-1.4c-0.3-0.1-0.7-0.2-0.9-0.4
							c-0.2-0.2-0.2-0.6-0.2-0.9c-0.5-6.8,1.4-13.1,1.5-19.8c0.1-7.5-0.5-14.9-1.2-22.3c-1.4-14.9-3.6-29.8-3.2-44.9
							c0.5-17.9,4.7-35.4,8.9-52.8c1.2-5.1,6.6-9.5,11.1-4.8c3,3.1,5.3,8.7,6.9,13.5c0.6,1.7,1,3.3,1.5,4.7
							c1.1,3.6,1.8,7.2,2.2,10.9C707.8,623.9,707.9,627.5,707.9,631.1z"/>
					</g>
				</g>
			</g>
			<g>
				<g>
					<g>
						<path class="st23" d="M694,595.5c-0.4-1.2-1-2.3-1.6-3.3c-0.4-0.7-0.9-1.4-1.6-1.9c-0.7-0.5-1.6-0.7-2.5-0.8
							c-6-0.9-12.6,0.1-17.7,3.3c-0.5,1.2-0.9,2.5-1.3,3.7c-1.1,3.4-2.3,6.8-3.3,10.3c-1.6,5.5-3,11-4.4,16.5
							c-4.8,35.6-3.6,85.4-2,115c5.4,0.7,11,0.7,16.4-0.1c5.2-10,8.6-35.9,8.9-47.1c0.4-14.5,0-28.8,3.7-43c1.2-4.5,2.8-8.9,4-13.4
							C695.2,624.4,698.2,606.6,694,595.5z"/>
					</g>
				</g>
			</g>
			<g>
				<g>
					<g>
						<g>
							<g>
								<g>
									<g>
										<g>
											<g>
												<g>
													<path class="st8" d="M686,542.7L686,542.7c2.6,0,4.7-2.1,4.7-4.7v-3.6H686V542.7z"/>
												</g>
											</g>
										</g>
									</g>
								</g>
							</g>
						</g>
					</g>
				</g>
			</g>
			<g>
				<g>
					<g>
						<g>
							<g>
								<g>
									<g>
										<g>
											<g>
												<g>
													<polygon class="st3" points="680,549.7 680,537.3 684.4,536.3 686.9,535.8 688.2,549.5 688.1,549.7 													"/>
												</g>
											</g>
										</g>
									</g>
								</g>
							</g>
						</g>
					</g>
				</g>
			</g>
			<g>
				<g>
					<g>
						<g>
							<g>
								<g>
									<g>
										<g>
											<g>
												<g>
													<path class="st8" d="M685.9,534.8v1.1c0,0.8-0.1,1.5-0.3,2.2c-0.8,2.5-2.9,4.4-5.5,5v-7.3l4.4-1H685.9z"/>
												</g>
											</g>
										</g>
									</g>
								</g>
							</g>
						</g>
					</g>
				</g>
			</g>
			<g>
				<g>
					<g>
						<g>
							<g>
								<g>
									<g>
										<g>
											<g>
												<g>
													<path class="st3" d="M671.9,534c-0.2,0.6-0.2,1.2-0.3,1.7c-0.4,4.3,1.3,8.1,5.3,9.1c2.3,0.6,4.7,0.1,6.6-1.2
														c1.8-1.2,3.3-3.2,3.9-5.6c0.2-0.6,0.5-2.1,0.5-2.7c0,0,0,0,0-0.1c0.3-4.3-2.2-8.2-6.1-9.2c-2.1-0.5-4.2-0.2-6,0.9
														c0,0-0.1,0.1-0.1,0.1C673.7,528.3,672.6,531.4,671.9,534z"/>
												</g>
											</g>
										</g>
									</g>
								</g>
							</g>
						</g>
					</g>
				</g>
			</g>
			<g>
				<g>
					<g>
						<g>
							<g>
								<g>
									<g>
										<g>
											<g>
												<g>
													<path class="st8" d="M670.7,530.3c-0.5-0.2-1-0.5-1.4-0.8c-0.9-0.8-1.4-2.3-0.7-3.3c0.7-1.3,2.5-1.4,3.9-1.1
														c3.9,0.7,7.9,0.8,11.9,0.7c3.5,0,6.3,2.8,6.3,6.3v4.2l-3-1.6c0,0.5-0.1,1.1-0.2,1.6c0-0.2-2.7,1.2-3.1,1.6
														c-2.5-2.1-3.8-5.6-7.2-6.5c-1.5-0.4-3-0.4-4.6-0.6C672,530.7,671.3,530.5,670.7,530.3z"/>
												</g>
											</g>
										</g>
									</g>
								</g>
							</g>
						</g>
					</g>
				</g>
			</g>
			<g>
				<g>
					<g>
						<g>
							<g>
								<g>
									<g>
										<g>
											<g>
												<g>
													<ellipse class="st8" cx="687.3" cy="537.9" rx="3.2" ry="3.2"/>
												</g>
											</g>
										</g>
									</g>
								</g>
							</g>
						</g>
					</g>
				</g>
			</g>
			<g>
				<g>
					<g>
						<g>
							<g>
								<g>
									<g>
										<g>
											<g>
												<g>
													<ellipse class="st3" cx="686.5" cy="537" rx="3.2" ry="3.2"/>
												</g>
											</g>
										</g>
									</g>
								</g>
							</g>
						</g>
					</g>
				</g>
			</g>
			<g>
				<g>
					<g>
						<g>
							<g>
								<g>
									<g>
										<g>
											<g>
												<g>
													<path class="st8" d="M690.2,531.9c1.5,0.7,4.3-0.2,5.4-1.4c0.3-0.3,0.5-0.7,0.6-1.2c0.7-2.3,0.1-4.9-1.6-6.6
														c-1.7-1.7-4.3-2.3-6.6-1.7c-1.1,0.3-2.2,1-2.8,2c-1,1.6-0.8,3.7,0.3,5.2c1.1,1.5,3,2.3,4.8,2.4
														C691.3,530.7,689.2,531.6,690.2,531.9L690.2,531.9z"/>
												</g>
											</g>
										</g>
									</g>
								</g>
							</g>
						</g>
					</g>
				</g>
			</g>
			<g>
				<g>
					<g>
						<g>
							<g>
								<g>
									<g>
										<g>
											<g>
												<g>
													<g>
														<g>
															<path class="st3" d="M657,575.1c8.5-2,16.9-5.6,23.3-11.7c1.7-1.6,3.2-3.4,3.8-5.5c0.6-2,0.1-5.5-1.8-6.9
																c-0.2-0.2-0.5-0.3-0.8-0.4c-2.6-1.2-6.8-0.1-9.2,0.7c-12.2,3.8-22.7,12.7-35.5,13.8c-0.2-1-0.5-2-0.7-3
																c-0.5-2.3-1.1-4.7-1.8-7c-1-3.7-2-7.3-3.1-11c-0.3-1-0.6-1.9-0.8-2.9c-0.9-3-1.2-6.4-2.7-9.2c-0.3-0.7-0.7-1.4-1.1-2
																c-1.4-2.2-3.2-4.3-5.2-6c-0.3-0.2-1-0.7-1.3-0.8l0,0c-0.2,0-0.3,0.2-0.1,0.4c1.8,1.7,3.3,3.8,4.5,6
																c0.1,0.1,0,0.3-0.1,0.3c-0.1,0.1-0.3,0-0.3-0.1c-1.2-2.3-2.8-4.4-4.7-6.2c-0.1-0.1-0.2-0.1-0.3,0
																c-0.1,0-0.1,0.1-0.2,0.1c-0.1,0.1-0.1,0.2,0,0.3c1.6,1.6,3.1,3.7,4.4,6.3c0.1,0.1,0,0.3-0.1,0.3
																c-0.1,0.1-0.3,0-0.3-0.1c-1.3-2.5-2.7-4.5-4.3-6.1c-0.1-0.1-0.2-0.1-0.3,0c-0.1,0.1-0.2,0.2-0.2,0.4
																c0,0.1,0,0.2,0,0.2c1.5,1.7,3.1,3.8,4,5.9c0,0.1,0,0.3-0.1,0.3c-0.1,0-0.3,0-0.3-0.1c-0.8-1.9-2.2-3.8-3.5-5.4
																c-0.1-0.1-0.4-0.1-0.4,0.1c0,0.7,0.8,1.4,1.2,2.1c0.5,0.9,1,1.9,1.4,2.9c0,0,0,0.1,0,0.1c1,3.2,1.3,6.5,2.5,9.6
																c1,2.7,1.5,5.5,1.7,8.3c0.3,3.3,0.3,6.7,0.5,10c0.3,6.4-0.3,13.8,6.5,17C638.7,579.4,649.6,576.8,657,575.1z
																 M635.6,563c0-0.1,0-0.2,0-0.3c0,0.1,0,0.2,0.1,0.4C635.7,563.1,635.7,563,635.6,563z"/>
														</g>
													</g>
												</g>
											</g>
										</g>
									</g>
								</g>
							</g>
						</g>
					</g>
				</g>
				<g>
					<g>
						<g>
							<g>
								<g>
									<g>
										<g>
											<g>
												<g>
													<g>
														<g>
															<path class="st64" d="M656.8,575.4l0.3-0.1c9.8-2.3,17.6-6.2,23.4-11.8c1.5-1.4,3.2-3.3,3.9-5.6
																c0.7-2.2,0.1-5.7-1.8-7.2c-0.2-0.2-0.5-0.3-0.8-0.5c-2.6-1.2-6.6-0.2-9.3,0.7c-4.9,1.5-9.6,3.9-14.1,6.2
																c-6.7,3.4-13.6,6.9-21.1,7.6c-0.1-0.5-0.2-1.1-0.4-1.6c-0.1-0.4-0.2-0.8-0.3-1.2c-0.5-2.2-1.1-4.5-1.8-7
																c-1-3.5-2-7.1-3.1-11l-0.1-0.3l-0.3,0.2c-1.4,0.9-2.9,2-4.4,3.1c-0.8,0.6-1.6,1.2-2.4,1.8l-0.1,0.1l0,0.1
																c0.2,2.1,0.3,4.3,0.3,6.3c0,1.2,0.1,2.4,0.1,3.6c0,0.8,0.1,1.5,0.1,2.3c0.2,5.9,0.4,12,6.5,15
																C638.6,579.6,649.5,577.1,656.8,575.4z"/>
														</g>
													</g>
												</g>
											</g>
										</g>
									</g>
								</g>
							</g>
						</g>
					</g>
				</g>
			</g>
			<g>
				<g>
					<g>
						<path class="st64" d="M665,571.7c0,3.2,0.7,6.3,1.6,9.3c1,3.6,2.2,7.1,3.5,10.6c0.1,0.2,0.2,0.5,0.4,0.7
							c0.2,0.2,0.5,0.2,0.8,0.2c9.4,0,17-0.6,26-0.7c2.2,0,3.9-1.5,4.2-3.5c1.1-8,3-15.8,0.9-27.7c-0.5-2.6-0.6-5.5-2.2-7.7
							c-4.9-6.5-15.5-4.5-21.6-1.2C670.8,556,665,563.1,665,571.7z"/>
					</g>
				</g>
			</g>
			<g>
				<g>
					<g>
						<path class="st8" d="M677.4,533.2c-0.2,2.1-1.1,4.3-0.6,6.3c0.2,0.8,0.6,1.6,0.9,2.4c1,3.7-2.4,7.8-0.7,11.2
							c1.2,2.3,4.2,3.2,5.2,5.5c0.5,1.1,0.3,2.4,0.7,3.5c0.6,2,2.4,3.5,4.4,4.1c2,0.6,4.2,0.4,6.3,0c3.6-0.7,7.3-2.2,9.3-5.2
							c2.1-3,1.8-7.8-1.3-9.7c-0.8-0.5-1.7-0.8-2.2-1.5c-1.5-2,0.8-4.8,0.4-7.3c-0.7-4-7.6-4.2-8.3-8.2c-0.2-1.1,0.2-2.2,0.1-3.3
							c-0.2-2-2-3.6-4-4.1c-2-0.5-4-0.2-6,0c-2.1,0.3-4.3,0.4-6.2,1.1C676.6,529.5,677.6,531.2,677.4,533.2z"/>
					</g>
				</g>
			</g>
			<g class="st30">
				<g>
					<g>
						<path class="st17" d="M684.2,622.3L684.2,622.3c-3.6,0-6.4-2.9-6.4-6.4v-11.1h12.9v11.1C690.6,619.4,687.7,622.3,684.2,622.3z
							"/>
					</g>
				</g>
			</g>
			<g class="st30">
				<g>
					<g>
						<path class="st17" d="M707.4,620.7c0,0-0.1,0-0.1,0c-3.2,0.4-6.2-1.9-6.6-5.2l-1.2-10.1l4.2-0.5c0.6,1.7,1,3.3,1.5,4.7
							C706.2,613.3,706.9,617,707.4,620.7z"/>
					</g>
				</g>
			</g>
		</g>
		<g>
			<path class="st3" d="M122,558.8C122,558.8,122,558.8,122,558.8L122,558.8z"/>
		</g>
		<g>
			<path class="st3" d="M122.1,556.5c0.3,0,0.5,0.3,0.5,0.6c-0.1,0.3-0.3,0.5-0.6,0.4L122.1,556.5z"/>
		</g>
		<g>
			<path class="st3" d="M122.3,555.3c0.1,0.1,0.2,0.3,0.2,0.4c0,0.2-0.1,0.3-0.3,0.3L122.3,555.3z"/>
		</g>
		<g>
			<polygon class="st11" points="151.6,744.1 150.3,750.5 160.1,750.2 164,744 			"/>
		</g>
		<g>
			<polygon class="st69" points="242.9,743.8 244.1,749.4 258.8,752 255.6,742.8 			"/>
		</g>
		<g>
			<path class="st8" d="M208.4,623.7l39.9,44c4.7,5.2,7.4,12,7.4,19c0,10.3,8.7,59.7-5,60.5c-13.7,0.8-14.2-6.9-14.8-19.7
				c-0.6-14.3-1.7-22.2-4.7-35.2c-0.8-3.4-2.5-6.4-5-8.7l-42.1-39.4L208.4,623.7z"/>
		</g>
		<g>
			<path class="st8" d="M150.3,743.4c1.5,3.1,6.8,3.3,8.2,3.1c16.6-2.5,36.1-39.5,40-45.1c8.7-12.8,9.7-17.9,10.1-36.1
				c0.2-12.4,1.8-32.6,3.2-44.9l-4.6,7.2l-1.5-0.2l-27.1-3.2l-11.7-1.4c-0.8-0.1-1.4,0.6-1.3,1.4l1.4,8.6l0.5,3.3l7.7,44.1
				c1,5.6-0.1,11.4-3.2,16.3c0,0,0,0.1-0.1,0.1C168.9,704.1,146.5,735.7,150.3,743.4z"/>
		</g>
		<g>
			<g>
				<g>
					<g>
						<g>
							<path class="st8" d="M211.3,553.7c-0.2-0.1-0.3-0.2-0.5-0.3c-0.3-0.3-0.4-0.8-0.2-1.2l0.4,0.2c-0.1,0.3-0.1,0.5,0.1,0.7
								c0.2,0.2,0.6,0.3,1,0.2l0.1,0.4C211.9,553.8,211.6,553.8,211.3,553.7z"/>
						</g>
					</g>
				</g>
			</g>
		</g>
		<g>
			<g>
				<g>
					<g>
						<g>
							<path class="st8" d="M213.7,548.3L213.7,548.3c0.2,0,0.4-0.2,0.4-0.4l0,0c0-0.2-0.2-0.4-0.4-0.4l0,0c-0.2,0-0.4,0.2-0.4,0.4
								l0,0C213.3,548.2,213.5,548.3,213.7,548.3z"/>
						</g>
					</g>
				</g>
			</g>
		</g>
		<g>
			<g>
				<g>
					<path class="st3" d="M216.8,545.8l-0.7,5.4c-0.1,0.8-1,1.3-1.7,0.8l-0.7-0.4l3.5-8.2L216.8,545.8z"/>
				</g>
			</g>
		</g>
		<g>
			<g>
				<g>
					<g>
						<polygon class="st3" points="206.4,563.1 206.2,562 206.6,557.4 207.4,549.8 201.2,545.8 200.9,546.1 191.2,554.5 						"/>
					</g>
				</g>
			</g>
			<g>
				<g>
					<g>
						<polygon class="st8" points="200.9,546.1 206.6,557.4 207.4,549.8 201.2,545.8 						"/>
					</g>
				</g>
			</g>
			<g>
				<g>
					<g>
						<path class="st3" d="M217.1,543.4c0,0-3.1,17.2-9.9,11.2c-4.4-3.9-6-8.7-6-8.7l3.8-8l9.7,2.6L217.1,543.4z"/>
					</g>
				</g>
			</g>
			<g>
				<g>
					<g>
						<path class="st8" d="M199.1,543.4c-0.1-0.4-0.1-0.7-0.2-1.1c-0.2-1.3-0.1-2.6,0-3.9c0.1-0.8,0.1-1.6,0.4-2.4
							c0.5-1.3,1.7-2.2,3-2.7c1.3-0.5,2.7-0.6,4.1-0.8c1.1-0.1,2.3-0.2,3.4,0c0.9,0.2,1.7,0.6,2.5,1.1c1.9,1.2,3.4,2.8,5.4,3.7
							c1.7,0.7,4,0.7,5.2,2.2c1.2,1.5,0.1,3.9-1.6,4.6c-1.8,0.8-3.7,0.3-5.5-0.3c-2.4-0.8-2-1.1-3.6-0.2c-1.4,0.8-1.4,1.7-3.1,2
							c-1.6,0.2-2.6-0.5-4,1c-1,1.1-4.3,3.9-5.7,2.6c-1-0.9-0.1-2.2-0.1-3.3C199.4,545.2,199.2,544.3,199.1,543.4z"/>
					</g>
				</g>
			</g>
			<g>
				<g>
					<g>
						<circle class="st3" cx="205" cy="544.3" r="2.9"/>
					</g>
				</g>
			</g>
		</g>
		<g>
			<g>
				<g>
					<path class="st8" d="M165.6,624.1l1.4,8.6c4.1,0,8.3-0.2,12.4-0.5c4.2-0.3,8.3-0.7,12.5-1.3c3.2-0.4,10-1.7,13.9-3.7l-27.1-3.2
						l-11.7-1.4C166.1,622.6,165.5,623.3,165.6,624.1z"/>
				</g>
			</g>
		</g>
		<g>
			<g>
				<g>
					<path class="st14" d="M165.7,623.9c8.8,4.1,15.6,6.8,24.2,6.8c10.6-0.1,21.9-0.7,23-11.2c0.2-1.7,0.3-3.3,0.5-5
						c0.3-3.8,0.6-7.6,0.8-11.5c0.1-8.9,0.1-15.6-1.4-23.4c-0.4-2.3-1-4.7-1.7-7.2c-2.5-9-7.8-20.2-19.8-21.1
						c-7.3,4.1-17.1,18.6-18.4,22.5c-3.1,9.7-4.9,15.6-6.4,25.5C166.3,601.2,163.1,620.8,165.7,623.9z"/>
				</g>
			</g>
		</g>
		<g>
			<g>
				<g>
					<g>
						<path class="st8" d="M189.3,584.2c0.9,5.1,3.5,9.8,6.4,14c4.6,6.6,10.2,12.9,16.4,17.9c0.4,0.3,0.8,0.6,1.2,1
							c0.3-4,0.6-8,0.8-12c0.1-9.3,0.1-16.3-1.4-24.4c-0.1-0.3-0.2-0.6-0.3-0.9c-1.3-3.7-2.3-7.5-4.9-10.5
							c-2.5-2.8-6.9-4.4-10.1-2.4c-0.2,0-0.4,0-0.6,0.1c-1.6,0.3-2.9,1.3-4,2.5C189.5,573.5,188.5,579.1,189.3,584.2z"/>
					</g>
				</g>
			</g>
		</g>
		<g>
			<polygon class="st8" points="243.6,733.7 243.6,733.9 243.6,733.9 			"/>
			<path class="st8" d="M270.5,753h-27l0,0l0-3.5V749h9.8v-2.9c0-1.9,1.4-3.3,3.3-3.3h0.6v2.8l10.4,3.8
				C269.2,750,270.3,751.3,270.5,753C270.5,752.9,270.5,752.9,270.5,753L270.5,753C270.5,752.9,270.5,753,270.5,753z"/>
			<path class="st6" d="M243.7,752.9L243.7,752.9l27,0c0,0,0,0,0,0l0,0c0,0,0.1,0,0.1,0c0,0.2,0.1,0.4,0.1,0.6v0v1.6h-27.2h0h-0.2
				L243.7,752.9z"/>
		</g>
		<g>
			<polygon class="st8" points="150.3,734.8 150.3,735 150.3,735 			"/>
			<path class="st8" d="M177.2,754.1h-27l0,0l0-3.5v-0.4h9.8v-2.9c0-1.9,1.4-3.3,3.3-3.3h0.6v2.8l10.4,3.8
				C175.9,751.1,177,752.5,177.2,754.1C177.2,754,177.3,754.1,177.2,754.1L177.2,754.1C177.3,754.1,177.3,754.1,177.2,754.1z"/>
			<path class="st6" d="M150.4,754L150.4,754l27,0c0,0,0,0,0,0l0,0c0,0,0.1,0,0.1,0c0,0.2,0.1,0.4,0.1,0.6v0v1.6h-27.2h0h-0.2
				L150.4,754z"/>
		</g>
		<g>
			<g>
				<g>
					<g>
						<g>
							<g>
								<path class="st3" d="M271.5,590.6c-1.1,1-5.7,2.6-6.9,3.2c0,2.4,4.1,3.7,4.9,6c0.1,0.3,0.2,0.6,0.3,1c3-1.6,6-3.2,9.1-4.7
									c2.9-1.5,5.6-3.1,5.8-3.5c0.5-0.9,0.4-0.6,0.5-0.9c0-0.1,0.1-0.2,0.1-0.3c0-0.1-0.1-0.2-0.2-0.2c-0.3,0.1-0.5,0.3-0.8,0.4
									c-1.6,0.8-3.1,1.5-4.4,2.1c-0.1,0-0.1,0-0.2,0c-0.1,0-0.1-0.1-0.1-0.1c-0.1-0.1,0-0.3,0.1-0.3c1.3-0.5,2.8-1.3,4.4-2
									c0.3-0.1,0.6-0.3,0.9-0.5c0.2-0.1,0.3-0.3,0.3-0.6c0,0,0,0,0,0l0,0c-0.1-0.4-0.5-0.6-0.8-0.4c-0.3,0.1-0.5,0.3-0.8,0.4
									c-1.6,0.8-3.3,1.7-4.6,2c-0.1,0-0.1,0-0.1,0c-0.1,0-0.1-0.1-0.1-0.2c0-0.1,0-0.3,0.2-0.3c1.2-0.3,2.9-1.1,4.5-1.9
									c0.4-0.2,0.7-0.4,1.1-0.5c0.2-0.1,0.4-0.4,0.2-0.7l0,0c-0.1-0.3-0.5-0.4-0.7-0.3c-1.9,0.9-3.8,1.8-5.8,2.6
									c-0.1,0-0.1,0-0.2,0c-0.1,0-0.1-0.1-0.1-0.1c-0.1-0.1,0-0.3,0.1-0.3c2-0.8,4-1.7,5.9-2.7c0.1-0.1,0.2-0.3,0-0.4
									c-0.1-0.1-0.3-0.2-0.4-0.2c-0.9-0.3-2.5,0.6-3.2,0.9c-1.5,0.6-3.8,1.3-6.2,2c0.2,0,1.5-3.8,1-4c-0.2-0.1-0.4,0-0.5,0.2
									c-0.1,0.1-0.2,0.3-0.3,0.5C273.6,588.2,272.7,589.5,271.5,590.6z"/>
							</g>
						</g>
					</g>
				</g>
			</g>
			<g>
				<g>
					<g>
						<g>
							<g>
								<path class="st5" d="M264.4,594C265.1,593.7,265,593.7,264.4,594L264.4,594z"/>
							</g>
						</g>
					</g>
				</g>
			</g>
			<g>
				<g>
					<g>
						<path class="st14" d="M266.2,594.2c3,0.7,4.7,2.5,3.5,6c-2,6-16.1,10.9-27.4,13.9c-6.9,1.9-13,2.7-15.4,2.1
							c-6.4-1.7-12.8-6-17.8-10.1c-6.2-5.1-11.8-11.4-16.4-17.9c-3-4.2-5.6-8.9-6.4-14c-0.9-5.1,0.1-10.7,3.6-14.6
							c1.1-1.2,2.4-2.2,4-2.5c0.2,0,0.4-0.1,0.6-0.1c3.2-2,7.6-0.4,10.1,2.4c10.7,12.2,12.4,38.9,33.6,38.3
							C240.6,597.5,258.2,592.3,266.2,594.2z"/>
					</g>
				</g>
			</g>
		</g>
		<g>
			<g>
				<g>
					<g>
						<g>
							
								<rect x="379" y="696.2" transform="matrix(-1 -1.224647e-16 1.224647e-16 -1 774.0259 1452.3124)" class="st70" width="15.9" height="59.9"/>
						</g>
					</g>
				</g>
			</g>
			<g>
				<g>
					<g>
						<g>
							<g>
								<g>
									<g>
										<g>
											<g>
												<g>
													<g>
														<path class="st3" d="M407.2,756.1h-21.4c0-0.8,0-1.7,0-2.6c0-1,0-2.1,0-3l1-69.9l18.5,1.7l-7.7,63.4
															c0,0.1,4.5,3.5,7.3,5.7c0.7,0.5,1.3,1.2,1.7,2C406.9,754.3,407.2,755.2,407.2,756.1z"/>
													</g>
												</g>
											</g>
										</g>
									</g>
								</g>
							</g>
						</g>
					</g>
				</g>
			</g>
			<g>
				<g>
					<g>
						<g>
							<g>
								<g>
									<g>
										<g>
											<g>
												<g>
													<g>
														<path class="st8" d="M408.7,756.1h-23c0-1.1,0-2.4,0-3.7h19.1C406.8,752.4,408.6,754,408.7,756.1L408.7,756.1z"/>
													</g>
												</g>
											</g>
										</g>
									</g>
								</g>
							</g>
						</g>
					</g>
				</g>
			</g>
			<g>
				<g>
					<g>
						<g>
							<g>
								<g>
									<g>
										<g>
											<g>
												<g>
													<g>
														<path class="st3" d="M363.1,756.3h21.4c0-1,0-1.8,0-2.7c0-0.4,0-0.8,0-1.2c0-0.6,0-1.3,0-1.8l-0.6-46.7l0-1.9
															l-0.1-5.9l-0.1-7.9l-0.1-7.6l-18.5,1.7l1.1,8.8l1.2,10l0.5,3.9l5,40.7c0,0.1-4.4,3.5-7.3,5.7c-0.7,0.5-1.1,1.2-1.6,2
															v0C363.3,754.3,363.2,755.3,363.1,756.3z"/>
													</g>
												</g>
											</g>
										</g>
									</g>
								</g>
							</g>
						</g>
					</g>
				</g>
			</g>
			<g>
				<g>
					<g>
						<g>
							<g>
								<g>
									<g>
										<g>
											<g>
												<g>
													<g>
														<path class="st8" d="M362.7,756.1h23c0-1.1,0-2.4,0-3.7h-19.1C364.5,752.4,362.8,754,362.7,756.1L362.7,756.1z"/>
													</g>
												</g>
											</g>
										</g>
									</g>
								</g>
							</g>
						</g>
					</g>
				</g>
			</g>
			<g>
				<g>
					<g>
						<g>
							<path class="st8" d="M363.1,691.7l0.4,8.7c0.9,0.3,2.2,0.5,3.9,0.7l0.5,3.9c4.2-0.1,7.9-0.3,11.2-0.6
								c1.7-0.2,3.3-0.3,4.8-0.6c0.9-0.1,1.8-0.3,2.6-0.4c3-0.5,5.5-1.1,7.7-1.7c0.3-0.1,0.6-0.2,0.8-0.3c4.2-1.3,6.8-2.9,8.5-4.2
								c2.6-2.2,2.7-3.9,2.7-3.9l-2-1.6l-0.9-0.8c0,0-10.9-3.8-12.5-3.8c-0.3,0-1.9,0.2-4,0.5c-0.9,0.1-1.9,0.3-3,0.5
								c-5.7,0.9-13.3,2.2-17.5,2.9C364.2,691.5,363.1,691.7,363.1,691.7z"/>
						</g>
					</g>
				</g>
			</g>
			<g>
				<g>
					<g>
						<g>
							<path class="st6" d="M362.3,625.1V700h0.2c0.2,0.2,0.5,0.3,1,0.5c0.9,0.3,2.2,0.5,3.9,0.7c3,0.4,7,0.7,11.7,0.8
								c1.5,0,3.1,0.1,4.8,0.1c0.3,0,0.6,0,0.9,0c0.6,0,1.1,0,1.7,0c2.7,0,5.3-0.1,7.7-0.2c0.3,0,0.6,0,0.8,0c3.2-0.2,5.9-0.4,8-0.7
								c2.7-0.4,4.3-0.9,4.3-1.4c0-0.1-0.1-0.2-0.2-0.3c0.6-6.1,5.6-57.7,6.4-74.8c0.2-4.2-0.6-8.4-2.4-12.3l-6-14.6h-33.4l-1.1,2.6
								l-6.2,14.4C363,618,362.3,621.5,362.3,625.1z"/>
						</g>
					</g>
				</g>
			</g>
			<g>
				<g>
					<g>
						<g>
							<path class="st8" d="M370.6,600.2c1.4,0.4,2.9,0.6,4.3,0.7c7.9,0.6,16.3,0.6,24.1-1.1c2.5-0.5,3.8-1.3,4.3-2.2h-31.6
								L370.6,600.2z"/>
						</g>
					</g>
				</g>
			</g>
			<g>
				<g>
					<g>
						<g>
							<path class="st3" d="M303.8,556.2c0-0.1,0-0.2,0.1-0.3c0-0.1,0.2-0.1,0.3,0c0.2,0.3,0.4,0.6,0.6,0.8c1.1,1.6,2.1,3.2,3.2,4.4
								c0,0.1,0.1,0.1,0.2,0.1c0.1,0,0.1,0,0.2-0.1c0.1-0.1,0.1-0.3,0-0.4c-1-1.2-2-2.8-3.1-4.4c-0.2-0.3-0.4-0.6-0.6-0.9
								c-0.1-0.2-0.1-0.5,0-0.7c0,0,0,0,0,0l0,0c0.2-0.3,0.7-0.3,1,0c0.2,0.3,0.4,0.5,0.5,0.8c1.2,1.7,2.3,3.4,3.4,4.4
								c0,0,0.1,0.1,0.1,0.1c0.1,0,0.2,0,0.2-0.1c0.1-0.1,0.1-0.3,0-0.4c-1-1-2.2-2.7-3.3-4.4c-0.3-0.4-0.5-0.7-0.7-1.1
								c-0.2-0.3-0.1-0.6,0.1-0.8l0,0c0.3-0.2,0.7-0.2,0.9,0.1c1.3,1.9,2.7,3.9,4.2,5.7c0,0.1,0.1,0.1,0.2,0.1c0.1,0,0.1,0,0.2-0.1
								c0.1-0.1,0.1-0.2,0-0.4c-1.5-1.9-2.9-3.9-4.2-5.8c-0.1-0.2,0-0.4,0.2-0.4c0.2,0,0.4,0,0.5,0c1,0.2,2,1.9,2.6,2.6
								c1.1,1.4,2.9,3.3,4.9,5.3c-0.2-0.1,0.5-4.6,1.1-4.4c0.2,0,0.3,0.2,0.4,0.4c0,0.2,0,0.4,0,0.6c-0.2,1.8,0,3.7,0.6,5.4
								c0.2,0.7,0.9,1.8,1.6,3c6.2,3.9,15.2,11.7,20.1,16.1c0.2,0.2,0.4,0.3,0.6,0.4c0.9,0.5,2,0.6,2.9,0.2c0,0,0.1,0,0.1,0
								c5-2.1,10.6-8,13.5-10.6c5-4.4,10.2-8.8,16.5-10.9c1-0.3,2-0.6,3-0.8c3.3-0.7,5.3,2.1,6.3,4.7c1.5,4-0.3,7.1-2.3,10.5
								c-0.8,1.4-1.7,2.8-2.5,4.2c-3.5,5.9-9.1,9.3-14.7,13.1c-5,3.4-10.7,5.9-16.6,6.8c-1.7,0.3-3.4,0.4-5.1,0.4
								c-0.5,0-1,0-1.6-0.1c-3.1-0.5-8.3-4.2-10.4-6.5c-7.1-7.5-10-10.5-15-19.6c0,0,0,0,0,0c-2.1-3.2-4.1-6.4-6.3-9.5
								c-2.1-3-3.8-6.1-3.8-6.6C303.8,556.2,303.7,556.6,303.8,556.2z"/>
						</g>
					</g>
				</g>
			</g>
			<g>
				<g>
					<g>
						<g>
							<path class="st8" d="M399.8,547.5c0.5,3,2,5.8,4.2,8c1,1,2.2,1.9,2.9,3.1c0.7,1.2,0.8,3-0.3,3.9c-1.7,1.4-4.2-0.3-6.3,0.2
								c-0.7,0.1-1.3,0.5-1.9,0.6c-1.7,0.4-3.5-0.8-4.4-2.4c-0.9-1.6-1-3.4-1.2-5.1c-0.2-3-0.2-6.7,2.3-8.4c2.3-1.6,6-0.3,6.8,2.3
								L399.8,547.5z"/>
						</g>
					</g>
				</g>
			</g>
			<g>
				<g>
					<g>
						<g>
							<g>
								<g>
									<g>
										<g>
											<g>
												<path class="st3" d="M458.9,524.7c-0.8,1.3-4.3,4.5-5.4,5.6c0.6,2.5,4.4,2.2,5.8,4.3c0.2,0.3,0.4,0.6,0.6,0.9
													c2.6-2.5,5.2-5,7.8-7.5c2.5-2.4,4.7-4.9,4.9-5.3c0.3-1.1,0.3-0.7,0.3-1.1c0-0.1,0-0.2,0-0.3c0-0.1-0.2-0.2-0.2-0.1
													c-0.2,0.2-0.5,0.4-0.7,0.6c-1.4,1.3-2.6,2.5-3.8,3.4c-0.1,0-0.1,0.1-0.2,0c-0.1,0-0.1,0-0.2-0.1c-0.1-0.1-0.1-0.3,0-0.3
													c1.2-0.9,2.4-2.1,3.8-3.4c0.3-0.2,0.5-0.5,0.8-0.7c0.2-0.2,0.2-0.4,0.1-0.6c0,0,0,0,0,0l0,0c-0.2-0.3-0.6-0.4-0.9-0.2
													c-0.2,0.2-0.4,0.4-0.7,0.6c-1.4,1.3-2.9,2.7-4.1,3.4c0,0-0.1,0-0.1,0c-0.1,0-0.1,0-0.2-0.1c-0.1-0.1,0-0.3,0.1-0.3
													c1.1-0.7,2.6-2,4-3.3c0.3-0.3,0.6-0.6,0.9-0.8c0.2-0.2,0.2-0.5,0.1-0.8l0,0c-0.2-0.3-0.6-0.3-0.8-0.1
													c-1.6,1.5-3.3,3-5,4.4c-0.1,0-0.1,0.1-0.2,0.1c-0.1,0-0.1,0-0.2-0.1c-0.1-0.1-0.1-0.3,0-0.3c1.7-1.4,3.5-3,5.1-4.5
													c0.1-0.1,0.1-0.3-0.1-0.4c-0.2-0.1-0.3-0.1-0.5-0.1c-1,0-2.3,1.3-3,1.9c-1.3,1-3.4,2.4-5.7,3.9c0.2-0.1,0.4-4.3-0.1-4.3
													c-0.2,0-0.4,0.1-0.5,0.3s-0.1,0.4-0.1,0.6C460.4,521.6,459.8,523.3,458.9,524.7z"/>
											</g>
										</g>
									</g>
								</g>
							</g>
						</g>
					</g>
				</g>
				<g>
					<g>
						<g>
							<g>
								<g>
									<g>
										<g>
											<g>
												<g>
													<path class="st70" d="M461.9,528.4l-0.3-0.3c0.6-0.7,1.1-2.1,1-3.3c-0.1-0.8-0.5-1.3-1-1.8l0.2-0.3
														c0.7,0.5,1.1,1.2,1.2,2C463.2,526.2,462.6,527.7,461.9,528.4z"/>
												</g>
											</g>
										</g>
									</g>
								</g>
							</g>
						</g>
					</g>
				</g>
			</g>
			<g>
				<g>
					<g>
						<g>
							<polygon class="st17" points="473.4,529.1 456.7,517.5 470,496.1 486.9,505.9 							"/>
						</g>
					</g>
				</g>
			</g>
			<g>
				<g>
					<g>
						<g>
							<path class="st3" d="M460.2,520.3c1.5-1.4,3.5-2.3,5.3-2.6c0.4-0.1,0.7,0.4,0.5,0.7c-0.9,1.5-2,2.9-3.3,4.2
								c0.2,1.8-0.1,3.6-0.8,5.2l-0.1-0.3c-0.4,1-0.9,1.6-1.6,1.6c-2.1,0-2.3-4.4-2-5.7C458.6,522.2,459.3,521.1,460.2,520.3z"/>
						</g>
					</g>
				</g>
			</g>
			<g>
				<g>
					<g>
						<g>
							<path class="st70" d="M462.7,529.2l0.4-0.9c0.7-1.7,0.7-3.7,0-5.3c0-0.1-0.1-0.2-0.1-0.2c0-0.1,0.1-0.2,0.2-0.2
								c0.2-0.1,0.3-0.3,0.5-0.4c1-0.9,2.1-1.8,2.6-3.1c0.2-0.5,0.3-1,0.1-1.4l-0.4,0.2c0.1,0.3,0.1,0.6-0.1,1
								c-0.5,1.2-1.5,2-2.5,2.9c-0.2,0.1-0.3,0.3-0.5,0.4c-0.1,0.1-0.3,0.3-0.3,0.5c0,0.2,0,0.3,0.1,0.5c0.6,1.5,0.7,3.2,0.1,4.7
								l-0.1,0L462.7,529.2z"/>
						</g>
					</g>
				</g>
			</g>
			<g>
				<g>
					<g>
						<g>
							<path class="st3" d="M390.8,562l14.8,15.9c12.4-0.5,22.6-4.7,30.7-10.4c6.1-4.2,11-9.2,14.9-14.1c4.7-5.5,9.2-12.7,12.1-19.3
								c1.2-2.8,4.1-8.1-0.4-9.1c-2.5-0.5-6.7,2.4-8.6,3.7c-7.6,5.4-16.8,15.6-22.9,22.8L390.8,562z"/>
						</g>
					</g>
				</g>
			</g>
			<g>
				<g>
					<g>
						<g>
							<path class="st1" d="M398.6,558.4l7.5,19.4c12.4-0.5,22.6-4.7,30.7-10.4c-1.7-7.5-4.9-16.1-4.9-16.1L398.6,558.4z"/>
						</g>
					</g>
				</g>
			</g>
			<g>
				<g>
					<g>
						<g>
							<path class="st8" d="M381.5,551.3c-1.1,1.1-2.4,1.8-3.8,2.5c-2.4,1.1-4.8,2.2-7.2,3.2c-2.5,1-5.1,2-6.9,3.9
								c-1.9,1.9-2.8,5.1-1.3,7.3c0.3,0.5,0.7,0.9,0.8,1.5c0.1,0.8-0.6,1.4-0.9,2.2c-0.6,1.7,0.7,3.6,2.4,4.1
								c1.7,0.6,3.5,0.1,5.2-0.4c5.8-1.9,11.6-5.7,13.2-11.5c0.4-1.4,0.6-2.9,1.4-4.1c1-1.5,2.8-2.3,3.7-3.8
								c1.6-2.5,0.2-5.9,1.1-8.8c0.8-2.5,2.8-4.4,2.2-7.3c-0.5-2.3-2.3-3.7-4.5-2.4C382.7,540,384.8,547.8,381.5,551.3z"/>
						</g>
					</g>
				</g>
			</g>
			<g>
				<g>
					<g>
						<g>
							<g>
								<g>
									<g>
										<g>
											<g>
												<g>
													<g>
														<g>
															<path class="st3" d="M399,570.8c2.8-1,5.5-2.7,6.7-5.3c0.5-1,0.7-2.3-0.1-3c-1.7-1.6-5.5-0.9-7.6-1.9
																c-2.2-1-3.4-4.1-5-4.8c-4.2-1.8-6.8,2.5-10.7,4.3c-2,0.9-5.5,0.7-5.8,3.3c-0.3,2.2,3.8,4.9,5.4,5.9
																C387,572.3,393.5,572.8,399,570.8z"/>
														</g>
													</g>
												</g>
											</g>
										</g>
									</g>
								</g>
							</g>
						</g>
					</g>
				</g>
			</g>
			<g>
				<g>
					<g>
						<g>
							<path class="st1" d="M368.9,581.1c-0.5-2.7-1-5.5-1.5-8.2c-0.4-2.1-0.8-4.4-0.2-6.5c1.4-4.8,7-6.6,11.9-7.6
								c6.7-1.3,22.4-5.3,26.5,2.3c3.5,6.3,8.2,12.3,6.5,20c-0.7,3.3-1.8,6.4-3,9.5c-1.1,2.6-1.5,6.6-4.3,8c-1.6,0.8-3.6,1-5.4,1
								c-7.3,0.3-14.6,0.3-21.9-0.1c-1.2-0.1-2.5-0.1-3.6-0.6c-2.8-1.2-2.6-4.6-3.1-7.2C370.2,588.3,369.5,584.7,368.9,581.1z"/>
						</g>
					</g>
				</g>
			</g>
			<g>
				<g>
					<g>
						<g>
							<g>
								<g>
									<g>
										<g>
											<g>
												<g>
													<g>
														<path class="st3" d="M384.1,558.7l0.1,0.2l7.6,7.2c1.1,1.1,2.9,0.4,3.1-1.2l0.6-7.5l0.6-7.7l-5.6-0.9l-1.3-0.3
															l-1.1-0.3L384.1,558.7z"/>
													</g>
												</g>
											</g>
										</g>
									</g>
								</g>
							</g>
						</g>
					</g>
				</g>
			</g>
			<g>
				<g>
					<g>
						<g>
							<g>
								<g>
									<g>
										<g>
											<g>
												<g>
													<g>
														<path class="st8" d="M389.2,548.5v0.3c0,1,0.2,2,0.5,2.9c1,2.4,3,4.5,5.7,5.7l0.6-7.7l-5.6-0.9L389.2,548.5z"/>
													</g>
												</g>
											</g>
										</g>
									</g>
								</g>
							</g>
						</g>
					</g>
				</g>
			</g>
			<g>
				<g>
					<g>
						<g>
							<g>
								<g>
									<g>
										<g>
											<g>
												<g>
													<g>
														<path class="st3" d="M402.1,540.2c0.2,0.5,0.1,5.2,0.1,5.8c0.4,4-0.8,8.5-4.6,9.4c-2.2,0.5-4.8-1.1-6.7-2.3
															c-1.7-1.2-3.1-3-3.8-5.2c-0.2-0.6-0.5-1.9-0.5-2.5c0,0,0,0,0,0c-0.3-3.9,2-7.5,5.7-8.3c2-0.5,4-0.1,5.7,0.9
															c0,0,2,1.2,2.1,1.2C402.2,540.3,401.5,537.8,402.1,540.2z"/>
													</g>
												</g>
											</g>
										</g>
									</g>
								</g>
							</g>
						</g>
					</g>
				</g>
			</g>
			<g>
				<g>
					<g>
						<g>
							<g>
								<g>
									<g>
										<g>
											<g>
												<g>
													<g>
														<polygon class="st8" points="397.5,548 399.4,548 399.4,543.6 398.9,543.6 398.9,547.5 397.5,547.5 														"/>
													</g>
												</g>
											</g>
										</g>
									</g>
								</g>
							</g>
						</g>
					</g>
				</g>
			</g>
			<g>
				<g>
					<g>
						<g>
							<g>
								<g>
									<g>
										<g>
											<g>
												<g>
													<g>
														<path class="st8" d="M396.5,549.7c0.4,0,0.8-0.1,1.1-0.4l-0.3-0.5c-0.5,0.4-1,0.3-1.3,0.1c-0.3-0.1-0.4-0.4-0.4-0.7
															l-0.5,0c0,0.5,0.2,1,0.6,1.2C396,549.6,396.2,549.7,396.5,549.7z"/>
													</g>
												</g>
											</g>
										</g>
									</g>
								</g>
							</g>
						</g>
					</g>
				</g>
			</g>
			<g>
				<g>
					<g>
						<g>
							<g>
								<g>
									<g>
										<g>
											<g>
												<g>
													<g>
														<path class="st8" d="M400.8,546L400.8,546c0.3,0,0.5-0.2,0.5-0.5l0,0c0-0.3-0.2-0.5-0.5-0.5h0c-0.3,0-0.5,0.2-0.5,0.5
															l0,0C400.4,545.8,400.6,546,400.8,546z"/>
													</g>
												</g>
											</g>
										</g>
									</g>
								</g>
							</g>
						</g>
					</g>
				</g>
			</g>
			<g>
				<g>
					<g>
						<g>
							<g>
								<g>
									<g>
										<g>
											<g>
												<g>
													<g>
														<path class="st8" d="M395.5,545.6L395.5,545.6c0.3,0,0.5-0.2,0.5-0.5l0,0c0-0.3-0.2-0.5-0.5-0.5h0
															c-0.3,0-0.5,0.2-0.5,0.5l0,0C395,545.3,395.2,545.6,395.5,545.6z"/>
													</g>
												</g>
											</g>
										</g>
									</g>
								</g>
							</g>
						</g>
					</g>
				</g>
			</g>
			<g>
				<g>
					<g>
						<g>
							<path class="st8" d="M384.7,545.8c0-1.2,0.1-2.4,0.3-3.6c0.2-1.8,0.9-3.8,2.4-4.9c1.5-1.2,3.6-1.8,5.6-1.8
								c1.4,0,7.4,0.3,7.1,2.3c0,0.1-1.1,0.2-1.1,0.3c-0.2-0.1-0.4-0.2-0.6-0.2c-0.4,3.1-3.5,5.3-6,7.1c-1.1-0.6-2.6-0.5-3.4,0.9
								c-1.1,1.8-2,3.8-2.3,5.8c0,0-0.6-0.3,0,0c0.1,0.1-1.1-1.1-1.2-1.2c-0.6-0.7-0.7-1.3-0.8-2.1
								C384.7,547.5,384.7,546.7,384.7,545.8z"/>
						</g>
					</g>
				</g>
			</g>
			<g>
				<g>
					<g>
						<g>
							<g>
								<g>
									<g>
										<g>
											<g>
												<g>
													<g>
														<ellipse class="st8" cx="387.8" cy="547.7" rx="2.9" ry="2.9"/>
													</g>
												</g>
											</g>
										</g>
									</g>
								</g>
							</g>
						</g>
					</g>
				</g>
			</g>
			<g>
				<g>
					<g>
						<g>
							<g>
								<g>
									<g>
										<g>
											<g>
												<g>
													<g>
														<ellipse class="st3" cx="388" cy="546.9" rx="2.9" ry="2.9"/>
													</g>
												</g>
											</g>
										</g>
									</g>
								</g>
							</g>
						</g>
					</g>
				</g>
			</g>
			<g>
				<g>
					<g>
						<g>
							<g>
								<g>
									<g>
										<g>
											<g>
												<g>
													<g>
														<path class="st8" d="M384.3,538.8c-3.7,0.2-6.7-3.2-3.3-6.7c1.2-1.3,3.2-1.7,4.9-1.2c0.8,0.3,1.6,0.7,2.1,1.5
															c1.5,2.3,0.8,5.1-1.9,6.1C385.5,538.7,384.9,538.8,384.3,538.8z"/>
													</g>
												</g>
											</g>
										</g>
									</g>
								</g>
							</g>
						</g>
					</g>
				</g>
			</g>
			<g>
				<g>
					<g>
						<g>
							<path class="st8" d="M396.9,537.7c1,2.8,2.6,4.8,5.4,5.9c1-3.3-0.8-6.7-4.1-7.2L396.9,537.7z"/>
						</g>
					</g>
				</g>
			</g>
			<g>
				<g>
					<g>
						<g>
							<path class="st71" d="M399,545.4c0-1.8,1.4-3.2,3.2-3.2c1.8,0,3.2,1.4,3.2,3.2c0,1.8-1.4,3.2-3.2,3.2
								C400.4,548.6,399,547.2,399,545.4z M399.5,545.4c0,1.5,1.2,2.7,2.7,2.7c1.5,0,2.7-1.2,2.7-2.7c0-1.5-1.2-2.7-2.7-2.7
								C400.7,542.7,399.5,543.9,399.5,545.4z"/>
						</g>
					</g>
				</g>
			</g>
			<g>
				<g>
					<g>
						<g>
							<path class="st71" d="M392.1,544.8c0-1.8,1.4-3.2,3.2-3.2c1.8,0,3.2,1.4,3.2,3.2c0,1.8-1.4,3.2-3.2,3.2
								C393.5,548,392.1,546.5,392.1,544.8z M392.5,544.8c0,1.5,1.2,2.7,2.7,2.7c1.5,0,2.7-1.2,2.7-2.7c0-1.5-1.2-2.7-2.7-2.7
								C393.8,542.1,392.5,543.3,392.5,544.8z"/>
						</g>
					</g>
				</g>
			</g>
			<g>
				<g>
					<g>
						<g>
							<path class="st1" d="M343.3,590c-0.6-2.5-0.6-5.1-0.7-7.6c0,0,0.1,0,0.1,0c0,0,0.1,0,0.1,0c5-2.1,10.6-8,13.5-10.6
								c5-4.4,10.2-8.8,16.5-10.9c1-0.3,2-0.6,3-0.8c3.3-0.7,5.3,2.1,6.3,4.7c1.5,4-0.3,7.1-2.3,10.5c-0.8,1.4-1.7,2.8-2.5,4.2
								c-3.5,5.9-9.1,9.3-14.7,13.1c-4.8,3.2-10.2,5.7-15.9,6.7C345.3,596.3,344.1,593.2,343.3,590z"/>
						</g>
					</g>
				</g>
			</g>
			<g>
				<g>
					<g>
						<g>
							<g>
								<g>
									<g>
										<g>
											<g>
												<path class="st70" d="M313.5,565.8l0.4-0.2c-0.5-0.9-0.7-2.5-0.2-3.7c0.3-0.8,0.8-1.3,1.5-1.6L315,560
													c-0.8,0.3-1.4,1-1.7,1.8C312.7,563.2,313,564.8,313.5,565.8z"/>
											</g>
										</g>
									</g>
								</g>
							</g>
						</g>
					</g>
				</g>
			</g>
		</g>
		<g>
			<g>
				<g>
					<g>
						<g>
							<rect x="285.9" y="291.5" class="st72" width="66.3" height="3.2"/>
						</g>
					</g>
				</g>
			</g>
			<g>
				<g>
					<g>
						<g>
							<path class="st3" d="M436.2,372.2c0.3,0.6,0.5,1.3,0.3,2.1c0,0.1,0,0.2-0.1,0.3c0,0,0,0,0,0c-0.1,0.2-0.2,0.3-0.3,0.4
								c-0.1,0.1-0.3,0.2-0.5,0.3c-0.4,0.2-0.9,0.4-1.5,0.5c-0.2,0-0.4,0.1-0.6,0.1c-0.3,0-0.5,0.1-0.8,0.1c-0.4,0-0.8,0-1.2,0
								c-0.2,0-0.8,0-0.8,0c-0.1,0-0.2,0-0.3,0l-13.7-2c-0.2,0-2.1-0.5-3.2-0.4l-9.8-22l14.2,0.2l4.3,12.8l0.1,0l0.1,0l0.2,0.1
								l0.2,0.1l11.7,5.5c0.3,0.2,0.6,0.4,0.8,0.6C435.5,371.3,436.1,372.1,436.2,372.2z"/>
						</g>
					</g>
				</g>
			</g>
			<g>
				<g>
					<g>
						<g>
							<path class="st6" d="M436.2,372.2c0.3,0.6,0.5,1.3,0.3,2.1c0,0.1,0,0.2-0.1,0.3c0,0,0,0,0,0c-0.1,0.2-0.2,0.3-0.3,0.4
								c-0.1,0.1-0.3,0.2-0.5,0.3c-0.4,0.2-0.9,0.4-1.5,0.5c-0.2,0-0.4,0.1-0.6,0.1c-0.3,0-0.5,0.1-0.8,0.1c-0.4,0-0.8,0-1.2,0
								c-0.2,0-0.8,0-0.8,0c-0.1,0-0.2,0-0.3,0l-13.7-2c-0.2,0-2.1-0.5-3.2-0.4l-2.5-5.7l11.3-3.3l0.1,0l0.2,0.1l0.2,0.1l11.7,5.5
								c0.3,0.2,0.6,0.4,0.8,0.6C435.5,371.3,436.1,372.1,436.2,372.2z"/>
						</g>
					</g>
				</g>
			</g>
			<g>
				<g>
					<g>
						<g>
							<path class="st73" d="M436.5,374.3c0,0.1,0,0.2-0.1,0.3c0,0,0,0,0,0c-0.1,0.2-0.2,0.3-0.3,0.4c-0.1,0.1-0.3,0.2-0.5,0.3
								c-0.4,0.2-0.9,0.4-1.5,0.5c-0.2,0-0.4,0.1-0.6,0.1c-0.3,0-0.5,0.1-0.8,0.1c-0.4,0-0.8,0-1.2,0c-0.2,0-0.8,0-0.8,0
								c-0.1,0-0.2,0-0.3,0l-13.7-2c-0.2,0-2.1-0.5-3.2-0.4l-1.2-2.6L436.5,374.3z"/>
						</g>
					</g>
				</g>
			</g>
			<g>
				<g>
					<g>
						<g>
							<path class="st8" d="M355.7,222.7c-0.3-1-0.7-1.9-0.9-2.9c-1.4-6.7,0.8-13.8-0.6-20.5c-0.8-4-2.5-5.5-4.5-5.6l0.2-0.2
								c-0.3,0-0.6-0.1-1,0c-1.7,0.1-3.5,1-5.3,2.2c-1,0.6-2.1,1.2-3.1,1.8c-2.9,1.8-5.8,3.5-8.7,5.3c-4.2,2.5-8.6,5.3-10.9,9.6
								c-0.6,1.1-1,2.3-1.5,3.5c-2.4,2.2-4.7,4.5-6.6,7.2c-2.6,3.7-4.4,9-1.6,12.6c2.9,3.8,9.1,3.9,13.3,2.7
								c4.3-1.2,5.9,1.3,9.7,3.2c3.6,1.7,7.6,2.7,11.6,2.1c6.5-0.9,12.5-6.5,12.1-13.1C357.7,227.7,356.6,225.2,355.7,222.7z"/>
						</g>
					</g>
				</g>
			</g>
			<g>
				<g>
					<g>
						<g>
							<g>
								<g>
									<g>
										<polygon class="st3" points="343.2,217.7 349.6,207.3 346.5,204.2 344.7,202.4 336.5,213.3 336.4,213.5 										"/>
									</g>
								</g>
							</g>
						</g>
					</g>
				</g>
			</g>
			<g>
				<g>
					<g>
						<g>
							<g>
								<g>
									<g>
										<path class="st8" d="M345.2,203.4l-0.6,1c-0.4,0.6-0.7,1.3-0.8,2c-0.6,2.5,0.1,5.2,2,7l3.8-6.1l-3.2-3.1L345.2,203.4z"/>
									</g>
								</g>
							</g>
						</g>
					</g>
				</g>
			</g>
			<g>
				<g>
					<g>
						<g>
							<g>
								<g>
									<g>
										<path class="st3" d="M345,198.3c-0.4,0.6-0.6,1.2-0.8,1.9l-0.7,2.7l-0.1,0.3c-1.1,3.9,2.4,8.8,4.7,9.4
											c2.1,0.5,4.8-0.5,6.8-2.2c1.6-1.4,2.7-3.4,3.3-5.4l0.2-0.9c0-0.1,0.1-0.2,0.1-0.3c0.8-3.8-1.5-7.7-5.3-8.7
											C350,194.2,346.6,195.6,345,198.3z"/>
									</g>
								</g>
							</g>
						</g>
					</g>
				</g>
			</g>
			<g>
				<g>
					<g>
						<g>
							<g>
								<g>
									<g>
										<polygon class="st8" points="353.5,207.5 351.8,206.5 352.1,206.1 353.3,206.8 355.3,203.5 355.8,203.8 										"/>
									</g>
								</g>
							</g>
						</g>
					</g>
				</g>
			</g>
			<g>
				<g>
					<g>
						<g>
							<g>
								<g>
									<g>
										<path class="st8" d="M350.1,207.5c-0.2-0.1-0.4-0.3-0.6-0.6c-0.2-0.4-0.2-1,0.1-1.4l0.4,0.3c-0.2,0.3-0.2,0.5-0.1,0.8
											c0.2,0.3,0.5,0.6,1.2,0.6l0,0.6C350.8,207.8,350.4,207.7,350.1,207.5z"/>
									</g>
								</g>
							</g>
						</g>
					</g>
				</g>
			</g>
			<g>
				<g>
					<g>
						<g>
							<g>
								<g>
									<g>
										<path class="st8" d="M356.6,206L356.6,206c0.2,0.1,0.5,0.1,0.6-0.2l0,0c0.1-0.2,0.1-0.5-0.2-0.6l0,0
											c-0.2-0.1-0.5-0.1-0.6,0.2l0,0C356.4,205.5,356.4,205.8,356.6,206z"/>
									</g>
								</g>
							</g>
						</g>
					</g>
				</g>
			</g>
			<g>
				<g>
					<g>
						<g>
							<g>
								<g>
									<g>
										<path class="st8" d="M351.7,202.9L351.7,202.9c0.2,0.1,0.5,0.1,0.6-0.2l0,0c0.1-0.2,0.1-0.5-0.2-0.6l0,0
											c-0.2-0.1-0.5-0.1-0.6,0.2l0,0C351.4,202.5,351.5,202.8,351.7,202.9z"/>
									</g>
								</g>
							</g>
						</g>
					</g>
				</g>
			</g>
			<g>
				<g>
					<g>
						<g>
							<g>
								<g>
									<g>
										<path class="st8" d="M358.4,203.6c0.8-2.9-0.6-7.2-2.9-9.2c-2-1.7-4.9-1.9-7.4-1.1c-2.5,0.8-8.9,4.7-3.1,5
											c-0.3,0.6-0.6,1.2-0.8,1.9l-0.7,2.7c1,0.2,2.1-0.1,3.1-0.6c1.1-0.6,2-1.6,2.8-2.6c0.3-0.4,0.7-0.9,1.2-1
											c1.2-0.4,2.2,1,3.4,1.4c1,0.2,2.1-0.4,2.4-1.4C355.8,200.4,357.1,202.5,358.4,203.6z"/>
									</g>
								</g>
							</g>
						</g>
					</g>
				</g>
			</g>
			<g>
				<g>
					<g>
						<g>
							<g>
								<g>
									<g>
										
											<ellipse transform="matrix(0.5249 -0.8512 0.8512 0.5249 -7.9613 388.0929)" class="st8" cx="343.7" cy="201.2" rx="2.9" ry="2.9"/>
									</g>
								</g>
							</g>
						</g>
					</g>
				</g>
			</g>
			<g>
				<g>
					<g>
						<g>
							<g>
								<g>
									<g>
										
											<ellipse transform="matrix(0.5249 -0.8512 0.8512 0.5249 -7.2269 389.6165)" class="st3" cx="345.4" cy="201.3" rx="2.9" ry="2.9"/>
									</g>
								</g>
							</g>
						</g>
					</g>
				</g>
			</g>
			<g>
				<g>
					<g>
						<g>
							<path class="st11" d="M399.4,280.7l0.6-4.2l0.1,0l-0.1,0l0.1-0.3l-1.7-0.1l-49.7-13.9l-45.2,2.1l0,0.6
								c0.3,14.5,12.1,26,26.6,26h32l18.4,2.5l20.3,62.6c0.4,1.3,1.7,2.1,3.1,1.9l14.9-2.6c1.6-0.3,2.7-1.9,2.2-3.5L399.4,280.7z"/>
						</g>
					</g>
				</g>
			</g>
			<g>
				<g>
					<g>
						<g>
							<g>
								<g>
									<g>
										<path class="st3" d="M403.7,239.5c-2.4-1.1-5.1-1.8-7.7-2.1c-0.8-0.1-1.6-0.1-2.3-0.2c-9.3-0.2-20.1,4.3-29.1,6.4
											c-0.7,0.2-1.5,0.3-2.2,0.3c-1.4-0.2-2.5-1.1-3.5-2.1c-4.5-4.2-8.7-8.6-12.8-13.3c-3.6-4.1-6.5-8.5-11.9-10.4
											c-4.5-1.6-10.7,0-12.1,4.6c-0.8,2.7,0.2,5.7,1.6,8.1c6.1,10.4,17.7,17.4,28.3,22.6c3.3,1.6,6.8,3,10.4,2.8
											c3-0.2,5.8-1.5,8.6-2.8c8.4-3.9,17.6-9.8,27.2-9.8c0,0,0.1,0,0.1,0c1.1-0.1,2.1-0.1,3.2,0c0.7,0,1.7,0.5,2.4,0.2
											c0.2-0.1,0.1-0.3-0.1-0.4c-2-0.5-4.4-1-6.4-0.8c-0.1,0-0.3-0.1-0.3-0.2c0-0.1,0.1-0.2,0.2-0.3c2.2-0.2,4.9,0.4,7.1,1
											c0.1,0,0.2,0,0.2-0.1c0.1-0.1,0.1-0.2,0.2-0.4c0.1-0.1,0-0.3-0.1-0.3c-2.1-0.7-4.6-1.1-7.4-1.2c-0.1,0-0.2-0.1-0.2-0.2
											c0-0.1,0.1-0.2,0.2-0.2c2.9,0.1,5.4,0.5,7.6,1.3c0.1,0,0.3,0,0.3-0.2c0-0.1,0-0.2,0-0.2c0-0.1,0-0.2-0.1-0.2
											c-2.4-1-5.1-1.5-7.6-1.6c-0.1,0-0.2-0.1-0.3-0.2c0-0.1,0.1-0.2,0.2-0.2c2.5,0.1,5,0.6,7.4,1.5c0.2,0.1,0.4-0.1,0.3-0.3
											l0,0C404.8,240.1,404,239.7,403.7,239.5z"/>
									</g>
								</g>
							</g>
						</g>
					</g>
				</g>
			</g>
			<g>
				<g>
					<g>
						<g>
							<g>
								<g>
									<g>
										<g>
											<path class="st8" d="M342.1,262.7c-3.4-0.2-6.8-0.5-10.2-1c-2.2-0.3-12.1-2.2-20.3-5c2.5-1.2,6.8-1.7,9.4-2.4
												c0.2-0.1,0.4-0.1,0.6-0.2l12.8,0.2C334.4,254.3,338.2,255.8,342.1,262.7z"/>
										</g>
									</g>
								</g>
							</g>
						</g>
					</g>
				</g>
			</g>
			<g>
				<g>
					<g>
						<g>
							<g>
								<g>
									<g>
										<path class="st4" d="M349.6,243.7c-0.8,3-1.6,6-2,9c-0.6,3.9-0.5,8.9-2.8,12.3c-2.7,4-7.3,3.8-11.7,3.6
											c-7-0.3-13.9,0.6-20.9,0.2c-6.6-0.4-9.4-1.3-8.4-8.2c2.1-13.8,5.5-28.1,14.4-39.3c3.4-4.3,7.8-8.2,13.1-9.7
											c13.3-3.8,21,10,20.2,21.8C351.3,237,350.5,240.4,349.6,243.7z"/>
									</g>
								</g>
							</g>
						</g>
					</g>
				</g>
			</g>
			<g>
				<g>
					<g>
						<g>
							<path class="st11" d="M397.3,292.7l-42.7,11.7l-0.5,0.1l0.4,10.2c0,0.3,0,0.6-0.1,0.9c-0.2,1-0.9,1.8-1.9,2.2l0,0
								c-0.7,0.3-1.6,0-2-0.6l-10.5-14.5c-1-1.5-0.7-3.5,0.7-4.5c0.1-0.1,0.3-0.2,0.4-0.3l5.2-2.7l49.7-25.8l2.9,0.5
								c1.7,0.3,3.3,1,4.5,2.1c1.3,1.1,2.2,2.5,2.7,4.2C408.5,283.3,404.4,290.7,397.3,292.7z"/>
						</g>
					</g>
				</g>
			</g>
			<g>
				<g>
					<g>
						<g>
							<g>
								<path class="st6" d="M400.5,246.5c-3.6-5.1-7.5-10.1-11.5-14.9l0.8-0.7c4,4.8,7.9,9.8,11.6,15L400.5,246.5z"/>
							</g>
						</g>
					</g>
				</g>
			</g>
			<g>
				<g>
					<g>
						<g>
							<polygon class="st69" points="403.8,277.2 380.5,275.6 399.9,248 423.2,249.6 							"/>
						</g>
					</g>
				</g>
			</g>
			<g>
				<g>
					<g>
						<g>
							<path class="st3" d="M392.1,239.1c2.5-0.4,5.2-0.1,7.5,1c-0.4,0.4-1,0.6-1.6,0.7c-0.5,0-1.1-0.1-1.6,0.1
								c-0.5,0.2-0.8,0.8-1.2,1.1c-1,0.9-2.5,0.9-3.9,0.6L392.1,239.1z"/>
						</g>
					</g>
				</g>
				<g>
					<g>
						<g>
							<path class="st70" d="M393,243c-0.6,0-1.2-0.1-1.7-0.2l0.1-0.5c1.1,0.3,2.7,0.4,3.6-0.5c0.1-0.1,0.2-0.3,0.4-0.4
								c0.3-0.3,0.5-0.6,0.9-0.8c0.4-0.2,0.8-0.2,1.2-0.1c0.2,0,0.3,0,0.5,0c0.4,0,0.7-0.1,1.1-0.3c-2.2-0.9-4.6-1.2-6.9-0.8
								l-0.1-0.5c2.6-0.4,5.3-0.1,7.6,1l0.4,0.2l-0.3,0.3c-0.5,0.4-1.1,0.7-1.7,0.7c-0.2,0-0.4,0-0.6,0c-0.4,0-0.7,0-1,0.1
								c-0.3,0.1-0.5,0.4-0.7,0.6c-0.1,0.2-0.3,0.3-0.4,0.4C394.7,242.8,393.8,243,393,243z"/>
						</g>
					</g>
				</g>
			</g>
			<g>
				<g>
					<g>
						<g>
							<path class="st6" d="M354.1,304.6l0.4,10.2c0,0.3,0,0.6-0.1,0.9c-0.2,1-0.9,1.8-1.9,2.2l0,0c-0.7,0.3-1.6,0-2-0.6l-10.5-14.5
								c-1-1.5-0.7-3.5,0.7-4.5c0.1-0.1,0.3-0.2,0.4-0.3l5.2-2.7l8.1,9.2L354.1,304.6z"/>
						</g>
					</g>
				</g>
			</g>
			<g>
				<g>
					<g>
						<g>
							<path class="st73" d="M354.5,315.6c-0.2,1-0.9,1.8-1.9,2.2l0,0c-0.7,0.3-1.6,0-2-0.6l-10.5-14.5c-1-1.5-0.7-3.5,0.7-4.5
								L354.5,315.6z"/>
						</g>
					</g>
				</g>
			</g>
			<g>
				<g>
					<g>
						<g>
							<path class="st3" d="M399.1,269.9c0,0-5-3.3-6.7-3.9l0,0.1c-0.5-0.3-1.1-0.5-1.7-0.7c-3.1-1.1-4.9-2-9-2
								c-4.3,0-10.3,0.6-14.8,0.8c-5.1,0.2-10.2,0.4-15.3,0.6c-2.1-8.3-4.2-16.6-6.3-24.9c-1.3-5.3-2.1-17.4-7-20.9
								c-3.9-2.7-9.1,0.2-10.7,4.1c-2.6,6.3,0,16.1,1.5,22.4c2.1,8.7,5.3,17.1,8.6,25.4c1.4,3.5,3.2,7.4,6.7,8.5
								c2.4,0.7,5.1-0.1,7.5-0.9c7.8-2.5,15.7-4.5,23.7-6c2.7-0.5,5.7-2,8.4-2.2c2.9-0.1,1.9,1,8.4,1.1c0.8,0,1.4-0.9,2.2-1.1
								c0.2-0.6,0.2-1.3,0-1.9l2.8,1.6L399.1,269.9z"/>
						</g>
					</g>
				</g>
			</g>
			<g>
				<g>
					<g>
						<g>
							<polygon class="st8" points="400.5,246.5 402.1,247.5 401.3,245.9 							"/>
						</g>
					</g>
				</g>
			</g>
		</g>
		<g>
			<g>
				<path class="st34" d="M657.2,173.6c-4.7,0-9,1-12.5,2.8c-5-6.2-14.4-10.4-25.2-10.4c-11.8,0-21.9,5-26.5,12.2
					c-2.5-1-5.3-1.5-8.4-1.5c-9.6,0-17.4,5.5-17.4,12.4c0,6.8,7.8,12.4,17.4,12.4c4.2,0,8.1-1.1,11.1-2.9c5.3,5.3,13.9,8.7,23.7,8.7
					c8.9,0,16.9-2.9,22.2-7.4c3.9,2.8,9.4,4.6,15.5,4.6c12,0,21.8-6.9,21.8-15.4C679,180.5,669.3,173.6,657.2,173.6z"/>
			</g>
		</g>
		<g>
			<g>
				<path class="st34" d="M463.6,107.7c-3.7,0-7.1,0.8-9.9,2.2c-4-4.9-11.4-8.2-20-8.2c-9.3,0-17.4,4-21,9.6c-2-0.8-4.2-1.2-6.6-1.2
					c-7.6,0-13.8,4.4-13.8,9.8c0,5.4,6.2,9.8,13.8,9.8c3.4,0,6.4-0.9,8.8-2.3c4.2,4.2,11,6.9,18.8,6.9c7.1,0,13.4-2.3,17.6-5.8
					c3.1,2.3,7.5,3.7,12.3,3.7c9.5,0,17.3-5.5,17.3-12.2C480.8,113.2,473.1,107.7,463.6,107.7z"/>
			</g>
		</g>
	</g>
	<g>
		<circle class="st1" cx="559.7" cy="157.9" r="4.1"/>
		<circle class="st1" cx="481.1" cy="173.7" r="2.9"/>
		<circle class="st1" cx="193.2" cy="184.7" r="7.2"/>
		<circle class="st1" cx="770.8" cy="495.9" r="7.2"/>
		<circle class="st1" cx="537" cy="202.5" r="5.2"/>
		<circle class="st1" cx="211.5" cy="204" r="2.7"/>
		<circle class="st1" cx="517.2" cy="764.2" r="2.7"/>
		<circle class="st1" cx="797.8" cy="414.2" r="2.7"/>
		<circle class="st1" cx="788.3" cy="525" r="2.7"/>
		<circle class="st1" cx="517.5" cy="200.6" r="2.7"/>
		<path class="st1" d="M497.4,253.5L497.4,253.5c-9.5-2.4-17-9.9-19.4-19.4h0c-2.4,9.5-9.9,17-19.4,19.4v0c9.5,2.4,17,9.9,19.4,19.4
			h0C480.4,263.3,487.9,255.8,497.4,253.5z"/>
		<path class="st1" d="M552.8,746.2L552.8,746.2c-4.3-1.1-7.6-4.4-8.7-8.7h0c-1.1,4.3-4.4,7.6-8.7,8.7v0c4.3,1.1,7.6,4.4,8.7,8.7h0
			C545.2,750.6,548.6,747.2,552.8,746.2z"/>
		<path class="st1" d="M458.5,728.9L458.5,728.9c-4.3-1.1-7.6-4.4-8.7-8.7h0c-1.1,4.3-4.4,7.6-8.7,8.7v0c4.3,1.1,7.6,4.4,8.7,8.7h0
			C450.9,733.3,454.3,729.9,458.5,728.9z"/>
		<path class="st1" d="M79,425.3L79,425.3c-4.3-1.1-7.6-4.4-8.7-8.7h0c-1.1,4.3-4.4,7.6-8.7,8.7v0c4.3,1.1,7.6,4.4,8.7,8.7h0
			C71.4,429.7,74.8,426.4,79,425.3z"/>
		<circle class="st1" cx="91.9" cy="366.3" r="2.9"/>
		<path class="st1" d="M132.1,402.8L132.1,402.8c-4.3-1.1-7.6-4.4-8.7-8.7h0c-1.1,4.3-4.4,7.6-8.7,8.7v0c4.3,1.1,7.6,4.4,8.7,8.7h0
			C124.5,407.2,127.8,403.8,132.1,402.8z"/>
	</g>
</g>
</svg>
