<?xml version="1.0" encoding="utf-8"?>
<!-- Generator: Adobe Illustrator 18.0.0, SVG Export Plug-In . SVG Version: 6.00 Build 0)  -->
<!DOCTYPE svg PUBLIC "-//W3C//DTD SVG 1.1//EN" "http://www.w3.org/Graphics/SVG/1.1/DTD/svg11.dtd">
<svg version="1.1" id="Layer_1" xmlns="http://www.w3.org/2000/svg" xmlns:xlink="http://www.w3.org/1999/xlink" x="0px" y="0px"
	 viewBox="324.5 273.3 142 40.8" enable-background="new 324.5 273.3 142 40.8" xml:space="preserve">
<g>
	<g>
		<g>
			<path fill="#444344" d="M369.6,273.3c1.3,0,2.4,0.1,3.4,0.3c1.1,0.2,1.9,0.6,2.6,1.1c0.9,0.6,1.5,1.3,1.8,2
				c0.4,0.9,0.6,1.9,0.6,3.2c0,1.4-0.3,2.4-0.9,3.3s-1.5,1.7-2.7,2.2c1.7,0.5,2.8,1.3,3.7,2.4c0.8,1.2,1.2,2.6,1.2,4.3
				c0,1.4-0.3,2.5-0.8,3.5c-0.5,1-1.3,1.8-2.1,2.4c-0.9,0.6-1.8,1.1-3,1.4s-2.2,0.5-3.5,0.5h-12.8v-26.7H369.6z M368.9,284
				c1.1,0,1.8-0.3,2.5-0.8c0.7-0.5,1-1.3,1-2.4c0-0.6-0.1-1.2-0.3-1.6s-0.5-0.7-0.9-1c-0.4-0.2-0.8-0.4-1.3-0.5
				c-0.5-0.1-1-0.1-1.5-0.1h-5.5v6.3H368.9z M369.2,295.3c0.6,0,1.1-0.1,1.7-0.2c0.5-0.1,1-0.3,1.4-0.6c0.4-0.3,0.7-0.6,1-1.1
				c0.2-0.5,0.4-1,0.4-1.8c0-1.4-0.4-2.3-1.2-2.9c-0.8-0.6-1.8-0.9-3-0.9h-6.3v7.3L369.2,295.3L369.2,295.3z"/>
			<path fill="#444344" d="M381.1,277.7v-4.4h5.3v4.4H381.1z M386.3,280.6v19.2h-5.3v-19.2H386.3z"/>
			<path fill="#444344" d="M394,273.3v26.5h-5.3v-26.5H394z"/>
			<path fill="#444344" d="M396.4,286c0.5-1.3,1.2-2.3,2-3.2c0.9-0.9,1.9-1.6,3.1-2c1.2-0.5,2.5-0.7,4-0.7c1.6,0,2.9,0.2,4.1,0.7
				c1.3,0.5,2.2,1.2,3.1,2c0.9,0.9,1.6,1.9,2,3.2s0.7,2.6,0.7,4.2s-0.2,2.9-0.7,4.2s-1.2,2.3-2,3.2c-0.9,0.9-1.9,1.6-3.1,2
				c-1.3,0.5-2.6,0.7-4.1,0.7c-1.6,0-2.9-0.2-4.1-0.7c-1.2-0.5-2.2-1.2-3.1-2c-0.9-0.9-1.6-1.9-2-3.2c-0.5-1.3-0.7-2.6-0.7-4.2
				C395.8,288.7,396,287.3,396.4,286z M401.2,292.5c0.2,0.8,0.4,1.4,0.8,1.9s0.9,1.1,1.5,1.4c0.6,0.4,1.4,0.5,2.2,0.5
				s1.7-0.2,2.2-0.5c0.6-0.4,1.1-0.8,1.5-1.4s0.6-1.3,0.8-1.9c0.2-0.7,0.2-1.5,0.2-2.2c0-0.8-0.1-1.6-0.2-2.2
				c-0.2-0.8-0.4-1.4-0.8-1.9s-0.9-1.1-1.5-1.4c-0.6-0.4-1.4-0.6-2.2-0.6s-1.7,0.2-2.2,0.6c-0.7,0.3-1.1,0.8-1.5,1.3
				c-0.4,0.6-0.6,1.3-0.8,1.9c-0.2,0.8-0.2,1.5-0.2,2.2C401,291,401,291.8,401.2,292.5z"/>
			<path fill="#444344" d="M435.3,301.2c-0.2,1-0.7,1.9-1.4,2.7c-0.7,0.9-1.7,1.6-3,2.1c-1.3,0.6-3.1,0.9-5.3,0.9
				c-1,0-1.9-0.1-2.9-0.4c-1-0.2-1.8-0.6-2.6-1.1c-0.8-0.5-1.5-1.2-2-1.9c-0.5-0.8-0.9-1.8-0.9-2.8h5.3c0.3,1,0.7,1.7,1.5,2
				c0.7,0.4,1.6,0.6,2.5,0.6c1.5,0,2.5-0.5,3.2-1.4s1-2,1-3.4v-2.5h-0.1c-0.6,1-1.4,1.8-2.4,2.2c-1.1,0.5-2.1,0.7-3.3,0.7
				c-1.5,0-2.6-0.3-3.7-0.8c-1.1-0.5-1.8-1.2-2.5-2c-0.7-0.9-1.2-1.9-1.5-3.1c-0.3-1.2-0.5-2.4-0.5-3.7s0.2-2.4,0.6-3.6
				s0.9-2.1,1.6-3c0.7-0.9,1.6-1.6,2.6-2.1c1.1-0.5,2.2-0.8,3.5-0.8s2.3,0.2,3.3,0.7c1,0.5,1.8,1.3,2.4,2.3h0.1v-2.2h5v18
				C435.6,299.4,435.5,300.2,435.3,301.2z M428.1,294.8c0.6-0.3,1.1-0.7,1.4-1.2c0.4-0.5,0.7-1.1,0.9-1.7s0.3-1.3,0.3-1.9
				c0-0.8-0.1-1.6-0.2-2.2c-0.2-0.7-0.4-1.4-0.8-1.8c-0.4-0.6-0.8-1-1.4-1.3c-0.6-0.3-1.3-0.5-2.1-0.5c-0.8,0-1.4,0.2-1.9,0.5
				c-0.5,0.3-1,0.7-1.4,1.2c-0.4,0.5-0.6,1.1-0.8,1.8c-0.2,0.7-0.2,1.4-0.2,2c0,0.7,0.1,1.4,0.2,2c0.1,0.7,0.4,1.3,0.7,1.8
				s0.8,1,1.4,1.4c0.6,0.4,1.3,0.5,2,0.5C426.8,295.3,427.5,295.1,428.1,294.8z"/>
		</g>
		<g>
			<g>
				<defs>
					<path id="SVGID_1_" d="M435.6,280.1c0,0-0.4,14.4-41.7,16.8c-1.8,0.4,0.1,10,0.1,10l34.3,2.1l9.6-2.1l-0.5-24.2L435.6,280.1z"
						/>
				</defs>
				<clipPath id="SVGID_2_">
					<use xlink:href="#SVGID_1_"  overflow="visible"/>
				</clipPath>
				<g clip-path="url(#SVGID_2_)">
					<path fill="#668AF5" d="M396.4,286c0.5-1.3,1.2-2.3,2-3.2c0.9-0.9,1.9-1.6,3.1-2c1.2-0.5,2.5-0.7,4-0.7c1.6,0,2.9,0.2,4.1,0.7
						c1.2,0.5,2.2,1.2,3.1,2c0.9,0.9,1.6,1.9,2,3.2s0.7,2.6,0.7,4.2s-0.2,2.9-0.7,4.2s-1.2,2.3-2,3.2c-0.9,0.9-1.9,1.6-3.1,2
						c-1.3,0.5-2.6,0.7-4.1,0.7c-1.6,0-2.8-0.2-4.1-0.7c-1.2-0.5-2.2-1.2-3.1-2c-0.9-0.9-1.6-1.9-2-3.2c-0.5-1.3-0.7-2.6-0.7-4.2
						C395.8,288.7,396,287.3,396.4,286z M401.2,292.5c0.2,0.8,0.4,1.4,0.8,1.9s0.9,1.1,1.5,1.4c0.6,0.4,1.4,0.5,2.2,0.5
						s1.7-0.2,2.2-0.5c0.6-0.4,1.1-0.8,1.5-1.4s0.6-1.3,0.8-1.9c0.2-0.7,0.2-1.5,0.2-2.2c0-0.8-0.1-1.6-0.2-2.2
						c-0.2-0.8-0.4-1.4-0.8-1.9s-0.9-1.1-1.5-1.4c-0.6-0.4-1.4-0.6-2.2-0.6s-1.7,0.2-2.2,0.6c-0.7,0.3-1.1,0.8-1.5,1.3
						c-0.4,0.6-0.6,1.3-0.8,1.9c-0.2,0.8-0.2,1.5-0.2,2.2C401,291,401.1,291.7,401.2,292.5z"/>
					<path fill="#668AF5" d="M435.3,301.2c-0.2,1-0.7,1.9-1.4,2.7c-0.7,0.9-1.7,1.6-3,2.1c-1.3,0.6-3.1,0.9-5.3,0.9
						c-1,0-1.9-0.1-2.9-0.4c-1-0.2-1.8-0.6-2.6-1.1c-0.8-0.5-1.5-1.2-2-1.9c-0.5-0.8-0.9-1.8-0.9-2.8h5.3c0.3,1,0.7,1.7,1.5,2
						c0.7,0.4,1.6,0.6,2.5,0.6c1.5,0,2.5-0.5,3.2-1.4s1-2,1-3.4v-2.5h-0.1c-0.6,1-1.4,1.8-2.4,2.2c-1.1,0.5-2.1,0.7-3.3,0.7
						c-1.5,0-2.6-0.3-3.7-0.8c-1.1-0.5-1.8-1.2-2.5-2c-0.7-0.9-1.2-1.9-1.5-3.1c-0.3-1.2-0.5-2.4-0.5-3.7s0.2-2.4,0.6-3.6
						s0.9-2.1,1.6-3c0.7-0.9,1.6-1.6,2.6-2.1c1.1-0.5,2.2-0.8,3.5-0.8s2.3,0.2,3.3,0.7c1,0.5,1.8,1.3,2.4,2.3h0.1v-2.2h5v18
						C435.6,299.4,435.5,300.2,435.3,301.2z M428.1,294.8c0.6-0.3,1.1-0.7,1.4-1.2c0.4-0.5,0.7-1.1,0.9-1.7s0.3-1.3,0.3-1.9
						c0-0.8-0.1-1.6-0.2-2.2c-0.2-0.7-0.4-1.4-0.8-1.8c-0.4-0.6-0.8-1-1.4-1.3c-0.6-0.3-1.3-0.5-2.1-0.5c-0.8,0-1.4,0.2-1.9,0.5
						c-0.5,0.3-1,0.7-1.4,1.2c-0.4,0.5-0.6,1.1-0.8,1.8c-0.2,0.7-0.2,1.4-0.2,2c0,0.7,0.1,1.4,0.2,2c0.1,0.7,0.4,1.3,0.7,1.8
						s0.8,1,1.4,1.4c0.6,0.4,1.3,0.5,2,0.5C426.8,295.3,427.5,295.1,428.1,294.8z"/>
				</g>
			</g>
		</g>
	</g>
</g>
</svg>
