<svg id="DISEÑO" xmlns="http://www.w3.org/2000/svg" viewBox="0 0 555.05 496.73"><defs><style>.cls-1,.cls-3{opacity:0.1;}.cls-2,.cls-3{fill:#44ace2;}.cls-4,.cls-6{fill:#2b3786;}.cls-5,.cls-8,.cls-9{fill:none;}.cls-5,.cls-6,.cls-7,.cls-8,.cls-9{stroke:#44ace2;stroke-linecap:round;stroke-linejoin:round;}.cls-5,.cls-6{stroke-width:18px;}.cls-7{fill:#3c5da7;}.cls-7,.cls-8{stroke-width:10px;}.cls-9{stroke-width:6px;}</style></defs><title>BILOG_iconos</title><g class="cls-1"><path class="cls-2" d="M255,252.83h0a10.76,10.76,0,0,0-15.21,0L140,352.66a10.76,10.76,0,0,1-15.21-15.21L171.26,291a10.76,10.76,0,1,0-15.21-15.21L3.15,425.67a10.76,10.76,0,0,0,15.21,15.21l51-47.95a10.76,10.76,0,1,1,15.21,15.21l-11,11a10.76,10.76,0,0,0,15.22,15.21L255,268a10.76,10.76,0,0,0,0-15.21"/></g><path class="cls-3" d="M527.61,176.77h0a16.72,16.72,0,0,0-23.65-.12l-7.13,7.06a16.72,16.72,0,0,1-23.64-.12h0a16.72,16.72,0,0,1,.12-23.64l76.78-76a16.72,16.72,0,0,0-23.52-23.77L418.1,167.55a16.72,16.72,0,1,1-23.53-23.76l38.81-38.43A16.72,16.72,0,1,0,409.85,81.6L396.27,95.05a16.72,16.72,0,0,1-23.53-23.76L415.86,28.6A16.72,16.72,0,0,0,392.33,4.84L153.09,241.72a16.72,16.72,0,1,0,23.53,23.77l32.13-31.83a16.72,16.72,0,1,1,23.53,23.76l-63.65,63a16.72,16.72,0,1,0,23.53,23.77l35.2-34.86a16.72,16.72,0,0,1,23.53,23.76l-3.69,3.65a16.72,16.72,0,1,0,23.53,23.76l61.52-60.92a16.72,16.72,0,0,1,23.53,23.77l-93,92.12a16.72,16.72,0,1,0,23.53,23.76L527.49,200.41a16.71,16.71,0,0,0,.12-23.64"/><path class="cls-4" d="M438.19,224.73v178a2,2,0,0,1-2,2h-326a2,2,0,0,1-2-2v-178"/><path class="cls-5" d="M438.19,224.73v178a2,2,0,0,1-2,2h-326a2,2,0,0,1-2-2v-178"/><path class="cls-6" d="M118.45,394.47,267.33,271.66a9.81,9.81,0,0,1,11.72,0l148.1,121.23"/><polyline class="cls-6" points="108.19 224.73 273.19 64.73 438.19 224.73"/><line class="cls-4" x1="108.19" y1="224.73" x2="215.45" y2="311.24"/><line class="cls-5" x1="108.19" y1="224.73" x2="215.45" y2="311.24"/><line class="cls-4" x1="438.19" y1="224.73" x2="330.94" y2="311.24"/><line class="cls-5" x1="438.19" y1="224.73" x2="330.94" y2="311.24"/><circle class="cls-7" cx="273.25" cy="196.63" r="39.72"/><polyline class="cls-8" points="252.13 196.63 269.68 210.67 294.25 182.6"/><path class="cls-2" d="M435.46,123.26a5,5,0,0,0-3.56-1.51h-8.25v-8.27a4.83,4.83,0,0,0-.29-1.61,2.46,2.46,0,0,0-.09-.29v0a5.08,5.08,0,0,0-1-1.59,4.85,4.85,0,0,0-3.32-1.52c-.11,0-.21,0-.31,0h0c-.11,0-.21,0-.31,0A4.85,4.85,0,0,0,415,110a5.08,5.08,0,0,0-1,1.59v0a2.46,2.46,0,0,0-.09.29,4.84,4.84,0,0,0-.3,1.61v8.27h-8.24a5.14,5.14,0,0,0-5.06,5.06,4.87,4.87,0,0,0,1.54,3.64,5,5,0,0,0,3.52,1.42h8.24v8.26a5,5,0,0,0,1.42,3.52,4.91,4.91,0,0,0,3.65,1.54h0a4.87,4.87,0,0,0,3.64-1.54,5,5,0,0,0,1.42-3.52v-8.26h8.25a5,5,0,0,0,3.52-1.42,4.87,4.87,0,0,0,1.54-3.64,4.94,4.94,0,0,0-1.5-3.55"/><path class="cls-2" d="M172.27,79.93A9.55,9.55,0,0,0,165.38,77h-16V61a9.48,9.48,0,0,0-.56-3.14c-.07-.19-.1-.38-.18-.56,0,0,0,0,0,0a10.48,10.48,0,0,0-2-3.08,9.38,9.38,0,0,0-6.44-2.93c-.21,0-.4-.06-.61-.06h0c-.2,0-.39.05-.6.06a9.38,9.38,0,0,0-6.44,2.93,10.29,10.29,0,0,0-2,3.08s0,0,0,0a5.18,5.18,0,0,0-.17.56,9.2,9.2,0,0,0-.58,3.14V77h-16a10,10,0,0,0-9.8,9.81,9.45,9.45,0,0,0,3,7.06,9.79,9.79,0,0,0,6.81,2.75h16v16a9.65,9.65,0,0,0,2.75,6.82,9.46,9.46,0,0,0,7.06,3h0a9.43,9.43,0,0,0,7.06-3,9.65,9.65,0,0,0,2.75-6.82v-16h16a9.81,9.81,0,0,0,6.82-2.75,9.45,9.45,0,0,0,3-7.06,9.55,9.55,0,0,0-2.92-6.88"/><path class="cls-9" d="M195.19,454.73c13,0,13,12,26,12s13-12,26-12,13,12,26,12,13-12,26-12,13,12,26,12,13-12,26-12"/><path class="cls-9" d="M321.19,493.73c-12,0-12-12-24-12s-12,12-24,12-12-12-24-12-12,12-24,12"/></svg>