<svg id="DISEÑO" xmlns="http://www.w3.org/2000/svg" viewBox="0 0 565.86 574.03"><defs><style>.cls-1,.cls-3{opacity:0.1;}.cls-2,.cls-3{fill:#44ace2;}.cls-4{fill:#a0d3e8;}.cls-5{fill:#3c5da7;stroke-width:7px;}.cls-5,.cls-6,.cls-7,.cls-8{stroke:#44ace2;stroke-linecap:round;stroke-linejoin:round;}.cls-6{fill:#2b3786;}.cls-6,.cls-7{stroke-width:18px;}.cls-7,.cls-8{fill:none;}.cls-8{stroke-width:6px;}</style></defs><title>BILOG_iconos</title><g class="cls-1"><path class="cls-2" d="M363.85,356.83h0a10.76,10.76,0,0,0-15.21,0l-99.83,99.83a10.76,10.76,0,1,1-15.21-15.21L280.07,395a10.76,10.76,0,1,0-15.21-15.21L89,555.67a10.76,10.76,0,0,0,15.21,15.21l74-73.95a10.76,10.76,0,1,1,15.21,15.21l-11,11a10.76,10.76,0,0,0,15.21,15.21L363.85,372a10.76,10.76,0,0,0,0-15.21"/></g><path class="cls-3" d="M538.42,176.77h0a16.72,16.72,0,0,0-23.65-.12l-7.13,7.06a16.72,16.72,0,0,1-23.64-.12h0a16.71,16.71,0,0,1,.12-23.64l76.78-76a16.72,16.72,0,0,0-23.52-23.77L428.91,167.55a16.72,16.72,0,1,1-23.53-23.76l38.81-38.43A16.72,16.72,0,1,0,420.66,81.6L407.08,95.05a16.72,16.72,0,0,1-23.53-23.76L426.66,28.6A16.72,16.72,0,1,0,403.13,4.84L163.9,241.72a16.72,16.72,0,1,0,23.53,23.77l32.13-31.83a16.72,16.72,0,1,1,23.53,23.76l-63.66,63A16.72,16.72,0,0,0,203,344.22l35.21-34.86a16.72,16.72,0,0,1,23.53,23.76L258,336.77a16.72,16.72,0,1,0,23.53,23.76l61.52-60.92a16.72,16.72,0,0,1,23.53,23.77l-93,92.12a16.72,16.72,0,1,0,23.53,23.76L538.3,200.41a16.72,16.72,0,0,0,.12-23.64"/><path class="cls-4" d="M347.45,240.49c81.3,0,147.25,54.31,147.25,121.27,0,40.23-25.11,74.06-61.72,96.16,2.54,42.16,27.07,59.75,27.07,59.75S408.42,524.3,376.88,483H347.45c-81.31,0-147.26-54.31-147.26-121.27S266.14,240.49,347.45,240.49Z"/><circle class="cls-5" cx="465.74" cy="177.54" r="54.31"/><path class="cls-6" d="M225.78,409.47H256.1c83.75,0,151.68-55.94,151.68-124.91S339.85,159.65,256.1,159.65,104.43,215.59,104.43,284.56c0,41.44,25.86,76.29,63.57,99.05h0"/><path class="cls-6" d="M168,383.61c-2.62,43.43-27.88,61.55-27.88,61.55s53.18,6.83,85.66-35.69"/><path class="cls-7" d="M461.31,284.56c22,15.34,35.69,45.35,35.69,71.38,0,41.44-25.89,76.29-63.6,99.05h0"/><path class="cls-7" d="M375.65,480.85H345.32c-29.2,0-57.15-6.1-80.29-17.84"/><path class="cls-7" d="M433.4,455c2.64,43.43,27.91,61.55,27.91,61.55s-53.22,6.83-85.66-35.69"/><path class="cls-2" d="M448.53,166a12.4,12.4,0,0,1,2.1-6.62,16.09,16.09,0,0,1,6.12-5.56,19.29,19.29,0,0,1,9.4-2.21,20.13,20.13,0,0,1,8.81,1.84,14.33,14.33,0,0,1,5.91,5,12.3,12.3,0,0,1,2.08,6.89,10.56,10.56,0,0,1-1.19,5.13,15.66,15.66,0,0,1-2.82,3.8c-1.09,1.07-3.05,2.86-5.87,5.39a23.26,23.26,0,0,0-1.87,1.88,7.41,7.41,0,0,0-1.06,1.48,7.94,7.94,0,0,0-.53,1.34c-.13.45-.31,1.23-.57,2.36-.43,2.38-1.8,3.58-4.09,3.58a4.17,4.17,0,0,1-3-1.17,4.58,4.58,0,0,1-1.23-3.48,12.27,12.27,0,0,1,3.27-8.73q1.49-1.59,4-3.8c1.46-1.29,2.53-2.26,3.18-2.91a9.27,9.27,0,0,0,1.65-2.19,5.24,5.24,0,0,0,.68-2.61,6.1,6.1,0,0,0-2.05-4.65,7.5,7.5,0,0,0-5.29-1.89c-2.52,0-4.38.63-5.57,1.91a15,15,0,0,0-3,5.63q-1.17,3.89-4.44,3.89a4.38,4.38,0,0,1-3.26-1.37,4.14,4.14,0,0,1-1.32-2.94Zm0,0"/><path class="cls-2" d="M465.08,193.13a5.18,5.18,0,1,0,5.18,5.18,5.17,5.17,0,0,0-5.18-5.18Zm0,0"/><path class="cls-8" d="M3,453.73c12,0,12,12,24,12s12-12,24-12,12,12,24,12,12-12,24-12"/><path class="cls-8" d="M3,486.73c13,0,13,12,26,12s13-12,26-12,13,12,26,12,13-12,26-12,13,12,26,12,13-12,26-12"/></svg>