<svg id="DISEÑO" xmlns="http://www.w3.org/2000/svg" viewBox="0 0 641.86 477.91"><defs><style>.cls-1,.cls-4{fill:#44ace2;}.cls-1,.cls-3{opacity:0.1;}.cls-2{fill:#a0d3e8;}.cls-2,.cls-5,.cls-6,.cls-7{stroke:#44ace2;stroke-linecap:round;stroke-linejoin:round;}.cls-2,.cls-7{stroke-width:18px;}.cls-5{fill:#3c5da7;stroke-width:7px;}.cls-6{fill:none;stroke-width:6px;}.cls-7{fill:#2b3786;}</style></defs><title>BILOG_iconos</title><path class="cls-1" d="M614.42,176.77h0a16.72,16.72,0,0,0-23.65-.12l-7.13,7.06a16.72,16.72,0,0,1-23.64-.12h0a16.71,16.71,0,0,1,.12-23.64l76.78-76a16.72,16.72,0,0,0-23.52-23.77L504.91,167.55a16.72,16.72,0,1,1-23.53-23.76l38.81-38.43A16.72,16.72,0,1,0,496.66,81.6L483.08,95.05a16.72,16.72,0,0,1-23.53-23.76L502.66,28.6A16.72,16.72,0,1,0,479.13,4.84L239.9,241.72a16.72,16.72,0,1,0,23.53,23.77l32.13-31.83a16.72,16.72,0,1,1,23.53,23.76l-63.66,63A16.72,16.72,0,0,0,279,344.22l35.21-34.86a16.72,16.72,0,0,1,23.53,23.76L334,336.77a16.72,16.72,0,1,0,23.53,23.76l61.52-60.92a16.72,16.72,0,0,1,23.53,23.77l-93,92.12a16.72,16.72,0,1,0,23.53,23.76L614.3,200.41a16.72,16.72,0,0,0,.12-23.64"/><path class="cls-2" d="M508.87,341a20.31,20.31,0,0,0,19.77-25.06,105.43,105.43,0,0,0-204.79,0A20.31,20.31,0,0,0,343.63,341Z"/><circle class="cls-2" cx="427.92" cy="160.06" r="52.33"/><g class="cls-3"><path class="cls-4" d="M284.85,143.83h0a10.76,10.76,0,0,0-15.21,0l-99.83,99.83a10.76,10.76,0,1,1-15.21-15.21L201.07,182a10.76,10.76,0,0,0-15.21-15.21L10,342.67a10.76,10.76,0,0,0,15.21,15.21l74-73.95a10.76,10.76,0,1,1,15.21,15.21l-11,11a10.76,10.76,0,0,0,15.21,15.21L284.85,159a10.76,10.76,0,0,0,0-15.21"/></g><circle class="cls-5" cx="482.39" cy="428.81" r="45.61"/><path class="cls-4" d="M499.27,425.26a5,5,0,0,0-3.56-1.51h-8.25v-8.27a4.83,4.83,0,0,0-.29-1.61c0-.1-.05-.2-.09-.29v0a5.08,5.08,0,0,0-1-1.59,4.85,4.85,0,0,0-3.32-1.52c-.11,0-.21,0-.31,0h0c-.11,0-.21,0-.31,0a4.89,4.89,0,0,0-3.33,1.52,5.46,5.46,0,0,0-1,1.59v0a2.46,2.46,0,0,0-.09.29,4.84,4.84,0,0,0-.3,1.61v8.27h-8.24a5.16,5.16,0,0,0-5.07,5.06,4.88,4.88,0,0,0,1.55,3.64,5,5,0,0,0,3.52,1.42h8.24v8.26a5,5,0,0,0,1.42,3.52,4.89,4.89,0,0,0,3.65,1.54h0a4.87,4.87,0,0,0,3.64-1.54,5,5,0,0,0,1.42-3.52v-8.26h8.25a5,5,0,0,0,3.52-1.42,4.87,4.87,0,0,0,1.54-3.64,4.94,4.94,0,0,0-1.5-3.55"/><path class="cls-6" d="M63,250.73c12,0,12,12,24,12s12-12,24-12,12,12,24,12,12-12,24-12"/><path class="cls-6" d="M3,283.73c13,0,13,12,26,12s13-12,26-12,13,12,26,12,13-12,26-12,13,12,26,12,13-12,26-12"/><path class="cls-7" d="M364.87,440.73a27.18,27.18,0,0,0,26.45-33.54,141.05,141.05,0,0,0-274,0,27.18,27.18,0,0,0,26.45,33.54Z"/><circle class="cls-7" cx="256.57" cy="202.87" r="70.01"/></svg>