<svg id="DISEÑO" xmlns="http://www.w3.org/2000/svg" viewBox="0 0 548.05 553.03"><defs><style>.cls-1,.cls-4{fill:#44ace2;}.cls-1,.cls-3{opacity:0.1;}.cls-2{fill:#a0d3e8;}.cls-2,.cls-5,.cls-6,.cls-7,.cls-8{stroke:#44ace2;stroke-linecap:round;stroke-linejoin:round;}.cls-2,.cls-5,.cls-6{stroke-width:18px;}.cls-5{fill:#2b3786;}.cls-6{fill:#4d72b6;}.cls-7{fill:#3c5da7;stroke-width:7px;}.cls-8{fill:none;stroke-width:6px;}</style></defs><title>BILOG_iconos</title><path class="cls-1" d="M520.61,176.77h0a16.72,16.72,0,0,0-23.65-.12l-7.13,7.06a16.72,16.72,0,0,1-23.64-.12h0a16.72,16.72,0,0,1,.12-23.64l76.78-76a16.72,16.72,0,0,0-23.52-23.77L411.1,167.55a16.72,16.72,0,1,1-23.53-23.76l38.81-38.43A16.72,16.72,0,1,0,402.85,81.6L389.27,95.05a16.72,16.72,0,0,1-23.53-23.76L408.86,28.6A16.72,16.72,0,0,0,385.33,4.84L146.09,241.72a16.72,16.72,0,1,0,23.53,23.77l32.13-31.83a16.72,16.72,0,1,1,23.53,23.76l-63.65,63a16.72,16.72,0,1,0,23.53,23.77l35.2-34.86a16.72,16.72,0,0,1,23.53,23.76l-3.69,3.65a16.72,16.72,0,1,0,23.53,23.76l61.52-60.92a16.72,16.72,0,0,1,23.53,23.77l-93,92.12a16.72,16.72,0,1,0,23.53,23.76L520.49,200.41a16.71,16.71,0,0,0,.12-23.64"/><path class="cls-2" d="M460.19,399.48a11.53,11.53,0,0,1-11.5,11.5h-161a11.55,11.55,0,0,1-11.5-11.5v-230a11.54,11.54,0,0,1,11.5-11.5h163.6a8.89,8.89,0,0,1,8.9,8.9Z"/><g class="cls-3"><path class="cls-4" d="M249,364.83h0a10.76,10.76,0,0,0-15.21,0L134,464.66a10.76,10.76,0,0,1-15.21-15.21L165.26,403a10.76,10.76,0,1,0-15.21-15.21L3.15,534.67a10.76,10.76,0,0,0,15.21,15.21l45-44.95a10.76,10.76,0,1,1,15.21,15.21l-11,11a10.76,10.76,0,0,0,15.22,15.21L249,380a10.76,10.76,0,0,0,0-15.21"/></g><path class="cls-5" d="M338,304.82V514.53a15,15,0,0,1-15,15H113.33a15,15,0,0,1-15-15V214.93a15,15,0,0,1,15-15H233.17"/><polygon class="cls-6" points="338.03 304.82 233.17 304.82 233.17 199.95 338.03 304.82"/><line class="cls-5" x1="152.6" y1="406.61" x2="283.79" y2="406.61"/><line class="cls-5" x1="152.17" y1="355.95" x2="283.35" y2="355.95"/><line class="cls-5" x1="152.17" y1="457.28" x2="283.35" y2="457.28"/><circle class="cls-7" cx="458.59" cy="410.81" r="45.61"/><path class="cls-4" d="M475.46,407.26a5,5,0,0,0-3.56-1.51h-8.25v-8.27a4.83,4.83,0,0,0-.29-1.61,2.46,2.46,0,0,0-.09-.29v0a5.08,5.08,0,0,0-1-1.59,4.85,4.85,0,0,0-3.32-1.52c-.11,0-.21,0-.31,0h0c-.11,0-.21,0-.31,0A4.85,4.85,0,0,0,455,394a5.08,5.08,0,0,0-1,1.59v0a2.46,2.46,0,0,0-.09.29,4.84,4.84,0,0,0-.3,1.61v8.27h-8.24a5.14,5.14,0,0,0-5.06,5.06,4.87,4.87,0,0,0,1.54,3.64,5,5,0,0,0,3.52,1.42h8.24v8.26a5,5,0,0,0,1.42,3.52,4.91,4.91,0,0,0,3.65,1.54h0a4.87,4.87,0,0,0,3.64-1.54,5,5,0,0,0,1.42-3.52v-8.26h8.25a5,5,0,0,0,3.52-1.42,4.87,4.87,0,0,0,1.54-3.64,4.94,4.94,0,0,0-1.5-3.55"/><path class="cls-8" d="M101.19,153.73c12,0,12,12,24,12s12-12,24-12,12,12,24,12,12-12,24-12"/><path class="cls-8" d="M362.19,514.73c13,0,13,12,26,12s13-12,26-12,13,12,26,12,13-12,26-12,13,12,26,12,13-12,26-12"/><path class="cls-8" d="M365.19,482.73c12,0,12,12,24,12s12-12,24-12,12,12,24,12,12-12,24-12"/></svg>