<?xml version="1.0" encoding="utf-8"?>
<!-- Generator: Adobe Illustrator 21.1.0, SVG Export Plug-In . SVG Version: 6.00 Build 0)  -->
<svg version="1.1" xmlns="http://www.w3.org/2000/svg" xmlns:xlink="http://www.w3.org/1999/xlink" x="0px" y="0px"
	 viewBox="0 0 858.1 858.1" style="enable-background:new 0 0 858.1 858.1;" xml:space="preserve">
<style type="text/css">
	.st0{fill:#F4FAFD;}
	.st1{fill:#007AFF;}
	.st2{fill:#505656;}
	.st3{fill:#231F20;}
	.st4{fill:url(#SVGID_1_);}
	.st5{fill:#FFFFFF;}
	.st6{fill:#A9D7F3;}
	.st7{fill:#F8C208;}
	.st8{fill:#7ADCFB;}
	.st9{fill:#2300B1;}
	.st10{fill:#38A0FB;}
	.st11{fill:#E2FBFF;}
	.st12{clip-path:url(#SVGID_3_);}
	.st13{fill:#FFB1DF;}
	.st14{fill:#150077;}
	.st15{fill:#2E7DFB;}
	.st16{fill:#26A4FB;}
	.st17{fill:#F5FBFF;}
	.st18{fill:#E982B4;}
	.st19{fill:#FCFAEB;}
	.st20{fill:url(#SVGID_4_);}
	.st21{clip-path:url(#SVGID_6_);}
	.st22{clip-path:url(#SVGID_8_);}
	.st23{fill:#E7F0F8;}
	.st24{fill:#F7C108;}
	.st25{fill:#8769B8;}
	.st26{fill:#D0EDFC;}
	.st27{fill:#F7FAFF;}
	.st28{fill:#B8EBF4;}
	.st29{fill:#8C66B9;}
	.st30{fill:#FF6FCA;}
	.st31{fill:#FF4D76;}
	.st32{fill:#A1DCFF;}
	.st33{fill:#23AFFC;}
	.st34{fill:#F6C50A;}
	.st35{fill:#FFDE17;}
	.st36{fill:#3400B1;}
	.st37{fill:#5AB2F9;}
	.st38{fill:#DBF4F9;}
	.st39{fill:#34ACFC;}
	.st40{fill:#98E3F4;}
	.st41{fill:#F183C1;}
	.st42{fill:#4377FB;}
	.st43{fill:#EE80BE;}
	.st44{opacity:0.53;}
	.st45{fill:#FFDA73;}
	.st46{fill:#210077;}
	.st47{fill:#E8F1F9;}
	.st48{fill:#EEF3FA;}
	.st49{fill:#CCE0FF;}
	.st50{fill:#F2F9FC;}
	.st51{fill:#F955AF;}
	.st52{fill:#FF90C8;}
	.st53{fill:#8869B9;}
	.st54{fill:#FEA700;}
	.st55{clip-path:url(#SVGID_12_);}
	.st56{opacity:0.57;}
	.st57{clip-path:url(#SVGID_14_);}
	.st58{clip-path:url(#SVGID_16_);}
	.st59{clip-path:url(#SVGID_18_);}
	.st60{clip-path:url(#SVGID_20_);}
	.st61{clip-path:url(#SVGID_22_);}
</style>
<g id="Layer_1">
</g>
<g id="Layer_2">
	<path class="st6" d="M591.8,93.4c122,7.7,191,211.5,216.1,289.2c25.1,77.7,90.5,295.8-73.7,342.1C570.1,770.9,204.9,802.3,34,673.4
		C-106.7,562.7,409.2,81.8,591.8,93.4z"/>
	<g id="XMLID_3_">
		<g>
			<g id="XMLID_28_">
				<g>
					<g>
						<g>
							<g>
								<path class="st46" d="M287.1,653.8h300.2V638c0-26.7-21.6-48.3-48.3-48.3H344.4c-31.6,0-57.3,25.6-57.3,57.3V653.8z"/>
							</g>
						</g>
					</g>
					<g>
						<g>
							<g>
								
									<rect x="396.3" y="497.1" transform="matrix(-1 -1.224647e-16 1.224647e-16 -1 927.3869 1152.5891)" class="st46" width="134.8" height="158.4"/>
							</g>
						</g>
						<g>
							<g>
								<g>
									
										<rect x="396.3" y="497.1" transform="matrix(-1 -1.224647e-16 1.224647e-16 -1 927.3869 1048.4152)" class="st36" width="134.8" height="54.2"/>
								</g>
							</g>
						</g>
					</g>
					<g>
						<g>
							<g>
								<path class="st46" d="M177.1,523h538.1c5.8,0,10.6-4.7,10.6-10.6V179.2c0-5.8-4.7-10.6-10.6-10.6H177.1
									c-5.8,0-10.6,4.7-10.6,10.6v333.2C166.5,518.2,171.2,523,177.1,523z"/>
							</g>
						</g>
					</g>
					<g>
						<g>
							
								<rect x="387.2" y="497.1" transform="matrix(-1 -1.224647e-16 1.224647e-16 -1 909.2294 1152.5891)" class="st10" width="134.8" height="158.4"/>
						</g>
					</g>
					<g>
						<g>
							<g>
								
									<rect x="387.2" y="497.1" transform="matrix(-1 -1.224647e-16 1.224647e-16 -1 909.2294 1048.4152)" class="st46" width="134.8" height="54.2"/>
							</g>
						</g>
					</g>
					<g>
						<g>
							<g>
								<path class="st10" d="M159.2,523h538.1c5.8,0,10.6-4.7,10.6-10.6V179.2c0-5.8-4.7-10.6-10.6-10.6H159.2
									c-5.8,0-10.6,4.7-10.6,10.6v333.2C148.6,518.2,153.3,523,159.2,523z"/>
							</g>
						</g>
					</g>
					<g>
						<g>
							<g>
								<rect x="173.5" y="189.4" class="st15" width="512.1" height="291"/>
							</g>
						</g>
						<g>
							<g>
								<g>
									<rect x="173.5" y="234.8" class="st9" width="512.1" height="245.7"/>
								</g>
							</g>
						</g>
						<g>
							<circle class="st47" cx="593.5" cy="211.9" r="7.3"/>
							<circle class="st47" cx="619.1" cy="211.9" r="7.3"/>
							<circle class="st47" cx="644.8" cy="211.9" r="7.3"/>
						</g>
					</g>
					<g>
						<g>
							<g>
								<path class="st10" d="M280.1,655.5h300.2v-15.8c0-26.7-21.6-48.3-48.3-48.3H337.4c-31.6,0-57.3,25.6-57.3,57.3V655.5z"/>
							</g>
						</g>
					</g>
					<path class="st10" d="M522.2,674.7v-0.2c-1.4,0.1-2.9,0.2-4.3,0.2H522.2z"/>
					<g>
						<path class="st48" d="M653,163.5v3.9h-95.1v410.7c0,4.7-0.7,9.2-1.9,13.4c-5.4,18.5-21.8,32.3-41.6,34
							c-1.3,0.1-2.7,0.2-4.1,0.2c-21.6,0-39.9-14.4-45.6-34.2H233.7V177.1c0-31.7,25.7-57.4,57.4-57.4h314.3c4.5,0,8.9,0.6,13,1.7
							C638.2,126.6,652.7,143.5,653,163.5z"/>
						<path class="st32" d="M464.7,591.6c-1.3-4.3-1.9-8.8-1.9-13.4v-10.8H152.1v10.8c0,26.3,21.3,47.6,47.6,47.6h310.6
							C488.7,625.8,470.4,611.4,464.7,591.6z"/>
					</g>
					<circle class="st49" cx="476.5" cy="246.3" r="50.2"/>
					<g>
						<circle class="st50" cx="476.5" cy="225.5" r="9.7"/>
						<path class="st50" d="M508.4,274.7c-0.5-17.2-14.6-30.9-31.9-30.9c-17.3,0-31.4,13.8-31.9,30.9H508.4z"/>
					</g>
					<path class="st9" d="M653,164.1v4.4h-95.2v-4.4c0-12.3,5.3-23.4,13.9-31.4c5.6-5.3,12.7-9.2,20.6-11.3c4.1-1.1,8.5-1.7,13-1.7
						c4.5,0,8.9,0.6,13,1.7c19.8,5.2,34.3,22.1,34.5,42.2C653,163.7,653,163.9,653,164.1z"/>
					<g id="XMLID_43_">
						<g>
							<path class="st49" d="M520.2,378.4h-44.5c-3.6,0-6.5-2.9-6.5-6.5v-44.5c0-3.6,2.9-6.5,6.5-6.5h44.5c3.6,0,6.5,2.9,6.5,6.5
								v44.5C526.7,375.5,523.8,378.4,520.2,378.4z"/>
							<rect x="266.9" y="320.9" class="st49" width="85.4" height="12.2"/>
							<rect x="266.9" y="343.6" class="st49" width="167.4" height="12.2"/>
							<rect x="266.9" y="366.2" class="st49" width="167.4" height="12.2"/>
						</g>
					</g>
					<g id="New_Symbol_22_6_">
						<rect x="266.9" y="172.7" class="st49" width="247.6" height="12.2"/>
						<g>
							<rect x="266.9" y="240.2" class="st49" width="139.5" height="12.2"/>
							<rect x="266.9" y="212.3" class="st49" width="139.5" height="12.2"/>
							<rect x="266.9" y="268.1" class="st49" width="139.5" height="12.2"/>
						</g>
					</g>
					<g id="XMLID_42_">
						<g>
							<path class="st49" d="M520.2,449.1h-44.5c-3.6,0-6.5-2.9-6.5-6.5v-44.5c0-3.6,2.9-6.5,6.5-6.5h44.5c3.6,0,6.5,2.9,6.5,6.5
								v44.5C526.7,446.1,523.8,449.1,520.2,449.1z"/>
							<rect x="266.9" y="391.5" class="st49" width="85.4" height="12.2"/>
							<rect x="266.9" y="414.2" class="st49" width="167.4" height="12.2"/>
							<rect x="266.9" y="436.9" class="st49" width="167.4" height="12.2"/>
						</g>
					</g>
					<g id="XMLID_41_">
						<g>
							<path class="st49" d="M520.2,519.7h-44.5c-3.6,0-6.5-2.9-6.5-6.5v-44.5c0-3.6,2.9-6.5,6.5-6.5h44.5c3.6,0,6.5,2.9,6.5,6.5
								v44.5C526.7,516.8,523.8,519.7,520.2,519.7z"/>
							<rect x="266.9" y="462.1" class="st49" width="85.4" height="12.2"/>
							<rect x="266.9" y="484.8" class="st49" width="167.4" height="12.2"/>
							<rect x="266.9" y="507.5" class="st49" width="167.4" height="12.2"/>
						</g>
					</g>
					<g id="XMLID_40_">
						<g>
							<path class="st51" d="M467.3,411.5l15.7,22.8c0.9,1.4,2.9,1.5,4.1,0.4l26.3-26.3c1.2-1.2,1-3.3-0.6-4.2l-9.1-5
								c-1.1-0.6-2.4-0.4-3.2,0.5l-13.2,14.3c-1,1.1-2.8,1.1-3.8,0.1l-9-9.2c-1.1-1.1-2.9-1-3.9,0.1l-3,3.4
								C466.7,409.2,466.6,410.5,467.3,411.5z"/>
						</g>
					</g>
					<g id="XMLID_39_">
						<g>
							<path class="st51" d="M466,343.5l15.7,22.8c0.9,1.4,2.9,1.5,4.1,0.4l26.3-26.3c1.2-1.2,1-3.3-0.6-4.2l-9.1-5
								c-1.1-0.6-2.4-0.4-3.2,0.5l-13.2,14.3c-1,1.1-2.8,1.1-3.8,0.1l-9-9.2c-1.1-1.1-2.9-1-3.9,0.1l-3,3.4
								C465.4,341.2,465.3,342.5,466,343.5z"/>
						</g>
					</g>
				</g>
			</g>
			<g>
				<g>
					<path class="st14" d="M293.1,442.1c1.9-5.8,3.7-11.6,5.3-17.5c3-11.3,4.3-22.4,4.3-34c-0.1-26.4-1.1-52.7-3.7-79
						c-4-1.7-9.2-0.3-11.4,4.2L270,351.5c-1.3,2.6-3.8,4.4-6.7,4.8L224,362c-7.3,1.1-10.2,10-4.9,15.1l28.5,27.8c2.1,2,3,5,2.5,7.8
						l-6.7,39.2c-1.2,7.2,6.3,12.7,12.8,9.3l35.2-18.5C292,442.5,292.6,442.2,293.1,442.1z"/>
				</g>
				<g>
					<path class="st7" d="M371.1,363.4l-39.4-5.7c-2.9-0.4-5.4-2.2-6.7-4.8l-17.6-35.7c-3.2-6.6-12.6-6.6-15.9,0L274,352.8
						c-1.3,2.6-3.8,4.4-6.7,4.8l-39.4,5.7c-7.3,1.1-10.2,10-4.9,15.1l28.5,27.8c2.1,2,3,5,2.5,7.8l-6.7,39.2
						c-1.2,7.2,6.3,12.7,12.8,9.3l35.2-18.5c2.6-1.4,5.7-1.4,8.2,0l35.2,18.5c6.5,3.4,14.1-2.1,12.8-9.3L345,414
						c-0.5-2.9,0.5-5.8,2.5-7.8l28.5-27.8C381.2,373.3,378.3,364.4,371.1,363.4z"/>
				</g>
				<g>
					<g>
						<g>
							<g>
								<g>
									<g>
										<g>
											<polygon class="st52" points="92,694.5 88.6,705.2 73.4,705.2 74.5,686 											"/>
										</g>
									</g>
								</g>
							</g>
						</g>
					</g>
				</g>
				<g>
					<g>
						<g>
							<g>
								<g>
									<g>
										<g>
											<polygon class="st52" points="168.5,684.4 173.6,717.1 191.4,715.8 182.3,667.5 											"/>
										</g>
									</g>
								</g>
							</g>
						</g>
					</g>
				</g>
				<g id="XMLID_26_">
					<g>
						<g>
							<g>
								<g>
									<g>
										<g>
											<g>
												<g>
													<path class="st14" d="M188.6,700.3L205,708c2.3,0.8,3.9,2.9,3.2,5.3h-37.9l1.1-9.9h12.8L188.6,700.3z"/>
												</g>
											</g>
										</g>
									</g>
								</g>
							</g>
							<g>
								<g>
									<g>
										<g>
											<g>
												<g>
													<polygon class="st53" points="208.5,713.3 208.5,717.1 170.3,717.1 170.3,713.3 													"/>
												</g>
											</g>
										</g>
									</g>
								</g>
							</g>
						</g>
					</g>
				</g>
				<g>
					<g>
						<g>
							<g>
								<g>
									<g>
										<g>
											<g>
												<g>
													<path class="st15" d="M116.9,472.6c0.1-0.1,0.2-0.3,0.4-0.4c3.5-4,8.4-6,13.1-7.9c15.1-6,25.5,6.7,30,23.7
														c6.9,25.8,19.9,92.2,26.7,135.7c2.5,15.7,2.7,31.3,4.8,47c2.5,18.6,2.2,25.3-17.1,25.9c-2.6,0.1-5.3-0.1-7.6-1.5
														c-2.8-1.7-4.5-5.1-6-8.3c-7.4-15.7-6.8-29.7-9.6-46.3c-3.6-20.7-9.3-41.8-13.9-63c-5.5-25.6-19.5-46.9-24.6-72.9
														C111,493.6,110.2,480.7,116.9,472.6z"/>
												</g>
											</g>
										</g>
									</g>
								</g>
							</g>
						</g>
					</g>
				</g>
				<g>
					<g>
						<g>
							<g>
								<g>
									<g>
										<g>
											<g>
												<g>
													<g>
														<g>
															<path class="st15" d="M68.1,690.8c0.3,0.9,0.7,1.7,1.5,2.3c1.3,1.1,3.1,1.7,4.8,2.1c7.9,1.9,17.7,3.2,23.1-3.3
																c4.1-4.9,5.7-11.3,7.8-17c0.4-1.2,0.9-2.4,1.3-3.7c4.3-12.7,7.5-27.2,10-35.9c0-0.2,0.1-0.4,0.2-0.5
																c0.4-1.2,0.7-2.4,1.1-3.7c5.2-17.9,11.7-65.2,15.9-83.3c2.1-9.2,1,10.6,1,1.3c-0.1-20-1.3-40.1-1.3-60.2
																c0-13.9-16.9-12.3-28.8-9.3c-3.9,1-7.8,2.5-10.5,5.2c-4.2,4.2-5.1,15.7-6.5,22.3c-0.1,0.6-0.2,1.1-0.3,1.6
																c-8.9,35.5-4.3,75.4-6.8,110.5c-1.4,19.9-8.1,37.8-10.5,57.4c-0.1,0.6-0.1,1.2-0.2,1.8
																C69.6,681.6,67,687.1,68.1,690.8z"/>
														</g>
													</g>
												</g>
											</g>
										</g>
									</g>
								</g>
							</g>
						</g>
					</g>
				</g>
				<g id="XMLID_25_">
					<g>
						<g>
							<g>
								<g>
									<g>
										<g>
											<g>
												<g>
													<path class="st14" d="M90.6,700.8l16.4,7.7c2.3,0.8,3.9,2.9,3.2,5.3H72.3l1.1-9.9h12.8L90.6,700.8z"/>
												</g>
											</g>
										</g>
									</g>
								</g>
							</g>
							<g>
								<g>
									<g>
										<g>
											<g>
												<g>
													<polygon class="st53" points="110.5,713.9 110.5,717.7 72.3,717.7 72.3,713.9 													"/>
												</g>
											</g>
										</g>
									</g>
								</g>
							</g>
						</g>
					</g>
				</g>
				<g>
					<g>
						<g>
							<g>
								<g>
									<g>
										<g>
											<rect x="49.4" y="716.4" class="st16" width="162.2" height="1.2"/>
										</g>
									</g>
								</g>
							</g>
						</g>
					</g>
				</g>
				<g>
					<g>
						<g>
							<g>
								<g>
									<g>
										<g>
											<path class="st14" d="M107.8,387.1c0-0.1-0.1-0.2-0.1-0.2c-3.1-9.1,2.3-10.3,8.9-13c4.5-1.8,15.9-8.4,19.9-8
												c2.9,0.3,3.8,4.5,2.3,7c-1.5,2.5-4.4,3.8-6.8,5.3c-7,4.3-2.9,13.2-9.8,17.7c-2.3,1.5-5.2,6.1-7.7,4.5
												c-1.3-0.8-3.4-5.9-3.9-7.2C109.5,391,108.5,389.1,107.8,387.1z"/>
										</g>
									</g>
								</g>
							</g>
						</g>
					</g>
				</g>
				<g>
					<g>
						<g>
							<g>
								<g>
									<g>
										<g>
											<path class="st52" d="M114.3,391.3l-6.4,18.1c0,3.5,9.8,3.4,13.9,3.4c4.2,0,7.6-2.8,7.6-6.3v-15.1H114.3z"/>
										</g>
									</g>
								</g>
							</g>
						</g>
					</g>
				</g>
				<g>
					<g>
						<g>
							<g>
								<g>
									<g>
										<g>
											<path class="st14" d="M118.7,391.3v1.4c0,0.9,0.2,1.8,0.5,2.7c1.4,3.6,5.4,6.3,10.2,6.3v-10.4H118.7z"/>
										</g>
									</g>
								</g>
							</g>
						</g>
					</g>
				</g>
				<g>
					<g>
						<g>
							<g>
								<g>
									<g>
										<g>
											<g>
												<path class="st52" d="M132.2,391.1l-2.9-12.9c-0.1-0.3-0.2-0.6-0.3-1l-16.8,3.5c0,0.3,0.1,0.7,0.2,1l2.4,10.6
													c0.1,0.6,0.2,1.1,0.2,1.5c0.2,0.1,0.3,0.2,0.5,0.4c0.2-0.1,0.5-0.1,0.8-0.2c2.1,2.1,9,5.1,13.6,3.5
													C132.4,396.5,132.8,393.7,132.2,391.1z"/>
											</g>
										</g>
									</g>
								</g>
							</g>
						</g>
					</g>
				</g>
				<g>
					<g>
						<g>
							<g>
								<g>
									<g>
										<g>
											<path class="st14" d="M121.3,377.3l-0.6,6.9c-0.2,2.1-2.1,3.7-4.4,3.6l-4-0.3l-1.4-9.6l6.7-0.8L121.3,377.3z"/>
										</g>
									</g>
								</g>
							</g>
						</g>
					</g>
				</g>
				<g>
					<g>
						<g>
							<g>
								<g>
									<g>
										<g>
											<path class="st14" d="M118.1,388.7l-0.7,5.3c-0.2,1.8-2.4,3.2-5.2,3.5V388L118.1,388.7z"/>
										</g>
									</g>
								</g>
							</g>
						</g>
					</g>
				</g>
				<g>
					<g>
						<g>
							<g>
								<g>
									<g>
										<g>
											<path class="st14" d="M117.5,393.5c-1.5,1.3-3.9,1.2-5.2-0.2c-1.4-1.5-1.3-3.7,0.2-5c1.5-1.3,3.9-1.2,5.2,0.2
												C119.1,390,119,392.2,117.5,393.5z"/>
										</g>
									</g>
								</g>
							</g>
						</g>
					</g>
				</g>
				<g>
					<g>
						<g>
							<g>
								<g>
									<g>
										<g>
											<path class="st14" d="M127.3,384.6L127.3,384.6c0.3-0.1,0.6-0.4,0.5-0.7l0,0c-0.1-0.3-0.4-0.5-0.8-0.5l0,0
												c-0.3,0.1-0.6,0.4-0.5,0.7l0,0C126.6,384.5,126.9,384.7,127.3,384.6z"/>
										</g>
									</g>
								</g>
							</g>
						</g>
					</g>
				</g>
				<g>
					<g>
						<g>
							<g>
								<g>
									<g>
										<g>
											<path class="st52" d="M130.4,382.9l1.7,4.4c0.1,0.2-0.1,0.5-0.3,0.6l-1.4,0.3l-1.4-6.3L130.4,382.9z"/>
										</g>
									</g>
								</g>
							</g>
						</g>
					</g>
				</g>
				<g>
					<g>
						<g>
							<g>
								<g>
									<g>
										<g>
											<path class="st52" d="M118.3,393c-1.5,1.3-3.9,1.2-5.2-0.2c-1.4-1.5-1.3-3.7,0.2-5c1.5-1.3,3.9-1.2,5.2,0.2
												C119.9,389.5,119.8,391.7,118.3,393z"/>
										</g>
									</g>
								</g>
							</g>
						</g>
					</g>
				</g>
				<g>
					<g>
						<g>
							<g>
								<g>
									<g>
										<g>
											<path class="st5" d="M132.4,392.7c-0.3,0-0.7,0-1,0c-1.2-0.2-2.1-1.2-2.4-2.3c0.8,0.4,1.5,0.7,2.2,0.7
												c0.3,0,0.7-0.1,0.9-0.2L132.4,392.7z"/>
										</g>
									</g>
								</g>
							</g>
						</g>
					</g>
				</g>
				<g>
					<g>
						<g>
							<g>
								<g>
									<g>
										<g>
											<path class="st14" d="M93.4,490.5c0.5,1.6,1.9,2.9,4.5,3.9c20.7,7.6,43.3,5.7,64.8,5.5c-0.8-6.1-2.3-12-6.1-17.1
												c-3.3-4.4-8.2-8-14.2-10.4c-7.3-2.9-16.1-3.6-24.5-2.3c-8.7,2.1-16.7,6.5-21.7,12.7C94,485.5,92.7,488.2,93.4,490.5z"/>
										</g>
									</g>
								</g>
							</g>
						</g>
					</g>
				</g>
				<g>
					<g>
						<g>
							<g>
								<g>
									<g>
										<g>
											<g>
												<g>
													<g>
														<g>
															<g>
																<g>
																	<g>
																		<g>
																			<path class="st52" d="M249.1,404.5c1.2,0.5,1.6,2.3,2.3,3.4c0.2,0.4,0.5,0.8,0.7,1.2c1.5,2.4,0.9,5.6-1.4,7.3
																				c0,0-0.1,0-0.1,0.1l-16.4,14.1c-0.1-0.5-0.2-0.9-0.5-1.4c-1.4-2.9-3-4.9-5.2-7.2c-1-1.1-2.2-1.9-3.5-2.5
																				c0.8,0.4,6.9-4.8,7.7-5.4c4.3-3,8.7-5.8,13.1-8.6c0.7-0.4,1.3-0.9,2.1-1C248.4,404.4,248.8,404.4,249.1,404.5z"
																				/>
																		</g>
																	</g>
																</g>
															</g>
														</g>
													</g>
												</g>
											</g>
										</g>
									</g>
								</g>
							</g>
						</g>
					</g>
				</g>
				<g>
					<g>
						<g>
							<g>
								<g>
									<g>
										<g>
											<path class="st7" d="M162.7,416.7c-0.5-2.4-1.1-5-2-7.3c-1.2-3-2.8-5.7-5.6-7.4c-6.2-3.8-16-2.3-22.4,0.2
												c-8.7,3.3-14.8,4.1-24.2,3.2c-8.2-0.8-16.8-0.5-24,3.5c-7.2,4-12.4,12.5-10.4,20.4l4.4-2.1c0.4,8.1,2.5,15.8,4.8,23.5
												c2.9,9.5,6.1,19,7,29.2c0.4,4.4-4.2,9.3-0.8,12c0.9,0.7,2,1.2,3.2,1.5c1.7,0.5,3.6,0.6,5.4,0.7
												c12.6,0.5,32.4,0.3,44.9-0.7c7.4-0.6,16-2.3,18.9-9c1.1-2.5,1.1-5.4,1.1-8.1C163.3,456.9,166.7,435.8,162.7,416.7z"/>
										</g>
									</g>
								</g>
							</g>
						</g>
					</g>
				</g>
				<g>
					<g>
						<g>
							<g>
								<g>
									<g>
										<g>
											<g>
												<path class="st7" d="M231,415.9c-0.3,0-0.5,0-0.8,0c-3.2,0.2-6.6,2.7-9.4,4c-4.2,1.8-8.6,3.2-12.9,4.9
													c-3.9,1.6-8,3.2-12.2,3.1c-9.8-0.1-17.7-6.4-23.1-13.8c-4.3-5.9-11-10.4-17.8-12.8c-4-1.4-19.8-4.2-20.9,2.7
													c-1.7,10.1,4.2,19.9,11.2,27.3c10.1,10.8,23.4,18.8,38,21.5c18.2,3.3,33.5-1.8,46.7-14.3c2.2-2.1,4.5-4.3,6-7
													C235.5,425.9,234,420.6,231,415.9z"/>
											</g>
										</g>
									</g>
								</g>
							</g>
						</g>
					</g>
				</g>
				<g>
					<g>
						<g>
							<g>
								<g>
									<g>
										<g>
											<g>
												<g>
													<g>
														<path class="st52" d="M85.4,513.3c-0.1-0.1-0.1-0.2-0.1-0.3c0-0.1,0-0.1,0-0.2C85.3,513,85.4,513.1,85.4,513.3z"/>
													</g>
												</g>
											</g>
										</g>
									</g>
								</g>
							</g>
						</g>
					</g>
				</g>
				<g>
					<g>
						<g>
							<g>
								<g>
									<g>
										<g>
											<g>
												<g>
													<g>
														<polygon class="st5" points="111.2,415.1 107.7,406.6 108.3,406.3 111.4,414 119.8,405.2 128.5,411.4 129.7,403.5 
															130.4,403.6 128.9,412.5 119.9,406 														"/>
													</g>
												</g>
											</g>
										</g>
									</g>
								</g>
							</g>
						</g>
					</g>
				</g>
				<g>
					<g>
						<g>
							<g>
								<g>
									<g>
										<g>
											<g>
												<g>
													<g>
														<path class="st5" d="M139.8,428.6l-0.4-3.4l15.5-1.8l0.4,3.4L139.8,428.6z M140.1,425.7l0.3,2.2l14.3-1.6l-0.3-2.2
															L140.1,425.7z"/>
													</g>
												</g>
											</g>
										</g>
									</g>
								</g>
							</g>
						</g>
					</g>
				</g>
				<g>
					<g>
						<g>
							<g>
								<g>
									<g>
										<g>
											<g>
												<g>
													<g>
														<path class="st5" d="M217.4,422.4c2.7,5.7,6.3,10.8,10.7,15c0.2-0.2,0.5-0.4,0.7-0.6c-4.4-4.2-8-9.3-10.7-15
															C217.8,422.1,217.6,422.2,217.4,422.4z"/>
													</g>
												</g>
											</g>
										</g>
									</g>
								</g>
							</g>
						</g>
					</g>
				</g>
				<g>
					<g>
						<g>
							<g>
								<g>
									<g>
										<g>
											<path class="st54" d="M89.6,492c0.9,0.7,2,1.2,3.2,1.5c-0.4-1,0.2-2.3,1-3.1c1-0.9,2.2-1.5,2.9-2.7
												c0.5-0.8,0.7-1.8,0.8-2.7c0.4-2.1,0.7-4.1,0.7-6.2c-0.1-4.5-1.8-8.7-2.5-13.1c-0.7-4.3-0.2-8.7-0.3-13.1
												c-0.2-8.2-2.3-16.3-6-23.5c-1.9,7.4-4.3,14.6-6.1,21.7c2.9,9.5,6.1,19,7,29.2C90.7,484.3,86.1,489.3,89.6,492z"/>
										</g>
									</g>
								</g>
							</g>
						</g>
					</g>
				</g>
				<g>
					<g>
						<g>
							<g>
								<g>
									<g>
										<g>
											<g>
												<g>
													<g>
														<path class="st52" d="M72.8,539.9c-0.1-0.5-0.2-1-0.2-1.6c-0.6-3.8-1.2-7.6-1.9-11.4c-4,0.7-7.8,1.8-11.6,3.3
															c1.4,3.1,2.6,6.2,3.4,9.4c0.3,1.5,0.6,2.9,0.7,4.4c0.3,4.1,1.8,8.1,2.4,12.2c0,0.1,0,0.1,0,0.2c0.1,1.3,0,2.7-0.1,4
															c-0.1,0.9-0.7,2-0.3,2.9c0.1,0.2,0.5,0.2,0.6,0c0.8-2.4,1.6-5.3,1.5-7.8c0-0.2,0.1-0.3,0.3-0.3c0.2,0,0.3,0.1,0.3,0.3
															c0.1,2.8-0.8,6-1.7,8.6c0,0.1,0,0.2,0.1,0.3c0.2,0.1,0.3,0.2,0.5,0.3c0.2,0.1,0.4,0,0.4-0.1c1.1-2.5,1.8-5.5,2-9
															c0-0.2,0.2-0.3,0.3-0.3c0.2,0,0.3,0.2,0.3,0.3c-0.3,3.6-1,6.6-2.1,9.2c-0.1,0.2,0,0.3,0.2,0.4c0.1,0,0.2,0.1,0.3,0.1
															c0.1,0,0.3,0,0.3-0.1c1.5-2.9,2.4-6,2.6-9.2c0-0.2,0.2-0.3,0.3-0.3c0.2,0,0.3,0.2,0.3,0.3c-0.2,3.1-1,6.1-2.4,8.9
															c-0.1,0.2,0.1,0.5,0.4,0.4c0,0,0,0,0,0c0.5-0.2,1.1-1.1,1.3-1.5c1.6-2.8,2.7-6,3.2-9.2c0.2-1,0.3-1.9,0.3-2.8
															C74.9,547.7,73.4,543.7,72.8,539.9z"/>
													</g>
												</g>
											</g>
										</g>
									</g>
								</g>
							</g>
						</g>
					</g>
				</g>
				<g>
					<g>
						<g>
							<g>
								<g>
									<g>
										<g>
											<g>
												<g>
													<g>
														<path class="st7" d="M85.8,408.1c-0.5,0.3-1,0.6-1.5,0.9c-21,12.9-32.1,37.8-35.1,61.6c-2.7,20.9,0.9,44.7,10.4,63.6
															c0.2,0.4,0.5,0.9,0.8,1.2c0.5,0.4,1.2,0.8,1.8,0.6c8.8-2.3,10.3-0.6,10.2-7.3c-0.1-7.3-2.1-13.7-1.8-21
															c0.3-8.3,1.3-16.6,2.8-24.8c3-16,8.4-31.7,16-46.1c3.5-6.6,13.8-20.4,7.1-27c-1.6-1.6-3.7-3-5.9-3.1
															C88.9,406.6,87.3,407.3,85.8,408.1z"/>
													</g>
												</g>
											</g>
										</g>
									</g>
								</g>
							</g>
						</g>
					</g>
				</g>
				<g>
					<g>
						<g>
							<g>
								<g>
									<g>
										<g>
											<g>
												<g>
													<g>
														<g>
															<path class="st5" d="M55.6,525.4l-0.1-0.6l16.3-2.7l0.2,0.6C69.4,523.5,62.8,524.8,55.6,525.4z"/>
														</g>
													</g>
												</g>
											</g>
										</g>
									</g>
								</g>
							</g>
						</g>
					</g>
				</g>
				<g>
					<g>
						<g>
							<g>
								<g>
									<g>
										<g>
											<g>
												<g>
													<g>
														<path class="st52" d="M244.2,398.8c0.3-0.6,0.8-1.2,1.6-0.9c0.6,0.2,0.9,0.8,0.8,1.4c-0.5,3.1-1.6,6.1-3.2,8.9
															c0.1,0.1,0.2,0.3,0.3,0.4c1.2,1.4,1.5,3.3,0.5,4.9l-0.5,0.8c-0.1,0.2-0.3,0.4-0.5,0.5c-0.2,0.1-0.5,0-0.7,0
															C232.7,412.2,240.7,404.5,244.2,398.8z"/>
													</g>
												</g>
											</g>
										</g>
									</g>
								</g>
							</g>
						</g>
					</g>
				</g>
			</g>
		</g>
	</g>
	<g>
		<g>
			<g>
				<g>
					<g>
						<g>
							<g>
								<g>
									<g>
										<g>
											<path class="st16" d="M716.2,527.6c-0.7,4.2-1.8,10.5-3.2,19.9l-5.9,42.1c-6.2,37.5-13.5,78-20.2,115.4
												c-0.3,1.8,0.1,3.3,0.9,4.4c2.9,4.1,11,4.1,8.7,6.5c-3.9,0.7-16.3,0.9-21.5-0.4c-2-0.5-1.9-1-2.9-2.8c0,0,0,0,0,0
												c-0.6-1-0.8-2.2-0.7-3.4c0-0.5,0-1,0.1-1.6c1.6-33.7,7.1-153.7,9.3-189.8l26.9-1.1l4.7-0.2c1.1,3.6,2.1,4.9,2.9,5.2
												C715.7,523.6,716,525.6,716.2,527.6z"/>
										</g>
									</g>
								</g>
							</g>
						</g>
					</g>
				</g>
			</g>
			<g>
				<g>
					<g>
						<g>
							<g>
								<g>
									<g>
										<g>
											<path class="st16" d="M671.7,705c0,1-0.1,1.9-0.1,2.8l0.1-3.5C671.7,704.5,671.7,704.8,671.7,705z"/>
										</g>
									</g>
								</g>
							</g>
						</g>
					</g>
				</g>
			</g>
		</g>
		<g>
			<g>
				<g>
					<g>
						<g>
							<g>
								<g>
									<g>
										<g>
											<path class="st16" d="M665.8,541.8c-0.8,13-3,25.8-5.2,38.6c-7,40.7-14.1,81.5-21.1,122.2c-0.1,0.3-0.1,0.7-0.1,1
												c-0.4,3.9,0.4,7.2-4,8.7l-8.5,2.8c-3.7,1.2-7.6,2.4-11.5,1.6c-1-0.2-2.1-0.7-2.3-1.6c-0.1-0.1-0.1-0.3-0.1-0.5
												c0-0.4,0.2-0.8,0.5-1.1c0.2-0.3,0.5-0.5,0.8-0.8c1.9-1.5,3.6-2.4,5.1-3.3c2.5-1.5,4.3-3.1,4.8-7.7
												c0.5-4.6,0.9-9.2,1.3-13.8c2.1-29.3,0.8-58.8,1.3-88.3c0.4-23.2,2.8-46.3,3.7-69.5c0.7-16.9,20.9-26.8,31.3-11.4
												C666.1,525.2,666.3,533.8,665.8,541.8z"/>
										</g>
									</g>
								</g>
							</g>
						</g>
					</g>
				</g>
			</g>
			<g>
				<g>
					<g>
						<g>
							<g>
								<g>
									<g>
										<g>
											<path class="st9" d="M619.4,709.4c1.7,0,3.3-0.2,4.9-0.5c2.5-0.5,4.9-1.4,7.2-2.3c2.5-0.9,5.8-3.2,7.9-3.1
												c-0.4,3.9,0.4,7.2-4,8.7l-8.5,2.8c-3.7,1.2-7.6,2.4-11.5,1.6c-1-0.2-2.1-0.7-2.3-1.6c0.1-0.5,0.2-1.1,0.4-1.6
												L619.4,709.4z"/>
										</g>
									</g>
								</g>
							</g>
						</g>
					</g>
				</g>
			</g>
		</g>
		<g>
			<g>
				<g>
					<g>
						<g>
							<g>
								<g>
									<g>
										<path class="st9" d="M696.4,715.8c-3.9,0.7-16.3,0.9-21.5-0.4c-2-0.5-1.9-1-2.9-2.8c0,0,0,0,0,0c-0.6-1-0.8-2.2-0.7-3.4
											c0-0.5,0-1,0.1-1.6l0.2,0.1l16.2,1.5C690.7,713.4,698.8,713.5,696.4,715.8z"/>
									</g>
								</g>
							</g>
						</g>
					</g>
				</g>
			</g>
		</g>
		<g>
			<g>
				<g>
					<g>
						<g>
							<g>
								<g>
									<g>
										<g>
											<path class="st9" d="M703.9,468.1c-6-10.7-11.8-13.1-11.8-13.1l-19.8-0.3l-15.4-0.2c-17.4,8.5-24.8,32.7-29.5,50.8
												c-6,23.5-8.7,48.1-10.3,72.4c-0.7,11.2-2.4,23.2-1.3,34.4c17.8,1.8,36-0.6,54-1.9c2.8-0.2,40.4-1.4,40.7-2.9
												C723.4,523.5,713.5,485.2,703.9,468.1z"/>
										</g>
									</g>
								</g>
							</g>
						</g>
					</g>
				</g>
				<g>
					<g>
						<g>
							<g>
								<g>
									<g>
										<g>
											<path class="st9" d="M703.9,468.1c-6-10.7-11.8-13.1-11.8-13.1l-19.8-0.3l-15.4-0.2c-17.4,8.5-24.8,32.7-29.5,50.8
												c-6,23.5-8.7,48.1-10.3,72.4c-0.7,11.2-2.4,23.2-1.3,34.4c17.8,1.8,36-0.6,54-1.9c2.8-0.2,40.4-1.4,40.7-2.9
												C723.4,523.5,713.5,485.2,703.9,468.1z"/>
										</g>
									</g>
								</g>
							</g>
						</g>
					</g>
				</g>
			</g>
			<g>
				<defs>
					<path id="SVGID_17_" d="M710.4,607.4c-0.2,1.6-37.9,2.7-40.7,2.9c-18,1.3-36.2,3.7-54,1.9c-1.1-11.2,0.6-23.2,1.3-34.4
						c1.5-24.3,4.2-48.8,10.3-72.4c4.6-18.1,12.1-42.2,29.5-50.8l15.4,0.2l19.8,0.3c0,0,5.8,2.4,11.8,13.1
						C713.5,485.2,723.4,523.5,710.4,607.4z"/>
				</defs>
				<clipPath id="SVGID_1_">
					<use xlink:href="#SVGID_17_"  style="overflow:visible;"/>
				</clipPath>
				<g style="clip-path:url(#SVGID_1_);">
					<g>
						<g>
							<g>
								<g>
									<g>
										<g>
											<path class="st16" d="M575.9,399.4c0.4,0.1,0.7,0.1,1.1,0.2V390h14.9v11.8c0.4,0.1,0.7,0.1,1.1,0.2v-12h14.9v14.2
												c0.4,0.1,0.7,0.1,1.1,0.2V390h14.9v14.9h-11.5c2.4,0.4,4.8,0.7,7.2,1.1h4.4v0.7c0.4,0.1,0.7,0.1,1.1,0.2v-0.8h14.9v3.1
												c0.4,0.1,0.7,0.1,1.1,0.2v-3.3h14.9v5.6c0.4,0.1,0.7,0.1,1.1,0.2v-5.8h14.9v8.1c0.4,0.1,0.7,0.1,1.1,0.2v-8.2h14.9v10.5
												c0.4,0.1,0.7,0.1,1.1,0.2v-10.7h14.9v12.9c0.4,0.1,0.7,0.1,1.1,0.2v-13h14.9v14.9h-2.2c2.6,0.4,5.2,0.7,7.9,1.1h10.3v0.6
												c0.4,0,0.7,0,1.1,0.1v-0.6h14.9v1.6c0.4,0,0.7,0,1.1,0.1v-1.6h14.9v2.5c0.4,0,0.7,0,1.1,0.1v-2.5H780v-1.1h-11.2v-14.9
												H780v-1.1h-11.2V390H780v-1.1h-11.2V374H780v-1.1h-11.2V358H780v-1.1h-11.2V342H780v-1.1h-11.2V326H780v-1.1h-11.2V310
												H780v-1.1h-11.2v-14.9H780V293h-11.2v-14.9H780V277h-11.2v-14.9H780V261h-11.2v-14.9H780V245h-11.2v-14.9H780V229h-11.2
												v-14.9H780v-1.1h-11.2v-4.3h-1.1v4.3h-14.9v-4.3h-1.1v4.3h-14.9v-4.3h-1.1v4.3h-14.9v-4.3h-1.1v4.3h-14.9v-4.3h-1.1v4.3
												h-14.9v-4.3h-1.1v4.3h-14.9v-4.3h-1.1v4.3h-14.9v-4.3h-1.1v4.3h-14.9v-4.3h-1.1v4.3H625v-4.3h-1.1v4.3H609v-4.3h-1.1v4.3
												H593v-4.3h-1.1v4.3H577v-4.3h-1.1v4.3H561v-4.3h-1.1v4.3H545v-4.3h-1.1v4.3h-14.9v-4.3H528v4.3h-14.9v-4.3H512v4.3h-14.9
												v-4.3H496v4.3h-14.9v-4.3H480v4.3h-14.9v-4.3H464v4.3h-14.9v-4.3h-1.1v4.3h-14.9v-4.3h-1.1v4.3h-14.9v-4.3h-1.1v4.3
												h-14.9v-4.3h-1.1v4.3h-5.3v1.1h5.3V229h-5.3v1.1h5.3V245h-5.3v1.1h5.3V261h-5.3v1.1h5.3V277h-5.3v1.1h5.3V293h-5.3v1.1
												h5.3v14.9h-5.3v1.1h5.3v14.9h-5.3v1.1h5.3v14.9h-5.3v1.1h5.3v14.9h-5.3v1.1h5.3v14.9h-5.3v1.1h5.3v14.9h-5.3v1.1h5.3
												v14.9h-5.3v1.1h5.3v14.9h-5.3v1.1h5.3v14.9h-5.3v1.1h5.3v14.9h-5.3v1.1h5.3v14.9h-5.3v1.1h5.3v14.9h-5.3v1.1h5.3v14.9
												h-5.3v1.1h5.3v14.9h-5.3v1.1h5.3v14.9h-5.3v1.1h5.3v14.9h-5.3v1.1h5.3v14.9h-5.3v1.1h5.3v14.9h-5.3v1.1h5.3v14.9h-5.3
												v1.1h5.3v14.9h-5.3v1.1h5.3v14.9h-5.3v1.1h5.3v14.9h-5.3v1.1h5.3v14.9h-5.3v1.1h5.3v14.9h-5.3v1.1h5.3v14.9h-5.3v1.1h5.3
												v14.9h1.1v-14.9h14.9v14.9h1.1v-14.9h14.9v14.9h1.1v-14.9h14.9v14.9h1.1v-14.9H464v14.9h1.1v-14.9H480v14.9h1.1v-14.9
												H496v14.9h1.1v-14.9H512v14.9h1.1v-14.9H528v14.9h1.1v-14.9h14.9v14.9h1.1v-14.9h14.9v14.9h1.1v-14.5
												c-0.4-2.5-0.7-5-1.1-7.4v6H545v-14.9h13.4c-0.1-0.4-0.1-0.7-0.2-1.1H545v-14.9h10.4c-0.1-0.4-0.1-0.7-0.2-1.1H545v-14.9
												h6.8c-0.1-0.4-0.2-0.7-0.3-1.1H545v-14.9h2.8c-0.1-0.4-0.2-0.7-0.3-1.1H545v-9.2c-0.4-1.3-0.7-2.6-1.1-3.8v13h-14.9
												v-14.9h14.3c-0.1-0.4-0.2-0.7-0.3-1.1h-14v-14.9h9.4c-0.1-0.4-0.2-0.7-0.4-1.1h-9v-14.9h4c-0.1-0.4-0.3-0.7-0.4-1.1h-3.6
												v-10c-0.4-1-0.7-2-1.1-3v13h-14.9v-14.9h14.2c-0.1-0.4-0.3-0.7-0.4-1.1h-13.8v-14.9h8c-0.1-0.4-0.3-0.7-0.4-1.1h-7.6
												v-14.9h1.6c-0.2-0.4-0.3-0.7-0.5-1.1h-1.1V530c-0.4-0.9-0.7-1.8-1.1-2.6v5.3h-14.9v-14.9h10.8c0,0,0-0.1,0-0.1
												c-0.1-0.3-0.3-0.7-0.4-1h-10.3v-14.9h4c-0.2-0.4-0.3-0.7-0.5-1.1h-3.5v-8.3c-0.4-0.9-0.7-1.8-1.1-2.7v11h-14.9v-14.9
												h13.3c-0.1-0.4-0.3-0.7-0.4-1.1h-12.9v-14.9h7.3c-0.1-0.4-0.3-0.7-0.4-1.1h-7v-14.9h2.6c-0.1-0.4-0.2-0.7-0.3-1.1h-2.3
												V440c-0.5-4.2-0.7-8.5-0.6-12.7c0.1-2.4,0.3-4.8,0.6-7.2v-14.2h4.5c0.2-0.4,0.4-0.7,0.6-1.1h-5.1V390H496v5
												c0.4-0.2,0.7-0.4,1.1-0.6V390H512v1.1c0.4,0,0.7,0,1.1,0V390H528v3c0.5,0.1,0.8,0.1,0.6,0.1c0.2,0,0.3,0,0.5,0.1V390
												h14.9v5c0.4,0,0.7,0.1,1.1,0.1V390h14.9v7.2c0.4,0.1,0.7,0.1,1.1,0.2V390h14.9V399.4z M752.8,214.2h14.9V229h-14.9V214.2
												z M752.8,230.1h14.9V245h-14.9V230.1z M752.8,246.1h14.9V261h-14.9V246.1z M752.8,262.1h14.9V277h-14.9V262.1z
												 M752.8,278.1h14.9V293h-14.9V278.1z M752.8,294.1h14.9v14.9h-14.9V294.1z M752.8,310h14.9v14.9h-14.9V310z M752.8,326
												h14.9v14.9h-14.9V326z M752.8,342h14.9v14.9h-14.9V342z M752.8,358h14.9v14.9h-14.9V358z M752.8,374h14.9v14.9h-14.9V374
												z M752.8,390h14.9v14.9h-14.9V390z M752.8,405.9h14.9v14.9h-14.9V405.9z M736.8,214.2h14.9V229h-14.9V214.2z
												 M736.8,230.1h14.9V245h-14.9V230.1z M736.8,246.1h14.9V261h-14.9V246.1z M736.8,262.1h14.9V277h-14.9V262.1z
												 M736.8,278.1h14.9V293h-14.9V278.1z M736.8,294.1h14.9v14.9h-14.9V294.1z M736.8,310h14.9v14.9h-14.9V310z M736.8,326
												h14.9v14.9h-14.9V326z M736.8,342h14.9v14.9h-14.9V342z M736.8,358h14.9v14.9h-14.9V358z M736.8,374h14.9v14.9h-14.9V374
												z M736.8,390h14.9v14.9h-14.9V390z M736.8,405.9h14.9v14.9h-14.9V405.9z M720.9,214.2h14.9V229h-14.9V214.2z
												 M720.9,230.1h14.9V245h-14.9V230.1z M720.9,246.1h14.9V261h-14.9V246.1z M720.9,262.1h14.9V277h-14.9V262.1z
												 M720.9,278.1h14.9V293h-14.9V278.1z M720.9,294.1h14.9v14.9h-14.9V294.1z M720.9,310h14.9v14.9h-14.9V310z M720.9,326
												h14.9v14.9h-14.9V326z M720.9,342h14.9v14.9h-14.9V342z M720.9,358h14.9v14.9h-14.9V358z M720.9,374h14.9v14.9h-14.9V374
												z M720.9,390h14.9v14.9h-14.9V390z M720.9,405.9h14.9v14.9h-14.9V405.9z M704.9,214.2h14.9V229h-14.9V214.2z
												 M704.9,230.1h14.9V245h-14.9V230.1z M704.9,246.1h14.9V261h-14.9V246.1z M704.9,262.1h14.9V277h-14.9V262.1z
												 M704.9,278.1h14.9V293h-14.9V278.1z M704.9,294.1h14.9v14.9h-14.9V294.1z M704.9,310h14.9v14.9h-14.9V310z M704.9,326
												h14.9v14.9h-14.9V326z M704.9,342h14.9v14.9h-14.9V342z M704.9,358h14.9v14.9h-14.9V358z M704.9,374h14.9v14.9h-14.9V374
												z M704.9,390h14.9v14.9h-14.9V390z M688.9,214.2h14.9V229h-14.9V214.2z M688.9,230.1h14.9V245h-14.9V230.1z M688.9,246.1
												h14.9V261h-14.9V246.1z M688.9,262.1h14.9V277h-14.9V262.1z M688.9,278.1h14.9V293h-14.9V278.1z M688.9,294.1h14.9v14.9
												h-14.9V294.1z M688.9,310h14.9v14.9h-14.9V310z M688.9,326h14.9v14.9h-14.9V326z M688.9,342h14.9v14.9h-14.9V342z
												 M688.9,358h14.9v14.9h-14.9V358z M688.9,374h14.9v14.9h-14.9V374z M688.9,390h14.9v14.9h-14.9V390z M672.9,214.2h14.9
												V229h-14.9V214.2z M672.9,230.1h14.9V245h-14.9V230.1z M672.9,246.1h14.9V261h-14.9V246.1z M672.9,262.1h14.9V277h-14.9
												V262.1z M672.9,278.1h14.9V293h-14.9V278.1z M672.9,294.1h14.9v14.9h-14.9V294.1z M672.9,310h14.9v14.9h-14.9V310z
												 M672.9,326h14.9v14.9h-14.9V326z M672.9,342h14.9v14.9h-14.9V342z M672.9,358h14.9v14.9h-14.9V358z M672.9,374h14.9
												v14.9h-14.9V374z M672.9,390h14.9v14.9h-14.9V390z M656.9,214.2h14.9V229h-14.9V214.2z M656.9,230.1h14.9V245h-14.9
												V230.1z M656.9,246.1h14.9V261h-14.9V246.1z M656.9,262.1h14.9V277h-14.9V262.1z M656.9,278.1h14.9V293h-14.9V278.1z
												 M656.9,294.1h14.9v14.9h-14.9V294.1z M656.9,310h14.9v14.9h-14.9V310z M656.9,326h14.9v14.9h-14.9V326z M656.9,342h14.9
												v14.9h-14.9V342z M656.9,358h14.9v14.9h-14.9V358z M656.9,374h14.9v14.9h-14.9V374z M656.9,390h14.9v14.9h-14.9V390z
												 M640.9,214.2h14.9V229h-14.9V214.2z M640.9,230.1h14.9V245h-14.9V230.1z M640.9,246.1h14.9V261h-14.9V246.1z
												 M640.9,262.1h14.9V277h-14.9V262.1z M640.9,278.1h14.9V293h-14.9V278.1z M640.9,294.1h14.9v14.9h-14.9V294.1z
												 M640.9,310h14.9v14.9h-14.9V310z M640.9,326h14.9v14.9h-14.9V326z M640.9,342h14.9v14.9h-14.9V342z M640.9,358h14.9
												v14.9h-14.9V358z M640.9,374h14.9v14.9h-14.9V374z M640.9,390h14.9v14.9h-14.9V390z M625,214.2h14.9V229H625V214.2z
												 M625,230.1h14.9V245H625V230.1z M625,246.1h14.9V261H625V246.1z M625,262.1h14.9V277H625V262.1z M625,278.1h14.9V293
												H625V278.1z M625,294.1h14.9v14.9H625V294.1z M625,310h14.9v14.9H625V310z M625,326h14.9v14.9H625V326z M625,342h14.9
												v14.9H625V342z M625,358h14.9v14.9H625V358z M625,374h14.9v14.9H625V374z M625,390h14.9v14.9H625V390z M609,214.2h14.9
												V229H609V214.2z M609,230.1h14.9V245H609V230.1z M609,246.1h14.9V261H609V246.1z M609,262.1h14.9V277H609V262.1z
												 M609,278.1h14.9V293H609V278.1z M609,294.1h14.9v14.9H609V294.1z M609,310h14.9v14.9H609V310z M609,326h14.9v14.9H609
												V326z M609,342h14.9v14.9H609V342z M609,358h14.9v14.9H609V358z M609,374h14.9v14.9H609V374z M593,214.2h14.9V229H593
												V214.2z M593,230.1h14.9V245H593V230.1z M593,246.1h14.9V261H593V246.1z M593,262.1h14.9V277H593V262.1z M593,278.1h14.9
												V293H593V278.1z M593,294.1h14.9v14.9H593V294.1z M593,310h14.9v14.9H593V310z M593,326h14.9v14.9H593V326z M593,342
												h14.9v14.9H593V342z M593,358h14.9v14.9H593V358z M593,374h14.9v14.9H593V374z M577,214.2h14.9V229H577V214.2z
												 M577,230.1h14.9V245H577V230.1z M577,246.1h14.9V261H577V246.1z M577,262.1h14.9V277H577V262.1z M577,278.1h14.9V293
												H577V278.1z M577,294.1h14.9v14.9H577V294.1z M577,310h14.9v14.9H577V310z M577,326h14.9v14.9H577V326z M577,342h14.9
												v14.9H577V342z M577,358h14.9v14.9H577V358z M577,374h14.9v14.9H577V374z M416.1,692.5h-14.9v-14.9h14.9V692.5z
												 M416.1,676.5h-14.9v-14.9h14.9V676.5z M416.1,660.6h-14.9v-14.9h14.9V660.6z M416.1,644.6h-14.9v-14.9h14.9V644.6z
												 M416.1,628.6h-14.9v-14.9h14.9V628.6z M416.1,612.6h-14.9v-14.9h14.9V612.6z M416.1,596.6h-14.9v-14.9h14.9V596.6z
												 M416.1,580.6h-14.9v-14.9h14.9V580.6z M416.1,564.7h-14.9v-14.9h14.9V564.7z M416.1,548.7h-14.9v-14.9h14.9V548.7z
												 M416.1,532.7h-14.9v-14.9h14.9V532.7z M416.1,516.7h-14.9v-14.9h14.9V516.7z M416.1,500.7h-14.9v-14.9h14.9V500.7z
												 M416.1,484.7h-14.9v-14.9h14.9V484.7z M416.1,468.8h-14.9v-14.9h14.9V468.8z M416.1,452.8h-14.9v-14.9h14.9V452.8z
												 M416.1,436.8h-14.9v-14.9h14.9V436.8z M416.1,420.8h-14.9v-14.9h14.9V420.8z M416.1,404.8h-14.9V390h14.9V404.8z
												 M416.1,388.9h-14.9V374h14.9V388.9z M416.1,372.9h-14.9V358h14.9V372.9z M416.1,356.9h-14.9V342h14.9V356.9z
												 M416.1,340.9h-14.9V326h14.9V340.9z M416.1,324.9h-14.9V310h14.9V324.9z M416.1,308.9h-14.9v-14.9h14.9V308.9z
												 M416.1,293h-14.9v-14.9h14.9V293z M416.1,277h-14.9v-14.9h14.9V277z M416.1,261h-14.9v-14.9h14.9V261z M416.1,245h-14.9
												v-14.9h14.9V245z M416.1,229h-14.9v-14.9h14.9V229z M432.1,692.5h-14.9v-14.9h14.9V692.5z M432.1,676.5h-14.9v-14.9h14.9
												V676.5z M432.1,660.6h-14.9v-14.9h14.9V660.6z M432.1,644.6h-14.9v-14.9h14.9V644.6z M432.1,628.6h-14.9v-14.9h14.9
												V628.6z M432.1,612.6h-14.9v-14.9h14.9V612.6z M432.1,596.6h-14.9v-14.9h14.9V596.6z M432.1,580.6h-14.9v-14.9h14.9
												V580.6z M432.1,564.7h-14.9v-14.9h14.9V564.7z M432.1,548.7h-14.9v-14.9h14.9V548.7z M432.1,532.7h-14.9v-14.9h14.9
												V532.7z M432.1,516.7h-14.9v-14.9h14.9V516.7z M432.1,500.7h-14.9v-14.9h14.9V500.7z M432.1,484.7h-14.9v-14.9h14.9
												V484.7z M432.1,468.8h-14.9v-14.9h14.9V468.8z M432.1,452.8h-14.9v-14.9h14.9V452.8z M432.1,436.8h-14.9v-14.9h14.9
												V436.8z M432.1,420.8h-14.9v-14.9h14.9V420.8z M432.1,404.8h-14.9V390h14.9V404.8z M432.1,388.9h-14.9V374h14.9V388.9z
												 M432.1,372.9h-14.9V358h14.9V372.9z M432.1,356.9h-14.9V342h14.9V356.9z M432.1,340.9h-14.9V326h14.9V340.9z
												 M432.1,324.9h-14.9V310h14.9V324.9z M432.1,308.9h-14.9v-14.9h14.9V308.9z M432.1,293h-14.9v-14.9h14.9V293z M432.1,277
												h-14.9v-14.9h14.9V277z M432.1,261h-14.9v-14.9h14.9V261z M432.1,245h-14.9v-14.9h14.9V245z M432.1,229h-14.9v-14.9h14.9
												V229z M448.1,692.5h-14.9v-14.9h14.9V692.5z M448.1,676.5h-14.9v-14.9h14.9V676.5z M448.1,660.6h-14.9v-14.9h14.9V660.6z
												 M448.1,644.6h-14.9v-14.9h14.9V644.6z M448.1,628.6h-14.9v-14.9h14.9V628.6z M448.1,612.6h-14.9v-14.9h14.9V612.6z
												 M448.1,596.6h-14.9v-14.9h14.9V596.6z M448.1,580.6h-14.9v-14.9h14.9V580.6z M448.1,564.7h-14.9v-14.9h14.9V564.7z
												 M448.1,548.7h-14.9v-14.9h14.9V548.7z M448.1,532.7h-14.9v-14.9h14.9V532.7z M448.1,516.7h-14.9v-14.9h14.9V516.7z
												 M448.1,500.7h-14.9v-14.9h14.9V500.7z M448.1,484.7h-14.9v-14.9h14.9V484.7z M448.1,468.8h-14.9v-14.9h14.9V468.8z
												 M448.1,452.8h-14.9v-14.9h14.9V452.8z M448.1,436.8h-14.9v-14.9h14.9V436.8z M448.1,420.8h-14.9v-14.9h14.9V420.8z
												 M448.1,404.8h-14.9V390h14.9V404.8z M448.1,388.9h-14.9V374h14.9V388.9z M448.1,372.9h-14.9V358h14.9V372.9z
												 M448.1,356.9h-14.9V342h14.9V356.9z M448.1,340.9h-14.9V326h14.9V340.9z M448.1,324.9h-14.9V310h14.9V324.9z
												 M448.1,308.9h-14.9v-14.9h14.9V308.9z M448.1,293h-14.9v-14.9h14.9V293z M448.1,277h-14.9v-14.9h14.9V277z M448.1,261
												h-14.9v-14.9h14.9V261z M448.1,245h-14.9v-14.9h14.9V245z M448.1,229h-14.9v-14.9h14.9V229z M464,692.5h-14.9v-14.9H464
												V692.5z M464,676.5h-14.9v-14.9H464V676.5z M464,660.6h-14.9v-14.9H464V660.6z M464,644.6h-14.9v-14.9H464V644.6z
												 M464,628.6h-14.9v-14.9H464V628.6z M464,612.6h-14.9v-14.9H464V612.6z M464,596.6h-14.9v-14.9H464V596.6z M464,580.6
												h-14.9v-14.9H464V580.6z M464,564.7h-14.9v-14.9H464V564.7z M464,548.7h-14.9v-14.9H464V548.7z M464,532.7h-14.9v-14.9
												H464V532.7z M464,516.7h-14.9v-14.9H464V516.7z M464,500.7h-14.9v-14.9H464V500.7z M464,484.7h-14.9v-14.9H464V484.7z
												 M464,468.8h-14.9v-14.9H464V468.8z M464,452.8h-14.9v-14.9H464V452.8z M464,436.8h-14.9v-14.9H464V436.8z M464,420.8
												h-14.9v-14.9H464V420.8z M464,404.8h-14.9V390H464V404.8z M464,388.9h-14.9V374H464V388.9z M464,372.9h-14.9V358H464
												V372.9z M464,356.9h-14.9V342H464V356.9z M464,340.9h-14.9V326H464V340.9z M464,324.9h-14.9V310H464V324.9z M464,308.9
												h-14.9v-14.9H464V308.9z M464,293h-14.9v-14.9H464V293z M464,277h-14.9v-14.9H464V277z M464,261h-14.9v-14.9H464V261z
												 M464,245h-14.9v-14.9H464V245z M464,229h-14.9v-14.9H464V229z M480,692.5h-14.9v-14.9H480V692.5z M480,676.5h-14.9
												v-14.9H480V676.5z M480,660.6h-14.9v-14.9H480V660.6z M480,644.6h-14.9v-14.9H480V644.6z M480,628.6h-14.9v-14.9H480
												V628.6z M480,612.6h-14.9v-14.9H480V612.6z M480,596.6h-14.9v-14.9H480V596.6z M480,580.6h-14.9v-14.9H480V580.6z
												 M480,564.7h-14.9v-14.9H480V564.7z M480,548.7h-14.9v-14.9H480V548.7z M480,532.7h-14.9v-14.9H480V532.7z M480,516.7
												h-14.9v-14.9H480V516.7z M480,500.7h-14.9v-14.9H480V500.7z M480,484.7h-14.9v-14.9H480V484.7z M480,468.8h-14.9v-14.9
												H480V468.8z M480,452.8h-14.9v-14.9H480V452.8z M480,436.8h-14.9v-14.9H480V436.8z M480,420.8h-14.9v-14.9H480V420.8z
												 M480,404.8h-14.9V390H480V404.8z M480,388.9h-14.9V374H480V388.9z M480,372.9h-14.9V358H480V372.9z M480,356.9h-14.9
												V342H480V356.9z M480,340.9h-14.9V326H480V340.9z M480,324.9h-14.9V310H480V324.9z M480,308.9h-14.9v-14.9H480V308.9z
												 M480,293h-14.9v-14.9H480V293z M480,277h-14.9v-14.9H480V277z M480,261h-14.9v-14.9H480V261z M480,245h-14.9v-14.9H480
												V245z M480,229h-14.9v-14.9H480V229z M529.1,629.7h14.9v14.9h-14.9V629.7z M529.1,645.7h14.9v14.9h-14.9V645.7z
												 M529.1,661.7h14.9v14.9h-14.9V661.7z M529.1,677.6h14.9v14.9h-14.9V677.6z M513.1,581.7H528v14.9h-14.9V581.7z
												 M513.1,597.7H528v14.9h-14.9V597.7z M513.1,613.7H528v14.9h-14.9V613.7z M513.1,629.7H528v14.9h-14.9V629.7z
												 M513.1,645.7H528v14.9h-14.9V645.7z M513.1,661.7H528v14.9h-14.9V661.7z M513.1,677.6H528v14.9h-14.9V677.6z
												 M497.1,533.8H512v14.9h-14.9V533.8z M497.1,549.8H512v14.9h-14.9V549.8z M497.1,565.8H512v14.9h-14.9V565.8z
												 M497.1,581.7H512v14.9h-14.9V581.7z M497.1,597.7H512v14.9h-14.9V597.7z M497.1,613.7H512v14.9h-14.9V613.7z
												 M497.1,629.7H512v14.9h-14.9V629.7z M497.1,645.7H512v14.9h-14.9V645.7z M497.1,661.7H512v14.9h-14.9V661.7z
												 M497.1,677.6H512v14.9h-14.9V677.6z M481.1,501.8H496v14.9h-14.9V501.8z M481.1,517.8H496v14.9h-14.9V517.8z
												 M481.1,533.8H496v14.9h-14.9V533.8z M481.1,549.8H496v14.9h-14.9V549.8z M481.1,565.8H496v14.9h-14.9V565.8z
												 M481.1,581.7H496v14.9h-14.9V581.7z M481.1,597.7H496v14.9h-14.9V597.7z M481.1,613.7H496v14.9h-14.9V613.7z
												 M481.1,629.7H496v14.9h-14.9V629.7z M481.1,645.7H496v14.9h-14.9V645.7z M481.1,661.7H496v14.9h-14.9V661.7z
												 M481.1,677.6H496v14.9h-14.9V677.6z M496,388.9h-14.9V374H496V388.9z M496,372.9h-14.9V358H496V372.9z M496,356.9h-14.9
												V342H496V356.9z M496,340.9h-14.9V326H496V340.9z M496,324.9h-14.9V310H496V324.9z M496,308.9h-14.9v-14.9H496V308.9z
												 M496,293h-14.9v-14.9H496V293z M496,277h-14.9v-14.9H496V277z M496,261h-14.9v-14.9H496V261z M496,245h-14.9v-14.9H496
												V245z M496,229h-14.9v-14.9H496V229z M512,388.9h-14.9V374H512V388.9z M512,372.9h-14.9V358H512V372.9z M512,356.9h-14.9
												V342H512V356.9z M512,340.9h-14.9V326H512V340.9z M512,324.9h-14.9V310H512V324.9z M512,308.9h-14.9v-14.9H512V308.9z
												 M512,293h-14.9v-14.9H512V293z M512,277h-14.9v-14.9H512V277z M512,261h-14.9v-14.9H512V261z M512,245h-14.9v-14.9H512
												V245z M512,229h-14.9v-14.9H512V229z M528,388.9h-14.9V374H528V388.9z M528,372.9h-14.9V358H528V372.9z M528,356.9h-14.9
												V342H528V356.9z M528,340.9h-14.9V326H528V340.9z M528,324.9h-14.9V310H528V324.9z M528,308.9h-14.9v-14.9H528V308.9z
												 M528,293h-14.9v-14.9H528V293z M528,277h-14.9v-14.9H528V277z M528,261h-14.9v-14.9H528V261z M528,245h-14.9v-14.9H528
												V245z M528,229h-14.9v-14.9H528V229z M543.9,388.9h-14.9V374h14.9V388.9z M543.9,372.9h-14.9V358h14.9V372.9z
												 M543.9,356.9h-14.9V342h14.9V356.9z M543.9,340.9h-14.9V326h14.9V340.9z M543.9,324.9h-14.9V310h14.9V324.9z
												 M543.9,308.9h-14.9v-14.9h14.9V308.9z M543.9,293h-14.9v-14.9h14.9V293z M543.9,277h-14.9v-14.9h14.9V277z M543.9,261
												h-14.9v-14.9h14.9V261z M543.9,245h-14.9v-14.9h14.9V245z M543.9,229h-14.9v-14.9h14.9V229z M559.9,388.9H545V374h14.9
												V388.9z M559.9,372.9H545V358h14.9V372.9z M559.9,356.9H545V342h14.9V356.9z M559.9,340.9H545V326h14.9V340.9z
												 M559.9,324.9H545V310h14.9V324.9z M559.9,308.9H545v-14.9h14.9V308.9z M559.9,293H545v-14.9h14.9V293z M559.9,277H545
												v-14.9h14.9V277z M559.9,261H545v-14.9h14.9V261z M559.9,245H545v-14.9h14.9V245z M559.9,229H545v-14.9h14.9V229z
												 M561,214.2h14.9V229H561V214.2z M561,230.1h14.9V245H561V230.1z M561,246.1h14.9V261H561V246.1z M561,262.1h14.9V277
												H561V262.1z M561,278.1h14.9V293H561V278.1z M561,294.1h14.9v14.9H561V294.1z M561,310h14.9v14.9H561V310z M561,326h14.9
												v14.9H561V326z M561,342h14.9v14.9H561V342z M561,358h14.9v14.9H561V358z M561,388.9V374h14.9v14.9H561z"/>
										</g>
									</g>
								</g>
							</g>
						</g>
					</g>
				</g>
				<g style="clip-path:url(#SVGID_1_);">
					<g>
						<g>
							<g>
								<g>
									<g>
										<g>
											<path class="st16" d="M640.9,430.7v-4.4c-0.4-0.1-0.7-0.1-1.1-0.2v5C640.2,431,640.6,430.8,640.9,430.7z"/>
										</g>
									</g>
								</g>
							</g>
						</g>
					</g>
				</g>
				<g style="clip-path:url(#SVGID_1_);">
					<g>
						<g>
							<g>
								<g>
									<g>
										<g>
											<path class="st16" d="M562.7,612.6H561v-14.9h1.8c0-0.4,0-0.7,0-1.1H561v-14.9h2.2c0-0.4,0-0.7,0.1-1.1H561v-14.9h3.2
												c0-0.4,0.1-0.7,0.1-1.1H561v-14.9h5c0.1-0.4,0.1-0.7,0.2-1.1H561v-14.9h7.7c0.1-0.4,0.2-0.7,0.2-1.1H561v-14.9h11.5
												c0.1-0.4,0.2-0.7,0.3-1.1H561v-14.9h14.9v5.1c0.4-1.1,0.7-2.1,1.1-3.2v-1.9h0.7c0.1-0.4,0.3-0.7,0.4-1.1H577v-14.9h7.4
												c0.2-0.4,0.3-0.7,0.5-1.1H577v-14.9h14.9v1.7c0.6-0.9,1.1-1.9,1.7-2.8H593v-14.9h12.2c0.4-0.4,0.7-0.7,1.1-1.1H593v-14.9
												h14.9v13.3c0.4-0.3,0.7-0.7,1.1-1v-12.3h14.9v1c0.4-0.2,0.7-0.4,1.1-0.7v-0.4h0.6c0.6-0.4,1.3-0.7,2-1.1H625v-13
												c-0.4-0.1-0.7-0.1-1.1-0.2v13.2H609v-14.9h3.9c-2.4-0.4-4.8-0.7-7.3-1.1H593v-1.9c-0.4-0.1-0.7-0.1-1.1-0.2v2.1H577v-4.3
												c-0.4-0.1-0.7-0.1-1.1-0.2v4.4H561v-6.6c-0.4-0.1-0.7-0.1-1.1-0.2v6.8H545V412c-0.4,0-0.7-0.1-1.1-0.1v9h-14.9V410
												c-0.4,0-0.7-0.1-1.1-0.1v11h-14.9V408c-0.2,0-0.4,0-0.6,0c-0.2,0-0.3,0-0.5,0v12.8h-13.8c-0.1,0.4-0.2,0.7-0.2,1.1H512
												v14.9h-14.2c0,0.4,0.1,0.7,0.1,1.1H512v14.9h-11c0.1,0.4,0.2,0.7,0.3,1.1H512v14.9h-6c0.1,0.4,0.3,0.7,0.4,1.1h5.6v14.5
												c0.4,0.9,0.7,1.8,1.1,2.7v-1.2H528v14.9h-9.1c0.2,0.4,0.3,0.7,0.5,1.1h8.7v14.9h-2.4c0.2,0.4,0.3,0.7,0.5,1.1h1.9v4.7
												c0.4,0.9,0.7,1.8,1.1,2.7v-7.3h14.9v14.9h-11.8c0.1,0.4,0.3,0.7,0.4,1.1h11.3v14.9h-5.4c0.1,0.4,0.3,0.7,0.4,1.1h5v13
												c0.4,1,0.7,2,1.1,3v0h14.9v14.9h-9.5c0.1,0.4,0.3,0.7,0.4,1.1h9.1v14.9h-4.2c0.1,0.4,0.2,0.7,0.3,1.1h3.8V610
												c0.4,1.2,0.7,2.5,1.1,3.7v-0.1h1.7C562.7,613.3,562.7,613,562.7,612.6z M593,421.9h14.9v14.9H593V421.9z M577,421.9h14.9
												v14.9H577V421.9z M577,437.9h14.9v14.9H577V437.9z M577,453.9h14.9v14.9H577V453.9z M561,421.9h14.9v14.9H561V421.9z
												 M561,437.9h14.9v14.9H561V437.9z M561,453.9h14.9v14.9H561V453.9z M561,469.9h14.9v14.9H561V469.9z M561,485.9h14.9
												v14.9H561V485.9z M528,484.7h-14.9v-14.9H528V484.7z M528,468.8h-14.9v-14.9H528V468.8z M528,452.8h-14.9v-14.9H528
												V452.8z M528,436.8h-14.9v-14.9H528V436.8z M543.9,516.7h-14.9v-14.9h14.9V516.7z M543.9,500.7h-14.9v-14.9h14.9V500.7z
												 M543.9,484.7h-14.9v-14.9h14.9V484.7z M543.9,468.8h-14.9v-14.9h14.9V468.8z M543.9,452.8h-14.9v-14.9h14.9V452.8z
												 M543.9,436.8h-14.9v-14.9h14.9V436.8z M559.9,564.7H545v-14.9h14.9V564.7z M559.9,548.7H545v-14.9h14.9V548.7z
												 M559.9,532.7H545v-14.9h14.9V532.7z M559.9,516.7H545v-14.9h14.9V516.7z M559.9,500.7H545v-14.9h14.9V500.7z
												 M559.9,484.7H545v-14.9h14.9V484.7z M559.9,468.8H545v-14.9h14.9V468.8z M559.9,452.8H545v-14.9h14.9V452.8z
												 M559.9,436.8H545v-14.9h14.9V436.8z"/>
										</g>
									</g>
								</g>
							</g>
						</g>
					</g>
				</g>
			</g>
			<g class="st56">
				<defs>
					<path id="SVGID_19_" class="st56" d="M703.9,468.1c-6-10.7-11.8-13.1-11.8-13.1l-19.8-0.3l-15.4-0.2
						c-17.4,8.5-24.8,32.7-29.5,50.8c-6,23.5-8.7,48.1-10.3,72.4c-0.7,11.2-2.4,23.2-1.3,34.4c17.8,1.8,36-0.6,54-1.9
						c2.8-0.2,40.4-1.4,40.7-2.9C723.4,523.5,713.5,485.2,703.9,468.1z"/>
				</defs>
				<clipPath id="SVGID_3_">
					<use xlink:href="#SVGID_19_"  style="overflow:visible;"/>
				</clipPath>
				<g class="st12">
					<g>
						<g>
							<g>
								<g>
									<g>
										<g>
											<path class="st16" d="M751.7,405.2c-0.4,0-0.7-0.1-1.1-0.1v8.4h-14.9v-10.2c-0.4,0-0.7-0.1-1.1-0.1v10.4h-14.9v-12.3
												c-0.4,0-0.7-0.1-1.1-0.1v12.5h-14.9v-14.1c-0.4,0-0.7,0-1.1,0v14.2h-14.9v-14.5c-0.1,0-0.3,0-0.4,0c-0.2,0-0.5,0-0.7,0
												v14.5h-14.9v-14.2c-0.4,0-0.7,0-1.1,0.1v14.1h-14.9v-12.8c-0.4,0.1-0.7,0.1-1.1,0.2v12.6h-14.9v-9.5
												c-0.4,0.1-0.7,0.2-1.1,0.3v9.2h-14.9v-3.9c-0.4,0.2-0.7,0.4-1.1,0.5v3.4h-6.2c-0.6,0.4-1.2,0.7-1.8,1.1h8v14.9h-14.9
												v-10.1c-0.3,0.3-0.7,0.6-1.1,0.9v9.2h-9.3c-0.2,0.3-0.5,0.5-0.7,0.8c-0.1,0.1-0.2,0.2-0.3,0.3h10.3v14.9h-14.9v-8.8
												c-0.4,0.5-0.7,1.1-1.1,1.6v7.1h-4.3c-0.2,0.4-0.4,0.7-0.6,1.1h4.9v14.9H579c-0.1,0.4-0.3,0.7-0.4,1.1h12.2v14.9h-14.9
												v-7.7c-0.4,1.1-0.7,2.1-1.1,3.2v4.5h-1.5c-0.1,0.4-0.2,0.7-0.3,1.1h1.8v14.9H569c-0.1,0.4-0.2,0.7-0.2,1.1h6v14.9H566
												c-0.1,0.4-0.1,0.7-0.2,1.1h9v14.9H564c0,0.4-0.1,0.7-0.1,1.1h10.9v14.9H563c0,0.4,0,0.7,0,1.1h11.8v14.9h-12.2
												c0,0.4,0,0.7,0,1.1h12.2v14.9h-12.3c0,0.4,0,0.7,0,1.1h12.3v14.9h-12.5c0,0.4,0,0.7,0,1.1h12.5v14.9h-12.7
												c0,0.4,0,0.7,0,1.1h12.7v14.9h-12.7c0,0.4,0,0.7,0,1.1h12.7v14.9h-12.5c0,0.4,0,0.7,0,1.1h12.5v14.9H563
												c0,0.4,0,0.7,0.1,1.1h11.7v14.9h1.1v-14.9h14.9v14.9h1.1v-14.9h14.9v14.9h1.1v-14.9h14.9v14.9h1.1v-14.9h14.9v14.9h1.1
												v-14.9h14.9v14.9h1.1v-14.9h14.9v14.9h1.1v-14.9h14.9v14.9h1.1v-14.9h14.9v14.9h1.1v-14.9h14.9v14.9h1.1v-14.9h14.9v14.9
												h1.1v-14.9h14.9v14.9h1.1v-14.9h11.2v-1.1h-11.2v-14.9h11.2v-1.1h-11.2v-14.9h11.2v-1.1h-11.2v-14.9h11.2v-1.1h-11.2
												v-14.9h11.2v-1.1h-11.2v-14.9h11.2v-1.1h-11.2v-14.9h11.2v-1.1h-11.2v-14.9h11.2v-1.1h-11.2v-14.9h11.2v-1.1h-11.2v-14.9
												h11.2v-1.1h-11.2v-14.9h11.2v-1.1h-11.2v-14.9h11.2v-1.1h-11.2v-14.9h11.2v-1.1h-11.2v-14.9h11.2v-1.1h-11.2v-14.9h11.2
												v-1.1h-11.2v-14.9h11.2v-1.1h-11.2V405.2z M590.8,653.2h-14.9v-14.9h14.9V653.2z M590.8,637.2h-14.9v-14.9h14.9V637.2z
												 M590.8,621.2h-14.9v-14.9h14.9V621.2z M590.8,605.2h-14.9v-14.9h14.9V605.2z M590.8,589.3h-14.9v-14.9h14.9V589.3z
												 M590.8,573.3h-14.9v-14.9h14.9V573.3z M590.8,557.3h-14.9v-14.9h14.9V557.3z M590.8,541.3h-14.9v-14.9h14.9V541.3z
												 M590.8,525.3h-14.9v-14.9h14.9V525.3z M590.8,509.3h-14.9v-14.9h14.9V509.3z M590.8,493.4h-14.9v-14.9h14.9V493.4z
												 M606.8,653.2h-14.9v-14.9h14.9V653.2z M606.8,637.2h-14.9v-14.9h14.9V637.2z M606.8,621.2h-14.9v-14.9h14.9V621.2z
												 M606.8,605.2h-14.9v-14.9h14.9V605.2z M606.8,589.3h-14.9v-14.9h14.9V589.3z M606.8,573.3h-14.9v-14.9h14.9V573.3z
												 M606.8,557.3h-14.9v-14.9h14.9V557.3z M606.8,541.3h-14.9v-14.9h14.9V541.3z M606.8,525.3h-14.9v-14.9h14.9V525.3z
												 M606.8,509.3h-14.9v-14.9h14.9V509.3z M606.8,493.4h-14.9v-14.9h14.9V493.4z M606.8,477.4h-14.9v-14.9h14.9V477.4z
												 M606.8,461.4h-14.9v-14.9h14.9V461.4z M622.7,653.2h-14.9v-14.9h14.9V653.2z M622.7,637.2h-14.9v-14.9h14.9V637.2z
												 M622.7,621.2h-14.9v-14.9h14.9V621.2z M622.7,605.2h-14.9v-14.9h14.9V605.2z M622.7,589.3h-14.9v-14.9h14.9V589.3z
												 M622.7,573.3h-14.9v-14.9h14.9V573.3z M622.7,557.3h-14.9v-14.9h14.9V557.3z M622.7,541.3h-14.9v-14.9h14.9V541.3z
												 M622.7,525.3h-14.9v-14.9h14.9V525.3z M622.7,509.3h-14.9v-14.9h14.9V509.3z M622.7,493.4h-14.9v-14.9h14.9V493.4z
												 M622.7,477.4h-14.9v-14.9h14.9V477.4z M622.7,461.4h-14.9v-14.9h14.9V461.4z M622.7,445.4h-14.9v-14.9h14.9V445.4z
												 M638.7,653.2h-14.9v-14.9h14.9V653.2z M638.7,637.2h-14.9v-14.9h14.9V637.2z M638.7,621.2h-14.9v-14.9h14.9V621.2z
												 M638.7,605.2h-14.9v-14.9h14.9V605.2z M638.7,589.3h-14.9v-14.9h14.9V589.3z M638.7,573.3h-14.9v-14.9h14.9V573.3z
												 M638.7,557.3h-14.9v-14.9h14.9V557.3z M638.7,541.3h-14.9v-14.9h14.9V541.3z M638.7,525.3h-14.9v-14.9h14.9V525.3z
												 M638.7,509.3h-14.9v-14.9h14.9V509.3z M638.7,493.4h-14.9v-14.9h14.9V493.4z M638.7,477.4h-14.9v-14.9h14.9V477.4z
												 M638.7,461.4h-14.9v-14.9h14.9V461.4z M638.7,445.4h-14.9v-14.9h14.9V445.4z M638.7,429.4h-14.9v-14.9h14.9V429.4z
												 M654.7,653.2h-14.9v-14.9h14.9V653.2z M654.7,637.2h-14.9v-14.9h14.9V637.2z M654.7,621.2h-14.9v-14.9h14.9V621.2z
												 M654.7,605.2h-14.9v-14.9h14.9V605.2z M654.7,589.3h-14.9v-14.9h14.9V589.3z M654.7,573.3h-14.9v-14.9h14.9V573.3z
												 M654.7,557.3h-14.9v-14.9h14.9V557.3z M654.7,541.3h-14.9v-14.9h14.9V541.3z M654.7,525.3h-14.9v-14.9h14.9V525.3z
												 M654.7,509.3h-14.9v-14.9h14.9V509.3z M654.7,493.4h-14.9v-14.9h14.9V493.4z M654.7,477.4h-14.9v-14.9h14.9V477.4z
												 M654.7,461.4h-14.9v-14.9h14.9V461.4z M654.7,445.4h-14.9v-14.9h14.9V445.4z M654.7,429.4h-14.9v-14.9h14.9V429.4z
												 M670.7,653.2h-14.9v-14.9h14.9V653.2z M670.7,637.2h-14.9v-14.9h14.9V637.2z M670.7,621.2h-14.9v-14.9h14.9V621.2z
												 M670.7,605.2h-14.9v-14.9h14.9V605.2z M670.7,589.3h-14.9v-14.9h14.9V589.3z M670.7,573.3h-14.9v-14.9h14.9V573.3z
												 M670.7,557.3h-14.9v-14.9h14.9V557.3z M670.7,541.3h-14.9v-14.9h14.9V541.3z M670.7,525.3h-14.9v-14.9h14.9V525.3z
												 M670.7,509.3h-14.9v-14.9h14.9V509.3z M670.7,493.4h-14.9v-14.9h14.9V493.4z M670.7,477.4h-14.9v-14.9h14.9V477.4z
												 M670.7,461.4h-14.9v-14.9h14.9V461.4z M670.7,445.4h-14.9v-14.9h14.9V445.4z M670.7,429.4h-14.9v-14.9h14.9V429.4z
												 M686.7,653.2h-14.9v-14.9h14.9V653.2z M686.7,637.2h-14.9v-14.9h14.9V637.2z M686.7,621.2h-14.9v-14.9h14.9V621.2z
												 M686.7,605.2h-14.9v-14.9h14.9V605.2z M686.7,589.3h-14.9v-14.9h14.9V589.3z M686.7,573.3h-14.9v-14.9h14.9V573.3z
												 M686.7,557.3h-14.9v-14.9h14.9V557.3z M686.7,541.3h-14.9v-14.9h14.9V541.3z M686.7,525.3h-14.9v-14.9h14.9V525.3z
												 M686.7,509.3h-14.9v-14.9h14.9V509.3z M686.7,493.4h-14.9v-14.9h14.9V493.4z M686.7,477.4h-14.9v-14.9h14.9V477.4z
												 M686.7,461.4h-14.9v-14.9h14.9V461.4z M686.7,445.4h-14.9v-14.9h14.9V445.4z M686.7,429.4h-14.9v-14.9h14.9V429.4z
												 M702.6,653.2h-14.9v-14.9h14.9V653.2z M702.6,637.2h-14.9v-14.9h14.9V637.2z M702.6,621.2h-14.9v-14.9h14.9V621.2z
												 M702.6,605.2h-14.9v-14.9h14.9V605.2z M702.6,589.3h-14.9v-14.9h14.9V589.3z M702.6,573.3h-14.9v-14.9h14.9V573.3z
												 M702.6,557.3h-14.9v-14.9h14.9V557.3z M702.6,541.3h-14.9v-14.9h14.9V541.3z M702.6,525.3h-14.9v-14.9h14.9V525.3z
												 M702.6,509.3h-14.9v-14.9h14.9V509.3z M702.6,493.4h-14.9v-14.9h14.9V493.4z M702.6,477.4h-14.9v-14.9h14.9V477.4z
												 M702.6,461.4h-14.9v-14.9h14.9V461.4z M702.6,445.4h-14.9v-14.9h14.9V445.4z M702.6,429.4h-14.9v-14.9h14.9V429.4z
												 M718.6,653.2h-14.9v-14.9h14.9V653.2z M718.6,637.2h-14.9v-14.9h14.9V637.2z M718.6,621.2h-14.9v-14.9h14.9V621.2z
												 M718.6,605.2h-14.9v-14.9h14.9V605.2z M718.6,589.3h-14.9v-14.9h14.9V589.3z M718.6,573.3h-14.9v-14.9h14.9V573.3z
												 M718.6,557.3h-14.9v-14.9h14.9V557.3z M718.6,541.3h-14.9v-14.9h14.9V541.3z M718.6,525.3h-14.9v-14.9h14.9V525.3z
												 M718.6,509.3h-14.9v-14.9h14.9V509.3z M718.6,493.4h-14.9v-14.9h14.9V493.4z M718.6,477.4h-14.9v-14.9h14.9V477.4z
												 M718.6,461.4h-14.9v-14.9h14.9V461.4z M718.6,445.4h-14.9v-14.9h14.9V445.4z M718.6,429.4h-14.9v-14.9h14.9V429.4z
												 M734.6,653.2h-14.9v-14.9h14.9V653.2z M734.6,637.2h-14.9v-14.9h14.9V637.2z M734.6,621.2h-14.9v-14.9h14.9V621.2z
												 M734.6,605.2h-14.9v-14.9h14.9V605.2z M734.6,589.3h-14.9v-14.9h14.9V589.3z M734.6,573.3h-14.9v-14.9h14.9V573.3z
												 M734.6,557.3h-14.9v-14.9h14.9V557.3z M734.6,541.3h-14.9v-14.9h14.9V541.3z M734.6,525.3h-14.9v-14.9h14.9V525.3z
												 M734.6,509.3h-14.9v-14.9h14.9V509.3z M734.6,493.4h-14.9v-14.9h14.9V493.4z M734.6,477.4h-14.9v-14.9h14.9V477.4z
												 M734.6,461.4h-14.9v-14.9h14.9V461.4z M734.6,445.4h-14.9v-14.9h14.9V445.4z M734.6,429.4h-14.9v-14.9h14.9V429.4z
												 M750.6,653.2h-14.9v-14.9h14.9V653.2z M750.6,637.2h-14.9v-14.9h14.9V637.2z M750.6,621.2h-14.9v-14.9h14.9V621.2z
												 M750.6,605.2h-14.9v-14.9h14.9V605.2z M750.6,589.3h-14.9v-14.9h14.9V589.3z M750.6,573.3h-14.9v-14.9h14.9V573.3z
												 M750.6,557.3h-14.9v-14.9h14.9V557.3z M750.6,541.3h-14.9v-14.9h14.9V541.3z M750.6,525.3h-14.9v-14.9h14.9V525.3z
												 M750.6,509.3h-14.9v-14.9h14.9V509.3z M750.6,493.4h-14.9v-14.9h14.9V493.4z M750.6,477.4h-14.9v-14.9h14.9V477.4z
												 M750.6,461.4h-14.9v-14.9h14.9V461.4z M750.6,445.4h-14.9v-14.9h14.9V445.4z M750.6,429.4h-14.9v-14.9h14.9V429.4z"/>
										</g>
									</g>
								</g>
							</g>
						</g>
					</g>
				</g>
			</g>
		</g>
		<g>
			<g>
				<g>
					<g>
						<g>
							<g>
								<g>
									<g>
										<path class="st14" d="M703.9,468.1c-5.3-0.3-10.6-0.8-15.8-1.5c-3.4-0.5-18.7-3.4-31.4-7.8c3.9-1.8,10.6-2.6,14.5-3.8
											c0.3-0.1,0.7-0.2,1-0.3l19.8,0.3C692.1,455.1,697.9,457.4,703.9,468.1z"/>
									</g>
								</g>
							</g>
						</g>
					</g>
				</g>
			</g>
		</g>
		<g>
			<g>
				<g>
					<g>
						<g>
							<g>
								<g>
									<g>
										<path class="st13" d="M713.5,397.8c-1.3-2.5-4.3-3.4-7.1-3.8c-6.6-0.9-13.5-0.3-19.8,1.8c-4.6,1.5-9.5,2.2-14.5,2.5
											c-4-0.2-7.9-0.5-11.7-1.2c-5.1-0.9-10.3-2.1-15.5-1.3c-5.2,0.8-10.4,4.2-11.3,9.3c-0.9,4.5,1.7,8.9,3.5,13.2
											c4.3,10.5,4.2,23,5.4,34.2c0.1,1.2,0.3,2.4,1,3.4c1,1.4,2.8,1.8,4.5,2.1c15.8,3.1,31.7,6.2,47.7,5.1
											c2-0.1,4.1-0.4,5.8-1.5c2.1-1.4,3.1-4,3.8-6.4c2.6-8.9,3.1-18.4,4.2-27.6c1-8.7,4.7-17,4.9-25.8
											C714.2,400.4,714.1,399,713.5,397.8z"/>
									</g>
								</g>
							</g>
						</g>
					</g>
				</g>
			</g>
		</g>
		<g>
			<g>
				<g>
					<g>
						<g>
							<g>
								<g>
									<g>
										<g>
											<g>
												<g>
													<g>
														<g>
															<g>
																<g>
																	<g>
																		<g>
																			<g>
																				<g>
																					<g>
																						<g>
																							<g>
																								<g>
																									<g>
																										<g>
																											<path class="st13" d="M610,456.3c-6-1.4-8.1-7.6-5.9-13.8c1.4-3.9,4-7.2,6.4-10.5
																												c7.7-10.9,13.6-23.5,24.2-31.5c7.2-5.5,13.9-4.4,16.2,4.8c5.2,11.9-18.1,33-24.3,40.8
																												c-3.9,4.9-7.2,10.7-14.1,10.6C611.6,456.5,610.7,456.4,610,456.3z"/>
																										</g>
																									</g>
																								</g>
																							</g>
																						</g>
																					</g>
																				</g>
																			</g>
																		</g>
																	</g>
																</g>
															</g>
														</g>
													</g>
												</g>
											</g>
										</g>
									</g>
								</g>
							</g>
						</g>
					</g>
				</g>
			</g>
		</g>
		<g>
			<g>
				<g>
					<g>
						<g>
							<g>
								<g>
									<g>
										<g>
											<g>
												<g>
													<g>
														<g>
															<g>
																<g>
																	<g>
																		<g>
																			<g>
																				<g>
																					<g>
																						<g>
																							<g>
																								<g>
																									<g>
																										<g>
																											<g>
																												<g>
																													<path class="st9" d="M646,457.5h18.1c1,0,1.7-0.8,1.7-1.7v-34.6c0-1-0.8-1.7-1.7-1.7H646
																														c-1,0-1.7,0.8-1.7,1.7v34.6C644.3,456.7,645.1,457.5,646,457.5z"/>
																												</g>
																											</g>
																										</g>
																									</g>
																								</g>
																							</g>
																						</g>
																					</g>
																				</g>
																			</g>
																		</g>
																	</g>
																</g>
															</g>
														</g>
													</g>
												</g>
											</g>
										</g>
									</g>
								</g>
							</g>
						</g>
					</g>
				</g>
			</g>
			<g>
				<g>
					<g>
						<g>
							<g>
								<g>
									<g>
										<g>
											<g>
												<g>
													<g>
														<g>
															<g>
																<g>
																	<g>
																		<g>
																			<g>
																				<g>
																					<g>
																						<g>
																							<g>
																								<g>
																									<g>
																										<g>
																											<g>
																												<g>
																													<circle class="st5" cx="655.1" cy="425" r="2.2"/>
																												</g>
																											</g>
																										</g>
																									</g>
																								</g>
																							</g>
																						</g>
																					</g>
																				</g>
																			</g>
																		</g>
																	</g>
																</g>
															</g>
														</g>
													</g>
												</g>
											</g>
										</g>
									</g>
								</g>
							</g>
						</g>
					</g>
				</g>
			</g>
		</g>
		<g>
			<g>
				<g>
					<g>
						<g>
							<g>
								<g>
									<g>
										<path class="st9" d="M656.4,391.3h11.1c0.8-0.1,1.6-0.1,2.3-0.1c5.5,0,11.1,0,16.6,0c2.1,0,4.2,0,6.3,0
											c0.8,0,1.2-0.9,0.6-1.5c-0.5-0.6-1.1-1.1-1.4-1.8c-0.5-1.2-0.2-2.7-0.4-4c-0.1-1.5-0.8-2.9-1.9-3.9c-1-1-2.4-1.6-3.2-2.7
											c-0.6-0.8-0.8-1.7-1.1-2.6c-1.9-5.1-7.4-8.7-12.9-8.2c-2,0.2-4.1,0.5-5.9,1.4c-1.4,0.7-3.2,1.9-3.8,3.4
											c-0.7,1.7-0.6,3.4-1.7,5c-1,1.5-2.3,2.7-2.9,4.3c-0.6,1.7-0.4,4.5-1.3,6.1c-0.4,0.6-1,1.2-1.4,1.8
											c-0.4,0.6-0.6,1.5-0.3,2.2C655.4,390.9,655.9,391.1,656.4,391.3z"/>
									</g>
								</g>
							</g>
						</g>
					</g>
				</g>
			</g>
		</g>
		<g>
			<g>
				<g>
					<g>
						<g>
							<g>
								<g>
									<g>
										<path class="st5" d="M678.5,391.9l6.7,12.5c0.3,0.6-0.2,1.3-0.9,1.2l-11.4-2.1l-10.8,3.3c-0.7,0.2-1.3-0.5-1-1.1l6.2-13.2
											L678.5,391.9z"/>
									</g>
								</g>
							</g>
						</g>
					</g>
				</g>
			</g>
		</g>
		<g>
			<g>
				<g>
					<g>
						<g>
							<g>
								<g>
									<g>
										<path class="st16" d="M667.4,386.2v11.7c0,1.5,0.6,2.9,1.6,3.9c1,1,2.4,1.6,3.9,1.6c3.1,0,5.6-2.5,5.6-5.6v-14l-2.8,0.6
											l-1.2,0.2L667.4,386.2z"/>
									</g>
								</g>
							</g>
						</g>
					</g>
				</g>
			</g>
		</g>
		<g>
			<g>
				<g>
					<g>
						<g>
							<g>
								<g>
									<g>
										<path class="st14" d="M675.6,381.5v1.6c0,1.1-0.2,2.1-0.5,3.1c-1.1,3.5-4.1,6.2-7.7,7v-10.2l6.1-1.4H675.6z"/>
									</g>
								</g>
							</g>
						</g>
					</g>
				</g>
			</g>
		</g>
		<g>
			<g>
				<g>
					<g>
						<g>
							<g>
								<g>
									<g>
										<path class="st9" d="M669.9,374.5l1.3,5.2c0.4,1.6,2,2.6,3.7,2.2l2.9-0.7l-0.2-7.6l-5,0.2L669.9,374.5z"/>
									</g>
								</g>
							</g>
						</g>
					</g>
				</g>
			</g>
		</g>
		<g>
			<g>
				<g>
					<g>
						<g>
							<g>
								<g>
									<g>
										<path class="st14" d="M673.7,382.9l1.2,4c0.4,1.4,2.2,2.2,4.3,2.1l-1.2-7.4L673.7,382.9z"/>
									</g>
								</g>
							</g>
						</g>
					</g>
				</g>
			</g>
		</g>
		<g>
			<g>
				<g>
					<g>
						<g>
							<g>
								<g>
									<g>
										
											<ellipse transform="matrix(0.5445 -0.8387 0.8387 0.5445 -14.1972 742.2673)" class="st14" cx="676.3" cy="384.2" rx="2.8" ry="2.8"/>
									</g>
								</g>
							</g>
						</g>
					</g>
				</g>
			</g>
		</g>
		<g>
			<g>
				<g>
					<g>
						<g>
							<g>
								<g>
									<g>
										<path class="st14" d="M666.5,380.9L666.5,380.9c-0.3,0-0.5-0.2-0.4-0.5l0,0c0-0.3,0.2-0.5,0.5-0.4l0,0
											c0.3,0,0.5,0.2,0.4,0.5l0,0C667,380.7,666.7,380.9,666.5,380.9z"/>
									</g>
								</g>
							</g>
						</g>
					</g>
				</g>
			</g>
		</g>
		<g>
			<g>
				<g>
					<g>
						<g>
							<g>
								<g>
									<g>
										<path class="st14" d="M665.4,386.7l0-0.4c0.5,0,1.1-0.2,1.4-0.6l0.3,0.3C666.7,386.4,666.1,386.7,665.4,386.7z"/>
									</g>
								</g>
							</g>
						</g>
					</g>
				</g>
			</g>
		</g>
		<g>
			<g>
				<g>
					<g>
						<g>
							<g>
								<g>
									<g>
										<path class="st16" d="M682.4,382c-0.5-1.4-2-2.4-3.5-2.3c-1.4,0.1-2.7,1-4.1,0.9c-2.2-0.2-3.3-2.7-4.6-4.5
											c-1.1-1.4-3.5-3.2-5.4-2.5c-0.3,0.1-0.5,0.3-0.7,0.4l-0.4,5.1c0,0.3,0,0.6-0.1,0.8v8c0,0.4,0.1,0.8,0.2,1.1
											c0.1,0.7,0.3,1.5,0.9,2c0.5,0.4,1.1,0.6,1.7,0.7c1.6,0.4,6.3,0.1,9,0v3.5h3.2v-8.3c0.9-0.1,1.9-0.3,2.6-0.8
											C682.4,385.2,682.9,383.4,682.4,382z"/>
									</g>
								</g>
							</g>
						</g>
					</g>
				</g>
			</g>
		</g>
		<g>
			<g>
				<g>
					<g>
						<g>
							<g>
								<g>
									<g>
										<circle class="st16" cx="663.6" cy="382.5" r="2.8"/>
									</g>
								</g>
							</g>
						</g>
					</g>
				</g>
			</g>
		</g>
		<g>
			<g>
				<g>
					<g>
						<g>
							<g>
								<g>
									<g>
										<g>
											<path class="st14" d="M672.8,381.2L672.8,381.2c-0.3,0-0.6-0.3-0.6-0.6l0,0c0-0.3,0.3-0.6,0.6-0.6l0,0
												c0.3,0,0.6,0.3,0.6,0.6l0,0C673.5,380.9,673.2,381.2,672.8,381.2z"/>
										</g>
									</g>
								</g>
							</g>
						</g>
					</g>
				</g>
			</g>
			<g>
				<g>
					<g>
						<g>
							<g>
								<g>
									<g>
										<g>
											<path class="st14" d="M671.2,386.4c-0.3,0-0.7-0.1-1-0.3l0.3-0.5c0.4,0.3,0.8,0.2,1,0.1c0.2-0.1,0.3-0.3,0.3-0.5l0.6,0
												c0,0.5-0.2,0.9-0.6,1.1C671.7,386.3,671.4,386.4,671.2,386.4z"/>
										</g>
									</g>
								</g>
							</g>
						</g>
					</g>
				</g>
			</g>
			<g>
				<g>
					<g>
						<g>
							<g>
								<g>
									<g>
										<g>
											<polygon class="st14" points="669.6,383.9 668.1,383.9 668.1,378.6 668.7,378.6 668.7,383.2 669.6,383.2 											"/>
										</g>
									</g>
								</g>
							</g>
						</g>
					</g>
				</g>
			</g>
			<g>
				<g>
					<g>
						<g>
							<g>
								<g>
									<g>
										<g>
											<path class="st14" d="M666.4,380.9L666.4,380.9c-0.3,0-0.6-0.3-0.6-0.6l0,0c0-0.3,0.3-0.6,0.6-0.6l0,0
												c0.3,0,0.6,0.3,0.6,0.6l0,0C667,380.7,666.8,380.9,666.4,380.9z"/>
										</g>
									</g>
								</g>
							</g>
						</g>
					</g>
				</g>
			</g>
		</g>
		<g>
			<g>
				<g>
					<g>
						<g>
							<g>
								<g>
									<g>
										<path class="st16" d="M603.3,450.2c-0.3,2.1,0.9,4.3,2.5,5.5c1.6,1.2,3.7,1.6,5.6,1.7c5.7,0.3,11.3-1.9,16.4-4.6
											c8.8-4.5,17.1-9.2,27.1-9.6c1,0,2.5,0.4,3.4-0.1c0.3-0.2,0.2-0.6-0.1-0.6c-3-0.5-6.4-0.9-9.3-0.3c-0.2,0-0.4-0.1-0.4-0.3
											c0-0.2,0.1-0.4,0.3-0.4c3.3-0.6,7.2-0.1,10.4,0.5c0.1,0,0.3,0,0.3-0.2c0.1-0.2,0.2-0.4,0.3-0.6c0.1-0.2,0-0.4-0.2-0.4
											c-3.2-0.8-6.8-1.1-10.9-0.8c-0.2,0-0.4-0.1-0.4-0.3c0-0.2,0.1-0.4,0.3-0.4c4.2-0.3,7.9,0,11.1,0.8c0.2,0,0.4-0.1,0.4-0.3
											c0-0.1,0-0.2,0-0.4c0-0.2-0.1-0.3-0.2-0.3c-3.6-1.1-7.5-1.6-11.3-1.4c-0.2,0-0.4-0.1-0.4-0.3c0-0.2,0.1-0.4,0.3-0.4
											c3.6-0.2,7.3,0.2,10.8,1.2c0.3,0.1,0.5-0.2,0.4-0.5c0,0,0,0,0,0c-0.3-0.5-1.5-1-2-1.2c-3.5-1.4-7.5-2-11.3-2.1
											c-1.1,0-2.3,0-3.4,0.1c-10.8,0.9-22.8,6-33.1,9.6C607.1,445.2,603.7,446.8,603.3,450.2z"/>
									</g>
								</g>
							</g>
						</g>
					</g>
				</g>
			</g>
		</g>
		<g>
			<defs>
				<path id="SVGID_21_" d="M710.4,607.4c-0.2,1.6-37.9,2.7-40.7,2.9c-18,1.3-36.2,3.7-54,1.9c-1.1-11.2,0.6-23.2,1.3-34.4
					c1.5-24.3,4.2-48.8,10.3-72.4c4.6-18.1,12.1-42.2,29.5-50.8l15.4,0.2l19.8,0.3c0,0,5.8,2.4,11.8,13.1
					C713.5,485.2,723.4,523.5,710.4,607.4z"/>
			</defs>
			<clipPath id="SVGID_4_">
				<use xlink:href="#SVGID_21_"  style="overflow:visible;"/>
			</clipPath>
			<g style="clip-path:url(#SVGID_4_);">
				<g>
					<g>
						<g>
							<g>
								<g>
									<g>
										<path class="st16" d="M575.9,399.4c0.4,0.1,0.7,0.1,1.1,0.2V390h14.9v11.8c0.4,0.1,0.7,0.1,1.1,0.2v-12h14.9v14.2
											c0.4,0.1,0.7,0.1,1.1,0.2V390h14.9v14.9h-11.5c2.4,0.4,4.8,0.7,7.2,1.1h4.4v0.7c0.4,0.1,0.7,0.1,1.1,0.2v-0.8h14.9v3.1
											c0.4,0.1,0.7,0.1,1.1,0.2v-3.3h14.9v5.6c0.4,0.1,0.7,0.1,1.1,0.2v-5.8h14.9v8.1c0.4,0.1,0.7,0.1,1.1,0.2v-8.2h14.9v10.5
											c0.4,0.1,0.7,0.1,1.1,0.2v-10.7h14.9v12.9c0.4,0.1,0.7,0.1,1.1,0.2v-13h14.9v14.9h-2.2c2.6,0.4,5.2,0.7,7.9,1.1h10.3v0.6
											c0.4,0,0.7,0,1.1,0.1v-0.6h14.9v1.6c0.4,0,0.7,0,1.1,0.1v-1.6h14.9v2.5c0.4,0,0.7,0,1.1,0.1v-2.5H780v-1.1h-11.2v-14.9
											H780v-1.1h-11.2V390H780v-1.1h-11.2V374H780v-1.1h-11.2V358H780v-1.1h-11.2V342H780v-1.1h-11.2V326H780v-1.1h-11.2V310
											H780v-1.1h-11.2v-14.9H780V293h-11.2v-14.9H780V277h-11.2v-14.9H780V261h-11.2v-14.9H780V245h-11.2v-14.9H780V229h-11.2
											v-14.9H780v-1.1h-11.2v-4.3h-1.1v4.3h-14.9v-4.3h-1.1v4.3h-14.9v-4.3h-1.1v4.3h-14.9v-4.3h-1.1v4.3h-14.9v-4.3h-1.1v4.3
											h-14.9v-4.3h-1.1v4.3h-14.9v-4.3h-1.1v4.3h-14.9v-4.3h-1.1v4.3h-14.9v-4.3h-1.1v4.3H625v-4.3h-1.1v4.3H609v-4.3h-1.1v4.3
											H593v-4.3h-1.1v4.3H577v-4.3h-1.1v4.3H561v-4.3h-1.1v4.3H545v-4.3h-1.1v4.3h-14.9v-4.3H528v4.3h-14.9v-4.3H512v4.3h-14.9
											v-4.3H496v4.3h-14.9v-4.3H480v4.3h-14.9v-4.3H464v4.3h-14.9v-4.3h-1.1v4.3h-14.9v-4.3h-1.1v4.3h-14.9v-4.3h-1.1v4.3h-14.9
											v-4.3h-1.1v4.3h-5.3v1.1h5.3V229h-5.3v1.1h5.3V245h-5.3v1.1h5.3V261h-5.3v1.1h5.3V277h-5.3v1.1h5.3V293h-5.3v1.1h5.3v14.9
											h-5.3v1.1h5.3v14.9h-5.3v1.1h5.3v14.9h-5.3v1.1h5.3v14.9h-5.3v1.1h5.3v14.9h-5.3v1.1h5.3v14.9h-5.3v1.1h5.3v14.9h-5.3v1.1
											h5.3v14.9h-5.3v1.1h5.3v14.9h-5.3v1.1h5.3v14.9h-5.3v1.1h5.3v14.9h-5.3v1.1h5.3v14.9h-5.3v1.1h5.3v14.9h-5.3v1.1h5.3v14.9
											h-5.3v1.1h5.3v14.9h-5.3v1.1h5.3v14.9h-5.3v1.1h5.3v14.9h-5.3v1.1h5.3v14.9h-5.3v1.1h5.3v14.9h-5.3v1.1h5.3v14.9h-5.3v1.1
											h5.3v14.9h-5.3v1.1h5.3v14.9h-5.3v1.1h5.3v14.9h-5.3v1.1h5.3v14.9h-5.3v1.1h5.3v14.9h-5.3v1.1h5.3v14.9h1.1v-14.9h14.9
											v14.9h1.1v-14.9h14.9v14.9h1.1v-14.9h14.9v14.9h1.1v-14.9H464v14.9h1.1v-14.9H480v14.9h1.1v-14.9H496v14.9h1.1v-14.9H512
											v14.9h1.1v-14.9H528v14.9h1.1v-14.9h14.9v14.9h1.1v-14.9h14.9v14.9h1.1v-14.5c-0.4-2.5-0.7-5-1.1-7.4v6H545v-14.9h13.4
											c-0.1-0.4-0.1-0.7-0.2-1.1H545v-14.9h10.4c-0.1-0.4-0.1-0.7-0.2-1.1H545v-14.9h6.8c-0.1-0.4-0.2-0.7-0.3-1.1H545v-14.9
											h2.8c-0.1-0.4-0.2-0.7-0.3-1.1H545v-9.2c-0.4-1.3-0.7-2.6-1.1-3.8v13h-14.9v-14.9h14.3c-0.1-0.4-0.2-0.7-0.3-1.1h-14
											v-14.9h9.4c-0.1-0.4-0.2-0.7-0.4-1.1h-9v-14.9h4c-0.1-0.4-0.3-0.7-0.4-1.1h-3.6v-10c-0.4-1-0.7-2-1.1-3v13h-14.9v-14.9
											h14.2c-0.1-0.4-0.3-0.7-0.4-1.1h-13.8v-14.9h8c-0.1-0.4-0.3-0.7-0.4-1.1h-7.6v-14.9h1.6c-0.2-0.4-0.3-0.7-0.5-1.1h-1.1
											V530c-0.4-0.9-0.7-1.8-1.1-2.6v5.3h-14.9v-14.9h10.8c0,0,0-0.1,0-0.1c-0.1-0.3-0.3-0.7-0.4-1h-10.3v-14.9h4
											c-0.2-0.4-0.3-0.7-0.5-1.1h-3.5v-8.3c-0.4-0.9-0.7-1.8-1.1-2.7v11h-14.9v-14.9h13.3c-0.1-0.4-0.3-0.7-0.4-1.1h-12.9v-14.9
											h7.3c-0.1-0.4-0.3-0.7-0.4-1.1h-7v-14.9h2.6c-0.1-0.4-0.2-0.7-0.3-1.1h-2.3V440c-0.5-4.2-0.7-8.5-0.6-12.7
											c0.1-2.4,0.3-4.8,0.6-7.2v-14.2h4.5c0.2-0.4,0.4-0.7,0.6-1.1h-5.1V390H496v5c0.4-0.2,0.7-0.4,1.1-0.6V390H512v1.1
											c0.4,0,0.7,0,1.1,0V390H528v3c0.5,0.1,0.8,0.1,0.6,0.1c0.2,0,0.3,0,0.5,0.1V390h14.9v5c0.4,0,0.7,0.1,1.1,0.1V390h14.9
											v7.2c0.4,0.1,0.7,0.1,1.1,0.2V390h14.9V399.4z M752.8,214.2h14.9V229h-14.9V214.2z M752.8,230.1h14.9V245h-14.9V230.1z
											 M752.8,246.1h14.9V261h-14.9V246.1z M752.8,262.1h14.9V277h-14.9V262.1z M752.8,278.1h14.9V293h-14.9V278.1z
											 M752.8,294.1h14.9v14.9h-14.9V294.1z M752.8,310h14.9v14.9h-14.9V310z M752.8,326h14.9v14.9h-14.9V326z M752.8,342h14.9
											v14.9h-14.9V342z M752.8,358h14.9v14.9h-14.9V358z M752.8,374h14.9v14.9h-14.9V374z M752.8,390h14.9v14.9h-14.9V390z
											 M752.8,405.9h14.9v14.9h-14.9V405.9z M736.8,214.2h14.9V229h-14.9V214.2z M736.8,230.1h14.9V245h-14.9V230.1z
											 M736.8,246.1h14.9V261h-14.9V246.1z M736.8,262.1h14.9V277h-14.9V262.1z M736.8,278.1h14.9V293h-14.9V278.1z
											 M736.8,294.1h14.9v14.9h-14.9V294.1z M736.8,310h14.9v14.9h-14.9V310z M736.8,326h14.9v14.9h-14.9V326z M736.8,342h14.9
											v14.9h-14.9V342z M736.8,358h14.9v14.9h-14.9V358z M736.8,374h14.9v14.9h-14.9V374z M736.8,390h14.9v14.9h-14.9V390z
											 M736.8,405.9h14.9v14.9h-14.9V405.9z M720.9,214.2h14.9V229h-14.9V214.2z M720.9,230.1h14.9V245h-14.9V230.1z
											 M720.9,246.1h14.9V261h-14.9V246.1z M720.9,262.1h14.9V277h-14.9V262.1z M720.9,278.1h14.9V293h-14.9V278.1z
											 M720.9,294.1h14.9v14.9h-14.9V294.1z M720.9,310h14.9v14.9h-14.9V310z M720.9,326h14.9v14.9h-14.9V326z M720.9,342h14.9
											v14.9h-14.9V342z M720.9,358h14.9v14.9h-14.9V358z M720.9,374h14.9v14.9h-14.9V374z M720.9,390h14.9v14.9h-14.9V390z
											 M720.9,405.9h14.9v14.9h-14.9V405.9z M704.9,214.2h14.9V229h-14.9V214.2z M704.9,230.1h14.9V245h-14.9V230.1z
											 M704.9,246.1h14.9V261h-14.9V246.1z M704.9,262.1h14.9V277h-14.9V262.1z M704.9,278.1h14.9V293h-14.9V278.1z
											 M704.9,294.1h14.9v14.9h-14.9V294.1z M704.9,310h14.9v14.9h-14.9V310z M704.9,326h14.9v14.9h-14.9V326z M704.9,342h14.9
											v14.9h-14.9V342z M704.9,358h14.9v14.9h-14.9V358z M704.9,374h14.9v14.9h-14.9V374z M704.9,390h14.9v14.9h-14.9V390z
											 M688.9,214.2h14.9V229h-14.9V214.2z M688.9,230.1h14.9V245h-14.9V230.1z M688.9,246.1h14.9V261h-14.9V246.1z
											 M688.9,262.1h14.9V277h-14.9V262.1z M688.9,278.1h14.9V293h-14.9V278.1z M688.9,294.1h14.9v14.9h-14.9V294.1z M688.9,310
											h14.9v14.9h-14.9V310z M688.9,326h14.9v14.9h-14.9V326z M688.9,342h14.9v14.9h-14.9V342z M688.9,358h14.9v14.9h-14.9V358z
											 M688.9,374h14.9v14.9h-14.9V374z M688.9,390h14.9v14.9h-14.9V390z M672.9,214.2h14.9V229h-14.9V214.2z M672.9,230.1h14.9
											V245h-14.9V230.1z M672.9,246.1h14.9V261h-14.9V246.1z M672.9,262.1h14.9V277h-14.9V262.1z M672.9,278.1h14.9V293h-14.9
											V278.1z M672.9,294.1h14.9v14.9h-14.9V294.1z M672.9,310h14.9v14.9h-14.9V310z M672.9,326h14.9v14.9h-14.9V326z
											 M672.9,342h14.9v14.9h-14.9V342z M672.9,358h14.9v14.9h-14.9V358z M672.9,374h14.9v14.9h-14.9V374z M672.9,390h14.9v14.9
											h-14.9V390z M656.9,214.2h14.9V229h-14.9V214.2z M656.9,230.1h14.9V245h-14.9V230.1z M656.9,246.1h14.9V261h-14.9V246.1z
											 M656.9,262.1h14.9V277h-14.9V262.1z M656.9,278.1h14.9V293h-14.9V278.1z M656.9,294.1h14.9v14.9h-14.9V294.1z M656.9,310
											h14.9v14.9h-14.9V310z M656.9,326h14.9v14.9h-14.9V326z M656.9,342h14.9v14.9h-14.9V342z M656.9,358h14.9v14.9h-14.9V358z
											 M656.9,374h14.9v14.9h-14.9V374z M656.9,390h14.9v14.9h-14.9V390z M640.9,214.2h14.9V229h-14.9V214.2z M640.9,230.1h14.9
											V245h-14.9V230.1z M640.9,246.1h14.9V261h-14.9V246.1z M640.9,262.1h14.9V277h-14.9V262.1z M640.9,278.1h14.9V293h-14.9
											V278.1z M640.9,294.1h14.9v14.9h-14.9V294.1z M640.9,310h14.9v14.9h-14.9V310z M640.9,326h14.9v14.9h-14.9V326z
											 M640.9,342h14.9v14.9h-14.9V342z M640.9,358h14.9v14.9h-14.9V358z M640.9,374h14.9v14.9h-14.9V374z M640.9,390h14.9v14.9
											h-14.9V390z M625,214.2h14.9V229H625V214.2z M625,230.1h14.9V245H625V230.1z M625,246.1h14.9V261H625V246.1z M625,262.1
											h14.9V277H625V262.1z M625,278.1h14.9V293H625V278.1z M625,294.1h14.9v14.9H625V294.1z M625,310h14.9v14.9H625V310z
											 M625,326h14.9v14.9H625V326z M625,342h14.9v14.9H625V342z M625,358h14.9v14.9H625V358z M625,374h14.9v14.9H625V374z
											 M625,390h14.9v14.9H625V390z M609,214.2h14.9V229H609V214.2z M609,230.1h14.9V245H609V230.1z M609,246.1h14.9V261H609
											V246.1z M609,262.1h14.9V277H609V262.1z M609,278.1h14.9V293H609V278.1z M609,294.1h14.9v14.9H609V294.1z M609,310h14.9
											v14.9H609V310z M609,326h14.9v14.9H609V326z M609,342h14.9v14.9H609V342z M609,358h14.9v14.9H609V358z M609,374h14.9v14.9
											H609V374z M593,214.2h14.9V229H593V214.2z M593,230.1h14.9V245H593V230.1z M593,246.1h14.9V261H593V246.1z M593,262.1
											h14.9V277H593V262.1z M593,278.1h14.9V293H593V278.1z M593,294.1h14.9v14.9H593V294.1z M593,310h14.9v14.9H593V310z
											 M593,326h14.9v14.9H593V326z M593,342h14.9v14.9H593V342z M593,358h14.9v14.9H593V358z M593,374h14.9v14.9H593V374z
											 M577,214.2h14.9V229H577V214.2z M577,230.1h14.9V245H577V230.1z M577,246.1h14.9V261H577V246.1z M577,262.1h14.9V277H577
											V262.1z M577,278.1h14.9V293H577V278.1z M577,294.1h14.9v14.9H577V294.1z M577,310h14.9v14.9H577V310z M577,326h14.9v14.9
											H577V326z M577,342h14.9v14.9H577V342z M577,358h14.9v14.9H577V358z M577,374h14.9v14.9H577V374z M416.1,692.5h-14.9
											v-14.9h14.9V692.5z M416.1,676.5h-14.9v-14.9h14.9V676.5z M416.1,660.6h-14.9v-14.9h14.9V660.6z M416.1,644.6h-14.9v-14.9
											h14.9V644.6z M416.1,628.6h-14.9v-14.9h14.9V628.6z M416.1,612.6h-14.9v-14.9h14.9V612.6z M416.1,596.6h-14.9v-14.9h14.9
											V596.6z M416.1,580.6h-14.9v-14.9h14.9V580.6z M416.1,564.7h-14.9v-14.9h14.9V564.7z M416.1,548.7h-14.9v-14.9h14.9V548.7
											z M416.1,532.7h-14.9v-14.9h14.9V532.7z M416.1,516.7h-14.9v-14.9h14.9V516.7z M416.1,500.7h-14.9v-14.9h14.9V500.7z
											 M416.1,484.7h-14.9v-14.9h14.9V484.7z M416.1,468.8h-14.9v-14.9h14.9V468.8z M416.1,452.8h-14.9v-14.9h14.9V452.8z
											 M416.1,436.8h-14.9v-14.9h14.9V436.8z M416.1,420.8h-14.9v-14.9h14.9V420.8z M416.1,404.8h-14.9V390h14.9V404.8z
											 M416.1,388.9h-14.9V374h14.9V388.9z M416.1,372.9h-14.9V358h14.9V372.9z M416.1,356.9h-14.9V342h14.9V356.9z
											 M416.1,340.9h-14.9V326h14.9V340.9z M416.1,324.9h-14.9V310h14.9V324.9z M416.1,308.9h-14.9v-14.9h14.9V308.9z
											 M416.1,293h-14.9v-14.9h14.9V293z M416.1,277h-14.9v-14.9h14.9V277z M416.1,261h-14.9v-14.9h14.9V261z M416.1,245h-14.9
											v-14.9h14.9V245z M416.1,229h-14.9v-14.9h14.9V229z M432.1,692.5h-14.9v-14.9h14.9V692.5z M432.1,676.5h-14.9v-14.9h14.9
											V676.5z M432.1,660.6h-14.9v-14.9h14.9V660.6z M432.1,644.6h-14.9v-14.9h14.9V644.6z M432.1,628.6h-14.9v-14.9h14.9V628.6
											z M432.1,612.6h-14.9v-14.9h14.9V612.6z M432.1,596.6h-14.9v-14.9h14.9V596.6z M432.1,580.6h-14.9v-14.9h14.9V580.6z
											 M432.1,564.7h-14.9v-14.9h14.9V564.7z M432.1,548.7h-14.9v-14.9h14.9V548.7z M432.1,532.7h-14.9v-14.9h14.9V532.7z
											 M432.1,516.7h-14.9v-14.9h14.9V516.7z M432.1,500.7h-14.9v-14.9h14.9V500.7z M432.1,484.7h-14.9v-14.9h14.9V484.7z
											 M432.1,468.8h-14.9v-14.9h14.9V468.8z M432.1,452.8h-14.9v-14.9h14.9V452.8z M432.1,436.8h-14.9v-14.9h14.9V436.8z
											 M432.1,420.8h-14.9v-14.9h14.9V420.8z M432.1,404.8h-14.9V390h14.9V404.8z M432.1,388.9h-14.9V374h14.9V388.9z
											 M432.1,372.9h-14.9V358h14.9V372.9z M432.1,356.9h-14.9V342h14.9V356.9z M432.1,340.9h-14.9V326h14.9V340.9z
											 M432.1,324.9h-14.9V310h14.9V324.9z M432.1,308.9h-14.9v-14.9h14.9V308.9z M432.1,293h-14.9v-14.9h14.9V293z M432.1,277
											h-14.9v-14.9h14.9V277z M432.1,261h-14.9v-14.9h14.9V261z M432.1,245h-14.9v-14.9h14.9V245z M432.1,229h-14.9v-14.9h14.9
											V229z M448.1,692.5h-14.9v-14.9h14.9V692.5z M448.1,676.5h-14.9v-14.9h14.9V676.5z M448.1,660.6h-14.9v-14.9h14.9V660.6z
											 M448.1,644.6h-14.9v-14.9h14.9V644.6z M448.1,628.6h-14.9v-14.9h14.9V628.6z M448.1,612.6h-14.9v-14.9h14.9V612.6z
											 M448.1,596.6h-14.9v-14.9h14.9V596.6z M448.1,580.6h-14.9v-14.9h14.9V580.6z M448.1,564.7h-14.9v-14.9h14.9V564.7z
											 M448.1,548.7h-14.9v-14.9h14.9V548.7z M448.1,532.7h-14.9v-14.9h14.9V532.7z M448.1,516.7h-14.9v-14.9h14.9V516.7z
											 M448.1,500.7h-14.9v-14.9h14.9V500.7z M448.1,484.7h-14.9v-14.9h14.9V484.7z M448.1,468.8h-14.9v-14.9h14.9V468.8z
											 M448.1,452.8h-14.9v-14.9h14.9V452.8z M448.1,436.8h-14.9v-14.9h14.9V436.8z M448.1,420.8h-14.9v-14.9h14.9V420.8z
											 M448.1,404.8h-14.9V390h14.9V404.8z M448.1,388.9h-14.9V374h14.9V388.9z M448.1,372.9h-14.9V358h14.9V372.9z
											 M448.1,356.9h-14.9V342h14.9V356.9z M448.1,340.9h-14.9V326h14.9V340.9z M448.1,324.9h-14.9V310h14.9V324.9z
											 M448.1,308.9h-14.9v-14.9h14.9V308.9z M448.1,293h-14.9v-14.9h14.9V293z M448.1,277h-14.9v-14.9h14.9V277z M448.1,261
											h-14.9v-14.9h14.9V261z M448.1,245h-14.9v-14.9h14.9V245z M448.1,229h-14.9v-14.9h14.9V229z M464,692.5h-14.9v-14.9H464
											V692.5z M464,676.5h-14.9v-14.9H464V676.5z M464,660.6h-14.9v-14.9H464V660.6z M464,644.6h-14.9v-14.9H464V644.6z
											 M464,628.6h-14.9v-14.9H464V628.6z M464,612.6h-14.9v-14.9H464V612.6z M464,596.6h-14.9v-14.9H464V596.6z M464,580.6
											h-14.9v-14.9H464V580.6z M464,564.7h-14.9v-14.9H464V564.7z M464,548.7h-14.9v-14.9H464V548.7z M464,532.7h-14.9v-14.9
											H464V532.7z M464,516.7h-14.9v-14.9H464V516.7z M464,500.7h-14.9v-14.9H464V500.7z M464,484.7h-14.9v-14.9H464V484.7z
											 M464,468.8h-14.9v-14.9H464V468.8z M464,452.8h-14.9v-14.9H464V452.8z M464,436.8h-14.9v-14.9H464V436.8z M464,420.8
											h-14.9v-14.9H464V420.8z M464,404.8h-14.9V390H464V404.8z M464,388.9h-14.9V374H464V388.9z M464,372.9h-14.9V358H464
											V372.9z M464,356.9h-14.9V342H464V356.9z M464,340.9h-14.9V326H464V340.9z M464,324.9h-14.9V310H464V324.9z M464,308.9
											h-14.9v-14.9H464V308.9z M464,293h-14.9v-14.9H464V293z M464,277h-14.9v-14.9H464V277z M464,261h-14.9v-14.9H464V261z
											 M464,245h-14.9v-14.9H464V245z M464,229h-14.9v-14.9H464V229z M480,692.5h-14.9v-14.9H480V692.5z M480,676.5h-14.9v-14.9
											H480V676.5z M480,660.6h-14.9v-14.9H480V660.6z M480,644.6h-14.9v-14.9H480V644.6z M480,628.6h-14.9v-14.9H480V628.6z
											 M480,612.6h-14.9v-14.9H480V612.6z M480,596.6h-14.9v-14.9H480V596.6z M480,580.6h-14.9v-14.9H480V580.6z M480,564.7
											h-14.9v-14.9H480V564.7z M480,548.7h-14.9v-14.9H480V548.7z M480,532.7h-14.9v-14.9H480V532.7z M480,516.7h-14.9v-14.9
											H480V516.7z M480,500.7h-14.9v-14.9H480V500.7z M480,484.7h-14.9v-14.9H480V484.7z M480,468.8h-14.9v-14.9H480V468.8z
											 M480,452.8h-14.9v-14.9H480V452.8z M480,436.8h-14.9v-14.9H480V436.8z M480,420.8h-14.9v-14.9H480V420.8z M480,404.8
											h-14.9V390H480V404.8z M480,388.9h-14.9V374H480V388.9z M480,372.9h-14.9V358H480V372.9z M480,356.9h-14.9V342H480V356.9z
											 M480,340.9h-14.9V326H480V340.9z M480,324.9h-14.9V310H480V324.9z M480,308.9h-14.9v-14.9H480V308.9z M480,293h-14.9
											v-14.9H480V293z M480,277h-14.9v-14.9H480V277z M480,261h-14.9v-14.9H480V261z M480,245h-14.9v-14.9H480V245z M480,229
											h-14.9v-14.9H480V229z M529.1,629.7h14.9v14.9h-14.9V629.7z M529.1,645.7h14.9v14.9h-14.9V645.7z M529.1,661.7h14.9v14.9
											h-14.9V661.7z M529.1,677.6h14.9v14.9h-14.9V677.6z M513.1,581.7H528v14.9h-14.9V581.7z M513.1,597.7H528v14.9h-14.9
											V597.7z M513.1,613.7H528v14.9h-14.9V613.7z M513.1,629.7H528v14.9h-14.9V629.7z M513.1,645.7H528v14.9h-14.9V645.7z
											 M513.1,661.7H528v14.9h-14.9V661.7z M513.1,677.6H528v14.9h-14.9V677.6z M497.1,533.8H512v14.9h-14.9V533.8z
											 M497.1,549.8H512v14.9h-14.9V549.8z M497.1,565.8H512v14.9h-14.9V565.8z M497.1,581.7H512v14.9h-14.9V581.7z
											 M497.1,597.7H512v14.9h-14.9V597.7z M497.1,613.7H512v14.9h-14.9V613.7z M497.1,629.7H512v14.9h-14.9V629.7z
											 M497.1,645.7H512v14.9h-14.9V645.7z M497.1,661.7H512v14.9h-14.9V661.7z M497.1,677.6H512v14.9h-14.9V677.6z
											 M481.1,501.8H496v14.9h-14.9V501.8z M481.1,517.8H496v14.9h-14.9V517.8z M481.1,533.8H496v14.9h-14.9V533.8z
											 M481.1,549.8H496v14.9h-14.9V549.8z M481.1,565.8H496v14.9h-14.9V565.8z M481.1,581.7H496v14.9h-14.9V581.7z
											 M481.1,597.7H496v14.9h-14.9V597.7z M481.1,613.7H496v14.9h-14.9V613.7z M481.1,629.7H496v14.9h-14.9V629.7z
											 M481.1,645.7H496v14.9h-14.9V645.7z M481.1,661.7H496v14.9h-14.9V661.7z M481.1,677.6H496v14.9h-14.9V677.6z M496,388.9
											h-14.9V374H496V388.9z M496,372.9h-14.9V358H496V372.9z M496,356.9h-14.9V342H496V356.9z M496,340.9h-14.9V326H496V340.9z
											 M496,324.9h-14.9V310H496V324.9z M496,308.9h-14.9v-14.9H496V308.9z M496,293h-14.9v-14.9H496V293z M496,277h-14.9v-14.9
											H496V277z M496,261h-14.9v-14.9H496V261z M496,245h-14.9v-14.9H496V245z M496,229h-14.9v-14.9H496V229z M512,388.9h-14.9
											V374H512V388.9z M512,372.9h-14.9V358H512V372.9z M512,356.9h-14.9V342H512V356.9z M512,340.9h-14.9V326H512V340.9z
											 M512,324.9h-14.9V310H512V324.9z M512,308.9h-14.9v-14.9H512V308.9z M512,293h-14.9v-14.9H512V293z M512,277h-14.9v-14.9
											H512V277z M512,261h-14.9v-14.9H512V261z M512,245h-14.9v-14.9H512V245z M512,229h-14.9v-14.9H512V229z M528,388.9h-14.9
											V374H528V388.9z M528,372.9h-14.9V358H528V372.9z M528,356.9h-14.9V342H528V356.9z M528,340.9h-14.9V326H528V340.9z
											 M528,324.9h-14.9V310H528V324.9z M528,308.9h-14.9v-14.9H528V308.9z M528,293h-14.9v-14.9H528V293z M528,277h-14.9v-14.9
											H528V277z M528,261h-14.9v-14.9H528V261z M528,245h-14.9v-14.9H528V245z M528,229h-14.9v-14.9H528V229z M543.9,388.9
											h-14.9V374h14.9V388.9z M543.9,372.9h-14.9V358h14.9V372.9z M543.9,356.9h-14.9V342h14.9V356.9z M543.9,340.9h-14.9V326
											h14.9V340.9z M543.9,324.9h-14.9V310h14.9V324.9z M543.9,308.9h-14.9v-14.9h14.9V308.9z M543.9,293h-14.9v-14.9h14.9V293z
											 M543.9,277h-14.9v-14.9h14.9V277z M543.9,261h-14.9v-14.9h14.9V261z M543.9,245h-14.9v-14.9h14.9V245z M543.9,229h-14.9
											v-14.9h14.9V229z M559.9,388.9H545V374h14.9V388.9z M559.9,372.9H545V358h14.9V372.9z M559.9,356.9H545V342h14.9V356.9z
											 M559.9,340.9H545V326h14.9V340.9z M559.9,324.9H545V310h14.9V324.9z M559.9,308.9H545v-14.9h14.9V308.9z M559.9,293H545
											v-14.9h14.9V293z M559.9,277H545v-14.9h14.9V277z M559.9,261H545v-14.9h14.9V261z M559.9,245H545v-14.9h14.9V245z
											 M559.9,229H545v-14.9h14.9V229z M561,214.2h14.9V229H561V214.2z M561,230.1h14.9V245H561V230.1z M561,246.1h14.9V261H561
											V246.1z M561,262.1h14.9V277H561V262.1z M561,278.1h14.9V293H561V278.1z M561,294.1h14.9v14.9H561V294.1z M561,310h14.9
											v14.9H561V310z M561,326h14.9v14.9H561V326z M561,342h14.9v14.9H561V342z M561,358h14.9v14.9H561V358z M561,388.9V374
											h14.9v14.9H561z"/>
									</g>
								</g>
							</g>
						</g>
					</g>
				</g>
			</g>
			<g style="clip-path:url(#SVGID_4_);">
				<g>
					<g>
						<g>
							<g>
								<g>
									<g>
										<path class="st16" d="M640.9,430.7v-4.4c-0.4-0.1-0.7-0.1-1.1-0.2v5C640.2,431,640.6,430.8,640.9,430.7z"/>
									</g>
								</g>
							</g>
						</g>
					</g>
				</g>
			</g>
			<g style="clip-path:url(#SVGID_4_);">
				<g>
					<g>
						<g>
							<g>
								<g>
									<g>
										<path class="st16" d="M562.7,612.6H561v-14.9h1.8c0-0.4,0-0.7,0-1.1H561v-14.9h2.2c0-0.4,0-0.7,0.1-1.1H561v-14.9h3.2
											c0-0.4,0.1-0.7,0.1-1.1H561v-14.9h5c0.1-0.4,0.1-0.7,0.2-1.1H561v-14.9h7.7c0.1-0.4,0.2-0.7,0.2-1.1H561v-14.9h11.5
											c0.1-0.4,0.2-0.7,0.3-1.1H561v-14.9h14.9v5.1c0.4-1.1,0.7-2.1,1.1-3.2v-1.9h0.7c0.1-0.4,0.3-0.7,0.4-1.1H577v-14.9h7.4
											c0.2-0.4,0.3-0.7,0.5-1.1H577v-14.9h14.9v1.7c0.6-0.9,1.1-1.9,1.7-2.8H593v-14.9h12.2c0.4-0.4,0.7-0.7,1.1-1.1H593v-14.9
											h14.9v13.3c0.4-0.3,0.7-0.7,1.1-1v-12.3h14.9v1c0.4-0.2,0.7-0.4,1.1-0.7v-0.4h0.6c0.6-0.4,1.3-0.7,2-1.1H625v-13
											c-0.4-0.1-0.7-0.1-1.1-0.2v13.2H609v-14.9h3.9c-2.4-0.4-4.8-0.7-7.3-1.1H593v-1.9c-0.4-0.1-0.7-0.1-1.1-0.2v2.1H577v-4.3
											c-0.4-0.1-0.7-0.1-1.1-0.2v4.4H561v-6.6c-0.4-0.1-0.7-0.1-1.1-0.2v6.8H545V412c-0.4,0-0.7-0.1-1.1-0.1v9h-14.9V410
											c-0.4,0-0.7-0.1-1.1-0.1v11h-14.9V408c-0.2,0-0.4,0-0.6,0c-0.2,0-0.3,0-0.5,0v12.8h-13.8c-0.1,0.4-0.2,0.7-0.2,1.1H512
											v14.9h-14.2c0,0.4,0.1,0.7,0.1,1.1H512v14.9h-11c0.1,0.4,0.2,0.7,0.3,1.1H512v14.9h-6c0.1,0.4,0.3,0.7,0.4,1.1h5.6v14.5
											c0.4,0.9,0.7,1.8,1.1,2.7v-1.2H528v14.9h-9.1c0.2,0.4,0.3,0.7,0.5,1.1h8.7v14.9h-2.4c0.2,0.4,0.3,0.7,0.5,1.1h1.9v4.7
											c0.4,0.9,0.7,1.8,1.1,2.7v-7.3h14.9v14.9h-11.8c0.1,0.4,0.3,0.7,0.4,1.1h11.3v14.9h-5.4c0.1,0.4,0.3,0.7,0.4,1.1h5v13
											c0.4,1,0.7,2,1.1,3v0h14.9v14.9h-9.5c0.1,0.4,0.3,0.7,0.4,1.1h9.1v14.9h-4.2c0.1,0.4,0.2,0.7,0.3,1.1h3.8V610
											c0.4,1.2,0.7,2.5,1.1,3.7v-0.1h1.7C562.7,613.3,562.7,613,562.7,612.6z M593,421.9h14.9v14.9H593V421.9z M577,421.9h14.9
											v14.9H577V421.9z M577,437.9h14.9v14.9H577V437.9z M577,453.9h14.9v14.9H577V453.9z M561,421.9h14.9v14.9H561V421.9z
											 M561,437.9h14.9v14.9H561V437.9z M561,453.9h14.9v14.9H561V453.9z M561,469.9h14.9v14.9H561V469.9z M561,485.9h14.9v14.9
											H561V485.9z M528,484.7h-14.9v-14.9H528V484.7z M528,468.8h-14.9v-14.9H528V468.8z M528,452.8h-14.9v-14.9H528V452.8z
											 M528,436.8h-14.9v-14.9H528V436.8z M543.9,516.7h-14.9v-14.9h14.9V516.7z M543.9,500.7h-14.9v-14.9h14.9V500.7z
											 M543.9,484.7h-14.9v-14.9h14.9V484.7z M543.9,468.8h-14.9v-14.9h14.9V468.8z M543.9,452.8h-14.9v-14.9h14.9V452.8z
											 M543.9,436.8h-14.9v-14.9h14.9V436.8z M559.9,564.7H545v-14.9h14.9V564.7z M559.9,548.7H545v-14.9h14.9V548.7z
											 M559.9,532.7H545v-14.9h14.9V532.7z M559.9,516.7H545v-14.9h14.9V516.7z M559.9,500.7H545v-14.9h14.9V500.7z
											 M559.9,484.7H545v-14.9h14.9V484.7z M559.9,468.8H545v-14.9h14.9V468.8z M559.9,452.8H545v-14.9h14.9V452.8z
											 M559.9,436.8H545v-14.9h14.9V436.8z"/>
									</g>
								</g>
							</g>
						</g>
					</g>
				</g>
			</g>
		</g>
		<g>
			<g>
				<g>
					<g>
						<g>
							<g>
								<g>
									<rect x="600" y="716.2" class="st16" width="155.1" height="0.7"/>
								</g>
							</g>
						</g>
					</g>
				</g>
			</g>
		</g>
		<g id="XMLID_2_">
			<g>
				<g>
					<g>
						<g>
							<g>
								<g>
									<path class="st14" d="M714.7,590.8c2.5-6.4,5-12.7,7.2-19.2c4.2-12.4,6.5-24.7,7.3-37.8c1.9-29.5,2.8-59,1.9-88.6
										c-4.4-2.2-10.3-1-13.1,3.9l-22.4,38.6c-1.6,2.8-4.6,4.7-7.8,4.9l-44.5,3.4c-8.2,0.6-12.1,10.4-6.6,16.5l29.8,33.2
										c2.2,2.4,3,5.8,2.3,8.9l-10.5,43.3c-1.9,8,6.1,14.7,13.6,11.4l40.8-18C713.4,591.1,714,590.9,714.7,590.8z"/>
								</g>
							</g>
						</g>
					</g>
				</g>
			</g>
			<g>
				<g>
					<g>
						<g>
							<g>
								<g>
									<path class="st7" d="M807.8,508.7l-43.6-9.4c-3.2-0.7-5.8-2.9-7.1-5.9l-17-41.2c-3.1-7.6-13.6-8.3-17.7-1.2L700,489.5
										c-1.6,2.8-4.6,4.7-7.8,4.9l-44.5,3.4c-8.2,0.6-12.1,10.4-6.6,16.5l29.8,33.2c2.2,2.4,3,5.8,2.3,8.9l-10.5,43.3
										c-1.9,8,6.1,14.7,13.6,11.4l40.8-18c3-1.3,6.4-1.1,9.2,0.6l38,23.4c7,4.3,15.9-1.3,15.1-9.5l-4.6-44.4
										c-0.3-3.2,1-6.4,3.4-8.6l34-28.9C818.4,520.6,815.8,510.4,807.8,508.7z"/>
								</g>
							</g>
						</g>
					</g>
				</g>
			</g>
		</g>
		<g>
			<g>
				<g>
					<g>
						<g>
							<g>
								<g>
									<g>
										<g>
											<g>
												<g>
													<g>
														<g>
															<g>
																<g>
																	<g>
																		<g>
																			<g>
																				<g>
																					<g>
																						<g>
																							<g>
																								<g>
																									<g>
																										<g>
																											<path class="st13" d="M739.5,456.3c0.3,0.1,0.6,0.1,0.8,0.2c2.5,0.8,5.4,1.4,7.4-0.2
																												c2.9-2.3,1.5-6.8-0.1-10c-6.6-13-14-25.6-21.7-38c-2.4-3.9-4.9-7.8-8.5-10.6c-3.6-2.8-8.6-4.2-12.8-2.4
																												c-6.6,2.8-6.6,10.6-4.4,16.4l0,0l0,0c0.5,1.4,18.6,26.8,27.6,39.5C727.7,453.9,736.4,455.5,739.5,456.3z
																												"/>
																										</g>
																									</g>
																								</g>
																							</g>
																						</g>
																					</g>
																				</g>
																			</g>
																		</g>
																	</g>
																</g>
															</g>
														</g>
													</g>
												</g>
											</g>
										</g>
									</g>
								</g>
							</g>
						</g>
					</g>
				</g>
			</g>
		</g>
		<g>
			<g>
				<g>
					<g>
						<g>
							<g>
								<g>
									<g>
										<path class="st16" d="M749.5,451.2c0.2-2.5-0.4-5.1-2.1-6.8c-2.2-2.3-5.8-2.9-8.9-2.2c-3.1,0.7-5.8,2.5-8.3,4.5
											c-6.8,5.5-12.1,12.7-18.8,18.3c-6.3,5.2-13.8,9.2-20.4,14.2c-3.7,2.8-8,4.9-11.2,8.4c-0.7,0.8-1.5,1.7-2.2,2.6
											c-2.3,3.1-4.3,6.6-5.5,10.1c-0.2,0.5-0.5,1.7-0.4,2.2c0,0,0,0,0,0c0.1,0.3,0.5,0.3,0.6,0c1.4-3.3,3.4-6.5,5.8-9.2
											c0.1-0.1,0.3-0.2,0.5,0c0.1,0.1,0.1,0.3,0,0.5c-2.5,2.8-4.5,6.1-6,9.6c-0.1,0.1,0,0.3,0.1,0.4c0.1,0.1,0.2,0.1,0.3,0.2
											c0.2,0.1,0.4,0,0.4-0.2c1.4-3,3.5-6.1,6.3-9.2c0.1-0.1,0.3-0.2,0.5,0c0.1,0.1,0.1,0.3,0,0.5c-2.7,3.1-4.8,6.1-6.1,9
											c-0.1,0.2,0,0.4,0.2,0.4c0.2,0.1,0.4,0.1,0.6,0.1c0.1,0,0.3-0.1,0.3-0.2c1.5-2.9,3.6-6.2,6.1-8.5c0.1-0.1,0.4-0.1,0.5,0
											c0.1,0.1,0.1,0.4,0,0.5c-2.2,2-4,4.9-5.5,7.6c-0.1,0.3,0.1,0.6,0.4,0.4c1-0.4,1.5-1.9,2.2-2.7c1-1.2,2.1-2.4,3.3-3.4
											c0,0,0.1-0.1,0.1-0.1c3.8-2.9,8.2-5.2,11.8-8.3c6.8-5.9,15.7-8.8,23.7-12.3c7-3,13.6-7.1,19.5-12.1c3.8-3.2,8.7-6,11-10.5
											C749,453.8,749.4,452.5,749.5,451.2z"/>
									</g>
								</g>
							</g>
						</g>
					</g>
				</g>
			</g>
		</g>
	</g>
	<g>
		<circle class="st5" cx="751.4" cy="316.9" r="4.1"/>
		<circle class="st5" cx="243.2" cy="674.7" r="7.2"/>
		<circle class="st5" cx="568.5" cy="686.7" r="7.2"/>
		<circle class="st5" cx="807.8" cy="622.9" r="7.2"/>
		<circle class="st5" cx="778.7" cy="391.4" r="5.2"/>
		<circle class="st5" cx="261.6" cy="694.1" r="2.7"/>
		<circle class="st5" cx="487.2" cy="734.2" r="2.7"/>
		<circle class="st5" cx="717.8" cy="684.2" r="2.7"/>
		<circle class="st5" cx="775.3" cy="582" r="2.7"/>
		<circle class="st5" cx="759.2" cy="389.5" r="2.7"/>
		<path class="st5" d="M350.6,734.2L350.6,734.2c-9.5-2.4-17-9.9-19.4-19.4h0c-2.4,9.5-9.9,17-19.4,19.4v0c9.5,2.4,17,9.9,19.4,19.4
			h0C333.6,744.1,341.1,736.6,350.6,734.2z"/>
		<path class="st5" d="M651.1,726.1L651.1,726.1c-4.3-1.1-7.6-4.4-8.7-8.7h0c-1.1,4.3-4.4,7.6-8.7,8.7v0c4.3,1.1,7.6,4.4,8.7,8.7h0
			C643.5,730.5,646.9,727.2,651.1,726.1z"/>
		<path class="st5" d="M428.5,698.9L428.5,698.9c-4.3-1.1-7.6-4.4-8.7-8.7h0c-1.1,4.3-4.4,7.6-8.7,8.7v0c4.3,1.1,7.6,4.4,8.7,8.7h0
			C420.9,703.3,424.3,699.9,428.5,698.9z"/>
		<path class="st5" d="M59,585.3L59,585.3c-4.3-1.1-7.6-4.4-8.7-8.7h0c-1.1,4.3-4.4,7.6-8.7,8.7v0c4.3,1.1,7.6,4.4,8.7,8.7h0
			C51.4,589.7,54.8,586.4,59,585.3z"/>
	</g>
</g>
</svg>
