<?xml version="1.0" encoding="utf-8"?>
<!-- Generator: Adobe Illustrator 21.1.0, SVG Export Plug-In . SVG Version: 6.00 Build 0)  -->
<svg version="1.1" xmlns="http://www.w3.org/2000/svg" xmlns:xlink="http://www.w3.org/1999/xlink" x="0px" y="0px"
	 viewBox="0 0 858.1 858.1" style="enable-background:new 0 0 858.1 858.1;" xml:space="preserve">
<style type="text/css">
	.st0{fill:#A9D7F3;}
	.st1{fill:#FFFFFF;}
	.st2{fill:#E7F0F8;}
	.st3{fill:#F7C108;}
	.st4{fill:#26A4FB;}
	.st5{fill:#2300B1;}
	.st6{fill:#8769B8;}
	.st7{fill:#D0EDFC;}
	.st8{fill:#150077;}
	.st9{fill:#F7FAFF;}
	.st10{fill:#B8EBF4;}
	.st11{fill:#7ADCFB;}
	.st12{fill:#F8C208;}
	.st13{fill:#8C66B9;}
	.st14{fill:#FFB1DF;}
	.st15{fill:#FF6FCA;}
	.st16{fill:#FF4D76;}
	.st17{fill:#A1DCFF;}
	.st18{fill:#2E7DFB;}
	.st19{fill:#23AFFC;}
	.st20{fill:#F6C50A;}
	.st21{fill:#FFDE17;}
	.st22{fill:#3400B1;}
	.st23{fill:#5AB2F9;}
	.st24{fill:#DBF4F9;}
	.st25{fill:#34ACFC;}
	.st26{fill:#98E3F4;}
	.st27{fill:#F183C1;}
	.st28{fill:#4377FB;}
	.st29{fill:#EE80BE;}
	.st30{opacity:0.53;}
	.st31{fill:#FFDA73;}
	.st32{fill:#210077;}
	.st33{fill:#38A0FB;}
	.st34{fill:#E8F1F9;}
	.st35{fill:#EEF3FA;}
	.st36{fill:#CCE0FF;}
	.st37{fill:#F2F9FC;}
	.st38{fill:#F955AF;}
	.st39{fill:#FF90C8;}
	.st40{fill:#8869B9;}
	.st41{fill:#FEA700;}
	.st42{clip-path:url(#SVGID_4_);}
	.st43{opacity:0.57;}
	.st44{clip-path:url(#SVGID_6_);}
	.st45{clip-path:url(#SVGID_8_);}
	.st46{fill:#86A2F8;}
	.st47{fill:#FFACEA;}
	.st48{fill:#EF80BF;}
	.st49{fill:#F774BC;}
	.st50{fill:#15203D;}
	.st51{fill:#FFFEFE;}
	.st52{fill:#A2DDFF;}
	.st53{fill:#EBF6FC;}
	.st54{fill:#E2FBFF;}
	.st55{fill:#CAD9FC;}
	.st56{fill:#9DE4F4;}
	.st57{fill:#C4E6FF;}
	.st58{fill:#EBF7FF;}
	.st59{fill:#BDECFD;}
	.st60{fill:#FFB6E4;}
	.st61{fill:#FDC401;}
	.st62{fill:#CCD8FC;}
	.st63{fill:#E58200;}
</style>
<g id="Layer_1">
</g>
<g id="Layer_2">
	<g>
		<g>
			<path class="st0" d="M220.2,121.1c-53.5,33.6-31.8,35.6-88.4,68.2S9.9,225.2,18.7,282.7S123,352.3,77,430.2s-99,157.2-12.4,270.5
				s194.4,49.5,247.4,49.5s97.2,28.3,148.4,26.5c51.2-1.8,83.1-38.9,125.5-37.1c42.4,1.8,149.3,83.1,229.7-8.8
				s-61.9-263.5-81.3-373.9C715,246.5,617.8,226.5,593.1,169.4c-24.7-57.2-58.3-89.4-134.3-68.9S253.3,100.3,220.2,121.1z"/>
			<path class="st0" d="M630.6,121.3c17,55.5,48.4,109.3,84.5,108.6s-4.3-165.2-72.3-147.2C621,91.1,630.6,121.3,630.6,121.3z"/>
		</g>
		<g>
			<circle class="st1" cx="309.6" cy="144.4" r="4.1"/>
			<circle class="st1" cx="181.1" cy="360.1" r="2.9"/>
			<circle class="st1" cx="658.9" cy="136.8" r="2.9"/>
			<circle class="st1" cx="153.2" cy="731.2" r="7.2"/>
			<circle class="st1" cx="750.8" cy="532.4" r="7.2"/>
			<circle class="st1" cx="285" cy="200.9" r="5.2"/>
			<circle class="st1" cx="171.5" cy="750.5" r="2.7"/>
			<circle class="st1" cx="577.3" cy="690.7" r="2.7"/>
			<circle class="st1" cx="768.3" cy="561.5" r="2.7"/>
			<circle class="st1" cx="119" cy="363.8" r="2.7"/>
			<circle class="st1" cx="275.5" cy="169.1" r="2.7"/>
			<path class="st1" d="M167.4,409.9L167.4,409.9c-9.5-2.4-17-9.9-19.4-19.4h0c-2.4,9.5-9.9,17-19.4,19.4v0
				c9.5,2.4,17,9.9,19.4,19.4h0C150.4,419.8,157.9,412.3,167.4,409.9z"/>
			<path class="st1" d="M771.1,632.6L771.1,632.6c-4.3-1.1-7.6-4.4-8.7-8.7h0c-1.1,4.3-4.4,7.6-8.7,8.7v0c4.3,1.1,7.6,4.4,8.7,8.7h0
				C763.5,637,766.9,633.7,771.1,632.6z"/>
			<path class="st1" d="M699.1,173.3L699.1,173.3c-4.3-1.1-7.6-4.4-8.7-8.7h0c-1.1,4.3-4.4,7.6-8.7,8.7v0c4.3,1.1,7.6,4.4,8.7,8.7h0
				C691.5,177.7,694.9,174.3,699.1,173.3z"/>
			<path class="st1" d="M548.5,675.3L548.5,675.3c-4.3-1.1-7.6-4.4-8.7-8.7h0c-1.1,4.3-4.4,7.6-8.7,8.7v0c4.3,1.1,7.6,4.4,8.7,8.7h0
				C540.9,679.7,544.3,676.4,548.5,675.3z"/>
			<path class="st1" d="M79,561.8L79,561.8c-4.3-1.1-7.6-4.4-8.7-8.7h0c-1.1,4.3-4.4,7.6-8.7,8.7v0c4.3,1.1,7.6,4.4,8.7,8.7h0
				C71.4,566.2,74.8,562.8,79,561.8z"/>
		</g>
		<g>
			<g>
				<g>
					<path class="st2" d="M753.6,699.8c-3.2-13.8-13.9-29.1-20.7-35c-5.1-4.4-11.1-7.8-15.5-13.1c-5.3-6.3-8.1-14.7-10-23
						c-7.2-30.6-4.2-69.7-18.9-97.5c-14.5-27.6-53.7-34.3-78.9-39.9c-22.6-5-45.5-8.3-68.4-10.3c-23.7-17.6-50.3-29.3-77.2-38.4
						c-34.6-11.8-70.5-19.7-106.5-19c-36,0.7-72.3,10.2-103.6,31.4c-20.2,13.7-33.9,39.5-55,48.1c-22.9,9.3-45.1,21.2-65.8,36.1
						c-19.4,13.9-37.1,30.1-50.4,49.1c-13.3,19-22.2,41-23.2,63.6c-0.1,2.5,0,5.2,0.6,7.6c-2.1,11.6,7,19.9,14.2,29.1
						c-8.5,1.3-16.2,3.2-22.9,5.7c-15.6,5.9-25.4,14.6-25,24.4c0,0.7,0.1,1.3,0.2,2c23,0,45.9,0,68.9,0c77.1,0,154.3,0,231.4,0
						c89.5,0,179,0,268.4,0c35.4,0,70.9,0,106.3,0c12.1,0,49,3,51.5-5.8C754.3,710.6,754.9,705.5,753.6,699.8z"/>
				</g>
			</g>
			<g>
				<g>
					<path class="st12" d="M600.5,341.5c3.5-5.4,5.7-11.5,8-17.4c4-10.3,8.2-20.1,15.1-28.9c4.1-5.3,8.7-10.2,12.9-15.4
						c4.2-5.2,5-11.5,8.7-16.9c3.4-4.9,7.6-9.2,10.8-14.4c3.1-5.1,6.3-10.3,9.2-15.5c3.2-5.9,6.1-11.9,10.1-17.4
						c3.6-4.9,7.4-9.7,10.8-14.7c7.7-11,11.6-22.4,14.1-35.5c2.2-11.6,4.3-23.2,10.1-33.7c1.2-2.1,2.3-4.3,3.5-6.4
						c-5.7-1.7-11.4,3.4-15.2,8.2c-8.3,10.7-15.2,22.5-20.6,35c-1.8,4.1-3.4,8.4-6.5,11.7c-6.3,6.8-16.6,7.8-24.4,12.8
						c-17.5,11.2-16.5,35.6-21.3,53.3c-6.6,24.4-22.4,22.8-37.4,39.2c-12.2,13.4-16.1,40.5-10.7,57.5c2.3,7.3,6.4,12.6,11.6,16
						c0.3-0.5,0.5-1,0.8-1.5C592.9,351.8,596.9,347.1,600.5,341.5z"/>
				</g>
			</g>
			<g>
				<g>
					<path class="st12" d="M703,171.7c-2.5,12-7,22.1-14.1,32.1c-3.9,5.6-8.4,10.8-12.1,16.5c-3.3,5-5.8,10.5-8.7,15.7
						c-3.1,5.5-6.3,10.9-9.7,16.2c-3.2,5-7.8,9.1-10.7,14.2c-2.8,4.8-3.4,9.9-6.9,14.4c-3.9,5-8.2,9.7-12.2,14.6
						c-8.5,10.5-13,22.1-18,34.5c-4.5,11.3-12.1,20.1-17.7,30.8c-0.1,0.1-0.1,0.2-0.2,0.3c8.1,3.6,18,3.4,27.7-0.6
						c21.4-8.8,36.6-32.1,40-54.4c1.5-9.8,1.2-20.4,6.8-28.5c3.6-5.2,9.1-8.6,14.2-12.3c13.5-9.8,25.4-23.7,26.9-40.3
						c1-11.1-2.8-22.5,0-33.3c2.3-8.9,8.7-16,12.4-24.4c4.8-10.9,4.8-23.8-0.2-34.6c-0.9-1.9-1.9-3.8-3.4-5.2c-0.5,1-1.1,2-1.6,2.9
						C708.3,143.6,706,157.2,703,171.7z"/>
				</g>
			</g>
			<g>
				<g>
					<path class="st11" d="M603.7,508.8c5.7-7,12.6-12.7,18.2-19.8c10.9-13.9,19.6-29.5,32-42.2c6.6-6.7,13.4-13,19.5-20.1
						c2.8-3.3,5.4-6.8,8.7-9.5c3-2.5,6.3-4.5,9.3-6.9c7.4-6.2,11.2-15.8,16.3-23.8c5.3-8.2,7.9-16.8,11.4-25.8
						c5.9-15.7,14-33,26.9-44.2c6.5-5.7,13.8-10.4,20-16.5c7-6.9,12.9-14.8,18.5-22.7c5.1-7.1,9.2-14.6,14.9-21.2
						c5.8-6.7,9.6-14.6,13.8-22.3c2.7-5,5.5-9.8,8.3-14.7c-3.8-3-8.3-4.8-13.3-4.4c-5.8,0.4-11,3.4-16,6.4
						c-17.2,10.2-35.3,21.4-44.3,39.2c-8.9,17.7-8.5,41.3-24.4,53.2c-16.3,12.2-41.1,4.9-58.3,16c-28.8,18.6-13.6,70.8-41.5,90.7
						c-5.7,4.1-12.6,6.2-18.8,9.6c-20.9,11.6-29,39.9-20.8,61.8c-6.4,12.2-6.4,28.3,3,38.8c0.5,0.6,1,1.1,1.6,1.6
						c0.3-0.5,0.7-0.9,1-1.4C594.3,523.3,598.3,515.6,603.7,508.8z"/>
				</g>
			</g>
			<g>
				<g>
					<path class="st11" d="M799.5,264.7c-6.3,8.3-11.3,17.6-17.8,25.9c-5.2,6.7-10.7,13-17.1,18.5c-6.5,5.5-13.7,10.1-19.5,16.4
						c-12.8,13.9-18.5,33.2-25.1,50.4c-3.2,8.3-8.5,15.5-12.9,23.2c-4.2,7.1-8.2,13.2-14.9,18.1c-7.2,5.3-12.2,11.3-18.1,17.9
						c-6.2,6.9-13.2,12.9-19.4,19.8c-11.6,12.9-20,28.3-31.1,41.6c-6.1,7.3-13.5,13.2-18.9,21.1c-4.1,6-7.5,12.3-11.6,18.2
						c16.6,11.5,41.8,7.3,60.4-2.7c15.2-8.1,29.3-19.8,36.1-35.6c3.9-9.1,5.4-19.4,10.8-27.8c13.9-21.4,45.6-20.3,67.2-33.9
						c20.5-12.9,30.1-38.9,28-63c-1.7-19.4-9.9-38.9-5-57.7c3.5-13.5,13.3-24.4,22.3-35.1c9-10.7,17.8-22.8,18.8-36.7
						c0.5-6.9-1.9-14.3-6.2-19.7c-3.5,6.2-7,12.3-10.3,18.6C810.8,250.4,805.3,257.1,799.5,264.7z"/>
				</g>
			</g>
			<g>
				<g id="XMLID_15_">
					<g>
						<g>
							<g>
								<path class="st5" d="M371.7,703.9h227.7c22.5,0,40.9-18.4,40.9-40.9V203.3c0-22.5-18.4-40.9-40.9-40.9H371.7
									c-22.5,0-40.9,18.4-40.9,40.9V663C330.8,685.5,349.2,703.9,371.7,703.9z"/>
							</g>
						</g>
						<g>
							<g>
								<path class="st4" d="M339,703.9h255.8c14.7,0,26.8-12.1,26.8-26.8V189.3c0-14.7-12.1-26.8-26.8-26.8H339
									c-14.7,0-26.8,12.1-26.8,26.8v487.8C312.2,691.8,324.2,703.9,339,703.9z"/>
							</g>
						</g>
						<g>
							<g>
								<path class="st54" d="M338.6,202.7v427c0,3.7,2.8,6.7,6.4,7c0.2,0,0.4,0,0.6,0h242.4c3.9,0,7.1-3.2,7.1-7.1v-427
									c0-0.2,0-0.5,0-0.7c0-0.2,0-0.4-0.1-0.6c-0.1-0.8-0.4-1.5-0.8-2.1c-1.2-2.2-3.5-3.7-6.2-3.7H345.7c-3.4,0-6.3,2.5-6.9,5.8
									C338.7,201.9,338.6,202.3,338.6,202.7z"/>
							</g>
						</g>
						<g>
							<g>
								<path class="st8" d="M466.9,687.8c-10.3,0-18.7-8.4-18.7-18.7s8.4-18.7,18.7-18.7c10.3,0,18.7,8.4,18.7,18.7
									S477.2,687.8,466.9,687.8z M466.9,652.6c-9,0-16.4,7.4-16.4,16.4s7.4,16.4,16.4,16.4c9,0,16.4-7.4,16.4-16.4
									S475.9,652.6,466.9,652.6z"/>
							</g>
						</g>
						<g>
							<g>
								<path class="st8" d="M448.8,180.8h36.1c1.8,0,3.2-1.4,3.2-3.2l0,0c0-1.8-1.4-3.2-3.2-3.2h-36.1c-1.8,0-3.2,1.4-3.2,3.2l0,0
									C445.6,179.4,447.1,180.8,448.8,180.8z"/>
							</g>
						</g>
						<g>
							<g>
								<path class="st11" d="M338.6,202.7v41.7h256.5v-41.7c0-0.2,0-0.5,0-0.7c0-0.2,0-0.4-0.1-0.6c-0.1-0.8-0.4-1.5-0.8-2.1
									c-1.2-2.2-3.5-3.7-6.2-3.7H345.7c-3.4,0-6.3,2.5-6.9,5.8C338.7,201.9,338.6,202.3,338.6,202.7z"/>
							</g>
						</g>
						<g>
							<g>
								<path class="st8" d="M338.6,202.7v427c0,3.7,2.8,6.7,6.4,7V201.5H595c-0.1-0.8-0.4-1.5-0.8-2.1c-1.2-2.2-3.5-3.7-6.2-3.7
									H345.7c-3.4,0-6.3,2.5-6.9,5.8C338.7,201.9,338.6,202.3,338.6,202.7z"/>
							</g>
						</g>
					</g>
				</g>
				<g>
					<g>
						<g id="XMLID_9_">
							<g>
								<g>
									<g>
										<path class="st40" d="M354.8,713.4c-4.9-3.8-12.5-9.7-12.5-9.8l1.2-10.7c-7.1-0.1-14.2-0.1-21.3-0.2l0,19
											c0,1.5,0,3.3,0,5.1c0,1.5,0,3,0.1,4.4h36.5c-0.1-1.6-0.5-3-1.2-4.4C356.9,715.5,356,714.3,354.8,713.4z"/>
									</g>
								</g>
							</g>
							<g>
								<g>
									<g>
										<path class="st5" d="M360.4,722.4h-39.3c0-1.3-0.1-2.7-0.1-4.1h38.1C359.9,719.6,360.3,721,360.4,722.4z"/>
									</g>
								</g>
							</g>
						</g>
					</g>
					<g>
						<g>
							<g>
								<g>
									<g>
										<path class="st40" d="M267.3,707c-2-1.6-3.5-2.8-3.5-2.8l2.5-22h-22.6l0,30.1c0,1.5,0,3.3,0,5.1c0,1.5,0,3,0.1,4.4h29.9
											C272.5,716.3,271.1,711.1,267.3,707z"/>
									</g>
								</g>
							</g>
						</g>
						<g>
							<g>
								<g>
									<g>
										<path class="st5" d="M273,718.9h-30.5c0,1.4,0,2.8,0.1,4.1h31.3C273.6,721.7,273.3,720.3,273,718.9z"/>
									</g>
								</g>
							</g>
						</g>
					</g>
					<g>
						<g>
							<g>
								<g>
									<path class="st22" d="M348.7,698.3h-41.9l-12.6-204.9l-18.7,204.9H235L254.2,480l12.7-35.3l0.9-2.4l1.9-5.4h53.5l6.1,13
										l0,0c7.4,15.8,11.5,33,12.2,50.4L348.7,698.3z"/>
								</g>
							</g>
						</g>
					</g>
					<g>
						<g>
							<g>
								<g>
									<path class="st5" d="M290.8,351.9L290.8,351.9c-3.6,0-6.5-2.9-6.5-6.5v-4.9h6.5V351.9z"/>
								</g>
							</g>
						</g>
					</g>
					<g>
						<g>
							<g>
								<g>
									<path class="st12" d="M300.2,361.9v-13.4l-6.5-1.5l-3.6-0.8l-1.4,15.2c-0.3,2.7,1.8,5.1,4.6,5.2l0.9,0h1.3
										C298.1,366.6,300.2,364.5,300.2,361.9z"/>
								</g>
							</g>
						</g>
					</g>
					<g>
						<g>
							<g>
								<g>
									<path class="st5" d="M291.6,347v1.7c0,1.1,0.2,2.2,0.5,3.2c1.2,3.7,4.3,6.5,8.1,7.3v-10.7l-6.5-1.5H291.6z"/>
								</g>
							</g>
						</g>
					</g>
					<g>
						<g>
							<g>
								<g>
									<path class="st12" d="M288.4,340.7c0,1,0.2,2.1,0.5,3.1l1.2,4l0.1,0.4c1.1,3.5,4.2,6.1,7.5,7.4c3.8,1.5,8.2,0.3,10.6-3
										c0.9-1.3,1.7-2.8,2.1-4.3c1-3.1,0.8-6.4-0.1-9.5l-0.4-1.3c-0.1-0.2-0.1-0.3-0.2-0.5c-1.9-5.5-7.9-8.6-13.5-6.9
										C291.5,331.5,288.4,335.9,288.4,340.7z"/>
								</g>
							</g>
						</g>
					</g>
					<g>
						<g>
							<g>
								<g>
									<polygon class="st5" points="306.4,345.8 303.5,345.8 303.5,345 305.7,345 305.7,339.2 306.4,339.2 									"/>
								</g>
							</g>
						</g>
					</g>
					<g>
						<g>
							<g>
								<g>
									<path class="st5" d="M302.1,348.3c-0.4,0-0.8-0.1-1.2-0.3c-0.6-0.4-1-1.1-0.9-1.9l0.8,0.1c0,0.5,0.2,0.9,0.5,1.1
										c0.4,0.2,1.1,0.3,2-0.2l0.5,0.7C303.2,348.2,302.6,348.3,302.1,348.3z"/>
								</g>
							</g>
						</g>
					</g>
					<g>
						<g>
							<g>
								<g>
									<path class="st5" d="M309.2,341.3L309.2,341.3c0.4,0,0.7-0.3,0.7-0.7l0,0c0-0.4-0.3-0.7-0.7-0.7l0,0
										c-0.4,0-0.7,0.3-0.7,0.7l0,0C308.5,340.9,308.8,341.3,309.2,341.3z"/>
								</g>
							</g>
						</g>
					</g>
					<g>
						<g>
							<g>
								<g>
									<path class="st5" d="M300.5,341.3L300.5,341.3c0.4,0,0.7-0.3,0.7-0.7l0,0c0-0.4-0.3-0.7-0.7-0.7l0,0
										c-0.4,0-0.7,0.3-0.7,0.7l0,0C299.9,340.9,300.2,341.3,300.5,341.3z"/>
								</g>
							</g>
						</g>
					</g>
					<g>
						<g>
							<g>
								<g>
									<path class="st5" d="M309.8,337c-1.3-3.7-4.4-6.3-8-7.1l-8.8-0.3c-4.8,0-8.7,3.9-8.7,8.7v4.6l4.1-2.2
										c0,0.7,0.1,1.5,0.3,2.3c0.9,0,1.8,0.3,2.6,0.7c0.8,0.5,1.2,0.9,1.7,1.5c0.2-0.2,0.3-0.4,0.4-0.7c0.9-1.7,1.3-3.6,1.5-5.6
										c0.1-0.8,0.2-1.6,0.7-2.2c1.2-1.4,3.6-0.4,5.4-1c1.4-0.5,2.3-2.2,1.9-3.6C303.6,334.5,307,336.5,309.8,337z"/>
								</g>
							</g>
						</g>
					</g>
					<g>
						<g>
							<g>
								<g>
									<circle class="st5" cx="289.5" cy="345.4" r="4.3"/>
								</g>
							</g>
						</g>
					</g>
					<g>
						<g>
							<g>
								<g>
									<circle class="st12" cx="290.1" cy="344.1" r="4.3"/>
								</g>
							</g>
						</g>
					</g>
					<g>
						<g>
							<g>
								<g>
									<path class="st8" d="M286.5,337c-2.4,1.2-7.1-0.4-8.9-2.4c-0.5-0.5-0.8-1.2-1-1.9c-1.2-3.8-0.1-8.2,2.6-11
										c2.8-2.8,7.2-3.9,11-2.8c1.8,0.6,3.6,1.7,4.6,3.3c1.7,2.6,1.4,6.2-0.4,8.7c-1.8,2.5-4.9,3.9-8,4
										C284.6,335.1,288.2,336.5,286.5,337L286.5,337z"/>
								</g>
							</g>
						</g>
					</g>
					<g>
						<g>
							<g>
								<g>
									<path class="st5" d="M323.2,436.9h-41c-4.9,3.1-9.8,6-11.2,5.3c-1,0-2.1,0-3.1,0.1c-0.9,0-1.8,0.1-2.5,0.2
										c-0.9,0.1-1.6,0.3-1.6,0.6c0.4,0.2,0.8,0.4,1.2,0.6c0.7,0.4,1.4,0.7,2.1,1c16,7.4,42.5,10.3,62.3,5.2L323.2,436.9z"/>
								</g>
							</g>
						</g>
					</g>
					<g>
						<g>
							<g>
								<g>
									<path class="st12" d="M378.1,270.7c-0.2-1.3,0-2.7,0.2-4c0.3-1.8,0.9-3.8,1.4-5.5c0.3-0.8,0.1-2.2,1-2.6
										c0.4-0.2,0.7-0.1,1,0.1c0.9,0.7,0.4,3,0.4,3.9c0,0.9,0,1.8,0,2.8c0.1,0.6,0.2,1.2,0.2,1.8c0.2,0,0.4-0.1,0.7-0.3
										c1.7-1.1,3.2-2.8,4.7-4.2c3.1-2.7,6.1-5.4,9.1-8.2c0.4-0.3,0.8-0.5,1.3-0.6c0.2,0,0.3,0.2,0.2,0.4l-6.5,6.5
										c-0.1,0.1-0.1,0.3,0,0.5c0.1,0.1,0.1,0.1,0.2,0.1s0.2,0,0.2-0.1l6.7-6.7c0.3-0.3,0.7-0.3,0.9,0l0,0l-0.2-0.2
										c0.4,0.3,0.4,0.9,0.1,1.3l-6,6.3c-0.1,0.1-0.1,0.3,0,0.5c0.1,0.1,0.1,0.1,0.2,0.1c0.1,0,0.2,0,0.2-0.1l6.2-6.5
										c0.2-0.2,0.6-0.2,0.8,0.1c0,0,0,0,0,0c0.2,0.3,0.2,0.6,0,0.8l-5.8,6.9c-0.1,0.1-0.1,0.3,0,0.5c0.1,0.1,0.1,0.1,0.2,0.1
										c0.1,0,0.2,0,0.3-0.1l5.7-6.6c0.3,0.1,0.1,0,0.3,0.1c0,0.9-0.6,1.8-1.1,2.5c-3,4.1-5.9,8.2-8.9,12.4
										c-0.8,1.1-1.7,2.3-2.1,3.6c-0.1,0.4-0.2,0.8-0.3,1.2c0,0.2,0,0.5,0,0.8c-0.1,1.3,0.2,15.8,0.8,15.7l-0.6,0.1
										c-0.1,0.2-0.3,0.4-0.5,0.6c-0.2,0.2-0.5,0.3-0.8,0.3c-0.9,0.2-1.8,0.4-2.7,0.5c-1.3,0.1-2.7,0.1-3.9-0.4
										c-0.9,0-1.8-0.1-2.3-0.8c-0.3-0.4-0.4-1-0.4-1.6c-0.3-5.7-0.4-11.5-0.1-17.2c0-0.1,0-0.1,0-0.2c-0.1-0.9-0.2-1.7-0.5-2.6
										C378.3,272,378.2,271.3,378.1,270.7z"/>
								</g>
							</g>
						</g>
					</g>
					<g>
						<g>
							<g>
								<g>
									<path class="st14" d="M391.7,293.1c-2.3-5.5-6.3-7.8-12.9-4.4c0,0-1.5,8.5-2.3,12.8c-2.1,11.1-1.2,36.6-10.3,45.1
										c-1.6,1.5-3.7,2.5-5.8,3.4c-5.3,2.3-10.9,4.1-16.5,5.5c-18.8,4.6-37.8,8.9-57.2,10.8c-17.3,1.6-32.6-5.6-46.6,7.4
										c-18.9,17.6-40.5,45-27.2,71.4c3.8,7.5,9.4,13.9,15.6,19.5c5.8,5.2,12.3,9.8,19.2,13.6c1.5,0.8,3.4,1.6,4.8,0.6
										c0.7-0.5,1-1.4,1.3-2.2c4.1-11.5,3-12.2-5.6-20c-6.1-5.5-12.3-11.8-12.7-20.5c-0.4-8.2,4.9-15.5,9.9-22
										c1.7-2.2,3.4-4.4,5.1-6.6c3,9.3,3.1,20,8.2,28.6c1.5,2.5,3.5,4.9,6.4,5.8c1.6,0.5,3.3,0.6,4.9,0.6c16,0.3,26.8,1,42.3-2.7
										c3.8-0.9,14.3-5.5,17.3-7.8c7.6-5.9,6.1-15.5,9-23.4c2.8-7.9,1.1-12.6,7.2-18.6c12.7-12.4,39.2-22.5,46.3-39.5
										c3.1-7.4,3-15.6,2.8-23.5C394.7,323.5,395.8,302.8,391.7,293.1z"/>
								</g>
							</g>
						</g>
					</g>
					<g>
						<g>
							<g>
								<g>
									<path class="st8" d="M306.6,346.3c-2.5,6.6-2.1,12.1-2.4,20.2c-0.6,13.9-11.3,26.6-24.9,29.6c-3.1,0.7-6.4,0.8-9.2-0.4
										c-2.7-1.2-4.8-3.6-6.4-6.1c-3.6-5.5-5.7-12.6-3.3-18.7c2.8-6.8,10.3-10.3,14.5-16.3c3.9-5.5,4.6-12.8,8.6-18.3
										c4-5.5,25.8-20.8,31.7-11.8c3.1,4.7-3.9,13.2-6.1,17C308,343.2,307.2,344.8,306.6,346.3z"/>
								</g>
							</g>
						</g>
					</g>
				</g>
				<g>
					<g>
						<g>
							<rect x="448.9" y="276.3" class="st11" width="103" height="154.9"/>
						</g>
					</g>
				</g>
				<g>
					<g>
						<g>
							<rect x="397" y="472.8" class="st11" width="154.9" height="103"/>
						</g>
					</g>
				</g>
				<g>
					<g>
						<g>
							<rect x="448.9" y="294.1" class="st1" width="103" height="137.2"/>
						</g>
					</g>
				</g>
				<g>
					<g>
						<g>
							<rect x="397" y="500.2" class="st1" width="154.9" height="75.6"/>
						</g>
					</g>
				</g>
				<g>
					<g>
						<g>
							<rect x="210.5" y="721.3" class="st4" width="220.5" height="1.8"/>
						</g>
					</g>
				</g>
			</g>
			<g>
				<g>
					<path class="st3" d="M85.8,105.7c0.1,0.1,0.2,0.3,0.2,0.4c0,0.2-0.1,0.3-0.2,0.3L85.8,105.7z"/>
				</g>
			</g>
			<g>
				<g>
					<path class="st3" d="M85.5,109C85.5,109,85.5,109,85.5,109L85.5,109z"/>
				</g>
			</g>
			<g>
				<g>
					<path class="st3" d="M85.5,106.9c0.3,0,0.5,0.3,0.5,0.6c-0.1,0.3-0.3,0.5-0.6,0.4L85.5,106.9z"/>
				</g>
			</g>
			<g>
				<path class="st14" d="M62,285.7c-2-3.3-3.8-6.7-5.5-10.2l1.7-0.8c1.6,3.4,3.4,6.8,5.4,10.1L62,285.7z M52,264.8
					c-1.3-3.6-2.5-7.4-3.4-11.1l1.9-0.5c0.9,3.7,2.1,7.3,3.4,10.9L52,264.8z M46.3,242.3c-0.3-1.6-0.5-3.3-0.7-4.9
					c-0.3-2.2-0.4-4.4-0.6-6.6l1.9-0.1c0.1,2.2,0.3,4.3,0.6,6.5c0.2,1.6,0.4,3.2,0.7,4.9L46.3,242.3z M46.8,219.2l-1.9-0.1
					c0.1-3.9,0.5-7.7,1-11.6l1.9,0.3C47.2,211.6,46.9,215.4,46.8,219.2z M49.7,196.6l-1.9-0.4c0.9-3.8,1.9-7.5,3.2-11.2l1.8,0.6
					C51.6,189.2,50.6,192.9,49.7,196.6z M57,175l-1.8-0.8c1.6-3.5,3.3-7,5.2-10.4l1.7,0.9C60.3,168.1,58.5,171.5,57,175z
					 M68.2,155.1l-1.6-1.1c2.2-3.2,4.6-6.2,7.1-9.2l1.5,1.2C72.8,149,70.4,152,68.2,155.1z M83,137.7l-1.3-1.4
					c2.8-2.7,5.7-5.3,8.7-7.7l1.2,1.5C88.7,132.6,85.8,135.1,83,137.7z M219,116.6c-2.8-1.4-5.8-2.7-8.7-3.9l0.7-1.8
					c3,1.2,6,2.5,8.9,4L219,116.6z M100.9,123.5l-1-1.6c3.2-2.1,6.6-4.1,10-5.9l0.9,1.7C107.4,119.5,104.1,121.4,100.9,123.5z
					 M199.5,109c-3.6-1.1-7.4-2-11.1-2.7l0.4-1.9c3.8,0.7,7.6,1.6,11.3,2.7L199.5,109z M121.1,112.9l-0.7-1.8
					c3.6-1.4,7.3-2.7,11-3.8l0.5,1.8C128.2,110.2,124.6,111.5,121.1,112.9z M177.1,104.7c-3.8-0.3-7.6-0.5-11.4-0.5l0-1.9
					c3.9,0,7.8,0.2,11.6,0.5L177.1,104.7z M143,106.4l-0.4-1.9c3.1-0.6,6.2-1.1,9.5-1.5c0.7-0.1,1.4-0.2,2-0.2l0.2,1.9
					c-0.7,0.1-1.3,0.1-2,0.2C149.1,105.3,146,105.8,143,106.4z"/>
			</g>
			<g>
				<polygon class="st14" points="216,121.6 215.6,119.9 222.6,118 219.6,111.3 221.2,110.6 225,119.1 				"/>
			</g>
			<g>
				<g>
					<g>
						<g>
							<path class="st4" d="M194.4,238.5c0,0,10.8,12.4,11.6,12.2l11.8-4.1c0.8-0.3,1.2-16.6,1.2-16.6l5.7-4.9c0,0,16.7,1.2,17,0.4
								l5.5-11.1c0.4-0.8-11.1-12.4-11.1-12.4l0.5-7.4c0,0,12.8-10.8,12.5-11.6l-4-11.6c-0.3-0.8-16.9-0.9-16.9-0.9l-4.9-5.5
								c0,0,1.4-16.4,0.7-16.8l-11.2-5.3c-0.8-0.4-12.8,11.1-12.8,11.1l-7.5-0.4c0,0-10.8-12.4-11.6-12.2l-11.8,4.1
								c-0.8,0.3-1.2,16.6-1.2,16.6l-5.6,4.9c0,0-16.7-1.2-17.1-0.4l-5.5,11.1c-0.4,0.8,11.1,12.4,11.1,12.4l-0.5,7.4
								c0,0-12.8,10.8-12.5,11.5l4,11.6c0.3,0.8,16.9,1,16.9,1l4.9,5.5c0,0-1.4,16.4-0.7,16.8l11.2,5.3c0.8,0.4,12.8-11.1,12.8-11.1
								L194.4,238.5z M185.8,173.8c12.6-4.3,26.2,2.1,30.4,14.4c4.2,12.3-2.5,25.8-15.1,30.1c-12.5,4.3-26.2-2.2-30.5-14.4
								C166.5,191.6,173.3,178.1,185.8,173.8z"/>
						</g>
					</g>
				</g>
			</g>
			<g>
				<g>
					<g>
						<g>
							<path class="st4" d="M134,311.8l-6,6.5l7.2,7.7l6-6.5c2.8,2.1,6.1,3.5,9.5,4.3v9.2h10.1v-9.2c3.5-0.7,6.7-2.2,9.5-4.3l6,6.5
								l7.2-7.7l-6-6.5c1.9-3.1,3.3-6.5,3.9-10.3h8.5v-10.9h-8.5c-0.7-3.7-2-7.2-3.9-10.3l6-6.5l-7.2-7.7l-6,6.5
								c-2.8-2.1-6.1-3.5-9.5-4.3v-9.2h-10.1v9.2c-3.5,0.7-6.7,2.2-9.5,4.3l-6-6.5l-7.2,7.7l6,6.5c-1.9,3.1-3.3,6.5-3.9,10.3h-8.5
								v10.9h8.5C130.8,305.3,132.1,308.7,134,311.8z M155.8,285.5c5.4,0,9.8,4.7,9.8,10.5s-4.4,10.5-9.8,10.5s-9.8-4.7-9.8-10.5
								S150.4,285.5,155.8,285.5z"/>
						</g>
					</g>
				</g>
			</g>
		</g>
	</g>
</g>
</svg>
