<?xml version="1.0" encoding="utf-8"?>
<!-- Generator: Adobe Illustrator 21.1.0, SVG Export Plug-In . SVG Version: 6.00 Build 0)  -->
<svg version="1.1" xmlns="http://www.w3.org/2000/svg" xmlns:xlink="http://www.w3.org/1999/xlink" x="0px" y="0px"
	 viewBox="0 0 858.1 858.1" style="enable-background:new 0 0 858.1 858.1;" xml:space="preserve">
<style type="text/css">
	.st0{fill:#A9D7F3;}
	.st1{fill:#FFFFFF;}
	.st2{fill:#E7F0F8;}
	.st3{fill:#F7C108;}
	.st4{fill:#26A4FB;}
	.st5{fill:#2300B1;}
	.st6{fill:#8769B8;}
	.st7{fill:#D0EDFC;}
	.st8{fill:#150077;}
	.st9{fill:#F7FAFF;}
	.st10{fill:#B8EBF4;}
	.st11{fill:#7ADCFB;}
	.st12{fill:#F8C208;}
	.st13{fill:#8C66B9;}
	.st14{fill:#FFB1DF;}
	.st15{fill:#FF6FCA;}
	.st16{fill:#FF4D76;}
	.st17{fill:#A1DCFF;}
	.st18{fill:#2E7DFB;}
	.st19{fill:#23AFFC;}
	.st20{fill:#F6C50A;}
	.st21{fill:#FFDE17;}
	.st22{fill:#3400B1;}
	.st23{fill:#5AB2F9;}
	.st24{fill:#DBF4F9;}
	.st25{fill:#34ACFC;}
	.st26{fill:#98E3F4;}
	.st27{fill:#F183C1;}
	.st28{fill:#4377FB;}
	.st29{fill:#EE80BE;}
	.st30{opacity:0.53;}
	.st31{fill:#FFDA73;}
	.st32{fill:#210077;}
	.st33{fill:#38A0FB;}
	.st34{fill:#E8F1F9;}
	.st35{fill:#EEF3FA;}
	.st36{fill:#CCE0FF;}
	.st37{fill:#F2F9FC;}
	.st38{fill:#F955AF;}
	.st39{fill:#FF90C8;}
	.st40{fill:#8869B9;}
	.st41{fill:#FEA700;}
	.st42{clip-path:url(#SVGID_4_);}
	.st43{opacity:0.57;}
	.st44{clip-path:url(#SVGID_6_);}
	.st45{clip-path:url(#SVGID_8_);}
	.st46{fill:#86A2F8;}
	.st47{fill:#FFACEA;}
	.st48{fill:#EF80BF;}
	.st49{fill:#F774BC;}
	.st50{fill:#15203D;}
	.st51{fill:#FFFEFE;}
	.st52{fill:#A2DDFF;}
	.st53{fill:#EBF6FC;}
	.st54{fill:#E2FBFF;}
	.st55{fill:#CAD9FC;}
	.st56{fill:#9DE4F4;}
	.st57{fill:#C4E6FF;}
	.st58{fill:#EBF7FF;}
	.st59{fill:#BDECFD;}
	.st60{fill:#FFB6E4;}
	.st61{fill:#FDC401;}
	.st62{fill:#CCD8FC;}
	.st63{fill:#E58200;}
	.st64{fill:#FAF8FF;}
	.st65{fill:#577DE8;}
	.st66{fill:#D7F1FF;}
	.st67{fill:#B5E6FF;}
	.st68{fill:#5097FF;}
	.st69{fill:#C6E6FF;}
	.st70{fill:#FFA300;}
	.st71{fill:#FCFAEB;}
	.st72{fill:#80A4F7;}
	.st73{fill:#FDE4E8;}
	.st74{fill:#C0F3FF;}
	.st75{fill:#80A5F8;}
	.st76{clip-path:url(#SVGID_14_);}
	.st77{clip-path:url(#SVGID_16_);}
	.st78{clip-path:url(#SVGID_18_);}
	.st79{fill:#F0FBFC;}
	.st80{fill:#C5EFF9;}
	.st81{fill:#FFA400;}
	.st82{fill:none;}
	.st83{fill:#CAE9F9;}
</style>
<g id="Layer_1">
</g>
<g id="Layer_2">
	<g>
		<path class="st0" d="M220.2,114.6c-53.5,33.6-31.8,35.6-88.4,68.2S9.9,218.7,18.7,276.2S123,345.8,77,423.7s-99,157.2-12.4,270.5
			s194.4,49.5,247.4,49.5s97.2,28.3,148.4,26.5c51.2-1.8,83.1-38.9,125.5-37.1s149.3,83.1,229.7-8.8s-61.9-263.5-81.3-373.9
			C715,240,617.8,220.1,593.1,162.9c-24.7-57.2-58.3-89.4-134.3-68.9S253.3,93.8,220.2,114.6z"/>
		<path class="st0" d="M630.6,114.8c17,55.5,48.4,109.3,84.5,108.6c36-0.6-4.3-165.2-72.3-147.2C621,84.6,630.6,114.8,630.6,114.8z"
			/>
	</g>
	<g>
		<circle class="st1" cx="751.4" cy="316.9" r="4.1"/>
		<circle class="st1" cx="343.2" cy="694.7" r="7.2"/>
		<circle class="st1" cx="490.9" cy="165.5" r="7.2"/>
		<circle class="st1" cx="807.8" cy="622.9" r="7.2"/>
		<circle class="st1" cx="91" cy="528.3" r="7.2"/>
		<circle class="st1" cx="778.7" cy="391.4" r="5.2"/>
		<circle class="st1" cx="361.6" cy="714.1" r="2.7"/>
		<circle class="st1" cx="449.6" cy="193" r="2.7"/>
		<circle class="st1" cx="590.1" cy="133" r="2.7"/>
		<circle class="st1" cx="775.3" cy="582" r="2.7"/>
		<circle class="st1" cx="759.2" cy="389.5" r="2.7"/>
		<circle class="st1" cx="88.3" cy="585.3" r="2.7"/>
		<path class="st1" d="M97.8,634L97.8,634c-9.5-2.4-17-9.9-19.4-19.4h0c-2.4,9.5-9.9,17-19.4,19.4v0c9.5,2.4,17,9.9,19.4,19.4h0
			C80.8,643.8,88.3,636.4,97.8,634z"/>
		<path class="st1" d="M573.5,204.9L573.5,204.9c-4.3-1.1-7.6-4.4-8.7-8.7h0c-1.1,4.3-4.4,7.6-8.7,8.7v0c4.3,1.1,7.6,4.4,8.7,8.7h0
			C565.9,209.3,569.3,205.9,573.5,204.9z"/>
		<path class="st1" d="M398.5,668.8L398.5,668.8c-4.3-1.1-7.6-4.4-8.7-8.7h0c-1.1,4.3-4.4,7.6-8.7,8.7v0c4.3,1.1,7.6,4.4,8.7,8.7h0
			C390.9,673.3,394.3,669.9,398.5,668.8z"/>
		<path class="st1" d="M59,585.3L59,585.3c-4.3-1.1-7.6-4.4-8.7-8.7h0c-1.1,4.3-4.4,7.6-8.7,8.7v0c4.3,1.1,7.6,4.4,8.7,8.7h0
			C51.4,589.7,54.8,586.4,59,585.3z"/>
	</g>
	<g id="XMLID_46_">
		<g>
			<g>
				<g>
					<g>
						<path class="st34" d="M673,308.4c0.5,2.9,0.1,6-1.6,8.6c6.5-0.8,19.6,6.6,16.1,13.9c-1.2,2.4-4.1,3.5-6.9,4.1
							c-6.3,1.4-12.8,1.5-19.2,1.6c-19.5,0.3-39,0.5-58.6,0.8c-5.4,0.1-11.2,0.1-15.6-2.7c-5.2-3.2-7.1-10.1-4.3-15.2
							c0.4-0.7,0.8-1.3,1.4-1.9c3.5-3.4,9.5-2.8,14.6-2.1c17.4,2.3,10.9-9.7,22.7-14.4c4.8-1.9,11-0.6,14.3,3.1
							c5.3-7.5,16.2-11.8,25.4-8.9C667.5,297.4,672,302.7,673,308.4z"/>
					</g>
				</g>
			</g>
			<g>
				<g>
					<g>
						<path class="st34" d="M725.4,630.5c-7.6-1.7-15.6-1.8-23.2-0.2c-8.8-16.9-8.5-34.3-17.9-50.9c-11-19.4-22.1-38.7-33.1-58.1
							c-9.2-16.2-18.5-32.5-31.5-47.2c-22.2-25.1-55.2-44.9-93.2-56.1c-13-3.8-26.8-6.7-40.8-6.9c-13.6-0.3-27.1,1.9-40,4.9
							c-63.7,14.8-116.7,52-140.1,97.7c-13.8-6.8-29.2-10.7-45.6-10.7c-57.2,0-103.5,46.8-103.5,104.5c0,4,2.3,11.7,1.1,15.2
							c-2,5.8-1.3,2.7-7,6.1c-7.1,4.2-15.4,6.1-22.5,10.8c-13.4,8.8-24.5,21-31.6,35.3c-3.1,6.3-5.5,13.8-2.7,20.3
							c3.2,7.3,11.6,10.7,19.3,13.3c15.3,5.3,26.5,5.7,42.3,6c77.3,1.2,154.7,2.4,232,3.6c54.4,0.8,108.8,1.7,163.2,2.5
							c41.6,0.5,83-1.8,124.6-2.8c14-0.3,41.1-1,54.6-4.6c14.1-3.8,15.9-4.9,28.6-12.1c3.7-2.1,5.8-10,7.7-13.7
							c1.6-3,1.6-6.5,1.3-9.9c-1.4-14.9-9.5-29.1-21.8-38C739.6,635.2,732.7,632.1,725.4,630.5z"/>
					</g>
				</g>
			</g>
			<g>
				<g>
					<g>
						<g>
							<path class="st14" d="M249.1,486.5c-6.2-3.5-14.5-6.5-15.2-13.6c-0.6-5.2,3.6-9.6,5-14.6c3-10.2-6.2-20.9-16.6-22.9
								c-3.6-0.7-7.4-0.6-10.9-1.7c-16.8-5.1-17.6-31.7-33.8-38.6c-1.4-0.6-3-1-4.5-0.7c-1.2,0.3-2.2,0.9-2.9,1.8
								c4.3,10.2,10.8,19.1,18,27.4c13.1,15.1,28.2,29.2,33.3,49.2c2.9,11.4,4.2,22.7,10,33.2c2.8,5,5.9,10.2,9.4,14.7
								c0.9,1.2,1.9,2.3,2.9,3.4c7.8-1.8,14.7-5.9,17.1-13.2C264,501.6,257.6,491.4,249.1,486.5z"/>
						</g>
					</g>
				</g>
				<g>
					<g>
						<g>
							<path class="st14" d="M227.6,504.3c-5.2-10.5-6.2-22-9.3-33.1c-3.1-10.8-9.5-20-16.7-28.5c-11.9-14.2-25.6-26.9-33.3-44
								c-0.5,1.5-0.8,3.1-0.9,4.6c-0.5,10.5,3.7,21.1,11.3,28.4c4.4,4.3,10.2,7.9,11.6,13.9c2.5,10.5-10.2,21.7-4.9,31.1
								c4.8,8.4,20.4,6.9,23,16.3c1.6,5.7-2.9,13,1.1,17.3c0.3,0.3,0.6,0.6,1,0.8c1.3,5.4,5,10.2,10.1,12.4
								c3.6,1.5,7.6,1.8,11.5,1.8c2.8,0,5.8-0.2,8.7-0.7c-1.1-1.3-2.3-2.6-3.3-4C233.9,515.5,230.4,509.9,227.6,504.3z"/>
						</g>
					</g>
				</g>
			</g>
			<g>
				<g>
					<g>
						<g>
							<path class="st12" d="M612,482.8c2-3.4,3.4-7.2,4.8-10.9c2.6-6.7,5.6-12.7,10.2-18.3c2.6-3.1,5.5-6,7.8-9.4
								c1.9-2.8,2.2-6.2,4.3-9c2.4-3.1,4.8-6,6.8-9.3c2-3.3,4-6.6,5.8-10.1c1.9-3.6,3.8-6.9,6.2-10.2c2.2-2.9,4.4-5.7,6.4-8.8
								c4.4-6.5,6.3-13.3,7.7-21c1.4-7.2,2.9-14.1,6.5-20.5c0.5-0.9,1.1-1.9,1.6-2.8c-3.4-1.1-6.9,2-9.2,4.9
								c-5,6.5-9.2,13.6-12.5,21.2c-1.1,2.5-2.1,5.1-3.9,7.1c-3.8,4.1-10.1,4.7-14.8,7.7c-10.6,6.8-10,21.5-12.9,32.3
								c-4,14.8-13.6,13.8-22.7,23.8c-7.4,8.1-9.7,24.5-6.5,34.8c1.4,4.4,3.9,7.6,7.1,9.7c0.4-0.8,0.8-1.5,1.2-2.3
								C607.6,488.6,610.1,486,612,482.8z"/>
						</g>
					</g>
				</g>
				<g>
					<g>
						<g>
							<path class="st12" d="M673.6,380.5c-1.5,7.2-4.2,13.4-8.5,19.5c-2.1,3-4.3,5.8-6.4,8.7c-2.4,3.3-4.1,6.9-6,10.5
								c-1.8,3.3-3.8,6.7-5.9,9.9c-2,3.2-4.9,5.8-6.8,9c-0.9,1.6-1.3,3.4-2,5.1c-0.6,1.5-1.5,2.7-2.4,3.9c-2.3,3-4.9,5.7-7.2,8.6
								c-5.1,6.2-7.8,13.1-10.7,20.5c-1.3,3.3-2.7,6.7-4.8,9.6c-2.3,3.1-4.3,6-6.1,9.5c0,0,0,0,0,0c4.9,2.2,10.9,2,16.8-0.4
								c13-5.3,22.2-19.5,24.2-32.9c0.9-5.9,0.7-12.3,4.1-17.3c2.2-3.1,5.5-5.2,8.6-7.4c8.2-5.9,15.4-14.4,16.3-24.4
								c0.6-6.7-1.7-13.6,0-20.2c1.4-5.4,5.3-9.7,7.5-14.8c2.9-6.6,2.9-14.4-0.1-21c-0.5-1.1-1.2-2.3-2-3.2
								c-0.4,0.8-0.9,1.6-1.3,2.4C676.6,364,675.4,372.1,673.6,380.5z"/>
						</g>
					</g>
				</g>
				<g>
					<g>
						<g>
							<path class="st11" d="M728.4,444.5c-1.7,2.5-3.7,4.6-5.6,6.9c-2,2.5-3.5,5.4-5.2,8.1c-1.8,2.8-3.8,5.4-5.8,8.1
								c-3.4,4.5-7,8.8-11.3,12.5c-4.1,3.5-8.7,6.5-12.5,10.4c-4.3,4.4-7.2,10.3-9.9,15.8c-2.7,5.5-4.5,11.1-6.6,16.8
								c-2,5.4-5.4,10.1-8.3,15.1c-2.8,4.9-5.7,8.9-10.3,12.3c-2.2,1.6-4.3,3.1-6.1,5.2c-1.9,2.2-3.7,4.5-5.7,6.7
								c-3.9,4.3-8.4,8.1-12.3,12.5c-7.4,8.4-12.8,18.3-20,26.8c-3.8,4.4-8.3,8-11.6,12.9c-2.5,3.8-4.7,7.7-7.3,11.5
								c10.6,7.4,26.8,4.7,38.8-1.7c9.8-5.2,18.8-12.7,23.2-22.8c2.5-5.9,3.5-12.5,6.9-17.8c8.9-13.7,29.3-13,43.2-21.8
								c13.1-8.3,19.3-25,18-40.5c-1.1-12.4-6.4-25-3.2-37c2.3-8.7,8.6-15.7,14.3-22.5c5.8-6.9,11.5-14.6,12.1-23.6
								c0.3-4.5-1.2-9.2-4-12.7c-2.1,3.7-4.2,7.4-6.1,11.1C731.5,439.3,730.1,442,728.4,444.5z"/>
						</g>
					</g>
				</g>
				<g>
					<g>
						<g>
							<path class="st11" d="M597.7,609.7c3.6-4.5,8.1-8.1,11.7-12.7c6.8-8.7,12.3-18.4,19.9-26.4c4.2-4.4,8.7-8.5,12.7-13.1
								c1.9-2.2,3.5-4.5,5.8-6.4c2-1.6,4.1-2.9,6.1-4.6c4.6-3.9,7-9.9,10.2-14.9c1.7-2.7,3.3-5.3,4.5-8.2c1-2.6,1.8-5.2,2.7-7.8
								c2-5.6,4.7-11,7.6-16.2c2.8-5,5.9-9.6,10.4-13.4c4.2-3.6,8.8-6.7,12.8-10.6c4.3-4.4,8-9.3,11.6-14.3
								c3.2-4.4,5.6-9.2,9.2-13.3c3.7-4.2,6.2-9.1,8.8-14c1.8-3.4,3.8-6.8,5.7-10.2c-2.4-1.9-5.3-3-8.5-2.8
								c-3.7,0.3-7.1,2.2-10.3,4.1c-11,6.6-22.7,13.7-28.4,25.2c-5.7,11.4-5.5,26.5-15.7,34.1c-10.5,7.8-26.4,3.2-37.4,10.2
								c-18.5,11.9-8.7,45.4-26.6,58.2c-3.7,2.6-8.1,4-12,6.2c-13.4,7.4-18.6,25.6-13.4,39.7c-4.1,7.9-4.1,18.2,1.9,24.9
								c0.3,0.4,0.7,0.7,1,1.1c0.1-0.2,0.2-0.3,0.4-0.5C591.5,619.4,594.1,614.2,597.7,609.7z"/>
						</g>
					</g>
				</g>
			</g>
			<g>
				<g id="XMLID_948_">
					<g>
						<g>
							<g>
								<g>
									<g>
										<g>
											<g>
												<g>
													<path class="st5" d="M710.2,753.6l1.6,1.7L735,734l-2.2-2.4l-17.3-19.1l-9.2,8.5l10.9,11.9l-7.7,14
														c-1,1.9-0.9,4.2,0.2,5.9C709.8,753.1,710,753.4,710.2,753.6z"/>
												</g>
											</g>
										</g>
									</g>
								</g>
							</g>
						</g>
						<g>
							<g>
								<g>
									<g>
										<g>
											<g>
												<g>
													<polygon class="st3" points="704.9,719.5 714.7,730.2 723.9,721.8 714.2,711.1 													"/>
												</g>
											</g>
										</g>
									</g>
								</g>
							</g>
						</g>
						<g>
							<g>
								<g>
									<g>
										<g>
											<g>
												<g>
													<path class="st11" d="M710.2,753.6l1.6,1.7L735,734l-2.2-2.4l-23.1,21.2C709.8,753.1,710,753.4,710.2,753.6z"/>
												</g>
											</g>
										</g>
									</g>
								</g>
							</g>
						</g>
					</g>
					<g>
						<g>
							<g>
								<path class="st18" d="M639.6,641c0.2-2.5,0.6-5,0.9-7.5c3.2-21.9,8-43.3,12.7-64.9c3.2-15,7.7-25.2,24.3-28.2
									c1.9-0.3,4.1-0.7,6.5-0.9c0.5-0.1,1-0.1,1.5-0.1c2.3-0.2,4.7-0.3,7.1-0.2c9.7,0.3,9.3,4.9,13.2,12.1
									c-0.4,1.7-0.8,3.4-1.2,5.1c-3.3,12.4-7.4,18.6-13.2,29.1c-7,12.6-9.2,28.9-15.6,42.2c-2.6,5.4-4.2,11.1-3.3,17
									c1.6,10.5,17,21.2,23.7,29c9.6,11.3,18.6,23.1,26.9,35.4c1.3,2,2.7,4.3,1.9,6.6c-0.5,1.4-1.7,2.4-2.8,3.3
									c-2.9,2.3-5.7,4.6-8.6,6.9c-2.8,2.2-6.1,4.5-9.5,3.7c-2.1-0.5-3.8-2.1-5.3-3.7c-20.4-20.8-56.1-45.4-59.2-77
									C639.3,646.3,639.3,643.7,639.6,641z"/>
							</g>
						</g>
					</g>
					<g>
						<g>
							<g>
								<g>
									<g>
										<g>
											<g>
												<g>
													<path class="st5" d="M660.9,754v2.3h31.4l0-3.2l0.1-25.8H680v16.1l-15.1,5.1c-2,0.7-3.5,2.5-3.8,4.6
														C661,753.4,660.9,753.7,660.9,754z"/>
												</g>
											</g>
										</g>
									</g>
								</g>
							</g>
						</g>
						<g>
							<g>
								<g>
									<g>
										<g>
											<g>
												<g>
													<polygon class="st3" points="680,724.3 680,738.9 692.4,738.9 692.5,724.3 													"/>
												</g>
											</g>
										</g>
									</g>
								</g>
							</g>
						</g>
						<g>
							<g>
								<g>
									<g>
										<g>
											<g>
												<g>
													<path class="st11" d="M660.9,754v2.3h31.4l0-3.2H661C661,753.4,660.9,753.7,660.9,754z"/>
												</g>
											</g>
										</g>
									</g>
								</g>
							</g>
						</g>
					</g>
					<g>
						<g>
							<g>
								<g>
									<g>
										<g>
											<g>
												<g>
													<path class="st8" d="M709.1,562c-1.3,0.3-2.6,0.4-3.9,0.5c-7.4,0.7-14.9,1.2-22.3,0.6c-1.5-0.1-2.9-0.2-4.4-0.4
														c-3.2-0.4-8-1.2-12.4-2.6c0.9-5.9,4.8-11.2,10-14.3c5.4-3.1,11.8-4,18-3.3c2.8,0.4,5.7,1.1,7.9,2.9
														C705.4,548.4,707.4,557.1,709.1,562z"/>
												</g>
											</g>
										</g>
									</g>
								</g>
							</g>
						</g>
					</g>
					<g>
						<g>
							<g>
								<g>
									<g>
										<rect x="633.4" y="755.5" class="st4" width="103.2" height="1"/>
									</g>
								</g>
							</g>
						</g>
					</g>
					<g>
						<g>
							<g>
								<path class="st19" d="M676,584.1c0.4,0.9,0.4,1.9,0.4,2.9c0,20.5-0.6,41-1.4,61.5c-1,25.3-2.2,50.7-2.8,76
									c-0.1,3.3,0,7.1,2.6,9.3c1.6,1.4,3.9,1.6,6,1.9c4.3,0.5,8.7,0.9,13,1.4c1.5,0.2,3,0.3,4.3-0.2c7.2-2.6,6.7-37.6,7.6-44.9
									c2.3-18.9,4.2-37.8,4.9-56.8c0.7-20.3,6-40.8,3.9-61.2c-0.3-2.7-0.7-5.4-1.2-8c-2.1-10.2-6.8-20.3-17.5-23.4
									c-8.1-2.3-11.2,0.4-16.8,5.2c-5,4.3-20.9,9.2-23.2,15.1c-0.1,0.2-0.2,0.4-0.2,0.6c-2.3,7.9,11.8,15.2,17.4,18.3
									C674.2,582.2,675.4,582.9,676,584.1z"/>
							</g>
						</g>
					</g>
					<g>
						<g>
							<g>
								<g>
									<g>
										<g>
											<g>
												<path class="st5" d="M655.6,562.9c0.7,0.3,1.5,0.5,2.2,0.8c0.7-0.4,1.6-0.5,2.4,0.2c8.9,7.4,21.5,9.5,32.5,10.1
													c6.9,0.4,14.6,0.6,21.9-0.7c-0.3-2.6-0.7-5.3-1.2-7.9c-2.1-10.1-6.8-20.1-17.5-23.1c-8.1-2.3-11.2,0.4-16.8,5.1
													c-5,4.2-20.9,9.1-23.2,14.8C655.8,562.5,655.7,562.7,655.6,562.9z"/>
											</g>
										</g>
									</g>
								</g>
							</g>
						</g>
					</g>
					<g>
						<g>
							<g>
								<g>
									
										<ellipse transform="matrix(0.3575 -0.9339 0.9339 0.3575 -33.0211 992.5546)" class="st29" cx="704.9" cy="520.3" rx="2.8" ry="2.8"/>
								</g>
							</g>
						</g>
					</g>
					<g>
						<g>
							<g>
								<path class="st15" d="M641.3,529.6c0.7-8.8,2.4-17.6,7.3-24.8c0.1-0.1,0.1-0.2,0.2-0.3c0.6-0.7,1.2-1.3,1.9-1.9
									c0.1-0.1,0.6-0.5,0.8-0.6c0.2-0.1,0.6-0.4,0.7-0.5c0.8-0.5,1.5-0.9,2.3-1.3c0.2-0.1,0.3-0.2,0.4-0.2c0,0,0.1,0,0.3-0.1
									c0.5-0.2,0.9-0.3,1.4-0.5c1-0.3,2-0.5,3-0.7c0.2,0,0.4-0.1,0.6-0.1c3.5,0.4,7.1,1.2,10.7,1.3c0.3,0,0.6-0.1,0.9-0.1l0,0.1
									c0.3,0,0.5,0,0.8,0c12.3-0.3,29.6-5.6,41.2-1.2c5.6,2.1,9.5,7.4,11.4,13c2.6,7.6,3.7,16.6,0.8,23.3
									c-2.5,5.8-5.9,11-8.8,16.6c-1.8,3.5-2.2,13.6-4.8,15.5c-1.7,1.2-4,1.5-6.1,1.7c-13.4,1.3-26.9,2.5-40.1,0.2
									c-3.1-0.5-6.2-1.3-8.9-2.8c-7.1-4-6.1-9-8.3-15.4c-2-5.9-7.6-10.7-7.4-17.4C641.4,530.3,641.1,532.6,641.3,529.6z"/>
							</g>
						</g>
					</g>
					<g>
						<g>
							<g>
								<path class="st14" d="M675.6,486.9l6.3-4.6c1-0.9,2.1-1.7,3.4-2.5l5.6,17.8c1.1,3.6-4.4,4.9-10.8,7.5l-2.3,0.8l-0.4-0.7
									l-2.6-6.7L675.6,486.9z"/>
							</g>
						</g>
					</g>
					<g>
						<g>
							<g>
								<g>
									<g>
										<g>
											<g>
												<g>
													<path class="st8" d="M680,490.5c-3.9-2.7-6.9-7.6-4.6-12.5c0.3-0.5,0.6-1.1,1.1-1.4c0.9-0.5,1.9-0.3,2.9,0
														c1,0.3,2,0.6,3,0.8c4.2,1.2,8.1,3.4,7.6,8.4c-0.1,1.3-0.6,2.6-1.1,3.8c-0.4,0.9-0.5,2-1.3,2.6
														c-1.1,0.9-2.7,0.8-4.1,0.5c-0.9-0.2-1.8-0.5-2.7-0.9C680.8,491.4,680.6,490.8,680,490.5z"/>
												</g>
											</g>
										</g>
									</g>
								</g>
							</g>
						</g>
					</g>
					<g>
						<g>
							<g>
								<g>
									<g>
										<g>
											<g>
												<g>
													<path class="st14" d="M688,486.2l-2.1,6.7c-0.1,0.4-0.3,0.9-0.5,1.3c-0.1,0.3-0.3,0.5-0.5,0.8c0,0,0,0.1-0.1,0.1l0,0
														c-1.8,2.6-5.2,3.8-8.4,2.8l-1-0.3c-2.2-0.7-3.4-3-2.7-5.2l2.9-9.3c0.8-2.6,3.6-4.1,6.1-3.3l3.5,1.1
														C687.5,481.7,688.7,484,688,486.2z"/>
												</g>
											</g>
										</g>
									</g>
								</g>
							</g>
						</g>
					</g>
					<g>
						<g>
							<g>
								<g>
									<g>
										<g>
											<g>
												<g>
													<path class="st8" d="M678.1,491.4c0.3,0,0.5,0,0.7-0.1c1.4-0.1,2.7-0.8,3.6-1.9l2.3-2.4l1.1-1.5
														c0.5-1.3,0.1-2.8-1.2-3.4c-0.6-0.3-1.4-0.4-2.1-0.1l-1.5,0.5c-1.4,0-3-0.1-3.7-1.2c-0.3-0.5-0.4-1-0.5-1.5
														c0.1-0.1,0.1-0.1,0.2-0.2c0.5-0.5,0.8-1,1-1.6c0.4-0.1,0.7-0.2,1-0.4l0.8-0.1c2.4-0.2,4.9,0.6,6.8,2.1l2,1.6l1.3,4.9
														l-2.5,4.3l-2.9,0.2l-1.7,5.6c-0.8,2.5-3.2,4.2-5.8,3.7c-4.8-1-5.3-3.8-4.4-6.6l1.4-4.5
														C674.4,490.4,676.5,491.3,678.1,491.4z"/>
												</g>
											</g>
										</g>
									</g>
								</g>
							</g>
						</g>
					</g>
					<g>
						<g>
							<g>
								<g>
									<g>
										<g>
											<g>
												<g>
													<path class="st8" d="M685.2,491l-0.3,1.1c-0.3,0.8,0.2,1.7,1,2c0.6,0.2,1.2,0.1,1.8-0.2l1.1-3.6
														c-0.2-0.3-0.5-0.5-0.9-0.7c-0.6-0.2-1.2-0.1-1.6,0.2C685.8,490,685.4,490.4,685.2,491z"/>
												</g>
											</g>
										</g>
									</g>
								</g>
							</g>
						</g>
					</g>
					<g>
						<g>
							<g>
								<g>
									<g>
										<g>
											<g>
												<g>
													<path class="st14" d="M684,492.7l2.2,0.7c1.4,0.4,2.8-0.3,3.2-1.7l0.1-0.3c0.3-1-0.3-2.1-1.3-2.4l-0.5-0.2
														c-1.3-0.4-2.6,0.3-3,1.6L684,492.7z"/>
												</g>
											</g>
										</g>
									</g>
								</g>
							</g>
						</g>
					</g>
					<g>
						<g>
							<g>
								<g>
									<path class="st8" d="M672,479.2c-1-1.2-1.5-2.6-0.9-3.8c1.3-2.5,6-1.5,7.7,0c1.1,0.9,2,2,3.3,2.5c0.8,0.3,1.6,0.3,2.4,0.8
										c0.7,0.4,1.2,1.4,0.8,2.1c-0.2,0.2-0.5,0.4-0.7,0.5c-2.3,1.2-4.8,1.8-7.3,1.4C675.8,482.4,673.5,481,672,479.2z"/>
								</g>
							</g>
						</g>
					</g>
					<g>
						<g>
							<g>
								<path class="st14" d="M660,551.7c3.7-0.2,7.5,0.9,10.6,2.9c7.8-3,15.8-4.2,23.9-6.8c5.6-1.8,16.2-3.3,20-1.9
									c1.2,0.4,2.1,1.5,3.1,2.5c3.2,3.4,5.2,8.1,4.1,11.7c-0.7,2.4-2.7,4-5.1,4.9c-7.4,2.6-18.5,0.9-26.9,0.4
									c-6.8-0.4-19-0.3-24.6-4.8c-1.9-1.5-3.3-3.6-5.5-4.5c-1.1-0.5-2.6-0.8-2.8-2C656.5,552.7,658.5,551.8,660,551.7z"/>
							</g>
						</g>
					</g>
					<g>
						<g>
							<g>
								<g>
									<path class="st14" d="M647.9,534.2c-0.1,0.1-0.1,0.2-0.1,0.3c0,0,0-0.1,0.1-0.1C647.9,534.4,647.9,534.3,647.9,534.2z"/>
								</g>
							</g>
						</g>
						<g>
							<g>
								<g>
									<path class="st14" d="M644.2,558.7c-1.5-7.8,4-22.5,5.4-27c3.3-11,8.5-24.1,18.5-31.5c1.1-0.8,2.8-1.4,3.6-0.5
										c0.7,0.9,0,2.2-0.9,2.9c-2,1.8-2.2,4.4-3,6.9c-1.5,4.8-1,10.2-1,15.1c0.1,13.1,3.8,28.2-9.5,36.4c-2.5,1.6-5.5,2.9-8.6,2.5
										C646,563.3,644.7,561.4,644.2,558.7z"/>
								</g>
							</g>
						</g>
					</g>
					<g>
						<g>
							<g>
								<path class="st14" d="M727.7,529.9v20.6c0,8.5-7,15.3-15.6,15.3H706v-34.1C713.1,530.4,720.4,530,727.7,529.9z"/>
							</g>
						</g>
					</g>
					<g>
						<g>
							<g>
								<path class="st14" d="M661.3,555.8c0,0.3,0,0.6,0,0.9c0,0.1-0.1,0.3-0.1,0.4c0,0,0,0,0,0c-0.1,0.2-0.3,0.4-0.4,0.6
									c-0.5,0.5-0.9,0.9-1.4,1.4c-0.1,0.1-0.3,0.2-0.4,0.3c-0.1,0.1-0.3,0.2-0.4,0.3c-0.6,0.4-1.3,0.8-2,1.2
									c-1.2,0.7-2.4,1.3-3.7,1.8c-0.2,0.1-0.5,0.2-0.6,0.2c-0.4,0.2-0.8,0.3-1.2,0.5c0,0,0,0,0,0c-1.2,0.5-2.5,0.3-3.6-0.4
									c-4.1-2.8-6.8-7.4-6.8-12.6v-20.6c7.3,0.1,14.5,0.5,21.7,1.8v20.7C661.7,553.3,661.2,554.5,661.3,555.8z"/>
							</g>
						</g>
					</g>
					<g>
						<g>
							<g>
								<path class="st14" d="M662.7,507.1c0.1-1.5,0.9-2.9,1.7-4.2c2.7-4.1,7.1-7.8,12.5-8.2c1.7-0.1,2.8,0.7,2.9,1.6
									c-2.2,1.2-4.8,2.4-6.3,4.3c-0.2,0.3-0.4,0.6-0.6,0.9c-0.5,0.5-1,1.1-1.4,1.8c-0.4,0.8-0.7,1.6-1.1,2.4c0,0,0,0.1-0.1,0.1
									c-0.4,0.6-0.9,1.1-1.6,1.5c-0.2,0.2-0.4,0.4-0.5,0.6c-0.7,0.5-1.5,0.8-2.3,1c-0.6,0.2-2.3,0.6-2.9,0.2
									C662.4,508.9,662.7,507.8,662.7,507.1z"/>
							</g>
						</g>
					</g>
				</g>
			</g>
			<g id="XMLID_947_">
				<g>
					<path class="st5" d="M261,739.2h328c14.8,0,27-12.1,27-27V245.9c0-14.8-12.1-27-27-27H261c-14.8,0-27,12.1-27,27v466.4
						C234,727.1,246.1,739.2,261,739.2z"/>
					<path class="st5" d="M342.4,249.2h163.1c4.4,0,7.9-3.6,7.9-7.9v-31.2c0-4.4-3.6-7.9-7.9-7.9H342.4c-4.4,0-7.9,3.6-7.9,7.9v31.2
						C334.4,245.7,338,249.2,342.4,249.2z"/>
					<path class="st5" d="M423.9,154.5c-1.1,0-5.6,0-6.7,0c-1.1,0-5.6,0-6.7,0c-26,0-47.1,21.1-47.1,47s21.1,47,47.1,47
						c1.1,0,2.2-0.1,3.3-0.1c1.1,0.1,2.2,0.1,3.3,0.1c1.1,0,2.2-0.1,3.3-0.1c1.1,0.1,2.2,0.1,3.3,0.1c26,0,47.1-21.1,47.1-47
						S450,154.5,423.9,154.5z"/>
					<path class="st4" d="M248.2,739.2h324.7c15.7,0,28.6-12.9,28.6-28.6V247.5c0-15.7-12.9-28.6-28.6-28.6H248.2
						c-15.7,0-28.6,12.9-28.6,28.6v463.1C219.6,726.4,232.5,739.2,248.2,739.2z"/>
					<path class="st79" d="M240.5,246.3v439.4c0,3.8,3.8,6.9,8.5,7.2c0.3,0,0.6,0,0.8,0h321.4c5.1,0,9.4-3.3,9.4-7.3V246.3
						c0-0.2,0-0.5,0-0.7c0-0.2-0.1-0.4-0.1-0.6c-0.2-0.8-0.5-1.5-1-2.2c-1.6-2.2-4.7-3.8-8.2-3.8H249.9c-4.6,0-8.4,2.6-9.2,6
						C240.6,245.5,240.5,245.9,240.5,246.3z"/>
					<path class="st4" d="M329,252.5h163.1c4.4,0,7.9-3.6,7.9-7.9v-34.5c0-4.4-3.6-7.9-7.9-7.9H329c-4.4,0-7.9,3.6-7.9,7.9v34.5
						C321.1,248.9,324.6,252.5,329,252.5z"/>
					<circle class="st4" cx="410.6" cy="201.5" r="47.1"/>
					<g>
						<g>
							<g>
								<g>
									<g>
										<g>
											<path class="st80" d="M548.9,318.4H427.7c-1.7,0-3.1-1.4-3.1-3.1v-14.1c0-1.7,1.4-3.1,3.1-3.1h121.2
												c1.7,0,3.1,1.4,3.1,3.1v14.1C551.9,317,550.6,318.4,548.9,318.4z"/>
										</g>
									</g>
								</g>
							</g>
							<g>
								<g>
									<g>
										<g>
											<path class="st80" d="M548.9,359.3H427.7c-1.7,0-3.1-1.4-3.1-3.1v-14.1c0-1.7,1.4-3.1,3.1-3.1h121.2
												c1.7,0,3.1,1.4,3.1,3.1v14.1C551.9,358,550.6,359.3,548.9,359.3z"/>
										</g>
									</g>
								</g>
							</g>
							<g>
								<g>
									<g>
										<g>
											<path class="st80" d="M548.9,400.3H427.7c-1.7,0-3.1-1.4-3.1-3.1v-14.1c0-1.7,1.4-3.1,3.1-3.1h121.2
												c1.7,0,3.1,1.4,3.1,3.1v14.1C551.9,398.9,550.6,400.3,548.9,400.3z"/>
										</g>
									</g>
								</g>
							</g>
							<g>
								<g>
									<g>
										<g>
											<path class="st80" d="M493.4,439.5h-65.8c-1.7,0-3.1-1.4-3.1-3.1V426c0-1.7,1.4-3.1,3.1-3.1h65.8c1.7,0,3.1,1.4,3.1,3.1
												v10.5C496.5,438.1,495.1,439.5,493.4,439.5z"/>
										</g>
									</g>
								</g>
							</g>
						</g>
						<g>
							<g>
								<g>
									<g>
										<g>
											<path class="st80" d="M483.4,537.4H271.9c-1.5,0-2.7-1.2-2.7-2.7v-14.8c0-1.5,1.2-2.7,2.7-2.7h211.4
												c1.5,0,2.7,1.2,2.7,2.7v14.8C486.1,536.1,484.8,537.4,483.4,537.4z"/>
										</g>
									</g>
								</g>
							</g>
							<g>
								<g>
									<g>
										<g>
											<path class="st80" d="M547.4,495.8h-275c-1.7,0-3.1-1.4-3.1-3.1v-14.1c0-1.7,1.4-3.1,3.1-3.1h275c1.7,0,3.1,1.4,3.1,3.1
												v14.1C550.4,494.5,549,495.8,547.4,495.8z"/>
										</g>
									</g>
								</g>
							</g>
							<g>
								<g>
									<g>
										<g>
											<path class="st80" d="M547.4,578.9h-275c-1.7,0-3.1-1.4-3.1-3.1v-14.1c0-1.7,1.4-3.1,3.1-3.1h275c1.7,0,3.1,1.4,3.1,3.1
												v14.1C550.4,577.5,549,578.9,547.4,578.9z"/>
										</g>
									</g>
								</g>
							</g>
							<g>
								<g>
									<g>
										<g>
											<path class="st80" d="M547.4,620.4h-275c-1.7,0-3.1-1.4-3.1-3.1v-14.1c0-1.7,1.4-3.1,3.1-3.1H546c2.4,0,4.4,2,4.4,4.4
												v12.8C550.4,619,549,620.4,547.4,620.4z"/>
										</g>
									</g>
								</g>
							</g>
							<g>
								<g>
									<g>
										<g>
											<path class="st80" d="M424.9,660.1H272.3c-1.7,0-3.1-1.4-3.1-3.1v-10.5c0-1.7,1.4-3.1,3.1-3.1h152.6
												c1.7,0,3.1,1.4,3.1,3.1V657C428,658.7,426.6,660.1,424.9,660.1z"/>
										</g>
									</g>
								</g>
							</g>
							<g>
								<path class="st80" d="M539.7,547.1h-33.9c-3.8,0-6.9-3.1-6.9-6.9v-26.1c0-3.8,3.1-6.9,6.9-6.9h33.9c3.8,0,6.9,3.1,6.9,6.9
									v26.1C546.5,544.1,543.4,547.1,539.7,547.1z M505.7,513.2c-0.5,0-1,0.4-1,1v26.1c0,0.5,0.4,1,1,1h33.9c0.5,0,1-0.4,1-1
									v-26.1c0-0.5-0.4-1-1-1H505.7z"/>
							</g>
							<g>
								<path class="st80" d="M480.9,669.9H447c-3.8,0-6.9-3.1-6.9-6.9v-26.1c0-3.8,3.1-6.9,6.9-6.9h33.9c3.8,0,6.9,3.1,6.9,6.9V663
									C487.8,666.8,484.7,669.9,480.9,669.9z M447,635.9c-0.5,0-1,0.4-1,1V663c0,0.5,0.4,1,1,1h33.9c0.5,0,1-0.4,1-1v-26.1
									c0-0.5-0.4-1-1-1H447z"/>
							</g>
						</g>
						<g>
							<g>
								<g>
									<g>
										<path class="st11" d="M402.7,364.9v4.6c0,22.7-11.3,42.7-28.6,54.7v0c-10.8,7.6-24,12-38.2,12c-6.7,0-13.2-1-19.3-2.8l0,0
											c-0.3-0.1-0.7-0.2-1-0.3c-0.5-0.1-0.9-0.3-1.4-0.5c-0.4-0.1-0.8-0.3-1.3-0.4c-0.4-0.2-0.9-0.3-1.3-0.5
											c-0.1-0.1-0.3-0.1-0.4-0.2c-0.4-0.2-0.8-0.3-1.2-0.5c-0.4-0.2-0.8-0.4-1.3-0.5c-23.4-10.4-39.6-33.8-39.6-61v-4.6
											c0-36.9,29.9-66.7,66.7-66.7c18.4,0,35.1,7.5,47.2,19.5C395.3,329.8,402.7,346.5,402.7,364.9z"/>
									</g>
								</g>
							</g>
							<g>
								<g>
									<g>
										<g>
											<g>
												<path class="st5" d="M303.9,329.8c2.9-9.6,7.6-17.9,17.7-18.3c9.1-0.4,13.4,7.3,22.4,8.4c6.5,0.7,17.2,0.8,23.4,3.1
													c9.4,3.5,13.2,10.6,14.9,20.4c2,11.6,2.6,23.5,1.8,35.3c-0.4,6.3-1.7,13.4-6.9,17.1c-6.5,4.6-16.1,1.5-21.5-4.3
													c-2.1-2.2-3.9-4.8-5.1-7.7c-1.4-3.3-1.9-6.8-3.1-10.1c-2.3-6.3-7.4-11.9-13.9-13.3c-8.5-1.8-22.9,8.3-28.8,1.8
													C298.1,354.7,301.2,338.8,303.9,329.8z"/>
											</g>
										</g>
									</g>
								</g>
								<g>
									<g>
										<g>
											<g>
												<path class="st14" d="M374.2,361.4v62.8c-10.8,7.6-24,12-38.2,12c-6.7,0-13.2-1-19.3-2.8l0,0l24.8-17.4
													c-28.7-1.9-32.3-17.8-32.6-23.8v-30.8c0-6.7,2.1-13,5.7-18.1c5.9-8.5,15.8-14.1,26.9-14.1h0
													C359.5,329.2,374.2,343.7,374.2,361.4z"/>
											</g>
										</g>
									</g>
									<g>
										<g>
											<g>
												<path class="st5" d="M341.5,416l-24.8,17.4c-2.7-0.8-5.3-1.8-7.8-2.9v-38.3C309.2,398.2,312.9,414.1,341.5,416z"/>
											</g>
										</g>
									</g>
								</g>
								<g>
									<g>
										<g>
											<g>
												<path class="st5" d="M358.1,383.7c6,3.4,13.7,1.4,17.1-4.5c3.5-5.9,1.4-13.5-4.6-16.9c-6-3.4-13.7-1.4-17.1,4.5
													C350.1,372.7,352.1,380.3,358.1,383.7z"/>
											</g>
										</g>
									</g>
								</g>
								<g>
									<g>
										<g>
											<g>
												<path class="st5" d="M308.9,344.7c0,0.1-3.6-2.4-3.6-2.2c17.5,1.5,34,2.9,38.8,2.2c2.3,20.6,11.7,19.9,21.6,23
													c9.2,2.8,18.7-1.4,16.9-12.9c-1-6.6-6-15.6-11.2-19.7c-8.6-6.8-19-11.7-30-12.9c-10.9-1.2-22.5,1.6-31,8.5
													C306.9,333.6,307.4,340.5,308.9,344.7z"/>
											</g>
										</g>
									</g>
								</g>
								<g>
									<g>
										<g>
											<g>
												<path class="st5" d="M369.3,398.2h0.1c6,0,11-4.9,11-11v-6.3c0-6-4.9-11-11-11h-0.1c-6,0-11,4.9-11,11v6.3
													C358.3,393.3,363.3,398.2,369.3,398.2z"/>
											</g>
										</g>
									</g>
								</g>
								<g>
									<g>
										<g>
											<g>
												<path class="st14" d="M355.2,382.6c6,3.4,13.7,1.4,17.1-4.5c3.5-5.9,1.4-13.5-4.6-16.9c-6-3.4-13.7-1.4-17.1,4.5
													C347.1,371.6,349.2,379.2,355.2,382.6z"/>
											</g>
										</g>
									</g>
								</g>
								<g>
									<g>
										<g>
											<g>
												<path class="st5" d="M344.1,344.7v11.5c0,3.9,3.2,7,7.1,7l0,0c3.9,0,7.1-3.2,7.1-7v-11L344.1,344.7z"/>
											</g>
										</g>
									</g>
								</g>
							</g>
						</g>
					</g>
					<circle class="st18" cx="410.6" cy="201.5" r="9.2"/>
				</g>
			</g>
			<g>
				<g>
					<g>
						<path class="st34" d="M544.7,159.1c-0.5,3-0.1,6.1,1.4,8.8c-6-0.8-18.1,6.8-14.8,14.1c1.1,2.4,3.8,3.5,6.4,4.2
							c5.8,1.5,11.8,1.6,17.7,1.7c18,0.3,35.9,0.6,53.9,0.8c5,0.1,10.3,0.1,14.4-2.7c4.8-3.3,6.6-10.3,3.9-15.5
							c-0.4-0.7-0.8-1.4-1.3-1.9c-3.2-3.5-8.7-2.9-13.4-2.2c-16,2.4-10.1-9.8-20.9-14.6c-4.4-2-10.1-0.6-13.2,3.2
							c-4.8-7.6-14.9-12-23.4-9C549.7,147.9,545.6,153.4,544.7,159.1z"/>
					</g>
				</g>
			</g>
			<g>
				<g>
					<g>
						<path class="st34" d="M236.2,171c-0.4,2-0.1,4.1,1.1,5.9c-4.6-0.5-13.8,4.5-11.3,9.5c0.8,1.6,2.9,2.4,4.9,2.8
							c4.4,1,9,1,13.5,1.1c13.7,0.2,27.4,0.3,41.1,0.5c3.8,0,7.8,0,10.9-1.9c3.7-2.2,5-6.9,3-10.3c-0.3-0.5-0.6-0.9-1-1.3
							c-2.4-2.3-6.7-1.9-10.2-1.4c-12.2,1.6-7.7-6.6-16-9.7c-3.4-1.3-7.7-0.4-10.1,2.1c-3.7-5.1-11.4-8-17.9-6
							C240.1,163.5,236.9,167.1,236.2,171z"/>
					</g>
				</g>
			</g>
			<g>
				<g>
					<g>
						<path class="st34" d="M443.7,109.2c-0.3,1.6,0,3.3,0.9,4.7c-3.7-0.4-11.1,3.7-9.1,7.6c0.7,1.3,2.3,1.9,3.9,2.3
							c3.5,0.8,7.2,0.8,10.9,0.9c11.1,0.1,22.1,0.3,33.2,0.4c3,0,6.3,0,8.8-1.5c2.9-1.8,4-5.5,2.4-8.3c-0.2-0.4-0.5-0.7-0.8-1
							c-2-1.9-5.4-1.5-8.3-1.2c-9.8,1.3-6.2-5.3-12.9-7.9c-2.7-1-6.2-0.3-8.1,1.7c-3-4.1-9.2-6.5-14.4-4.8
							C446.8,103.2,444.3,106.1,443.7,109.2z"/>
					</g>
				</g>
			</g>
			<g>
				<g>
					<g>
						<path class="st34" d="M140.8,296.5c-0.2,1.1,0,2.2-0.3,3.3c-0.6,2-3,3.3-5,4.7c-2,1.4-3.8,3.5-2.7,5.4c0.8,1.4,2.8,2,4.6,2.4
							c4.2,0.8,8.5,0.9,12.8,1c13,0.2,26.1,0.3,39.1,0.5c3.6,0,7.5,0,10.4-1.6c3.5-1.9,4.8-5.9,2.9-8.9c-0.3-0.4-0.6-0.8-0.9-1.1
							c-2.3-2-6.3-1.6-9.7-1.3c-3.4,0.4-7.6,0.4-9.4-1.9c-1.8-2.3,0.1-5.5-1.3-8c-1.5-2.7-5.9-3.2-9.6-3.4
							C164.5,287.2,142.3,289.1,140.8,296.5z"/>
					</g>
				</g>
			</g>
			<g>
				<g>
					<circle class="st1" cx="478.9" cy="182.7" r="3.4"/>
				</g>
			</g>
			<g>
				<g>
					<path class="st1" d="M487.2,196c0-0.2,0-0.3,0-0.5c-0.7-3.9-4.1-6.8-8.2-6.8c-4.1,0-7.5,3-8.2,6.9c0,0.1,0,0.3,0,0.4H487.2z"/>
				</g>
			</g>
			<g>
				<g>
					<g>
						<g>
							<path class="st3" d="M239.9,570.9l-57.3-3.1c-5.9-0.4-10.2,4.2-9.6,10.1l4.3,38.8c0.6,5.3,5.6,9.4,11,9.2l22.5-1.1l-2.4,15.5
								l12.1-15.7l21.6-1c4.4-0.2,7.8-4.2,7.7-8.9l-1.1-33.8C248.4,575.7,244.5,571.2,239.9,570.9z"/>
						</g>
					</g>
				</g>
				<g>
					<g>
						<g>
							<g>
								<g>
									<path class="st1" d="M212.8,594.3c-2.3-0.3-4.2,3.2-2.5,5.3c1.4,1.7,4.4,2,5.7,0c1.1-1.7,0.9-4.4-1-5.2
										c-1.4-0.6-4-0.7-4,1.7c0,0.8,1,0.8,1.1,0c0.1-1.5,4.9-1,3.2,2.4c-0.6,1.3-2.4,1.5-3.5,0.9c-0.8-0.4-1.4-1.5-0.9-2.5
										c0.4-0.9,1.1-1.5,2-1.4C213.5,595.6,213.4,594.4,212.8,594.3L212.8,594.3z"/>
								</g>
							</g>
						</g>
					</g>
					<g>
						<g>
							<g>
								<g>
									<path class="st1" d="M226.8,594.2c-0.7-0.6-2.2-0.4-3.2,0.1c-1.1,0.6-2.1,1.8-2.3,3c-0.4,2.2,1.7,4.4,4,4.2
										c1.1-0.1,2.5-1.1,3.2-2c0.6-0.8,0.6-1.8,0.3-2.7c-0.6-1.5-2.3-3.6-4.3-2.1c-0.6,0.5,0.1,1.3,0.7,0.8
										c1.1-0.8,2.1,0.9,2.4,1.6c0.3,0.6,0.4,1.3-0.2,1.9c-0.5,0.6-1.3,1.2-2.1,1.2c-1.4,0-2.7-1.4-2.7-2.8c0-1.5,2.2-3.5,3.5-2.4
										C226.6,595.6,227.4,594.6,226.8,594.2L226.8,594.2z"/>
								</g>
							</g>
						</g>
					</g>
					<g>
						<g>
							<g>
								<g>
									<path class="st1" d="M200.8,594c-2,0.1-2.9,2-2.8,4.2c0.1,2.3,1.9,3,3.7,2.7c1.7-0.3,3.4-2.4,2.9-4.5
										c-0.5-2.3-2.8-2.4-4.4-2.4c-0.7,0-0.7,1.3,0,1.3c0.9,0,2.3-0.2,3,0.7c1.1,1.2-0.1,3.1-1.2,3.6c-1.1,0.5-2.7,0.3-2.9-1.3
										c-0.1-1.4,0.4-2.9,1.7-2.9C201.5,595.2,201.5,593.9,200.8,594L200.8,594z"/>
								</g>
							</g>
						</g>
					</g>
				</g>
			</g>
			<g>
				<g>
					<g>
						<path class="st18" d="M340.2,726.1h2.1v28.6l-2.9,0l-23.5,0.1v-11.4h14.7l4.7-13.8c0.6-1.9,2.2-3.2,4.1-3.5
							C339.7,726.2,340,726.1,340.2,726.1z"/>
					</g>
				</g>
				<g>
					<g>
						<polygon class="st12" points="315.9,743.5 329.1,743.5 329.1,754.8 315.9,754.9 						"/>
					</g>
				</g>
				<g>
					<g>
						<path class="st8" d="M340.2,726.1h2.1v28.6l-2.9,0v-28.6C339.7,726.2,340,726.1,340.2,726.1z"/>
					</g>
				</g>
				<g>
					<g>
						<g>
							<path class="st5" d="M226.5,667.2l-2.9-6.2c-0.4-0.8-0.1-1.9,0.6-2.4l12.9-9c0.7-0.5,1.6-0.2,2,0.6l2.9,6.2
								c0.4,0.8,0.1,1.9-0.6,2.4l-12.9,9C227.9,668.3,226.9,668,226.5,667.2z"/>
						</g>
					</g>
				</g>
				<g>
					<g>
						<g>
							<path class="st12" d="M238.9,663.7l-0.5-5.4l-5-6.6c-0.5-0.6-1.4-0.7-2-0.2l-0.2,0.2l4.7,7c0.1,0.1,0.1,0.3-0.1,0.4
								c0,0-0.1,0-0.2,0c-0.1,0-0.2,0-0.2-0.1l-4.7-6.9l-1,0.9l4.5,6.7c0.1,0.1,0.1,0.3-0.1,0.4c0,0-0.1,0-0.2,0
								c-0.1,0-0.2,0-0.2-0.1l-4.5-6.6l-1,0.9l4.3,6.4c0.1,0.1,0.1,0.3-0.1,0.4c0,0-0.1,0-0.2,0c-0.1,0-0.2,0-0.2-0.1l-4.3-6.3
								l-0.4,0.4c-0.4,0.4-0.5,1-0.3,1.6l3.6,7.1l-0.9,2.4c-0.8,2-0.3,4.3,1.3,5.8l13.6,14.1l-23.6-10.1c-0.1,3-0.4,6-0.9,9
								c-0.5,3-3,6-3.8,10.1l32.8,7.5l13.4-9.6c4.2-3,4.2-9.3,0-12.3L238.9,663.7z"/>
						</g>
					</g>
				</g>
				<g>
					<g>
						<g>
							<g>
								<polygon class="st18" points="210.2,718.2 201,723.3 210.7,731.5 239.1,731.5 								"/>
							</g>
						</g>
					</g>
				</g>
				<g>
					<g>
						<g>
							<g>
								<path class="st12" d="M137.1,702.5l-27.2,46l-0.9,0c-4.1,0.2-8.1,1.2-11.7,3.1l-0.8,0.4c-1.1,0.6-1.9,1.8-1.9,3.1v0.4h22.5
									c2.4,0,4.7-1.2,6.1-3.2l29.6-40.9C149.1,707.5,141.1,705.3,137.1,702.5z"/>
							</g>
						</g>
					</g>
				</g>
				<g>
					<g>
						<g>
							<g>
								<path class="st14" d="M222.1,688.8c-0.7,3.2-1.8,6.7-4.3,8.8l-1.1-0.3l-8.1-2l1.5,22.9l-42.7,22.6l-0.3,0.2l-0.4,0.2l0,0
									c-6.1-12.2-7.8-29.4-8.3-36.5c-0.8,1.2-1.7,2.5-2.6,3.6c-0.9,1.1-1.8,2.3-2.7,3.3c-0.1,0.1-0.2,0.2-0.4,0.4
									c-0.3,0.4-0.6,0.7-1,0.9c-0.2,0.1-0.4,0.2-0.7,0.2c-0.6,0.1-1.1,0-1.6-0.3l0.2-0.2c-3.9-0.8-8.8-5.9-11.1-7.6
									c-0.7-0.5-1.5-1.1-1.8-2c-0.1-0.2-0.1-0.4-0.1-0.6c-0.1-1,0.5-1.8,1-2.6c4.5-6.6,7.5-14.5,13.1-20.2
									c5.7-5.8,11-10.6,19-12.9l5.5-1.6c8.5-2.4,17.6-1.9,25.8,1.6l20.5,8.8l1,0.4c0,0,0,0,0,0.1
									C223.1,680.4,222.9,684.8,222.1,688.8z"/>
							</g>
						</g>
					</g>
				</g>
				<g>
					<g>
						<g>
							<g>
								<path class="st5" d="M239.1,731.5c6.1-12.9,12.8-21.8,16.5-21.8c3.9,0,9.3,9.1,13.8,21.8h27.4l-17.6-36.8
									c-7.3-15.2-27.4-18.8-39.5-7l-29.6,30.5l3.4,12.9L239.1,731.5z"/>
							</g>
						</g>
					</g>
				</g>
				<g>
					<g>
						<g>
							<g>
								<path class="st18" d="M321,756.3H180.2c-5.6-1.6-9.7-7.4-12.8-13.3c-0.2-0.4-0.4-0.8-0.6-1.3l0,0l0.4-0.2l0.3-0.2l33.6-18.1
									l9.7,8.4H290c5.6,0,20.7-2.3,27.7-0.2c1,0.3,1.8,0.7,2.5,1.2c1.3,1,1.4,2.8,1.5,4.5C321.8,743.1,321.6,750.4,321,756.3z"/>
							</g>
						</g>
					</g>
				</g>
				<g>
					<g>
						<g>
							<g>
								<g>
									<path class="st81" d="M111.2,752.2c-3.3,0.4-6.6,1.6-9.4,3.4h-0.8c3-2.1,6.5-3.5,10.1-3.9L111.2,752.2z"/>
								</g>
							</g>
						</g>
					</g>
				</g>
				<g>
					<g>
						<g>
							<g>
								<path class="st5" d="M167.1,741c-2.2-13-4-26.1-5.2-39.2c-1.1,1.7-2.2,3.4-3.4,5c0.6,8,2.5,23.2,8.1,34.4l0,0
									c0.2,0.4,0.4,0.8,0.6,1.2C167.3,742,167.2,741.5,167.1,741z"/>
							</g>
						</g>
					</g>
				</g>
				<g>
					<g>
						<g>
							<path class="st8" d="M175.1,651.8c-0.1-1.1-0.2-2.2,0-3.3c0.2-1.1,0.7-2.2,1.7-2.8c0.8-0.6,1.9-0.8,2.9-1
								c1.8-0.5,3.4-1.4,5.2-2c1.7-0.6,3.7-0.9,5.4-0.1c1.6,0.7,2.7,2.3,3,4c0.3,1.7-0.2,3.4-1.2,4.9c-0.7,1-1.6,1.8-2.2,2.7
								c-0.6,0.8-0.9,1.8-1.4,2.7c-1,1.8-2.5,3.4-4.5,4.1c-1.8,0.7-5.2,0.7-6.9-0.6C174.8,658.6,175.3,654.3,175.1,651.8z"/>
						</g>
					</g>
				</g>
				<g>
					<g>
						<g>
							<path class="st12" d="M188.4,657.7v9.8c0,2.7-2.3,4.9-5.1,4.9c-2.8,0-5-2.2-5-4.9v-9.8c0-2.1,1.4-3.9,3.3-4.6
								c0.5-0.2,1.2-0.3,1.8-0.3c1.4,0,2.6,0.6,3.6,1.4C187.8,655.1,188.4,656.4,188.4,657.7z"/>
						</g>
					</g>
				</g>
				<g>
					<g>
						<g>
							<path class="st8" d="M188.4,660.1v3.5c-3.1-1.1-5.5-3.5-6.5-6.6c-0.2-0.5-0.3-1-0.4-1.5c0.5-0.2,1.2-0.3,1.8-0.3
								c1.4,0,2.6,0.6,3.6,1.4C187.8,657.5,188.4,658.8,188.4,660.1z"/>
						</g>
					</g>
				</g>
				<g>
					<g>
						<g>
							<path class="st12" d="M192.4,651.7v3.8c0,3.6-3,6.6-6.7,6.6h0c-3.7,0-6.7-3-6.7-6.6v-3.8c0-3.6,3-6.6,6.7-6.6h0
								c1.9,0,3.6,0.8,4.8,2c0.8,0.8,1.4,1.8,1.7,2.9C192.3,650.6,192.4,651.1,192.4,651.7z"/>
						</g>
					</g>
				</g>
				<g>
					<g>
						<g>
							<path class="st8" d="M180.9,658.4c-1.4,0.8-3.1,0.3-3.9-1c-0.8-1.3-0.3-3.1,1.1-3.8c1.4-0.8,3.1-0.3,3.9,1
								C182.7,656,182.2,657.7,180.9,658.4z"/>
						</g>
					</g>
				</g>
				<g>
					<g>
						<g>
							<path class="st8" d="M192.5,650c-0.3-1.1-0.9-2.2-1.7-3c-1.3-1.3-3.1-2.1-5.1-2.1c-3.9,0-7,3.1-7,6.8v3.8l0.3,0
								c2.4-0.2,4.5-1.8,5.4-4l0.5-1.3l2.6,0.4c1.5,0.2,3,0.2,4.5-0.2l0.5-0.1L192.5,650z"/>
						</g>
					</g>
				</g>
				<g>
					<g>
						<g>
							<path class="st12" d="M181.5,658.2c-1.4,0.8-3.1,0.3-3.9-1c-0.8-1.3-0.3-3.1,1.1-3.8c1.4-0.8,3.1-0.3,3.9,1
								C183.4,655.7,182.9,657.4,181.5,658.2z"/>
						</g>
					</g>
				</g>
				<g>
					<g>
						<g>
							<g>
								<rect x="90.6" y="755.8" class="st4" width="138.5" height="0.7"/>
							</g>
						</g>
					</g>
				</g>
			</g>
			<g>
				<g>
					<g id="XMLID_946_">
						<g>
							<g>
								<path class="st40" d="M445.2,749.8c3-2.3,7.7-6,7.7-6.1l-0.8-6.6c4.4,0,8.8-0.1,13.1-0.1l0,11.7c0,1,0,2,0,3.1
									c0,0.9,0,1.9,0,2.7h-22.5c0-1,0.3-1.9,0.7-2.7C443.9,751.1,444.5,750.4,445.2,749.8z"/>
							</g>
						</g>
						<g>
							<g>
								<path class="st5" d="M441.7,755.4H466c0-0.8,0-1.6,0-2.5h-23.5C442,753.6,441.8,754.5,441.7,755.4z"/>
							</g>
						</g>
					</g>
				</g>
				<g>
					<g>
						<g>
							<g>
								<path class="st40" d="M499.2,745.9c1.3-1,2.2-1.7,2.2-1.7l-1.6-13.6h14l0,18.6c0,1,0,2,0,3.1c0,0.9,0,1.9,0,2.7h-18.4
									C495.9,751.6,496.8,748.4,499.2,745.9z"/>
							</g>
						</g>
					</g>
					<g>
						<g>
							<g>
								<path class="st5" d="M495.6,753.2h18.8c0,0.9,0,1.7,0,2.5h-19.3C495.3,754.9,495.4,754.1,495.6,753.2z"/>
							</g>
						</g>
					</g>
				</g>
				<g>
					<g>
						<g>
							<path class="st11" d="M449,740.5h25.9l7.7-126.4l11.5,126.4h25l-11.9-134.7l-7.8-21.8l-0.5-1.5l-1.2-3.3h-33l-3.7,8l0,0
								c-4.6,9.8-7.1,20.3-7.5,31.1L449,740.5z"/>
						</g>
					</g>
				</g>
				<g>
					<g>
						<g>
							<path class="st5" d="M484.7,526.8L484.7,526.8c2.2,0,4-1.8,4-4v-3h-4V526.8z"/>
						</g>
					</g>
				</g>
				<g>
					<g>
						<g>
							<path class="st12" d="M478.9,532.9v-8.3l4-0.9l2.2-0.5l0.9,9.4c0.2,1.7-1.1,3.2-2.8,3.2l-0.5,0h-0.8
								C480.2,535.9,478.9,534.5,478.9,532.9z"/>
						</g>
					</g>
				</g>
				<g>
					<g>
						<g>
							<path class="st5" d="M484.2,523.7v1c0,0.7-0.1,1.4-0.3,2c-0.7,2.3-2.6,4-5,4.5v-6.6l4-0.9H484.2z"/>
						</g>
					</g>
				</g>
				<g>
					<g>
						<g>
							<path class="st12" d="M486.2,519.8c0,0.6-0.1,1.3-0.3,1.9l-0.7,2.5l-0.1,0.3c-0.6,2.2-2.6,3.8-4.6,4.6
								c-2.3,0.9-5.1,0.2-6.5-1.9c-0.6-0.8-1-1.7-1.3-2.6c-0.6-1.9-0.5-3.9,0.1-5.9l0.2-0.8c0-0.1,0.1-0.2,0.1-0.3
								c1.2-3.4,4.9-5.3,8.3-4.3C484.2,514.2,486.2,516.9,486.2,519.8z"/>
						</g>
					</g>
				</g>
				<g>
					<g>
						<g>
							<polygon class="st5" points="475,523 476.8,523 476.8,522.5 475.5,522.5 475.5,518.9 475,518.9 							"/>
						</g>
					</g>
				</g>
				<g>
					<g>
						<g>
							<path class="st5" d="M477.7,524.6c0.3,0,0.5-0.1,0.7-0.2c0.4-0.2,0.6-0.7,0.6-1.1l-0.5,0c0,0.3-0.1,0.5-0.3,0.7
								c-0.3,0.2-0.7,0.2-1.2-0.1l-0.3,0.4C477,524.4,477.4,524.6,477.7,524.6z"/>
						</g>
					</g>
				</g>
				<g>
					<g>
						<g>
							<path class="st5" d="M473.3,520.2L473.3,520.2c-0.2,0-0.4-0.2-0.4-0.4l0,0c0-0.2,0.2-0.4,0.4-0.4l0,0c0.2,0,0.4,0.2,0.4,0.4
								l0,0C473.7,520,473.5,520.2,473.3,520.2z"/>
						</g>
					</g>
				</g>
				<g>
					<g>
						<g>
							<path class="st5" d="M478.7,520.2L478.7,520.2c-0.2,0-0.4-0.2-0.4-0.4l0,0c0-0.2,0.2-0.4,0.4-0.4l0,0c0.2,0,0.4,0.2,0.4,0.4
								l0,0C479.1,520,478.9,520.2,478.7,520.2z"/>
						</g>
					</g>
				</g>
				<g>
					<g>
						<g>
							<path class="st5" d="M473,517.6c0.8-2.3,2.7-3.9,5-4.4l5.4-0.2c3,0,5.3,2.4,5.3,5.3v2.9l-2.5-1.4c0,0.5-0.1,0.9-0.2,1.4
								c-0.6,0-1.1,0.2-1.6,0.5c-0.5,0.3-0.7,0.6-1,1c-0.1-0.1-0.2-0.3-0.3-0.4c-0.6-1-0.8-2.2-0.9-3.4c-0.1-0.5-0.1-1-0.4-1.4
								c-0.7-0.9-2.2-0.2-3.3-0.6c-0.9-0.3-1.4-1.3-1.2-2.2C476.8,516,474.7,517.3,473,517.6z"/>
						</g>
					</g>
				</g>
				<g>
					<g>
						<g>
							<circle class="st5" cx="485.5" cy="522.7" r="2.7"/>
						</g>
					</g>
				</g>
				<g>
					<g>
						<g>
							<circle class="st12" cx="485.1" cy="522" r="2.7"/>
						</g>
					</g>
				</g>
				<g>
					<g>
						<g>
							<path class="st8" d="M487.3,517.6c1.5,0.7,4.4-0.2,5.5-1.5c0.3-0.3,0.5-0.8,0.6-1.2c0.7-2.3,0.1-5-1.6-6.8
								c-1.7-1.7-4.4-2.4-6.8-1.7c-1.1,0.4-2.2,1-2.9,2c-1.1,1.6-0.9,3.8,0.3,5.4c1.1,1.5,3,2.4,5,2.5
								C488.5,516.4,486.3,517.3,487.3,517.6L487.3,517.6z"/>
						</g>
					</g>
				</g>
				<g>
					<g>
						<g>
							<path class="st5" d="M460.9,587.2c12.3,3.2,28.6,1.4,38.5-3.2c0.4-0.2,0.9-0.4,1.3-0.6c0.3-0.1,0.5-0.3,0.7-0.4
								c-0.1-0.2-0.4-0.3-1-0.3c-0.4-0.1-1-0.1-1.6-0.1c-0.6,0-1.3,0-1.9-0.1c-0.9,0.4-3.9-1.4-6.9-3.3h-25.3L460.9,587.2z"/>
						</g>
					</g>
				</g>
				<g>
					<g>
						<g>
							<path class="st12" d="M430.8,476.7c0.1-0.8,0-1.7-0.1-2.5c-0.2-1.1-0.6-2.3-0.9-3.4c-0.2-0.5-0.1-1.4-0.6-1.6
								c-0.2-0.1-0.4-0.1-0.6,0.1c-0.6,0.5-0.3,1.8-0.3,2.4c0,0.5,0,1.1,0,1.7c-0.1,0.4-0.1,0.7-0.1,1.1c-0.1,0-0.2-0.1-0.4-0.2
								c-1-0.7-2-1.7-2.9-2.6c-1.9-1.7-3.8-3.3-5.6-5c-0.2-0.2-0.5-0.3-0.8-0.3c-0.1,0-0.2,0.1-0.1,0.2l4,4c0.1,0.1,0.1,0.2,0,0.3
								c0,0-0.1,0.1-0.1,0.1c-0.1,0-0.1,0-0.1-0.1l-4.1-4.1c-0.2-0.2-0.4-0.2-0.6,0l0,0l0.2-0.1c-0.2,0.2-0.3,0.6,0,0.8l3.7,3.9
								c0.1,0.1,0.1,0.2,0,0.3c0,0-0.1,0.1-0.1,0.1c-0.1,0-0.1,0-0.1-0.1l-3.8-4c-0.1-0.1-0.4-0.1-0.5,0c0,0,0,0,0,0
								c-0.1,0.2-0.1,0.4,0,0.5l3.6,4.2c0.1,0.1,0.1,0.2,0,0.3c0,0-0.1,0-0.1,0c-0.1,0-0.1,0-0.2-0.1l-3.5-4.1c-0.2,0.1,0,0-0.2,0.1
								c0,0.6,0.4,1.1,0.7,1.5c1.8,2.5,3.6,5.1,5.5,7.6c0.5,0.7,1,1.4,1.3,2.2c0.1,0.2,0.2,0.5,0.2,0.7c0,0.2,0,0.3,0,0.5
								c0,0.8-0.1,9.7-0.5,9.7l0.4,0.1c0.1,0.1,0.2,0.3,0.3,0.4c0.2,0.1,0.3,0.2,0.5,0.2c0.5,0.1,1.1,0.2,1.7,0.3
								c0.8,0.1,1.7,0.1,2.4-0.2c0.6,0,1.1-0.1,1.4-0.5c0.2-0.3,0.2-0.6,0.2-1c0.2-3.5,0.2-7.1,0.1-10.6c0,0,0-0.1,0-0.1
								c0-0.5,0.1-1.1,0.3-1.6C430.7,477.5,430.7,477,430.8,476.7z"/>
						</g>
					</g>
				</g>
				<g>
					<g>
						<g>
							<path class="st14" d="M422.4,490.4c1.4-3.4,3.9-4.8,8-2.7c0,0,0.9,5.2,1.4,7.9c1.3,6.8,0.7,22.6,6.3,27.8
								c1,0.9,2.3,1.6,3.6,2.1c3.3,1.4,6.7,2.5,10.2,3.4c11.6,2.9,23.3,5.5,35.3,6.6c10.7,1,20.1-3.5,28.7,4.6
								c11.6,10.8,25,27.7,16.8,44c-2.3,4.6-5.8,8.6-9.6,12c-3.6,3.2-7.6,6.1-11.8,8.4c-0.9,0.5-2.1,1-2.9,0.3
								c-0.4-0.3-0.6-0.9-0.8-1.4c-2.5-7.1-1.9-7.5,3.5-12.3c3.8-3.4,7.6-7.3,7.9-12.7c0.2-5.1-3-9.5-6.1-13.5
								c-1-1.4-2.1-2.7-3.1-4.1c-1.9,5.8-1.9,12.3-5.1,17.7c-0.9,1.5-2.2,3-3.9,3.6c-1,0.3-2,0.3-3,0.4c-9.9,0.2-16.5,0.6-26.1-1.6
								c-2.3-0.6-8.8-3.4-10.7-4.8c-4.7-3.7-3.8-9.5-5.5-14.5c-1.7-4.9-0.7-7.8-4.4-11.5c-7.9-7.6-24.2-13.9-28.6-24.4
								c-1.9-4.6-1.8-9.6-1.7-14.5C420.6,509.2,419.9,496.5,422.4,490.4z"/>
						</g>
					</g>
				</g>
				<g>
					<g>
						<g>
							<path class="st8" d="M474.9,523.3c1.6,4.1,1.3,7.5,1.5,12.5c0.4,8.5,7,16.4,15.4,18.2c1.9,0.4,3.9,0.5,5.7-0.3
								c1.7-0.8,3-2.2,4-3.8c2.2-3.4,3.5-7.8,2-11.5c-1.7-4.2-6.3-6.4-8.9-10.1c-2.4-3.4-2.9-7.9-5.3-11.3
								c-2.4-3.4-15.9-12.8-19.5-7.3c-1.9,2.9,2.4,8.2,3.8,10.5C474.1,521.4,474.5,522.4,474.9,523.3z"/>
						</g>
					</g>
				</g>
				<g>
					<g>
						<g>
							<g>
								<rect x="429.2" y="756" class="st4" width="97.3" height="0.5"/>
							</g>
						</g>
					</g>
				</g>
			</g>
		</g>
	</g>
</g>
</svg>
