<?xml version="1.0" encoding="utf-8"?>
<!-- Generator: Adobe Illustrator 21.1.0, SVG Export Plug-In . SVG Version: 6.00 Build 0)  -->
<svg version="1.1" xmlns="http://www.w3.org/2000/svg" xmlns:xlink="http://www.w3.org/1999/xlink" x="0px" y="0px"
	 viewBox="0 0 858.1 858.1" style="enable-background:new 0 0 858.1 858.1;" xml:space="preserve">
<style type="text/css">
	.st0{fill:#F4FAFD;}
	.st1{fill:#007AFF;}
	.st2{fill:#505656;}
	.st3{fill:#231F20;}
	.st4{fill:url(#SVGID_1_);}
	.st5{fill:#FFFFFF;}
	.st6{fill:#A9D7F3;}
	.st7{fill:#F8C208;}
	.st8{fill:#7ADCFB;}
	.st9{fill:#2300B1;}
	.st10{fill:#38A0FB;}
	.st11{fill:#E2FBFF;}
	.st12{clip-path:url(#SVGID_3_);}
	.st13{fill:#FFB1DF;}
	.st14{fill:#150077;}
	.st15{fill:#2E7DFB;}
	.st16{fill:#26A4FB;}
	.st17{fill:#F5FBFF;}
	.st18{fill:#E982B4;}
	.st19{fill:#FCFAEB;}
	.st20{fill:url(#SVGID_4_);}
	.st21{clip-path:url(#SVGID_6_);}
	.st22{clip-path:url(#SVGID_8_);}
	.st23{clip-path:url(#SVGID_10_);}
	.st24{fill:#E7F0F8;}
	.st25{fill:#F7C108;}
	.st26{fill:#8769B8;}
	.st27{fill:#D0EDFC;}
	.st28{fill:#F7FAFF;}
	.st29{fill:#B8EBF4;}
	.st30{fill:#8C66B9;}
	.st31{fill:#FF6FCA;}
	.st32{fill:#FF4D76;}
	.st33{fill:#A1DCFF;}
	.st34{fill:#23AFFC;}
	.st35{fill:#F6C50A;}
	.st36{fill:#FFDE17;}
	.st37{fill:#3400B1;}
	.st38{fill:#5AB2F9;}
	.st39{fill:#DBF4F9;}
	.st40{fill:#34ACFC;}
	.st41{fill:#98E3F4;}
	.st42{fill:#F183C1;}
	.st43{fill:#4377FB;}
	.st44{fill:#EE80BE;}
	.st45{opacity:0.53;}
	.st46{fill:#FFDA73;}
</style>
<g id="Layer_1">
</g>
<g id="Layer_2">
	<g>
		<path class="st6" d="M253.2,688.1C62.4,532.5-19.4,409.6,26.6,362.2s195.6-16.8,260.5-113.8S414.1,93,500,102.8
			s364.6,185.2,344.3,375.6S604.9,783.9,527.3,784.3C449.8,784.7,296.5,723.4,253.2,688.1z"/>
		<path class="st6" d="M147.2,242.3c-25.8-6.3-9.2-73,30.4-96.1s96.7-32,115.1-22.4C311.2,133.6,217.2,259.6,147.2,242.3z"/>
	</g>
	<g>
		<g>
			<g id="XMLID_63_">
				<g>
					<g id="XMLID_64_">
						<g>
							<g>
								<g>
									<g>
										<g>
											<g>
												<g>
													<g>
														<g>
															<g>
																<g>
																	<g>
																		<g>
																			<g>
																				<g>
																					<g>
																						<g>
																							<polygon class="st38" points="412.1,715.9 348.1,405.2 289.1,715.9 285.8,715.2 348,390 415.4,715.1 
																																															"/>
																						</g>
																					</g>
																				</g>
																			</g>
																		</g>
																	</g>
																</g>
															</g>
														</g>
													</g>
												</g>
											</g>
										</g>
									</g>
								</g>
							</g>
						</g>
						<g>
							<g>
								<g>
									<g>
										<g>
											<g>
												<g>
													<g>
														<g>
															<g>
																<g>
																	<g>
																		<g>
																			<g>
																				<g>
																					<g>
																						<g>
																							<polygon class="st38" points="567.2,715.9 503.1,405.2 444.1,715.9 440.8,715.2 503,390 570.4,715.1 
																																															"/>
																						</g>
																					</g>
																				</g>
																			</g>
																		</g>
																	</g>
																</g>
															</g>
														</g>
													</g>
												</g>
											</g>
										</g>
									</g>
								</g>
							</g>
						</g>
						<g>
							<g>
								<g>
									<g>
										<g>
											<g>
												<g>
													<g>
														<g>
															<g>
																<g>
																	<g>
																		<g>
																			<g>
																				<g>
																					<g>
																						<polygon class="st39" points="530,468.2 312.7,468.2 363.2,145.5 580.6,145.5 																						"/>
																					</g>
																				</g>
																			</g>
																		</g>
																	</g>
																</g>
															</g>
														</g>
													</g>
												</g>
											</g>
										</g>
									</g>
								</g>
							</g>
						</g>
						<g>
							<g>
								<g>
									<g>
										<g>
											<g>
												<g>
													<g>
														<g>
															<g>
																<g>
																	<g>
																		<g>
																			<g>
																				<g>
																					<g>
																						<rect x="344.7" y="142.2" class="st38" width="252.7" height="15.1"/>
																					</g>
																				</g>
																			</g>
																		</g>
																	</g>
																</g>
															</g>
														</g>
													</g>
												</g>
											</g>
										</g>
									</g>
								</g>
							</g>
						</g>
						<g>
							<g>
								<g>
									<g>
										<g>
											<g>
												<g>
													<g>
														<g>
															<g>
																<g>
																	<g>
																		<g>
																			<g>
																				<g>
																					<g>
																						<rect x="299.2" y="454.7" class="st40" width="252.7" height="15.1"/>
																					</g>
																				</g>
																			</g>
																		</g>
																	</g>
																</g>
															</g>
														</g>
													</g>
												</g>
											</g>
										</g>
									</g>
								</g>
							</g>
						</g>
						<g>
							<g>
								<g>
									<g>
										<g>
											<g>
												<g>
													<g>
														<g>
															<g>
																<g>
																	<g>
																		<g>
																			<g>
																				<g>
																					<g>
																						<rect x="418" y="291.1" class="st41" width="30.3" height="111.1"/>
																					</g>
																				</g>
																			</g>
																		</g>
																	</g>
																</g>
															</g>
														</g>
													</g>
												</g>
											</g>
										</g>
									</g>
								</g>
							</g>
						</g>
						<g>
							<g>
								<g>
									<g>
										<g>
											<g>
												<g>
													<g>
														<g>
															<g>
																<g>
																	<g>
																		<g>
																			<g>
																				<g>
																					<g>
																						<rect x="362.4" y="352.2" class="st40" width="30.3" height="49.9"/>
																					</g>
																				</g>
																			</g>
																		</g>
																	</g>
																</g>
															</g>
														</g>
													</g>
												</g>
											</g>
										</g>
									</g>
								</g>
							</g>
						</g>
						<g>
							<g>
								<g>
									<g>
										<g>
											<g>
												<g>
													<g>
														<g>
															<g>
																<g>
																	<g>
																		<g>
																			<g>
																				<g>
																					<g>
																						<rect x="473.6" y="221.7" class="st42" width="30.3" height="180.5"/>
																					</g>
																				</g>
																			</g>
																		</g>
																	</g>
																</g>
															</g>
														</g>
													</g>
												</g>
											</g>
										</g>
									</g>
								</g>
							</g>
						</g>
					</g>
				</g>
			</g>
			<g id="XMLID_62_">
				<g>
					<g>
						<g>
							<g>
								<g>
									<path class="st26" d="M560.6,482.5c-35,24.1-74.3,43.8-101.6,75.9c-27.2,32.2-38.5,82.6-10.9,114.6
										c26.3,30.5,73.6,30.8,114.6,31.4c76.2,1.1,84.6-1,121.4-13.4s64.5-44.1,86.3-75.4c13.3-19.1,21.3-41.2,27.9-63.3
										c7.5-25.5,13.3-52.1,10.9-78.5c-4.3-46.5-47-98.7-100.4-86.9C654.2,398.9,604.7,452.1,560.6,482.5z"/>
								</g>
							</g>
						</g>
					</g>
				</g>
				<g>
					<g>
						<g>
							<g>
								<g>
									<path class="st43" d="M607.9,542.8c7.3,1.1,29,8.2,32.5-2.7c3.1-9.6-14.9-28-20.7-34c-24.9-25.9-56.6-44.4-89.6-58.4
										c-8.5-3.6-17.5-7-26.7-6c-26.4,2.7-39,50.8-45.6,71.3c-10.6,33-19.8,66.4-27.4,100.2c14.7,8.7,34.2-0.9,44.5-14.7
										c10.2-13.7,14.8-30.9,23.7-45.4c2.3-3.8,5-7.5,8.7-9.9c4.8-3.2,10.7-3.9,16.5-4.4C552.2,536.3,579.8,538.7,607.9,542.8z"/>
								</g>
							</g>
						</g>
					</g>
				</g>
				<g>
					<g>
						<g>
							<g>
								<g>
									<g>
										<path class="st9" d="M432.9,603.9v0.2l-27.7,10.5c-3.7,1.4-6.4,5-7,9.3c-0.1,0.6-0.1,1.2-0.1,1.8v4.7h0v-4.7
											c0-0.6,0-1.2,0.1-1.8h57.3l0,6.6h0l0-6.6l0.1-17.4C448,606,440.5,605.2,432.9,603.9z"/>
									</g>
								</g>
							</g>
						</g>
					</g>
					<g>
						<g>
							<g>
								<g>
									<g>
										<path class="st8" d="M398.3,623.8c-0.1,0.6-0.1,1.2-0.1,1.8v2c0,1.5,1.2,2.7,2.7,2.7h54.7l0-6.6H398.3z"/>
									</g>
								</g>
							</g>
						</g>
					</g>
				</g>
				<g>
					<g>
						<g>
							<g>
								<g>
									<g>
										<path class="st9" d="M428.5,657.9l-15.3,29.4l-26.4,13.4c-3.9,1.1-6.7,4.3-7.5,8.1l58.8-2.4l18.9-47.3L428.5,657.9z"/>
									</g>
								</g>
							</g>
						</g>
					</g>
					<g>
						<g>
							<g>
								<g>
									<g>
										<path class="st8" d="M379,710.6l-0.1,2.8c0,0.8,0.6,1.5,1.5,1.5l55.6-2.3c1,0,1.8-0.8,1.9-1.8l0.2-4.2l-58.8,2.4
											C379.1,709.5,379,710,379,710.6z"/>
									</g>
								</g>
							</g>
						</g>
					</g>
				</g>
				<g>
					<g>
						<g>
							<g>
								<g>
									<g>
										<path class="st44" d="M674.8,380.6c-0.4,0-0.8,0-1.2,0c-35,1.5-55,28.5-67.9,57.7c-22.5,50.6-34.4,65-54.3,83.3
											c0,0,0.3-0.8,0.1-0.7c-0.9,0.7-1.6,1.4-2.4,2.2c-0.8,0.9-1.7,1.7-2.5,2.4c6.7,1.4,13.5,2,20.4,1.9c1.9-3.3,5-5.9,8.8-6.6
											c7.1-1.3,14.1-2.9,20.9-5.4c1.9-0.7,0.9-0.2,2.6-1.1c2.5-1.9,5-3.7,7.5-5.6c0.2-0.4,0.3-0.4,0.2-0.1l0.1-0.1
											c2.5-5.5,7-9.6,12.6-10.2c3.4-3.1,6.6-6.4,9.5-10c3-3.7,7.9-4.9,12.6-4.2c19.8-27.9,37.8-64.5,40.9-98
											c0.1-0.7,0.2-1.3,0.3-2C680.4,382.7,677.7,381.5,674.8,380.6z"/>
									</g>
								</g>
							</g>
						</g>
					</g>
				</g>
				<g>
					<g>
						<g>
							<g>
								<g>
									<path class="st33" d="M680.4,381.9c-0.1,0.7-0.2,1.4-0.3,2.1c-0.3,3.7-0.9,7.3-1.6,10.9c-1.6,1.8-2.9,3.9-3.8,6.2
										c-5.6,14.1-14.1,27.2-21.9,40.2c-2.2,3.6-4.4,7.1-6.7,10.6c-6.3-0.3-12.5-0.7-18.7-1.2c-10.3-0.8-20.5-1.8-30.7-3.2
										c2.5-4.6,5.1-9.2,7.6-14c14.3-26.5,33.9-53.9,66.8-55.4c0.4,0,0.8,0,1.2,0C675.1,379,677.9,380.3,680.4,381.9z"/>
								</g>
							</g>
						</g>
					</g>
				</g>
				<g>
					<g>
						<g>
							<g>
								<g>
									<path class="st40" d="M732.3,517.5c-0.9,2.6-1.9,5.4-3,8.4c-0.2,0.4-0.3,0.8-0.5,1.2c-0.6,1.5-4.8,9.9-7.6,15.6
										c-0.3,0.6-0.6,1.3-0.9,1.8c-0.4,0.7-0.7,1.3-0.9,1.8c-0.4,0.9-0.7,1.5-0.9,1.7c-0.3,0.6-0.6,1.3-1,2.1
										c-1.5,3.5-3.1,8.3-4.8,10.5c-30.6,38.9-98.1,22.9-140.2,26.4c-19.9,1.6-50.5,0.3-50.5,0.3s-35.9,55.1-46,75.6
										c-2.4,4.9-4.9,10-9.3,13.1c-5.4,3.7-12.5,3.7-19,3.3c-11-0.6-22-1.9-32.8-3.6c-1.8-0.3-3.8-0.7-4.7-2.3
										c-0.9-1.4-0.8-3.4-0.1-4.9c14.8-31.6,46.2-89.5,72.5-129.2c1.3-2,2.7-4,4.8-5.2c1.9-1.1,4.1-1.3,6.3-1.5
										c22.6-2.1,45.8-6.4,68.3-6.7c1.5,0,3,0,4.5,0c12-0.1,24,0,36,0.1c6.9,0.1,13.9,0.1,20.8,0.2c2.2,0,4.4,0,6.6,0.1
										c2.7,0,5.4,0.1,8.1,0.1c8.1,0.1,16.2,0.2,24.4,0.2c2.4,0,4.8,0,7.2-0.1c13.1-0.4,26.5-1.9,39.4-1.2l0.4-0.6
										c0.1,0,0.2,0,0.4,0C718.1,525.8,725.8,522.8,732.3,517.5z"/>
								</g>
							</g>
						</g>
					</g>
				</g>
				<g>
					<g>
						<g>
							<g>
								<g>
									<path class="st9" d="M729.3,525.9c-0.2,0.4-0.3,0.8-0.5,1.2c-0.6,1.5-4.8,9.9-7.6,15.6c-0.3,0.6-0.6,1.3-0.9,1.8
										c-0.4,0.7-0.7,1.3-0.9,1.8c-0.4,0.9-0.7,1.5-0.9,1.7c-0.3,0.6-0.6,1.3-1,2.1c-34.7-4.4-79.4-12.2-79.7-23.8
										c10.5,0.1,21,0.1,31.6,0.2c6.3,0,12.6,0.1,18.8,0.1C701.7,526.7,715.5,526.3,729.3,525.9z"/>
								</g>
							</g>
						</g>
					</g>
				</g>
				<g>
					<g>
						<g>
							<g>
								<g>
									<path class="st9" d="M561.8,523.4c-1.5,0.5-3,1.1-4.3,1.7c-0.2,0.1-0.4,0-0.6-0.2c-0.2-0.3-0.5-0.6-0.7-0.9
										c-0.1-0.1-0.1-0.3-0.1-0.5C558.1,523.4,559.9,523.4,561.8,523.4z"/>
								</g>
							</g>
						</g>
					</g>
				</g>
				<g>
					<g>
						<g>
							<g>
								<g>
									<path class="st9" d="M762.1,530.4C762.8,530.2,762.6,531.4,762.1,530.4L762.1,530.4z"/>
								</g>
							</g>
						</g>
					</g>
				</g>
				<g>
					<g>
						<g>
							<g>
								<g>
									<path class="st33" d="M761.9,410.6c-5.2-10.6-13.8-19.2-26.9-24.2c-17.7-6.9-34.7-8.2-53.3-8c-24.7,0.2-45.3,8.6-52.4,33.6
										c-3.8,13.5-1.7,26.4-3.7,40.1c-2.7,18.6-9.7,36.5-20.4,52.1c-14.5,21.2,41.4,32.3,53.3,34.6c13.4,2.6,27.2,4.7,40.5,1.8
										c10.1-2.3,19.3-3.6,27.5-10C755.5,507.9,779.8,447.3,761.9,410.6z"/>
								</g>
							</g>
						</g>
					</g>
				</g>
				<g>
					<g>
						<g>
							<g>
								<g>
									<g>
										<g>
											<path class="st9" d="M670.9,333.4c1.4-4.6,3.6-8.5,8.5-8.7c4.3-0.2,6.4,3.5,10.7,4c3.1,0.4,8.2,0.4,11.1,1.5
												c4.5,1.7,6.3,5.1,7.1,9.7c1,5.5,1.3,11.2,0.9,16.8c-0.2,3-0.8,6.4-3.3,8.1c-3.1,2.2-7.7,0.7-10.3-2
												c-1-1.1-1.9-2.3-2.4-3.7c-0.6-1.6-0.9-3.2-1.5-4.8c-1.1-3-3.5-5.7-6.6-6.3c-4-0.9-10.9,3.9-13.7,0.8
												C668.2,345.3,669.7,337.7,670.9,333.4z"/>
										</g>
									</g>
								</g>
							</g>
						</g>
					</g>
					<g>
						<g>
							<g>
								<g>
									<g>
										<g>
											<path class="st13" d="M673.3,348.5v35.1c0,8.5,7,15.4,15.6,15.4h0c8.6,0,15.5-6.9,15.5-15.4v-35.1
												c0-8.4-7-15.4-15.5-15.4h0C680.3,333.1,673.3,340,673.3,348.5z"/>
										</g>
									</g>
								</g>
							</g>
						</g>
					</g>
					<g>
						<g>
							<g>
								<g>
									<g>
										<g>
											<path class="st9" d="M673.3,363.1v20.4l15.6-9C675.2,373.6,673.5,366,673.3,363.1z"/>
										</g>
									</g>
								</g>
							</g>
						</g>
					</g>
					<g>
						<g>
							<g>
								<g>
									<g>
										<g>
											<path class="st9" d="M696.8,359.1c2.9,1.6,6.5,0.7,8.2-2.2c1.6-2.8,0.7-6.4-2.2-8.1c-2.9-1.6-6.5-0.7-8.2,2.2
												C693,353.9,693.9,357.5,696.8,359.1z"/>
										</g>
									</g>
								</g>
							</g>
						</g>
					</g>
					<g>
						<g>
							<g>
								<g>
									<g>
										<g>
											<path class="st9" d="M673.3,340.5c0,0.1-1.7-1.1-1.7-1.1c8.3,0.7,16.2,1.4,18.5,1.1c1.1,9.8,5.6,9.5,10.3,10.9
												c4.4,1.3,8.9-0.7,8.1-6.1c-0.5-3.1-2.9-7.4-5.3-9.4c-4.1-3.2-9.1-5.6-14.3-6.1c-5.2-0.6-10.7,0.7-14.8,4.1
												C672.4,335.2,672.6,338.5,673.3,340.5z"/>
										</g>
									</g>
								</g>
							</g>
						</g>
					</g>
					<g>
						<g>
							<g>
								<g>
									<g>
										<g>
											<path class="st9" d="M702.1,366L702.1,366c2.9,0,5.3-2.4,5.3-5.2v-3c0-2.9-2.4-5.2-5.2-5.2h-0.1c-2.9,0-5.2,2.4-5.2,5.2
												v3C696.9,363.7,699.3,366,702.1,366z"/>
										</g>
									</g>
								</g>
							</g>
						</g>
					</g>
					<g>
						<g>
							<g>
								<g>
									<g>
										<g>
											<path class="st13" d="M695.4,358.6c2.9,1.6,6.5,0.7,8.2-2.2c1.6-2.8,0.7-6.4-2.2-8.1c-2.9-1.6-6.5-0.7-8.2,2.2
												C691.6,353.3,692.5,357,695.4,358.6z"/>
										</g>
									</g>
								</g>
							</g>
						</g>
					</g>
					<g>
						<g>
							<g>
								<g>
									<g>
										<g>
											<path class="st9" d="M690.1,340.5v5.5c0,1.9,1.5,3.4,3.4,3.4l0,0c1.9,0,3.4-1.5,3.4-3.4v-5.3L690.1,340.5z"/>
										</g>
									</g>
								</g>
							</g>
						</g>
					</g>
				</g>
				<g>
					<g>
						<g>
							<g>
								<g>
									<path class="st13" d="M739.8,452.1c-9.8,0.3-20.4,0.7-30.7-0.4c-20.8,43.9-74,61.5-120.5,55.8c-15.5-1.9-25.2-6-38.4-1
										c-6,4-11.9,8.1-17.5,12.7c-1.1,2.1-1.6,4.5-1.2,6.9c13.9,0.9,26.9-1.5,40.7-2.4c11.5-0.8,23,2.6,34.3,5
										c23.9,5.1,48,6.7,72.7,5.7c37.1-1.5,65.5-24.7,79.7-57.6c0.3-0.7,0.6-1.5,1-2.4c2.3-5.8,4.9-14.1,6.9-23.4
										C757.9,451.3,748.8,451.8,739.8,452.1z"/>
								</g>
							</g>
						</g>
					</g>
				</g>
				<g>
					<g>
						<g>
							<g>
								<g>
									<g>
										<polygon class="st9" points="549.8,523.3 524.5,439.1 460.1,439.1 488.8,529.7 608.2,530.3 606.3,523.3 										"/>
									</g>
								</g>
							</g>
						</g>
					</g>
					<g>
						<g>
							<g>
								<g>
									<g>
										<circle class="st7" cx="504" cy="488.1" r="2.5"/>
									</g>
								</g>
							</g>
						</g>
					</g>
				</g>
				<g>
					<g>
						<g>
							<g>
								<g>
									<g>
										<g>
											<rect x="448.6" y="702.8" class="st16" width="270.6" height="2.2"/>
										</g>
									</g>
								</g>
							</g>
						</g>
					</g>
				</g>
			</g>
		</g>
		<g id="XMLID_61_">
			<g>
				<g>
					<g>
						<g>
							<path class="st8" d="M55.8,322.1c-0.9,2.6-1.8,5.3-1,7.9c0.7,2.2,2.4,4,4.2,5.6c13.3,12,31.3,19.5,49.8,24
								c5.8,1.4,12,2.6,17.8,1.2c5.8-1.4,10.9-6.2,10-11.3c-16.3-8.1-31.8-17.5-46.3-27.9c-5.6-4.1,89.6-81.3,32.2-84.3
								C82.4,235.2,63.7,299.4,55.8,322.1z"/>
						</g>
					</g>
				</g>
			</g>
			<g>
				<g>
					<g>
						<g>
							<rect x="48.5" y="713.8" class="st16" width="252.7" height="1.1"/>
						</g>
					</g>
				</g>
			</g>
			<g>
				<g>
					<g>
						<g>
							<g>
								<g>
									<g>
										<g>
											<g>
												<g>
													<g>
														<g>
															<g>
																<path class="st13" d="M239.2,714.5H186c0-1.9-0.1-3.9-0.1-6c0-2.4,0-4.8,0.1-7l5.8-41.5h32.9l-9.6,30.3
																	c0,0.1,11.1,8.3,18.2,13.5c1.7,1.3,3.1,2.9,4.1,4.7C238.5,710.3,239.1,712.4,239.2,714.5z"/>
															</g>
														</g>
													</g>
												</g>
											</g>
										</g>
									</g>
								</g>
							</g>
						</g>
					</g>
				</g>
			</g>
			<g>
				<g>
					<g>
						<g>
							<g>
								<g>
									<g>
										<g>
											<g>
												<g>
													<g>
														<g>
															<g>
																<path class="st14" d="M241.6,714.5h-57.2c0-2.7-0.1-5.7-0.1-8.8h47.5C237,705.7,241.4,709.5,241.6,714.5
																	L241.6,714.5z"/>
															</g>
														</g>
													</g>
												</g>
											</g>
										</g>
									</g>
								</g>
							</g>
						</g>
					</g>
				</g>
			</g>
			<g>
				<g>
					<g>
						<g>
							<g>
								<g>
									<g>
										<g>
											<g>
												<g>
													<g>
														<g>
															<g>
																<path class="st13" d="M170.2,714.5H117c0-1.9-0.1-3.9-0.1-6c0-2.4,0-4.8,0.1-7l-0.1-41.5h32.9l-3.7,30.3
																	c0,0.1,11.1,8.3,18.2,13.5c1.7,1.3,3.1,2.9,4.1,4.7C169.5,710.3,170.1,712.4,170.2,714.5z"/>
															</g>
														</g>
													</g>
												</g>
											</g>
										</g>
									</g>
								</g>
							</g>
						</g>
					</g>
				</g>
			</g>
			<g>
				<g>
					<g>
						<g>
							<g>
								<g>
									<g>
										<g>
											<g>
												<g>
													<g>
														<g>
															<g>
																<path class="st14" d="M172.5,714.5h-57.2c0-2.7-0.1-5.7-0.1-8.8h47.5C167.9,705.7,172.3,709.5,172.5,714.5
																	L172.5,714.5z"/>
															</g>
														</g>
													</g>
												</g>
											</g>
										</g>
									</g>
								</g>
							</g>
						</g>
					</g>
				</g>
			</g>
			<g>
				<g>
					<g>
						<g>
							<g>
								<g>
									<path class="st31" d="M155.3,620c0.1,7.3-2.2,35.7-3.1,47.1c-0.2,2.8-2.4,5-5.2,5.2c-6.4,0.5-17.7,1.3-23.1,1.1
										c-2.2-0.1-4.5-0.3-6.4-1.3c-6.4-3.4-5.4-32.6-6.3-39.8c-2-16.3-4-32.6-6-48.9c-3.8-31.9-7.5-63.8-11-95.8
										c-2.6-23-5-46-5-69.1c0-6.4,0.2-12.7,0.8-19.1c0.2-2.2,0.4-4.4,0.7-6.6c1-8.8,2.7-17.4,5.4-25.9c0.4-1.2,0.8-2.4,1.2-3.8
										c0.7-2.3,1.5-4.8,2.4-7.3c4-11.6,9.5-24.8,17-32.1c11.2-11,24.6-0.6,27.6,11.5c10.4,41.2,20.8,82.9,22.1,125.3
										c1,35.7-3.2,71.1-6.8,106.5C157.8,584.6,155.2,602.3,155.3,620z"/>
								</g>
							</g>
						</g>
					</g>
				</g>
			</g>
			<g>
				<g>
					<g>
						<g>
							<g>
								<g>
									<path class="st31" d="M126.3,341.6c0.6-3.8,1.3-7.7,1.9-11.5c16-1.3,32-2.6,48-3.9c7.3-0.6,9.8,1.1,16.1,4.1
										c-6.1,15.8,0.6,30.1,5.8,43.3c10.2,25.9,20.4,51.8,30.6,77.7c8.5,21.7,21,47.6,20.4,71.6c-0.1,6.1-1.3,12.3-4.5,17.6
										c-17.2,28-57.8-23.8-69.1-36.7c-20.1-23.1-39.4-47.9-48.9-77.3C117.3,398,121.5,370.4,126.3,341.6z"/>
								</g>
							</g>
						</g>
					</g>
				</g>
			</g>
			<g>
				<g>
					<g>
						<g>
							<g>
								<g>
									<g>
										<g>
											<g>
												<g>
													<g>
														<g>
															<g>
																<path class="st13" d="M300,203.7c0.2-0.6,0.5-1.1,0.9-1.6c0.7-0.8,1.6-1.4,2.4-2.1c2.4-2.1,3.5-5.3,4.5-8.3
																	c0.3-0.8,0.5-1.7,0.5-2.5c-0.3-4.4-7-5-7.3-9.6c-0.3-4.1,5.5-7.1,8.1-9.5c0.4-0.3,0.1-0.9-0.3-0.9l-0.1,0
																	c-0.9,0.1-2.6,1.3-3.3,1.8c-4.8,3.7-9.1,8.6-12.5,13.7c-1,1.5-2,3.1-2.8,4.7c-3.5,6.6-4.3,14.3-6.5,21.2
																	c-0.7,2.2-1.3,4.4-2,6.6c-2.6,8.4-5.2,16.9-7.6,25.4c-1.5,5.3-2.9,15.4-4.3,20.8c-0.5,2.2-1.2,4.5-1.7,6.8
																	c-31.1-2.6-56.8-23.1-86.4-31.8c-5.9-1.7-15.9-4.3-22.3-1.5c-0.6,0.3-1.3,0.6-1.8,1c-4.6,3.3-5.7,11.3-4.3,15.9
																	c1.5,4.9,5.3,9,9.4,12.7c15.6,14.1,36,22.4,56.8,27c17.9,3.9,44.4,9.9,61.8,2c16.5-7.6,15-24.6,15.8-39.3
																	c0.4-7.5,0.4-20,1.1-27.6c0.7-7,0.9-14.1,1.5-21.1C299.5,206.1,299.6,204.9,300,203.7z"/>
															</g>
														</g>
													</g>
												</g>
												<g>
													<g>
														<g>
															<g>
																<path class="st13" d="M271.1,265.7c0.1-0.3,0.1-0.6,0.2-0.9c0,0.2,0,0.4-0.1,0.6
																	C271.2,265.6,271.1,265.6,271.1,265.7z"/>
															</g>
														</g>
													</g>
												</g>
											</g>
										</g>
									</g>
								</g>
							</g>
						</g>
					</g>
				</g>
			</g>
			<g>
				<g>
					<g>
						<g>
							<g>
								<g>
									<g>
										<g>
											<g>
												<g>
													<g>
														<g>
															<g>
																<g>
																	<path class="st8" d="M219.8,294.2l-0.7-0.2c-23.7-5.2-42.9-14.3-57-27.1c-3.5-3.2-7.8-7.6-9.5-12.9
																		c-1.6-5.1-0.2-13.2,4.5-16.5c0.6-0.4,1.2-0.8,1.9-1.1c6.4-2.7,16-0.4,22.7,1.5c11.9,3.5,23.3,9,34.4,14.3
																		c15.1,7.2,30.7,14.7,47.6,17.1c2.1,0.3,4.1-1.1,4.7-3.2l0,0c0.2-0.9,0.5-1.8,0.7-2.8c1.2-5,2.6-15,4.3-20.8
																		c2.3-8.2,4.8-16.3,7.6-25.4l0.2-0.7l0.6,0.4c3.5,2.1,7.2,4.7,10.7,7.2c1.9,1.4,3.9,2.8,5.8,4.1l0.3,0.2l0,0.3
																		c-0.5,4.9-0.6,9.8-0.8,14.6c-0.1,2.7-0.2,10.3-0.3,13c-0.1,1.7-0.2,3.5-0.2,5.3c-0.5,13.6-1,27.7-15.9,34.5
																		C263.9,303.9,237.4,298,219.8,294.2z"/>
																</g>
															</g>
														</g>
													</g>
												</g>
											</g>
										</g>
									</g>
								</g>
							</g>
						</g>
					</g>
				</g>
			</g>
			<g>
				<g>
					<g>
						<g>
							<g>
								<g>
									<path class="st8" d="M204.5,288.8c0,7.3-2,14.5-4.3,21.5c-2.7,8.3-5.9,16.5-9.5,24.5c-0.3,0.6-0.5,1.2-1.2,1.5
										c-0.6,0.4-1.5,0.4-2.3,0.4c-25.4,0-46-1.3-70.3-1.6c-5.8-0.1-10.7-3.5-11.4-8c-2.9-18.5-8.1-36.3-2.5-63.9
										c1.3-6.1,1.5-12.6,6-17.7c13.3-15.1,41.9-10.4,58.6-2.7C188.7,252.5,204.5,268.9,204.5,288.8z"/>
								</g>
							</g>
						</g>
					</g>
				</g>
			</g>
			<g class="st45">
				<g>
					<g>
						<g>
							<g>
								<g>
									<path class="st13" d="M150.4,405.4h0.8c8.4,0,15.3-6.8,15.3-15.3V365h-31.3v25.2C135.2,398.6,142,405.4,150.4,405.4z"/>
								</g>
							</g>
						</g>
					</g>
				</g>
			</g>
			<g class="st45">
				<g>
					<g>
						<g>
							<g>
								<g>
									<path class="st13" d="M107.7,364.2l-3.4,23.3c-0.9,6.2-6.9,11-14.3,11.9c0.2-2.2,0.4-4.4,0.7-6.6c1-8.8,2.7-17.4,5.4-25.9
										c0.4-1.2,0.8-2.4,1.2-3.8L107.7,364.2z"/>
								</g>
							</g>
						</g>
					</g>
				</g>
			</g>
			<g>
				<g>
					<g>
						<g>
							<path class="st31" d="M183,660.8c-0.1,2-0.2,3.9-0.3,5.9c-0.2,4.4,3.9,8.3,8.4,7.8c7-0.7,19.6,1.4,25.9-1.3
								c10-4.2,8.7-17.1,11.4-27.6c4.2-16.8,16.5-81.4,20.4-96.4c7.5-28.5-13.6-67.8-39.8-39.7c-13.2,14.1-11.5-12-15.2,6.2
								C187.7,545.9,184.6,629.7,183,660.8z"/>
						</g>
					</g>
				</g>
			</g>
			<g>
				<g>
					<g>
						<g>
							<g>
								<g>
									<g>
										<g>
											<g>
												<g>
													<g>
														<g>
															<g>
																<path class="st14" d="M145.5,226.5l-0.3,0.1c-5.3,1.2-10.6-2.1-11.8-7.4l-1.6-6.8l9.9-2.3L145.5,226.5z"/>
															</g>
														</g>
													</g>
												</g>
											</g>
										</g>
									</g>
								</g>
							</g>
						</g>
					</g>
				</g>
			</g>
			<g>
				<g>
					<g>
						<g>
							<g>
								<g>
									<g>
										<g>
											<g>
												<g>
													<g>
														<g>
															<g>
																<polygon class="st13" points="164.7,244.4 158.6,218.2 148.3,218.4 142.5,218.4 146.3,248.2 146.5,248.5 
																																	"/>
															</g>
														</g>
													</g>
												</g>
											</g>
										</g>
									</g>
								</g>
							</g>
						</g>
					</g>
				</g>
			</g>
			<g>
				<g>
					<g>
						<g>
							<g>
								<g>
									<g>
										<g>
											<g>
												<g>
													<g>
														<g>
															<g>
																<path class="st14" d="M144.3,215.9l0.6,2.4c0.4,1.6,1,3.1,1.8,4.4c3,4.9,8.7,7.9,14.7,7.7l-3.5-15.4l-10.3,0.1
																	L144.3,215.9z"/>
															</g>
														</g>
													</g>
												</g>
											</g>
										</g>
									</g>
								</g>
							</g>
						</g>
					</g>
				</g>
			</g>
			<g>
				<g>
					<g>
						<g>
							<g>
								<g>
									<g>
										<g>
											<g>
												<g>
													<g>
														<g>
															<g>
																<path class="st13" d="M169.9,202.8c0.7,2.3,1.2,4.7,1.8,6.9c0.8,2.7,1.7,5.5,1.5,8.4c-0.3,6.1-5.9,11.6-12,11.7
																	c-8.2,0.2-16.9-4.4-20.9-11.8c-0.6-1.2-1.9-3.8-2.3-5.1c0,0,0-0.1,0-0.1c-2.5-8.3,0.8-17.2,8.5-21.1
																	c5.5-2.8,12.8-2.6,17.8,1.3C167.5,195.5,168.9,199,169.9,202.8z"/>
															</g>
														</g>
													</g>
												</g>
											</g>
										</g>
									</g>
								</g>
							</g>
						</g>
					</g>
				</g>
			</g>
			<g>
				<g>
					<g>
						<g>
							<g>
								<g>
									<g>
										<g>
											<g>
												<g>
													<g>
														<g>
															<g>
																<path class="st14" d="M171.7,194.7c1-0.6,1.9-1.4,2.6-2.3c1.5-2.1,1.8-5.1,0.1-6.9c-2.1-2.1-5.9-1.6-8.7-0.3
																	c-7.9,3.3-16.2,5.4-24.6,7c-7.3,1.7-11.9,8.6-10.3,15.5l1.9,8.3l5.5-4.6c0.3,1.1,0.7,2.1,1.2,3.1
																	c-0.1-0.3,6.3,1,7.2,1.7c4.4-5.3,5.4-13,12.1-16.2c2.9-1.4,6.2-2.2,9.3-3.3C169.2,196,170.5,195.4,171.7,194.7z"/>
															</g>
														</g>
													</g>
												</g>
											</g>
										</g>
									</g>
								</g>
							</g>
						</g>
					</g>
				</g>
			</g>
			<g>
				<g>
					<g>
						<g>
							<g>
								<g>
									<g>
										<g>
											<g>
												<g>
													<g>
														<g>
															<g>
																
																	<ellipse transform="matrix(0.9745 -0.2242 0.2242 0.9745 -45.231 37.0621)" class="st14" cx="140.6" cy="217.7" rx="6.8" ry="6.4"/>
															</g>
														</g>
													</g>
												</g>
											</g>
										</g>
									</g>
								</g>
							</g>
						</g>
					</g>
				</g>
			</g>
			<g>
				<g>
					<g>
						<g>
							<g>
								<g>
									<g>
										<g>
											<g>
												<g>
													<g>
														<g>
															<g>
																
																	<ellipse transform="matrix(0.9745 -0.2242 0.2242 0.9745 -44.7253 37.2994)" class="st13" cx="141.9" cy="215.6" rx="6.8" ry="6.4"/>
															</g>
														</g>
													</g>
												</g>
											</g>
										</g>
									</g>
								</g>
							</g>
						</g>
					</g>
				</g>
			</g>
			<g>
				<g>
					<g>
						<g>
							<g>
								<g>
									<path class="st14" d="M165,204.5c-0.3,1.1-0.5,2.1-0.7,3.2c-2,12.4,11.8,25.4,5.5,37.1c-2.5,4.7-7.9,7.2-10.8,11.7
										c-3.3,4.9-2.6,10.3-2.9,15.9c-0.3,4.9-1.3,8.4-4,12.9c-5.2,8.7-13,15.9-22.4,19.9c-6.9,3-15,4.2-21.7,1
										c-9-4.4-12.8-15.8-10.9-25.6c1.9-9.8,8.3-18.1,15.3-25.2c4.5-4.6,9.7-9.4,10.7-15.7c0.9-5.4-1.3-11.4,1.5-16.1
										c2.2-3.6,5.7-5.4,5.9-9.9c0.2-3.7-1.6-7-0.6-11.2c1-4.1,2.9-8.3,6.3-10.8c6.8-5,16.6-3.8,23.9-1c1.3,0.5,2.7,1.2,3.7,2.2
										c1.8,1.9,2.2,4.7,2,7.3C165.8,201.6,165.4,203,165,204.5z"/>
								</g>
							</g>
						</g>
					</g>
				</g>
			</g>
		</g>
		<g>
			<path class="st34" d="M759.5,237.7c0,6.7-1.3,13.2-3.7,19.1c-2.6,6.6-6.6,12.6-11.6,17.6c-9.4,9.4-22.4,15.2-36.7,15.2
				c-28.6,0-51.9-23.4-51.9-51.9c0-14.3,5.8-27.3,15.2-36.7c6.6-6.6,15.1-11.5,24.4-13.8c3.9-1,8-1.5,12.2-1.5
				c14.3,0,27.3,5.8,36.7,15.2C753.6,210.4,759.5,223.4,759.5,237.7z"/>
		</g>
		<g>
			<path class="st8" d="M759.5,237.7c0,6.7-1.3,13.2-3.7,19.1l-47.1-18.6l-1.2-0.5l-12.2-50.4c3.9-1,8-1.5,12.2-1.5
				c8.2,0,16,1.9,22.9,5.4c5.1,2.5,9.7,5.9,13.7,9.9C753.6,210.4,759.5,223.4,759.5,237.7z"/>
		</g>
		<g>
			<path class="st46" d="M730.5,191.2l-21.8,47l-1.2-0.5l-12.2-50.4c3.9-1,8-1.5,12.2-1.5C715.8,185.8,723.6,187.7,730.5,191.2z"/>
		</g>
	</g>
	<g>
		<circle class="st5" cx="649.7" cy="278" r="4.1"/>
		<circle class="st5" cx="291.1" cy="343.7" r="2.9"/>
		<circle class="st5" cx="185.7" cy="168.6" r="2.7"/>
		<circle class="st5" cx="244.4" cy="148.9" r="6.7"/>
		<circle class="st5" cx="550.4" cy="752" r="7.2"/>
		<circle class="st5" cx="627" cy="322.5" r="5.2"/>
		<circle class="st5" cx="271.6" cy="574" r="2.7"/>
		<circle class="st5" cx="337.2" cy="664.2" r="2.7"/>
		<circle class="st5" cx="786.8" cy="377.2" r="2.7"/>
		<circle class="st5" cx="574.5" cy="737.5" r="2.7"/>
		<circle class="st5" cx="217" cy="355.3" r="2.7"/>
		<circle class="st5" cx="607.5" cy="320.6" r="2.7"/>
		<path class="st5" d="M267.4,423.5L267.4,423.5c-9.5-2.4-17-9.9-19.4-19.4h0c-2.4,9.5-9.9,17-19.4,19.4v0c9.5,2.4,17,9.9,19.4,19.4
			h0C250.4,433.3,257.9,425.8,267.4,423.5z"/>
		<path class="st5" d="M500.2,730.8L500.2,730.8c-4.3-1.1-7.6-4.4-8.7-8.7h0c-1.1,4.3-4.4,7.6-8.7,8.7v0c4.3,1.1,7.6,4.4,8.7,8.7h0
			C492.6,735.2,495.9,731.8,500.2,730.8z"/>
		<path class="st5" d="M216.9,194.4L216.9,194.4c-4-1-7.1-4.1-8.1-8.1h0c-1,4-4.1,7.1-8.1,8.1v0c4,1,7.1,4.1,8.1,8.1h0
			C209.7,198.6,212.9,195.4,216.9,194.4z"/>
		<path class="st5" d="M278.5,628.8L278.5,628.8c-4.3-1.1-7.6-4.4-8.7-8.7h0c-1.1,4.3-4.4,7.6-8.7,8.7v0c4.3,1.1,7.6,4.4,8.7,8.7h0
			C270.9,633.3,274.3,629.9,278.5,628.8z"/>
		<path class="st5" d="M59,425.3L59,425.3c-4.3-1.1-7.6-4.4-8.7-8.7h0c-1.1,4.3-4.4,7.6-8.7,8.7v0c4.3,1.1,7.6,4.4,8.7,8.7h0
			C51.4,429.7,54.8,426.4,59,425.3z"/>
	</g>
</g>
</svg>
