<?xml version="1.0" encoding="utf-8"?>
<!-- Generator: Adobe Illustrator 21.1.0, SVG Export Plug-In . SVG Version: 6.00 Build 0)  -->
<svg version="1.1" xmlns="http://www.w3.org/2000/svg" xmlns:xlink="http://www.w3.org/1999/xlink" x="0px" y="0px"
	 viewBox="0 0 858.1 858.1" style="enable-background:new 0 0 858.1 858.1;" xml:space="preserve">
<style type="text/css">
	.st0{fill:#A9D7F3;}
	.st1{fill:#FFFFFF;}
	.st2{fill:#E7F0F8;}
	.st3{fill:#F7C108;}
	.st4{fill:#26A4FB;}
	.st5{fill:#2300B1;}
	.st6{fill:#8769B8;}
	.st7{fill:#D0EDFC;}
	.st8{fill:#150077;}
	.st9{fill:#F7FAFF;}
	.st10{fill:#B8EBF4;}
	.st11{fill:#7ADCFB;}
	.st12{fill:#F8C208;}
	.st13{fill:#8C66B9;}
	.st14{fill:#FFB1DF;}
	.st15{fill:#FF6FCA;}
	.st16{fill:#FF4D76;}
	.st17{fill:#A1DCFF;}
	.st18{fill:#2E7DFB;}
	.st19{fill:#23AFFC;}
	.st20{fill:#F6C50A;}
	.st21{fill:#FFDE17;}
	.st22{fill:#3400B1;}
	.st23{fill:#5AB2F9;}
	.st24{fill:#DBF4F9;}
	.st25{fill:#34ACFC;}
	.st26{fill:#98E3F4;}
	.st27{fill:#F183C1;}
	.st28{fill:#4377FB;}
	.st29{fill:#EE80BE;}
	.st30{opacity:0.53;}
	.st31{fill:#FFDA73;}
	.st32{fill:#210077;}
	.st33{fill:#38A0FB;}
	.st34{fill:#E8F1F9;}
	.st35{fill:#EEF3FA;}
	.st36{fill:#CCE0FF;}
	.st37{fill:#F2F9FC;}
	.st38{fill:#F955AF;}
	.st39{fill:#FF90C8;}
	.st40{fill:#8869B9;}
	.st41{fill:#FEA700;}
	.st42{clip-path:url(#SVGID_4_);}
	.st43{opacity:0.57;}
	.st44{clip-path:url(#SVGID_6_);}
	.st45{clip-path:url(#SVGID_8_);}
	.st46{fill:#86A2F8;}
	.st47{fill:#FFACEA;}
	.st48{fill:#EF80BF;}
	.st49{fill:#F774BC;}
	.st50{fill:#15203D;}
	.st51{fill:#FFFEFE;}
	.st52{fill:#A2DDFF;}
	.st53{fill:#EBF6FC;}
	.st54{fill:#E2FBFF;}
	.st55{fill:#CAD9FC;}
	.st56{fill:#9DE4F4;}
	.st57{fill:#C4E6FF;}
	.st58{fill:#EBF7FF;}
	.st59{fill:#BDECFD;}
	.st60{fill:#FFB6E4;}
	.st61{fill:#FDC401;}
	.st62{fill:#CCD8FC;}
	.st63{fill:#E58200;}
</style>
<g id="Layer_1">
</g>
<g id="Layer_2">
	<path class="st0" d="M591.8,93.4c122,7.7,191,211.5,216.1,289.2c25.1,77.7,90.5,295.8-73.7,342.1C570.1,770.9,204.9,802.3,34,673.4
		C-106.7,562.7,409.2,81.8,591.8,93.4z"/>
	<g>
		<circle class="st1" cx="343.2" cy="694.7" r="7.2"/>
		<circle class="st1" cx="560.9" cy="205.5" r="7.2"/>
		<circle class="st1" cx="807.8" cy="562.9" r="7.2"/>
		<circle class="st1" cx="91" cy="528.3" r="7.2"/>
		<circle class="st1" cx="361.6" cy="714.1" r="2.7"/>
		<circle class="st1" cx="519.6" cy="233" r="2.7"/>
		<circle class="st1" cx="660.1" cy="173" r="2.7"/>
		<circle class="st1" cx="775.3" cy="522" r="2.7"/>
		<circle class="st1" cx="88.3" cy="585.3" r="2.7"/>
		<path class="st1" d="M97.8,634L97.8,634c-9.5-2.4-17-9.9-19.4-19.4h0c-2.4,9.5-9.9,17-19.4,19.4v0c9.5,2.4,17,9.9,19.4,19.4h0
			C80.8,643.8,88.3,636.4,97.8,634z"/>
		<path class="st1" d="M643.5,244.9L643.5,244.9c-4.3-1.1-7.6-4.4-8.7-8.7h0c-1.1,4.3-4.4,7.6-8.7,8.7v0c4.3,1.1,7.6,4.4,8.7,8.7h0
			C635.9,249.3,639.3,245.9,643.5,244.9z"/>
		<path class="st1" d="M398.5,668.8L398.5,668.8c-4.3-1.1-7.6-4.4-8.7-8.7h0c-1.1,4.3-4.4,7.6-8.7,8.7v0c4.3,1.1,7.6,4.4,8.7,8.7h0
			C390.9,673.3,394.3,669.9,398.5,668.8z"/>
		<path class="st1" d="M59,585.3L59,585.3c-4.3-1.1-7.6-4.4-8.7-8.7h0c-1.1,4.3-4.4,7.6-8.7,8.7v0c4.3,1.1,7.6,4.4,8.7,8.7h0
			C51.4,589.7,54.8,586.4,59,585.3z"/>
		<circle class="st1" cx="562" cy="538.4" r="4.1"/>
		<circle class="st1" cx="589.3" cy="612.9" r="5.2"/>
		<circle class="st1" cx="569.8" cy="611.1" r="2.7"/>
	</g>
	<g>
		<g>
			<g>
				<g>
					<g>
						<g>
							<g>
								<g>
									<g>
										<g>
											<g>
												<g>
													<g>
														<g>
															<g>
																<g>
																	<path class="st62" d="M213.4,242.8c0,0,4.6,10.1,5.2,10.1l8.4-0.4c0.6,0,3.9-10.6,3.9-10.6l4.6-2.1
																		c0,0,10.6,3.9,11,3.5l5.7-6.1c0.4-0.4-4.8-10.2-4.8-10.2l1.7-4.7c0,0,10.4-4.6,10.3-5.1l-0.4-8.3
																		c0-0.6-10.8-3.8-10.8-3.8l-2.2-4.5c0,0,4-10.4,3.6-10.8l-6.3-5.5c-0.4-0.4-10.4,4.8-10.4,4.8l-4.8-1.7
																		c0,0-4.7-10.1-5.2-10.1l-8.4,0.4c-0.6,0-3.9,10.6-3.9,10.6l-4.6,2.1c0,0-10.6-3.9-11-3.5l-5.7,6.1
																		c-0.4,0.4,4.8,10.2,4.8,10.2l-1.7,4.7c0,0-10.3,4.6-10.3,5.1l0.4,8.3c0,0.6,10.8,3.8,10.8,3.8l2.2,4.5
																		c0,0-4,10.4-3.6,10.8l6.3,5.6c0.4,0.4,10.4-4.8,10.4-4.8L213.4,242.8z M220.1,199.1c9-0.4,16.6,6.3,17,15.1
																		c0.4,8.8-6.5,16.3-15.5,16.7c-9,0.4-16.6-6.4-17-15.1C204.2,207.1,211.1,199.6,220.1,199.1z"/>
																</g>
															</g>
														</g>
													</g>
												</g>
											</g>
										</g>
									</g>
								</g>
							</g>
						</g>
					</g>
				</g>
			</g>
			<g>
				<g>
					<g>
						<g>
							<g>
								<g>
									<g>
										<g>
											<g>
												<g>
													<g>
														<g>
															<g>
																<g>
																	<path class="st62" d="M256.8,264.1l-4.7,2.7l3,5.7l4.7-2.7c1.4,1.7,3.1,3.1,5,4.1l-1.5,5.3l6.1,1.8l1.5-5.3
																		c2.2,0.2,4.4-0.1,6.4-0.8l2.5,4.8l5.6-3.2l-2.5-4.8c1.7-1.4,3.1-3.2,4.1-5.2l5.1,1.5l1.8-6.3l-5.1-1.5
																		c0.2-2.3,0-4.5-0.7-6.6l4.7-2.7l-3-5.7l-4.7,2.7c-1.4-1.7-3.1-3.1-5-4.1l1.5-5.3l-6.1-1.8l-1.5,5.3
																		c-2.2-0.2-4.4,0.1-6.4,0.8l-2.5-4.8l-5.6,3.2l2.5,4.8c-1.7,1.4-3.1,3.2-4.1,5.2l-5.1-1.5L251,256l5.1,1.5
																		C255.9,259.7,256.1,262,256.8,264.1z M274.3,252.8c3.2,0.9,5.1,4.4,4.1,7.8c-1,3.3-4.4,5.3-7.6,4.3
																		c-3.2-0.9-5.1-4.4-4.1-7.8C267.6,253.8,271,251.8,274.3,252.8z"/>
																</g>
															</g>
														</g>
													</g>
												</g>
											</g>
										</g>
									</g>
								</g>
							</g>
						</g>
					</g>
				</g>
			</g>
		</g>
		<g id="XMLID_80_">
			<g>
				<g>
					<g>
						<g>
							<g>
								<g>
									<g>
										<g>
											<g>
												<g>
													<path class="st5" d="M127.4,762.3l-2.7,3l-40.3-36.9l3.8-4.1l30.1-33.2l16,14.7l-18.9,20.6l13.4,24.3
														c1.8,3.3,1.6,7.3-0.4,10.3C128.1,761.5,127.8,761.9,127.4,762.3z"/>
												</g>
											</g>
										</g>
									</g>
								</g>
							</g>
						</g>
					</g>
				</g>
				<g>
					<g>
						<g>
							<g>
								<g>
									<g>
										<g>
											<g>
												<g>
													<polygon class="st3" points="136.6,703.2 119.6,721.8 103.7,707.2 120.6,688.5 													"/>
												</g>
											</g>
										</g>
									</g>
								</g>
							</g>
						</g>
					</g>
				</g>
				<g>
					<g>
						<g>
							<g>
								<g>
									<g>
										<g>
											<g>
												<g>
													<path class="st11" d="M127.4,762.3l-2.7,3l-40.3-36.9l3.8-4.1l40.2,36.8C128.1,761.5,127.8,761.9,127.4,762.3z"/>
												</g>
											</g>
										</g>
									</g>
								</g>
							</g>
						</g>
					</g>
				</g>
			</g>
			<g>
				<g>
					<g>
						<g>
							<g>
								<path class="st18" d="M250.2,567c-0.4-4.3-1-8.7-1.6-13c-5.6-37.9-14-75.1-22.1-112.5c-5.6-26-13.4-43.7-42.3-48.9
									c-3.3-0.6-7.2-1.2-11.3-1.6c-0.9-0.1-1.7-0.2-2.6-0.2c-4-0.3-8.2-0.5-12.3-0.4c-16.9,0.4-16.1,8.5-22.9,20.9
									c0.6,2.9,1.3,5.9,2.1,8.8c5.7,21.6,12.8,32.3,22.9,50.5c12.2,21.9,15.9,50.2,27,73.3c4.5,9.3,7.3,19.2,5.7,29.4
									c-2.7,18.2-29.5,36.7-41.1,50.3c-16.7,19.6-32.3,40.1-46.7,61.5c-2.3,3.4-4.7,7.5-3.4,11.4c0.8,2.4,2.9,4.2,4.9,5.8
									c5,4,10,8,14.9,11.9c4.8,3.8,10.5,7.9,16.5,6.5c3.7-0.9,6.6-3.7,9.3-6.4c35.5-36,97.5-78.8,102.9-133.5
									C250.7,576.2,250.6,571.6,250.2,567z"/>
							</g>
						</g>
					</g>
				</g>
			</g>
			<g>
				<g>
					<g>
						<g>
							<g>
								<g>
									<g>
										<g>
											<g>
												<g>
													<path class="st5" d="M209.1,759.8v4h-54.6l0-5.6l-0.2-44.8H176v28l26.3,8.9c3.6,1.2,6.1,4.3,6.7,7.9
														C209,758.7,209.1,759.2,209.1,759.8z"/>
												</g>
											</g>
										</g>
									</g>
								</g>
							</g>
						</g>
					</g>
				</g>
				<g>
					<g>
						<g>
							<g>
								<g>
									<g>
										<g>
											<g>
												<g>
													<polygon class="st3" points="176,708.3 176,733.5 154.4,733.5 154.3,708.3 													"/>
												</g>
											</g>
										</g>
									</g>
								</g>
							</g>
						</g>
					</g>
				</g>
				<g>
					<g>
						<g>
							<g>
								<g>
									<g>
										<g>
											<g>
												<g>
													<path class="st11" d="M209.1,759.8v4h-54.6l0-5.6H209C209,758.7,209.1,759.2,209.1,759.8z"/>
												</g>
											</g>
										</g>
									</g>
								</g>
							</g>
						</g>
					</g>
				</g>
			</g>
			<g>
				<g>
					<g>
						<g>
							<g>
								<g>
									<g>
										<g>
											<g>
												<g>
													<path class="st8" d="M123.8,430c2.3,0.4,4.5,0.7,6.7,1c12.9,1.3,25.9,2,38.7,1.1c2.5-0.2,5.1-0.4,7.6-0.8
														c5.5-0.7,13.9-2,21.6-4.5c-1.5-10.3-8.4-19.5-17.4-24.8c-9.3-5.4-20.6-7-31.3-5.6c-4.9,0.6-9.9,1.9-13.7,5.1
														C130.1,406.4,126.7,421.5,123.8,430z"/>
												</g>
											</g>
										</g>
									</g>
								</g>
							</g>
						</g>
					</g>
				</g>
			</g>
			<g>
				<g>
					<g>
						<g>
							<g>
								<g>
									<g>
										<rect x="50.4" y="764.9" class="st19" width="226.3" height="1.4"/>
									</g>
								</g>
							</g>
						</g>
					</g>
				</g>
			</g>
			<g>
				<g>
					<g>
						<g>
							<g>
								<path class="st19" d="M181.3,467.2c-0.7,1.5-0.7,3.2-0.7,4.9c0,35,1,70.1,2.4,105.1c1.7,43.3,3.8,86.6,4.9,129.9
									c0.1,5.7-0.1,12.2-4.5,15.8c-2.8,2.3-6.7,2.8-10.4,3.2c-7.5,0.8-15.1,1.6-22.6,2.4c-2.5,0.3-5.2,0.5-7.5-0.3
									c-12.4-4.4-11.7-64.3-13.3-76.8c-4-32.3-7.4-64.6-8.5-97.1c-1.3-34.7-10.4-69.8-6.7-104.7c0.5-4.6,1.2-9.2,2.1-13.7
									c3.7-17.5,11.8-34.8,30.4-40c14-4,19.5,0.7,29.2,8.9c8.6,7.3,36.3,15.8,40.3,25.7c0.1,0.4,0.3,0.7,0.4,1.1
									c3.9,13.6-20.5,25.9-30.3,31.3C184.4,464,182.3,465.2,181.3,467.2z"/>
							</g>
						</g>
					</g>
				</g>
			</g>
			<g>
				<g>
					<g>
						<g>
							<g>
								<g>
									<g>
										<g>
											<g>
												<path class="st5" d="M216.7,431.6c-1.3,0.5-2.5,0.9-3.8,1.4c-1.2-0.7-2.8-0.9-4.2,0.3c-15.4,12.9-37.3,16.4-56.4,17.6
													c-11.9,0.7-25.4,1-38-1.3c0.5-4.6,1.2-9.2,2.1-13.7c3.7-17.5,11.8-34.8,30.4-40c14-4,19.5,0.7,29.2,8.9
													c8.6,7.3,36.3,15.8,40.3,25.7C216.5,430.9,216.6,431.2,216.7,431.6z"/>
											</g>
										</g>
									</g>
								</g>
							</g>
						</g>
					</g>
				</g>
			</g>
			<g>
				<g>
					<g>
						<g>
							<g>
								<g>
									
										<ellipse transform="matrix(0.9337 -0.3581 0.3581 0.9337 -119.3601 70.6794)" class="st29" cx="131.2" cy="357.6" rx="4.8" ry="4.8"/>
								</g>
							</g>
						</g>
					</g>
				</g>
			</g>
			<g>
				<g>
					<g>
						<g>
							<g>
								<path class="st15" d="M241.6,373.7c-1.2-15.3-4.2-30.5-12.8-42.9c-0.1-0.2-0.2-0.3-0.3-0.5c-1.1-1.2-2.1-2.3-3.3-3.4
									c-0.2-0.2-1-0.8-1.3-1.1c-0.4-0.2-1-0.7-1.2-0.8c-1.3-0.8-2.7-1.6-4.1-2.2c-0.4-0.2-0.6-0.3-0.7-0.3c-0.1,0-0.2-0.1-0.4-0.1
									c-0.8-0.3-1.6-0.6-2.4-0.8c-1.7-0.5-3.5-1-5.2-1.3c-0.3-0.1-0.7-0.1-1-0.2c-6.1,0.7-12.3,2.1-18.5,2.3
									c-0.5-0.1-1-0.1-1.5-0.2l0.1,0.2c-0.4,0-0.9,0-1.3,0c-21.3-0.5-51.4-9.7-71.7-2.2c-9.8,3.7-16.6,12.8-19.9,22.6
									c-4.4,13.3-6.4,28.7-1.3,40.4c4.3,10,10.3,19.1,15.2,28.8c3.1,6.1,3.9,23.6,8.4,26.8c3,2.2,6.9,2.6,10.6,2.9
									c23.2,2.2,46.8,4.4,69.7,0.3c5.4-0.9,10.8-2.3,15.6-4.9c12.4-6.9,10.7-15.6,14.4-26.7c3.5-10.2,13.2-18.6,12.9-30.1
									C241.3,375.1,242,379.1,241.6,373.7z"/>
							</g>
						</g>
					</g>
				</g>
			</g>
			<g>
				<g>
					<g>
						<g>
							<g>
								<path class="st14" d="M182.1,299.7l-10.9-7.9c-1.8-1.5-3.7-3-6-4.3l-9.7,30.9c-2,6.3,7.6,8.6,18.7,13l3.9,1.3l0.7-1.1
									l4.5-11.6L182.1,299.7z"/>
							</g>
						</g>
					</g>
				</g>
			</g>
			<g>
				<g>
					<g>
						<g>
							<g>
								<g>
									<g>
										<g>
											<g>
												<g>
													<path class="st8" d="M173,305.1c7.8-2.4,15.4-9.1,14.1-18.3c-0.1-1-0.4-2.1-1.1-2.9c-1.2-1.3-3.1-1.4-4.8-1.5
														c-1.8,0-3.6-0.1-5.4-0.1c-7.5-0.2-15.2,1.4-17,10.1c-0.5,2.3-0.4,4.6-0.2,6.8c0.2,1.7-0.1,3.5,0.9,5
														c1.4,2.1,4.1,2.8,6.6,3c1.6,0.1,3.3,0,4.9-0.1C171.2,306.2,171.8,305.5,173,305.1z"/>
												</g>
											</g>
										</g>
									</g>
								</g>
							</g>
						</g>
					</g>
				</g>
			</g>
			<g>
				<g>
					<g>
						<g>
							<g>
								<g>
									<g>
										<g>
											<g>
												<g>
													<path class="st14" d="M161.9,293.9v12.2c0,0.8,0.1,1.6,0.2,2.4c0.1,0.5,0.2,1.1,0.4,1.6c0,0.1,0,0.1,0.1,0.2h0
														c1.7,5.2,6.7,9,12.5,9h1.7c4,0,7.2-3.2,7.2-7.2v-16.8c0-4.7-3.8-8.5-8.5-8.5h-6.3C165.1,286.7,161.9,290,161.9,293.9z"
														/>
												</g>
											</g>
										</g>
									</g>
								</g>
							</g>
						</g>
					</g>
				</g>
			</g>
			<g>
				<g>
					<g>
						<g>
							<g>
								<g>
									<g>
										<g>
											<g>
												<g>
													<path class="st8" d="M175.8,307.7c-0.5-0.1-0.8-0.3-1.2-0.6c-2.2-0.9-4.1-2.6-5-4.9L167,297l-1.1-3.2
														c-0.3-2.4,1.3-4.6,3.8-5c1.3-0.2,2.5,0.1,3.6,0.9l2.3,1.5c2.4,0.8,5,1.3,6.8-0.1c0.7-0.6,1.3-1.4,1.5-2.3
														c-0.1-0.1-0.1-0.3-0.2-0.4c-0.6-1-0.8-2.1-0.8-3.2c-0.6-0.4-1.1-0.8-1.5-1.2l-1.3-0.5c-4-1.5-8.4-1.5-12.4,0l-4.2,1.6
														l-4.6,7.5l2,8.4l4.7,1.8v10.2c0,4.5,3.2,8.6,7.7,9.1c8.4,0.8,10.8-3.5,10.8-8.7v-8.1
														C182.5,307.9,178.4,308.3,175.8,307.7z"/>
												</g>
											</g>
										</g>
									</g>
								</g>
							</g>
						</g>
					</g>
				</g>
			</g>
			<g>
				<g>
					<g>
						<g>
							<g>
								<g>
									<g>
										<g>
											<g>
												<g>
													<path class="st8" d="M164.1,303.3v2c0,1.5-1.2,2.7-2.7,2.7c-1.1,0-2.1-0.5-2.9-1.2v-6.6c0.5-0.4,1.1-0.6,1.8-0.6
														c1,0,2,0.4,2.6,1.1C163.7,301.3,164.1,302.3,164.1,303.3z"/>
												</g>
											</g>
										</g>
									</g>
								</g>
							</g>
						</g>
					</g>
				</g>
			</g>
			<g>
				<g>
					<g>
						<g>
							<g>
								<g>
									<g>
										<g>
											<g>
												<g>
													<path class="st14" d="M165.3,306.8h-3.9c-2.5,0-4.5-2-4.5-4.5v-0.6c0-1.8,1.5-3.3,3.3-3.3h0.9c2.3,0,4.2,1.9,4.2,4.2
														V306.8z"/>
												</g>
											</g>
										</g>
									</g>
								</g>
							</g>
						</g>
					</g>
				</g>
			</g>
			<g>
				<g>
					<g>
						<g>
							<g>
								<g>
									<path class="st8" d="M192,290.6c2.3-1.5,3.8-3.5,3.4-5.8c-0.8-4.8-9.2-5.5-12.7-4c-2.2,1-4.4,2.3-6.8,2.4
										c-1.4,0.1-2.9-0.3-4.3,0c-1.4,0.3-2.8,1.7-2.3,3c0.2,0.5,0.6,0.9,0.9,1.3c3.2,3.1,7.1,5.5,11.5,6
										C184.1,293.9,188.8,292.8,192,290.6z"/>
								</g>
							</g>
						</g>
					</g>
				</g>
			</g>
			<g>
				<g>
					<g>
						<g>
							<g>
								<path class="st14" d="M209,412.1c-6.5-0.3-13,1.5-18.5,5c-13.5-5.2-27.5-7.4-41.5-11.7c-9.8-3-28.2-5.8-34.8-3.3
									c-2.1,0.8-3.7,2.7-5.3,4.3c-5.5,5.9-9.1,14-7.2,20.3c1.3,4.1,4.7,7,8.8,8.5c12.8,4.5,32.2,1.5,46.7,0.7
									c11.8-0.7,33-0.6,42.7-8.3c3.3-2.6,5.8-6.2,9.6-7.8c1.9-0.8,4.5-1.4,5-3.4C215.2,413.8,211.7,412.2,209,412.1z"/>
							</g>
						</g>
					</g>
				</g>
			</g>
			<g>
				<g>
					<g>
						<g>
							<g>
								<g>
									<path class="st14" d="M230.1,381.8c0.1,0.2,0.2,0.4,0.2,0.6c0-0.1-0.1-0.1-0.1-0.2C230.2,382.1,230.1,381.9,230.1,381.8z"
										/>
								</g>
							</g>
						</g>
					</g>
				</g>
				<g>
					<g>
						<g>
							<g>
								<g>
									<path class="st14" d="M236.6,424.3c2.5-13.6-7-39.1-9.4-46.8c-5.8-19.1-14.7-41.8-32.1-54.6c-1.8-1.4-4.8-2.5-6.2-0.8
										c-1.3,1.5,0.1,3.7,1.6,5.1c3.5,3.1,3.9,7.7,5.2,12c2.5,8.3,1.8,17.7,1.7,26.2c-0.2,22.7-6.5,48.9,16.5,63.2
										c4.4,2.7,9.6,5,14.9,4.3C233.4,432.2,235.8,429,236.6,424.3z"/>
								</g>
							</g>
						</g>
					</g>
				</g>
			</g>
			<g>
				<g>
					<g>
						<g>
							<g>
								<path class="st14" d="M91.5,374.3V410c0,14.7,12.1,26.5,27.1,26.5h10.6v-59.2C116.8,375.1,104.2,374.5,91.5,374.3z"/>
							</g>
						</g>
					</g>
				</g>
			</g>
			<g>
				<g>
					<g>
						<g>
							<g>
								<path class="st14" d="M206.8,419.2c-0.1,0.5,0,1.1-0.1,1.6c0.1,0.2,0.1,0.5,0.2,0.8c0,0,0,0,0,0c0.2,0.3,0.5,0.7,0.6,1.1
									c0.8,0.8,1.6,1.6,2.4,2.4c0.1,0.1,0.5,0.4,0.7,0.5c0.2,0.2,0.5,0.4,0.7,0.5c1.1,0.7,2.2,1.4,3.4,2.1
									c2.1,1.2,4.2,2.2,6.4,3.2c0.3,0.1,0.8,0.4,1,0.4c0.7,0.3,1.3,0.5,2,0.8c0,0,0,0,0,0c2.1,0.8,4.4,0.6,6.3-0.7
									c7.1-4.8,11.8-12.8,11.8-21.9v-35.7c-12.7,0.2-25.3,0.8-37.7,3.1v35.9C206.1,414.9,207,417,206.8,419.2z"/>
							</g>
						</g>
					</g>
				</g>
			</g>
			<g>
				<g>
					<g>
						<g>
							<g>
								<path class="st14" d="M204.4,334.8c-0.2-2.6-1.5-5-3-7.2c-4.8-7.1-12.4-13.6-21.8-14.2c-3-0.2-4.9,1.2-5,2.8
									c3.9,2.2,8.3,4.2,11,7.5c0.4,0.5,0.8,1,1.1,1.5c0.9,0.9,1.8,1.9,2.4,3.1c0.7,1.4,1.2,2.8,1.9,4.2c0,0,0.1,0.1,0.1,0.1
									c0.7,1,1.6,1.9,2.7,2.7c0.4,0.3,0.7,0.6,0.9,1c1.2,0.8,2.6,1.4,4,1.8c1.1,0.3,4,1,5,0.4C204.9,337.8,204.5,336,204.4,334.8z
									"/>
							</g>
						</g>
					</g>
				</g>
			</g>
		</g>
		<g id="XMLID_79_">
			<g>
				<g>
					<g>
						<g>
							<g>
								<path class="st12" d="M701.4,360.4c-1.1-1-2.4-1.7-3.7-2.4c-5.5-2.8-12.3-3-18.6-2.2c-6.7,0.8-13.3,2.6-19.5,5.3
									c-8,3.4-15.5,8.3-23.4,12.1c-6.5,3.2-13.2,5.7-20.6,6.2c-15.3,1-15.9-10.8-17.5-23.1c-0.8-6.1-1.4-12.2-1.7-18.4
									c-0.4-9.2-0.6-17.4,3.6-25.7c0.6-1.1,1.1-2.4,0.8-3.6c-0.3-1-2.1-3.5-3.2-3.8v0c0.1-0.2,0.2-0.5,0.2-0.8l2.4-15.3
									c0-0.8-0.7-1.4-1.5-1.4c-0.8,0-1.4,0.7-1.4,1.5l-2.5,12.1c-1.1,0,0.7,0.2-0.4,0.2c-0.6,0-0.3,0.3-4.8,1.3
									c-3.4,0.7-6.4,2-6.6,5.5v0.1c-1.7,15.2-5.6,29.9-6.6,45.3c-0.8,14,0,28.7,7.3,40.7c9.5,15.7,27.1,16.2,43.5,13.9
									c11.5-1.7,22.9-4,33.8-7.6c6.7-2.2,13.3-4.9,19.6-8.3c1-0.5,2.1-1.1,3.3-1.7c3.1-1.5,6.7-3.3,10.2-5.3
									C704.5,378.9,713.6,370.6,701.4,360.4z M597.4,304.7C597.4,304.7,597.4,304.7,597.4,304.7
									C597.4,304.6,597.4,304.6,597.4,304.7C597.4,304.6,597.4,304.7,597.4,304.7z"/>
							</g>
						</g>
					</g>
				</g>
			</g>
			<g>
				<g>
					<g>
						<g>
							<g>
								<g>
									<g>
										<g>
											<path class="st63" d="M585,313.1c-0.6-0.1-1.1-0.6-1.3-1.1c-0.2-0.7-0.2-1.4-0.1-1.9l0.6-5.5l1,0.1l-0.6,5.5
												c-0.1,0.5-0.1,1,0,1.4c0.1,0.3,0.4,0.5,0.6,0.4c0.2-0.1,0.3-0.3,0.5-0.5c1.4-2.1,2.4-4.6,2.9-7.2l1,0.2
												c-0.3,1.8-0.4,4.2,0,5.7c0.1,0.3,0.2,0.4,0.2,0.4c0,0,0.1,0,0.1,0c0.2-0.1,0.5-0.5,0.6-1c0.8-2.6,1.6-5.3,2.2-8l1,0.3
												c-0.6,2.7-1.4,5.5-2.2,8.1c-0.2,0.6-0.6,1.4-1.2,1.7c-0.3,0.2-0.6,0.1-0.9,0c-0.5-0.3-0.7-0.9-0.7-1.1
												c-0.2-0.6-0.3-1.3-0.3-2.1c-0.5,1.3-1.1,2.5-1.9,3.6c-0.2,0.3-0.5,0.8-1,0.9C585.4,313.2,585.2,313.2,585,313.1z"/>
										</g>
									</g>
								</g>
							</g>
						</g>
					</g>
				</g>
			</g>
			<g>
				<g>
					<g>
						<g>
							<g>
								<g>
									<path class="st63" d="M589.3,312.4l0.4-0.7c1.8-2.9,4.6-5,7.8-6.1l0.3,1c-2.7,0.9-5.1,2.7-6.8,4.9c1.8,0,3.7-0.5,5.2-1.5
										l0.5,0.9c-2,1.2-4.4,1.8-6.7,1.6L589.3,312.4z"/>
								</g>
							</g>
						</g>
					</g>
				</g>
			</g>
			<g>
				<g>
					<g>
						<g>
							<g>
								<g>
									<path class="st63" d="M595.2,318.1c-1-1.1-1.5-2.7-1.3-4.3c0.1-1.6,0.9-3.1,2.1-4l0.6,0.8c-0.9,0.8-1.6,2-1.7,3.3
										c-0.1,1.3,0.3,2.6,1.1,3.5L595.2,318.1z"/>
								</g>
							</g>
						</g>
					</g>
				</g>
			</g>
			<g>
				<g>
					<g>
						<g>
							<g>
								<path class="st11" d="M717.4,401.4l-34.1-0.7l-22.3-0.5l-15.2-0.3l-9.5-26.8c7.8-3.8,15.3-8.7,23.4-12.1
									c6.2-2.7,12.8-4.5,19.5-5.3c6.3-0.8,13.1-0.5,18.6,2.2c2.9-1.1,6.1-1,9.4,0.9c1.2,0.7,2.4,1.7,3.6,2.9
									c4.7,4.8,5.9,12.1,6.3,18.8C717.6,387.6,717.7,394.5,717.4,401.4z"/>
							</g>
						</g>
					</g>
				</g>
			</g>
			<g id="New_Symbol_61_4_">
				<g id="New_Symbol_20_7_">
					<g>
						<g>
							<g>
								<g>
									<g>
										<path class="st12" d="M687.8,763.8l-20.4,0.1c0,0-12.9,0.9-23.7,0.4c-10.8-0.5,0.8-6.2,0.8-6.2l3.1-2.2l16.3-11.5
											c-4.4-21.4-17.7-96.5-25.5-132.5c-0.4-1.7-0.6-3.4-0.6-5c-0.3-13.4,9.6-26,22.6-31.4c4.8-2,10.1-3.1,15.3-2.8l3.4,0.2
											L694.5,753l0.3,3.4C695,760.2,691.8,763.7,687.8,763.8z"/>
									</g>
								</g>
							</g>
						</g>
					</g>
					<g>
						<g>
							<g>
								<g>
									<g>
										<path class="st8" d="M687.8,763.8l-20.4,0.1c0,0-12.9,0.9-23.7,0.4c-10.8-0.5,0.8-6.2,0.8-6.2l3.1-2.2l46.9-2.9l0.3,3.4
											C695,760.2,691.8,763.7,687.8,763.8z"/>
									</g>
								</g>
							</g>
						</g>
					</g>
					<g>
						<g>
							<g>
								<g>
									<g>
										<path class="st12" d="M778.2,764.9c-10.8,0.5-20.1-0.4-20.1-0.4l-20.7,0c-4,0-8.2-3.4-8.8-7.2l-0.4-2.5l-0.2-0.9
											l-30.6-177.4l3.4-0.2c5.3-0.3,10.9,0.8,16.2,2.8c14.5,5.4,27.8,17.7,30.9,30.9c0.4,1.6,0.6,3.3,0.7,5
											c1.3,35.4,7.1,109.4,8.1,130.5l15.1,9.2c0,0,2.3,1.3,4.7,3C780.6,760.5,785,764.6,778.2,764.9z"/>
									</g>
								</g>
							</g>
						</g>
					</g>
					<g>
						<g>
							<g>
								<g>
									<g>
										<path class="st8" d="M778.2,764.9c-10.8,0.5-20.1-0.4-20.1-0.4l-20.7,0c-4,0-8.2-3.4-8.8-7.2l-0.4-2.5l48.4,2.9
											C780.6,760.5,785,764.6,778.2,764.9z"/>
									</g>
								</g>
							</g>
						</g>
					</g>
					<g>
						<g>
							<g>
								<g>
									<g>
										<path class="st8" d="M679.5,354.2c-1.8-1.5-3.9-2.6-5.7-4.1c-7.1-5.7-8.4-14-5.2-22.4c2.6-7.2,9.1-13.1,16.6-14.1
											c12.2-1.6,21,7.4,24.2,18.3c2,6.9,3.2,14.6,8.2,19.9c5.5,5.9,14.7,7.5,19.6,13.8c5,6.3,4.4,15.4,8.5,22.3
											c1.7,2.8,4.1,5.2,5.5,8.1c2.9,6.3,0.4,14.2-4.8,18.7s-12.7,5.9-19.5,4.9c-33.2-4.6-27.7-44.9-46.2-64.2
											C680.4,354.9,680,354.5,679.5,354.2z"/>
									</g>
								</g>
							</g>
						</g>
					</g>
					<g>
						<g>
							<g>
								<g>
									<g>
										<path class="st10" d="M711.3,389.3c-2,24.6,6.9,59.5,15.8,69.1c-24.4,1.3-58.6-9.5-83.1-11.3c-1.3-15.8-2.5-32,1.6-47.2
											C656.8,359.2,716.4,326.9,711.3,389.3z"/>
									</g>
								</g>
							</g>
						</g>
					</g>
					<g>
						<g>
							<g>
								<g>
									<g>
										<g>
											<g>
												<g>
													<g>
														<g>
															<g>
																<path class="st12" d="M684,337.4v17.5c0,2,1.6,3.5,3.5,3.5h5.2c1.9,0,3.5-1.6,3.5-3.5l0-4.7l-1.4-9.7l0-0.2
																	l-0.5-5.1l0-0.3l-3.8,0.9h0l-0.4,0.1L684,337.4z"/>
															</g>
														</g>
													</g>
												</g>
											</g>
										</g>
									</g>
								</g>
							</g>
						</g>
						<g>
							<g>
								<g>
									<g>
										<g>
											<g>
												<g>
													<g>
														<g>
															<g>
																<path class="st8" d="M684,339.6v7.8c2.7-1.3,4.8-3.7,5.7-6.6c0.3-0.8,0.4-1.7,0.5-2.7L684,339.6z"/>
															</g>
														</g>
													</g>
												</g>
											</g>
										</g>
									</g>
								</g>
							</g>
						</g>
						<g>
							<g>
								<g>
									<g>
										<g>
											<g>
												<g>
													<g>
														<g>
															<g>
																<path class="st12" d="M695.7,333.6C695.7,333.6,695.7,333.5,695.7,333.6c-6.4-2.9-10.8-8.2-13.2-14.2
																	c-1.2,0.7-2.4,1.5-3.5,2.5c-0.1,0.1-0.2,0.2-0.4,0.3c-0.8,0.7-1.4,1.5-2,2.4c-2.8,4.1-3.7,9.6-1.8,14.2
																	c1.6,4,6.9,5.7,10.8,5.3c2.9-0.3,5.7-1.5,8.2-3.2c0.2-0.3,0.4-0.6,0.6-0.9c0.2-0.3,0.5-0.7,0.7-1
																	c0.4-1.7,0.4-4.2,1-4.9C696.1,334,695.9,333.8,695.7,333.6z"/>
															</g>
														</g>
													</g>
												</g>
											</g>
										</g>
									</g>
								</g>
							</g>
						</g>
						<g>
							<g>
								<g>
									<g>
										<g>
											<g>
												<g>
													<g>
														<g>
															<g>
																<path class="st8" d="M691.8,335.8c-0.1,2,1.2,3.9,3.1,4.5l-0.5-5.1L691.8,335.8L691.8,335.8z"/>
															</g>
														</g>
													</g>
												</g>
											</g>
										</g>
									</g>
								</g>
							</g>
						</g>
						<g>
							<g>
								<g>
									<g>
										<g>
											<g>
												<g>
													<g>
														<g>
															<g>
																
																	<ellipse transform="matrix(0.2372 -0.9715 0.9715 0.2372 204.6207 929.7339)" class="st12" cx="694.3" cy="334.6" rx="4.5" ry="4.5"/>
															</g>
														</g>
													</g>
												</g>
											</g>
										</g>
									</g>
								</g>
							</g>
						</g>
					</g>
					<g>
						<g>
							<g>
								<g>
									<g>
										<path class="st14" d="M695.4,396.8l-0.1-1.2c0.2,0.3,0.5,0.6,0.7,0.8C695.8,396.5,695.6,396.6,695.4,396.8z"/>
									</g>
								</g>
							</g>
						</g>
					</g>
					<g>
						<g>
							<g>
								<g>
									<g>
										<g>
											<path class="st19" d="M758.8,626.2c-0.3-1.1-0.4-2-0.1-2.3c-4.8-28.8-7.6-81.8-12.1-109.7c-2.9-17.8-3.9-35.8-10.9-52.2
												c-4.1-9.8-14.5-18.8-19.5-28.2c-13.8,3.9-26.5,2.6-40.5,1.8c-11-0.6-23.8-1.8-34-7.3c-0.2,1-0.4,2.1-1.3,4.2
												c-10.3,26.5-15.5,53.6-15.4,82.4c0,21.7,4.6,63.7,8.3,85c1.8,10.2,3.4,20.9,5.9,30.9c0.2,1,0.5,1.8,0.9,2.6l-0.1,0
												c0.4,1.8,0.8,3.6,1.2,5.4c1-0.1-1.1,0.3-0.1,0.2c2.5,1.4,8.9,1.6,13.3,1.7c21.4,0.9,43,1,64.2-2.8
												c1.1-0.2,7.1-1.1,14.4-2.5C746.6,633,759.5,629.2,758.8,626.2z"/>
										</g>
									</g>
								</g>
							</g>
						</g>
					</g>
					<g>
						<g>
							<g>
								<g>
									<g>
										<path class="st12" d="M717.4,401.4c-0.6,13.1-2.7,26.1-6.2,38.7c-1.3,4.6-2.8,9.3-5.8,13.1c-4.6,5.9-12,8.7-19.1,11.2
											c-15.6,5.5-35.8,8.6-51.9,16.6c-5.9,6.1-14.1,9-19.9,15.6c-0.8,0.9-1.5,2.7-2.8,3.1c-0.3,0.1-0.7-0.3-0.5-0.6
											c1.8-3.2,4.2-6.6,6.9-8.9c0.2-0.1,0.2-0.4,0-0.6c-0.2-0.2-0.4-0.2-0.6-0.1c-3,2.6-5.6,6.5-7.5,10
											c-0.1,0.1-0.2,0.2-0.4,0.2c-0.3,0-0.5-0.1-0.8-0.2c-0.2-0.1-0.3-0.3-0.2-0.5c1.7-3.5,4.2-7.1,7.6-10.7
											c0.2-0.2,0.2-0.4,0-0.6c-0.2-0.2-0.4-0.2-0.6,0c-3.5,3.7-6.1,7.3-7.8,10.9c-0.1,0.2-0.4,0.3-0.6,0.2
											c-0.1-0.1-0.2-0.2-0.4-0.3c-0.1-0.1-0.2-0.3-0.1-0.5c1.7-4.2,4.2-8.1,7.4-11.5c0.2-0.2,0.2-0.4,0-0.6
											c-0.2-0.2-0.5-0.2-0.6,0c-3,3.2-5.5,6.9-7.2,10.9c-0.1,0.3-0.6,0.3-0.7,0c0,0,0,0,0-0.1c-0.2-0.7,0.2-2.1,0.4-2.7
											c1.4-4.3,3.9-8.5,6.8-12.1c4.4-5.5,10.2-10.8,16.2-14.4c13.7-8.1,28.8-13.7,42.6-21.6c11.4-6.6,13-11.8,12.2-24.6
											c-0.4-6.7-0.6-13.7-0.4-20.6c0.1-3.5,0.3-7,0.6-10.4c0.5-5.6,1.3-11.2,2.4-16.6c1.3-6.4,5.7-13.4,11.5-15.6
											c2.9-1.1,6.1-1,9.4,0.9c1.2,0.7,2.4,1.7,3.6,2.9c4.7,4.8,5.9,12.1,6.3,18.8C717.6,387.6,717.7,394.5,717.4,401.4z"/>
									</g>
								</g>
							</g>
						</g>
					</g>
					<g>
						<g>
							<path class="st10" d="M717.6,380.7c-0.5-6.7-1.6-14.2-6.5-19.2c-1.2-1.2-2.5-2.3-3.7-3c-3.2-1.9-6.6-2.2-9.8-1
								c-6.3,2.5-10.5,10-11.8,16c-1.1,5.2-1.9,10.8-2.4,16.7c-0.3,3.3-0.5,6.8-0.6,10.5l0,0.5l35.1,0.7l0-0.5
								C718.2,394.5,718.1,387.5,717.6,380.7z"/>
						</g>
					</g>
				</g>
			</g>
			<g>
				<g>
					<g>
						<g>
							<g>
								<g>
									<g>
										<rect x="600.6" y="764.6" class="st19" width="207" height="1.7"/>
									</g>
								</g>
							</g>
						</g>
					</g>
				</g>
			</g>
		</g>
		<g>
			<g>
				<g>
					<g>
						<g>
							<polygon class="st18" points="347.9,530.5 411.9,526.5 429.1,766.2 433.3,766.2 415.8,522 344.6,526.4 276.2,766.2 
								280.7,766.2 							"/>
						</g>
					</g>
				</g>
			</g>
			<g>
				<g>
					<g>
						<g>
							<polygon class="st18" points="481.2,562 477.1,562.8 530.3,766.2 534.6,766.2 							"/>
						</g>
					</g>
				</g>
			</g>
		</g>
		<g>
			<g>
				<g>
					<g>
						<g>
							<path class="st18" d="M505.3,583.6H293.1c-3.5,0-11.4-2.7-11-6.1l41.3-280.4c0.4-3.4,3.7-6.3,7.2-6.3l206.6-3.4
								c3.5,0,11.6,6.2,11.2,9.6l-35.9,280.3C512,580.8,508.8,583.6,505.3,583.6z"/>
						</g>
					</g>
				</g>
			</g>
		</g>
		<g>
			<g>
				<g>
					<g>
						<g>
							<path class="st34" d="M499.5,578.3H287.3c-3.5,0-6-2.8-5.6-6.3l35.9-280.3c0.4-3.4,3.7-6.3,7.2-6.3h212.2
								c3.5,0,6,2.8,5.6,6.3l-35.9,280.3C506.2,575.5,503,578.3,499.5,578.3z"/>
						</g>
					</g>
				</g>
			</g>
		</g>
		<g>
			<g>
				<g>
					<g>
						<polygon class="st19" points="503.5,340.3 415.4,340.3 415.1,336 503.2,336 						"/>
					</g>
				</g>
			</g>
		</g>
		<g>
			<g>
				<g>
					<g>
						<g>
							<polygon class="st19" points="508.6,320 362.2,320 361.8,314.7 508.2,314.7 							"/>
						</g>
					</g>
				</g>
			</g>
		</g>
		<g id="XMLID_78_">
			<g>
				<g>
					<g>
						<g>
							<g>
								<polygon class="st19" points="421.1,447.7 418.4,446.9 419.2,442.5 422,443.2 								"/>
							</g>
						</g>
					</g>
				</g>
				<g>
					<g>
						<g>
							<g>
								<path class="st19" d="M410.4,504.1l-2.7-0.7l2.8,0.5L410.4,504.1z M411.9,496l-2.7-0.7l1.5-7.9l2.7,0.7L411.9,496z
									 M414.9,480.1l-2.7-0.7l1.5-7.9l2.7,0.7L414.9,480.1z M418,464.3l-2.7-0.7l1.5-7.9l2.7,0.7L418,464.3z"/>
							</g>
						</g>
					</g>
				</g>
				<g>
					<g>
						<g>
							<g>
								<polygon class="st19" points="408.7,512.9 406,512.2 406.8,507.7 409.5,508.4 								"/>
							</g>
						</g>
					</g>
				</g>
			</g>
			<g>
				<g>
					<g>
						<g>
							<g>
								<polygon class="st19" points="387.4,393.5 384.7,392.8 385.5,388.4 388.3,389.1 								"/>
							</g>
						</g>
					</g>
				</g>
				<g>
					<g>
						<g>
							<g>
								<path class="st19" d="M366.4,504l-2.7-0.7l0.9-4.8l2.7,0.7L366.4,504z M368.8,491.2l-2.7-0.7l1.5-8.1l2.7,0.7L368.8,491.2z
									 M371.9,475l-2.7-0.7l1.5-8.1l2.7,0.7L371.9,475z M375,458.9l-2.7-0.7l1.5-8.1l2.7,0.7L375,458.9z M378,442.7l-2.7-0.7
									l1.5-8.1l2.7,0.7L378,442.7z M381.1,426.6l-2.7-0.7l1.5-8.1l2.7,0.7L381.1,426.6z M384.2,410.4l-2.7-0.7l1.5-8.1l2.7,0.7
									L384.2,410.4z"/>
							</g>
						</g>
					</g>
				</g>
				<g>
					<g>
						<g>
							<g>
								<polygon class="st19" points="364.7,512.9 361.9,512.2 362.8,507.7 365.5,508.4 								"/>
							</g>
						</g>
					</g>
				</g>
			</g>
			<g>
				<g>
					<g>
						<g>
							<g>
								<polygon class="st19" points="478.8,465.3 476.1,464.6 476.9,460.2 479.7,460.9 								"/>
							</g>
						</g>
					</g>
				</g>
				<g>
					<g>
						<g>
							<g>
								<path class="st19" d="M472.7,497.6l-2.7-0.7l1.5-7.9l2.7,0.7L472.7,497.6z M475.7,481.8l-2.7-0.7l1.5-7.9l2.7,0.7
									L475.7,481.8z"/>
							</g>
						</g>
					</g>
				</g>
				<g>
					<g>
						<g>
							<g>
								<polygon class="st19" points="469.8,512.9 467,512.2 467.9,507.7 470.6,508.4 								"/>
							</g>
						</g>
					</g>
				</g>
			</g>
			<g>
				<g>
					<g>
						<g>
							<polygon class="st15" points="477.9,464.3 455.4,425.6 419.7,448.9 387.7,388.3 333.9,430.9 331.2,427.6 388.8,381.8 
								421,442.8 456.6,419.6 479.1,458.3 502.9,441.9 505.5,445.4 							"/>
						</g>
					</g>
				</g>
			</g>
			<g>
				<polygon class="st19" points="490.1,502.3 486.7,504.5 490.3,509.6 319.1,511.1 346,368.1 348.3,371.4 351.7,369.2 345.1,359.8 
					335.2,369 338.2,372.2 341.5,369.1 314,515.4 487.5,513.8 484.3,516.7 487.3,519.9 496.5,511.4 				"/>
			</g>
		</g>
		<g>
			<g>
				<g>
					<g>
						<g>
							<g>
								<rect x="279.8" y="764.6" class="st19" width="303.5" height="1.6"/>
							</g>
						</g>
					</g>
				</g>
			</g>
		</g>
		<g>
			<path class="st12" d="M463.3,183.8c0-18.6-15.1-33.7-33.7-33.7c-18.6,0-33.7,15.1-33.7,33.7c0,7.6,2.6,15.1,7.4,21
				c2.4,3,5.2,5.5,8.4,7.5c1.3,0.8,4.2,1.5,5.1,2.6c1.3,1.5,0.5,19.3,0.7,19.3c0,0,24.3,0,24.3,0c0-5.7-0.3-11.5-0.1-17.1
				c0.1-2.9,4.2-3.8,6.3-5.2c3.1-2.1,5.9-4.6,8.2-7.4C460.8,198.6,463.3,191.3,463.3,183.8z"/>
		</g>
		<g>
			<g>
				<path class="st12" d="M429.6,128.6c-1.2,0-2.2,1-2.2,2.2v7.8c0,1.2,1,2.2,2.2,2.2c1.2,0,2.2-1,2.2-2.2v-7.8
					C431.8,129.5,430.8,128.6,429.6,128.6z"/>
			</g>
			<g>
				<path class="st12" d="M392.5,145.2c-0.4-0.4-1-0.6-1.5-0.6c-0.6,0-1.1,0.2-1.5,0.6c-0.8,0.8-0.8,2.2,0,3.1l5.5,5.5
					c0.4,0.4,1,0.6,1.5,0.6c0.6,0,1.1-0.2,1.5-0.6l0,0c0.8-0.8,0.8-2.2,0-3.1L392.5,145.2z"/>
			</g>
			<g>
				<path class="st12" d="M484.3,183.2h-7.8c-1.2,0-2.2,1-2.2,2.2s1,2.2,2.2,2.2h7.8c1.2,0,2.2-1,2.2-2.2S485.5,183.2,484.3,183.2z"
					/>
			</g>
			<g>
				<path class="st12" d="M382.8,183.2H375c-1.2,0-2.2,1-2.2,2.2s1,2.2,2.2,2.2h7.8c1.2,0,2.2-1,2.2-2.2S384,183.2,382.8,183.2z"/>
			</g>
			<g>
				<path class="st12" d="M466.8,145.2l-5.5,5.5c-0.8,0.8-0.8,2.2,0,3.1l0,0c0.4,0.4,1,0.6,1.5,0.6c0.6,0,1.1-0.2,1.5-0.6l5.5-5.5
					c0.8-0.8,0.8-2.2,0-3.1C469,144.4,467.6,144.4,466.8,145.2z"/>
			</g>
			<g>
				<path class="st12" d="M427.5,130.7v7.8c0,1.2,1,2.2,2.2,2.2c1.2,0,2.2-1,2.2-2.2v-7.8c0-1.2-1-2.2-2.2-2.2
					C428.4,128.6,427.5,129.5,427.5,130.7z"/>
			</g>
			<g>
				<path class="st12" d="M389.5,148.3l5.5,5.5c0.8,0.8,2.2,0.8,3.1,0c0.8-0.8,0.8-2.2,0-3.1l-5.5-5.5c-0.8-0.8-2.2-0.8-3.1,0
					C388.6,146.1,388.6,147.4,389.5,148.3z"/>
			</g>
			<g>
				<path class="st12" d="M461.3,220.1l5.5,5.5c0.8,0.8,2.2,0.8,3.1,0s0.8-2.2,0-3.1l-5.5-5.5c-0.8-0.8-2.2-0.8-3.1,0
					C460.4,217.9,460.4,219.2,461.3,220.1z"/>
			</g>
			<g>
				<path class="st12" d="M392.5,225.6l5.5-5.5c0.8-0.8,0.8-2.2,0-3.1c-0.8-0.8-2.2-0.8-3.1,0l-5.5,5.5c-0.8,0.8-0.8,2.2,0,3.1
					C390.3,226.4,391.7,226.4,392.5,225.6z"/>
			</g>
			<g>
				<path class="st12" d="M464.3,153.8l5.5-5.5c0.8-0.8,0.8-2.2,0-3.1s-2.2-0.8-3.1,0l-5.5,5.5c-0.8,0.8-0.8,2.2,0,3.1
					C462.1,154.6,463.5,154.6,464.3,153.8z"/>
			</g>
		</g>
		<g>
			<path class="st13" d="M442.6,222.1v12.3c0,0.7-0.1,1.4-0.4,2.2c-0.2,0.5-0.4,1-0.7,1.6c-0.6,1.2-1.5,2.4-2.6,3.4
				c-2.1,1.9-4.7,3.3-7.3,3.3h-3.9c-4.9,0-10.1-4.9-10.9-9.3c-0.1-0.4-0.1-0.7-0.1-1.1v-12.3H442.6z"/>
		</g>
		<g>
			<g>
				<path class="st1" d="M407.3,173.5c-0.2,0-0.4,0-0.6-0.1c-1.2-0.3-2-1.6-1.6-2.8c1.8-6.7,9.6-12.6,15.8-14.3
					c1.2-0.3,2.5,0.4,2.8,1.6c0.3,1.2-0.4,2.5-1.6,2.8c-4.9,1.3-11.2,6.2-12.6,11.1C409.2,172.9,408.3,173.5,407.3,173.5z"/>
			</g>
		</g>
	</g>
</g>
</svg>
